<svg width="100" height="73" viewBox="0 0 100 73" fill="none" xmlns="http://www.w3.org/2000/svg"><path fill-rule="evenodd" clip-rule="evenodd" d="m25.432 30.379-1.489-.772s.346-2.07-.083-3.276c-.57-1.604-2.024-1.045-3.059.043-.835.878-1.37 1.715-1.109 2.898.274 1.24 1.672 1.718 2.606 2.36l-1.546 2.156s-1.046 1.38-1.848 2.138c-1.652 1.559-5.325 3.865-6.737 4.725a.054.054 0 0 1-.073-.074c.562-1.046 1.676-1.803 2.353-2.795.688-1.007 1.353-2.126 1.692-3.31.296-1.036.467-2.16 0-3.163-.5-1.076-1.701-1.337-2.795-1.176-2.083.305-3.534 2.674-3.09 4.633.303 1.332 1.193 1.63 1.84 2.648.246.388.316 1.642.661.589.353-1.074.297-1.7-.367-2.575-.405-.532-1.274-1.106-1.324-1.838-.053-.76.756-1.354 1.397-1.545 1.108-.33 2.815-.018 2.722 1.177-.295 3.751-4.781 7.429-6.032 9.93-.05.1 1.009-.324 1.104-.368 1.175-.551 2.677-1.404 2.942-1.545 3.735-1.987 7.907-5.701 10.036-9.406l1.752.574zm-4.48-2.387c-.301.851 1.48 1.16 1.957 1.283.07-.312-.146-1.32-.294-1.591-.148-.272-.276-.398-.587-.34s-.928.225-1.077.648" fill="#000"/><path d="m37.135 70.903 1.709-3.213a.144.144 0 0 0-.034-.18c-1.054-.874-2.91-1.795-3.67-2.202a.15.15 0 0 0-.206.068l-1.497 3.197a.15.15 0 0 0 .054.186l3.435 2.198a.147.147 0 0 0 .21-.054m6.324-.736 1.71-3.213a.144.144 0 0 0-.035-.179c-1.054-.875-2.91-1.795-3.67-2.202a.15.15 0 0 0-.206.067l-1.496 3.198a.15.15 0 0 0 .054.186l3.434 2.198a.147.147 0 0 0 .21-.055m31.372-50.659h-3.604s.148-.55.294-.883c.476-1.085 1.174-1.73 2.207-2.206 1.766-.126 3.797-.266 5.516.294.573.186.847.297 1.103.809-.838 1.672-1.865 3.419-3.383 4.56-1.64 1.234-5.075 1.692-5.075 1.692s-.294 0 .441-.515c.736-.515 5.002-2.079 5.002-3.457a11.7 11.7 0 0 0-2.501-.294m4.146 7.977c-.126.253-18.314 6.84-19.344 7.282-.417.179 0-.589.368-1.103.367-.515 18.093-7.503 19.638-7.65.282-.027-.536 1.219-.662 1.471M77.75 67.314c-.088.182-13.13 5.049-13.867 5.373-.3.132-.005-.423.257-.796.26-.373 12.967-5.523 14.077-5.64.203-.021-.377.88-.466 1.063" fill="#000"/><path fill-rule="evenodd" clip-rule="evenodd" d="M92.327 2.183s2.652 5.607 3.713 9.32c.13.455.227.807.227 1.289 0 .66-1.958-1.043-2.122-1.289 0 0-.24.103-.227.228.177 1.801.723 8.434 1.322 15.994 2.397-.887 4.248-1.52 4.701-1.564.218-.02-.219.715-.488 1.169-.08.135-.145.245-.174.302-.037.075-1.646.7-3.923 1.557.91 11.51 1.896 24.547 1.896 25.885 0 2.286-.02 4.48-.379 6.744-.314 1.982-.606 3.637-1.591 5.456-.479.884-.384-4.919-.328-8.346.014-.84.025-1.539.025-1.96L92.89 30.111c-1.966.731-4.138 1.532-6.135 2.268.088 2.068.141 3.599.141 4.153 0 3.715-1.195 7.91-3.9 10.518-1.181 1.139-3.53 2.28-3.53 2.28.16 2.236-.29 4.08-1.471 5.957-1.618 2.575-2.753 3.773-4.855 5.885-1.912 1.92-3.078 2.927-5.295 4.486q-.511.36-.968.69c-1.82 1.304-3.13 2.243-5.505 2.988l-.103.032c-1.936.608-3.148.988-5.193.777-1.906-.197-3.16-.392-4.633-1.618-1.64-1.365-2.044-2.772-2.501-4.855-.45-2.052-.27-4.729-.074-6.84.09-.96.203-1.494.442-2.427.316-1.242.57-1.925 1.103-3.09a30 30 0 0 1 .588-1.176h.368s-2.05 4.837-1.692 8.017l.058.52c.201 1.872.352 3.267 1.708 4.702 1.431 1.515 2.884 1.732 4.915 2.036l.16.023c3.342.501 5.496-.74 8.167-2.277a70 70 0 0 1 1.836-1.032c5.052-2.714 11.474-9.562 11.253-11.107-.135-.945-.662-1.177-.662-1.177s-2.733.599-4.487.442a27 27 0 0 0-.776-.055c-1.119-.069-2.01-.123-2.975-.901-1.762-1.423-1.783-3.462-1.25-5.664.57-2.353 1.74-4.188 4.119-4.633 1.664-.312 2.756.207 4.192 1.103 1.927 1.201 3.31 4.78 3.31 4.78s3.4-1.406 4.634-3.236c.38-.564.809-1.544.809-1.544l-.396-6.85c-2.322.857-4.06 1.5-4.358 1.628-.417.179 0-.588.368-1.103.107-.15 1.69-.85 3.918-1.772L82.729 6.23s-.399-.757-.454-1.288c-.114-1.092.533-2.059 1.146-2.975.184-.275.365-.546.52-.814 0 0 2.653 5.608 3.714 9.32.13.455.227.807.227 1.289 0 .66-1.958-1.042-2.122-1.288 0 0-.24.102-.227.227.322 3.27.871 13.7 1.165 20.33 1.94-.78 4.086-1.62 6.08-2.38L91.113 7.26s-.399-.758-.454-1.288c-.114-1.092.533-2.06 1.145-2.975.184-.275.365-.546.522-.814M71.799 43.077c-.886-.021-1.89-.046-2.115.81-.118.452-.056.8.221 1.177.617.84 2.495.644 3.52.538q.124-.014.231-.023c.55-.054 1.398-.221 1.398-.221-.722-1.115-1.824-2.246-3.237-2.28z" fill="#000"/><path d="M39.013 17.114c1.104-1.839 10.04-6.38 16.844-9.782C80.885-5.182 85.16-1.46 69.555 16.835c-.085.1-.25.053-.25-.078.012-2.004 1.256-4.305 2.586-5.674C89.273-6.811 46.953 15.288 39.39 20.32c-.085.055-.073.165.008.226.802.6 4.33 3.242 5.5 4.217 1.123.937-.16 1.253-1.381 1.112-.168-.02-.33.283-.197.389 3.076 2.462 14.54 11.747 20.554 18.164 3.108 3.316 1.919 8.92-1.692 12.072-.974.85-1.613 1.344-2.868 1.656-3.455.859-5.706-1.645-6.152-5.002-2.445 2.445-4.954 5.693-8.559 6.278-5.824.946-8.869-2.982-8.754-8.558-.83 5.31-3.712 7.667-7.67 10.906l-.125.102c-5.31 4.344-14.43 11.243-21.845 7.6C-.007 66.43-.839 58.18.62 52.199c.5-2.048 1.806-4.95 2.082-5.551a.144.144 0 0 1 .172-.078l.235.067c.085.024.13.117.096.198-3.463 8.487-1.551 20.322 10.287 18.53 7.176-1.087 15.917-6.445 20.006-12.21 2.526-3.561 1.434-6.554 1.398-10.665-.07-7.672.207-12.007-.589-19.638-.61-5.854-2.081-10.727-1.051-16.648a.15.15 0 0 1 .144-.122h.21c.064 0 .121.043.14.105 3.582 11.957 2.827 25.13 4.161 37.48.469 4.338-.738 9.829 4.855 11.254 4.365 1.112 9.513-3.944 12.062-6.902a.145.145 0 0 1 .176-.035l.377.19a.15.15 0 0 1 .078.17c-.682 2.658.568 5.861 3.856 5.253C75.2 50.654 40.332 32.028 37.91 24.763c-.294-.882 0-5.81 1.103-7.649" fill="#000"/></svg>