<svg width="100" height="70" viewBox="0 0 100 70" fill="none" xmlns="http://www.w3.org/2000/svg"><path d="M34.321 19.054s-4.78 4.274-6.741 7.784c-1.583 2.832-3.902 8.115-2.78 11.607 1.056 3.29 4.515 3.795 7.575 4.448 5.213 1.112 8.957.824 5.004 4.309-3.15 2.776-5.468 3.654-9.243 5.49-5.059 2.461-11.829 5.482-17.653 4.101-1.987-.471-3.522-.95-4.796-2.085-4.27-3.805-5.699-9.105-.208-21.823.08-.184.07-.278 0-.347-.07-.07-.556 0-.556 0-3.408 6.74-7.162 16.328-3.267 23.63 1.43 2.678 3.155 4.656 5.769 5.212 4.883 1.039 8.551.928 13.552-.834 7.298-2.572 14.456-7.228 18.626-11.19 1.065-1.011 1.315-1.929 1.738-3.336.522-1.737.417-3.336.417-3.336 0-3.822-7.008-4.645-10.981-5.768-1.51-.655-5.371-1.625-4.24-4.17.834-1.877 3.16-4.47 4.657-6.255 1.496-1.784 3.475-3.128 3.475-3.128s1.946-1.32 3.753-.764c.601.185.903 1.25.903 1.25.487 3.545 3.612-2.157 1.946-4.656-1.807-2.71-4.309-2.363-6.95-.139" fill="#000"/><path d="m91.937 1.123 4.03 10.912s.083.399-.069.556c-.084.087-.278.139-.278.139l-2.085-1.877-.139.209 1.251 15.846s5.432-2.016 5.352-1.599c-.133.692-.248 1.208-.834 1.599-.626.417-4.379 1.668-4.379 1.668s1.251 13.205 1.46 19.46c.077 2.307.048 3.996-.209 5.907-.14 1.04-2.395 9.325-2.78 7.785-.07-.279.512-3.511.487-5.282-.14-9.87-1.807-26.688-1.807-26.688l-7.02 2.64c.626 6.672 1.498 19.749-4.448 24.325-1.58 1.217-4.156 1.745-5.977.696-1.842-1.062-2.047-3.248-2.363-5.143l-.556-.14c-2.726 3.051-5.59 6.61-9.938 7.159-2.485.314-5.7-1.181-6.394-1.876-.695-.695-1.017-1.516-1.53-2.711-2.583 1.459-5.15 3.082-7.922 4.17-2.995 1.176-6.264 1.755-9.383 2.502 0 0-6.88 1.737-10.842 2.502-.67.13-1.32.209-1.737.209-.112 0-.174-.237-.07-.278 1.39-.556 12.695-5.037 20.572-8.827 3.37-1.62 8.549-4.309 8.549-4.309-1.182-14.873-.487-34.055-2.92-43.507-.237-.925-.605-1.409-.625-2.363C49.303 3.4 50.515 1.4 50.515 1.4h.347s2.016 4.796 2.502 9.522c1.302 12.646.834 25.368 1.877 38.017.016.198 8.09-4.129 10.286-7.09.44-.592.729-1.277.417-1.946-1.46-3.127-3.945-8.427-5.213-12.301-.143-.439-.03-.721 0-1.182.082-1.228.765-3.058.765-3.058s.249-.093.347 0c1.251 1.182 5.004 5.143 5.004 5.143l-.278.418-2.085-.418c1.364 3.095 3.058 6.603 3.406 9.939.186 1.786-.467 3.91-1.112 5.56-.235.6-.834 1.46-.834 1.46s-1.65 1.657-2.78 2.64c-2.302 2.004-6.325 4.588-6.325 4.588s.462.646.904.834c4.1 1.737 9.292-.818 11.745-3.128 1.384-1.303 3.336-3.544 3.336-3.544 1.208 0 .95.119 1.043 1.181.14 1.586.095 3.053 1.529 4.1 1.088.795 3.405.556 3.405.556 5.266-1.755 4.036-6.375 3.823-11.189-.137-3.103-.695-7.923-.695-7.923l-4.17 1.668s.12-.693.278-1.112c.417-1.112 2.381-1.894 3.892-2.363 0 0-1.112-16.333-1.46-24.603-.028-.68-.798-.926-.695-1.599.049-.314 1.576-5.816 2.155-4.448.764 1.807 4.378 10.592 3.961 11.398a2 2 0 0 1-.139.209c-.92-.29-1.668-1.454-2.154-1.738-.487-.283.666 13.164 1.112 19.739 0 0 4.517-1.39 6.81-2.433a2.5 2.5 0 0 0 .418-.278l-1.46-20.85-.278-2.641s-.049-1.252.278-1.946c.302-.64.763-1.46 1.46-1.46" fill="#000"/><path d="m68.878 68.963 1.907-3.585a.16.16 0 0 0-.038-.2c-1.177-.976-3.248-2.003-4.096-2.458a.166.166 0 0 0-.23.076l-1.67 3.568a.164.164 0 0 0 .06.207l3.833 2.454a.165.165 0 0 0 .234-.062m7.838-55.052c-.119.239-18.556 6.95-19.53 7.368-.394.169 0-.556.348-1.043s18.348-7.576 19.808-7.715c.267-.025-.506 1.152-.626 1.39M73.241 4.01h-3.405s.14-.519.278-.833c.45-1.026 1.109-1.635 2.085-2.085 1.669-.12 3.588-.252 5.212.278.542.176.8.28 1.043.764-.792 1.58-1.763 3.23-3.197 4.31-1.55 1.165-4.796 1.598-4.796 1.598s-.278 0 .417-.487c.695-.486 4.726-1.964 4.726-3.266a11 11 0 0 0-2.363-.278" fill="#000"/><path fill-rule="evenodd" clip-rule="evenodd" d="m22.297 14.656-1.387-1.08s.751-2.066.54-3.39c-.282-1.762-1.886-1.463-3.16-.54-1.028.746-1.738 1.506-1.695 2.775.045 1.33 1.395 2.088 2.235 2.928l-2.004 1.927s-1.34 1.222-2.312 1.85c-1.999 1.29-5.032 3.159-6.65 3.775-.237.164-.23.295-.44.462 0 0 .472-.136.771-.23 4.227-1.336 8.66-3.988 11.56-7.398l1.695.924zm-4.161-3.314c-.472.82 1.304 1.477 1.772 1.695.131-.308.101-1.387 0-1.695-.1-.308-.207-.462-.539-.462s-.999.055-1.233.462" fill="#000"/><path d="m19.913 28.796-6.603 4.517c-.278-.834.728-2.264 1.46-2.85l-.348-.069c-.975-.487-1.22-.96-1.112-2.015.125-1.224 1.177-2.892 2.085-3.614 1.512-1.203 3.709-.412 2.78 1.598-.445.964-.564.584-1.112.14-.396-.322-.722-.29-1.181-.14-1.25.412-1.603 1.147-.348 2.016.648.448 1.377.564 2.155.417 1.192-.225 2.015-1.53 2.85-1.738.02.69-.16 1.231-.626 1.738" fill="#000"/></svg>