<svg width="100" height="53" viewBox="0 0 100 53" fill="none" xmlns="http://www.w3.org/2000/svg"><path d="M73.912 10.229c-.342.154-.779.034-1.023-.227-.454-.487-.454-1.79-.454-1.875 0-.797-.177-1.383-.455-1.989-.196-.428-.616.545-.625.739-.015.36.106.617.17.909.154.563.285 1.818 0 2.159-.283.34-.703.687-1.136.625-.583-.084-.844-.441-.909-1.023-.056-.511 0-1.42 0-1.42.038-2.11-.371-1.335-.522-.71-.1.417-.103 1.107-.103 1.107s0 2.33.228 2.784c.227.455.867 1.027 1.647.682.666-.294 1.061-1.1 1.194-1.761.397.511.971 2.088 2.102 1.25.542-.402.776-1.184.852-1.818.136-1.138-.454-2.146-.852-3.182-.128-.383-.306-.998-.569-.227-.344 1.013 1.384 3.56.455 3.977m-.096 7.301 1.356-2.55a.114.114 0 0 0-.027-.142c-.837-.694-2.31-1.425-2.914-1.748a.12.12 0 0 0-.162.054L70.88 15.68a.12.12 0 0 0 .042.148l2.727 1.745a.117.117 0 0 0 .166-.044m-1.15 4.509 1.356-2.55a.115.115 0 0 0-.027-.142c-.837-.694-2.31-1.425-2.913-1.748a.12.12 0 0 0-.163.054l-1.188 2.537a.12.12 0 0 0 .042.148l2.727 1.745a.117.117 0 0 0 .166-.044" fill="#000"/><path d="m76.693 21.783 1.356-2.55a.114.114 0 0 0-.027-.142c-.837-.695-2.31-1.425-2.913-1.749a.12.12 0 0 0-.163.054l-1.188 2.538a.12.12 0 0 0 .043.147l2.726 1.745a.117.117 0 0 0 .166-.043m.843-19.817c-.068.148-13.465 5.186-14.042 5.457-.234.11.208-.836.408-1.14s13.103-5.23 13.976-5.34c.16-.02-.275.875-.343 1.023" fill="#000"/><path fill-rule="evenodd" clip-rule="evenodd" d="m25.12 16.4-1.102-.86s.539-1.47.381-2.458c-.21-1.315-1.32-1.112-2.271-.422-.556.402-1.215 1.255-1.183 2.203.034.992 1.005 1.343 1.632 1.97l-1.715 1.484c-1.136.702-2.878 1.831-4.325 2.67-1.371.795-2.48 1.356-2.48 1.59 0 .232 4.175-1.442 4.175-1.442s2.88-1.459 5.044-4.005l1.08.742zm-3.107-2.475c-.353.612.973 1.103 1.323 1.266.097-.23.075-1.035 0-1.266-.075-.23-.155-.345-.403-.345-.247 0-.745.042-.92.345m16.374-8.747-1.102-.86s.54-1.469.382-2.457c-.21-1.316-1.32-1.113-2.272-.423-.555.403-1.215 1.255-1.182 2.203.033.993 1.004 1.343 1.631 1.97L34.13 7.096c-1.136.703-2.878 1.831-4.325 2.67-1.371.795-2.48 1.356-2.48 1.59 0 .232 4.175-1.442 4.175-1.442s2.88-1.458 5.044-4.005l1.08.742zm-3.106-2.474c-.353.612.973 1.102 1.323 1.265.097-.23.075-1.035 0-1.265s-.155-.346-.403-.346-.746.042-.92.346M85.99 19.408c-.201.304-.643 1.25-.41 1.14.195-.091 1.837-.721 3.934-1.522.038.684.073 1.357.106 2.01 0 0 .128 4.908-.223 5.628-.739 1.51-2.439 2.096-4.045 1.598-.938-.29-1.703-1.245-1.934-2.206-.2-.834.133-1.838-.224-1.838-.56 0-2.014 4.604-5.147 4.46-.968-.045-1.79-.16-2.318-1.679-.46-1.324.704-1.92 0-2.254-.655-.311-2.245 3.51-4.716 4.188-1.918.528-4.005.915-5.355-.415-1.084-1.068-.127-3.028-.623-3.533s-3.056 3.892-5.883 4.716c-2.068.602-3.605.753-5.563-.144-1.918-.88-5.731-4.724-9.75-7.401-3.975-2.648-10.615-6.075-10.615-6.075s1.818-1.492 3.133-2.206c4.364-2.366 9.016-4.715 13.444-6.602 3.798-1.618 9.13-3.328 9.735-2.35.208.336.336.208-1.503 2.83-.408.583-1.492 1.617-2.206 2.701-1.056 1.605-1.693 3.261-1.294 3.261.24 0 1.328-1.887 2.174-3.1 1.346-1.934 5.914-6.123 4.252-8.697-1.19-1.84-10.917 2.709-12.437 3.357-5.38 2.295-12.612 6.218-13.603 6.89-.933.631-1.365 1.002-1.919 1.982-.767 1.36-.64 2.815-.64 4.348 0 .815 9.512 6.746 11.766 9.336 1.019 1.17 1.87 2.269 1.87 3.82 0 .623-1.55 1.164-2.845 1.886-1.51.842-4.171 1.487-4.171 1.487-.5-2.293-2.224-4.589-4.83-4.1-2.781.52-4.29 5.288-1.99 7.146 1.428 1.154 4.088.714 5.716.357 0 0 .235.277.328.933.154 1.072-4.172 5.709-7.678 7.592-2.963 1.591-7.168 4.056-10.082.971-.485-.513-.78-1.243-.944-2.084.656-.423 1.306-.852 1.955-1.265 2.13-1.355 4.832-3.148 6.305-5.266.66-.948.866-1.9 1.033-3.047.198-1.365-.071-2.488-.441-3.796-.395-1.398-1.454-3.45-1.758-4.026a.087.087 0 0 1 .092-.125l1.023.176a.09.09 0 0 0 .082-.03l.095-.12a.086.086 0 0 0-.004-.11l-2.98-3.275a.1.1 0 0 0-.064-.028h-.247a.08.08 0 0 0-.08.055c-.112.318-.653 1.93-.37 2.778.95 2.834 2.357 5.6 3.302 8.367.602 1.765-4.982 4.609-6.397 5.493q-.84.525-1.685 1.023c.042-.679.114-1.35.196-1.976.194-1.491.458-2.955.367-3.197-.09-.243-.984 1.528-1.486 4.15-.102.53-.184 1.108-.244 1.697-5.774 3.268-11.695 5.664-17.96 8.12a.1.1 0 0 0-.03.02l-.179.179a.086.086 0 0 0 .006.127l.154.128q.03.026.069.02c.634-.129 9.317-1.891 13.476-3.14 1.537-.462 2.975-1.21 4.366-2.051.029.465.078.876.15 1.203 2.4 10.935 16.972-.81 20.09-5.77.819-1.303 1.132-2.53 1.02-4.083 0 0 1.287-.464 2.085-.824 1.697-.767 2.936-.962 4.124-2.398.698-.843 1.03-1.42 1.31-2.478.205-.77.237-1.235.192-2.03-.069-1.222-.895-3.005-.895-3.005s3.213 2.606 5.148 4.156c2.135 1.712 4.134 2.244 6.81 1.663 2.845-.619 5.225-4.914 5.642-4.636.624.415.077 2.033.831 2.973 1.137 1.416 2.69 1.424 4.492 1.2 2.553-.32 4.584-4.173 5.1-4.173.303 0 .442 3.756 3.309 3.756 4.012 0 3.596-4.012 4.491-4.012.832 0 .416 3.181 4.013 3.389 2.953.17 4.003-3.222 4.987-6.154.754-2.247.32-6.059.32-6.059l-.077-1.07c1.402-.536 2.879-1.1 4.195-1.607l.448 6.232.896 16.32c-.035 1.544-.4 8.247.05 7.46.742-1.3.98-2.492 1.24-3.92.298-1.634.348-3.22.386-4.874.018-.8-.393-8.722-.776-15.7-.114-2.076-.262-4.15-.423-6.222 1.4-.545 2.35-.927 2.369-.966.067-.148.502-1.043.342-1.023-.233.03-1.32.4-2.794.935-.192-2.424-.396-4.847-.579-7.273-.007-.09.168-.16.168-.16.114.18 2.058 2.125 2.069 1.647.008-.348-.057-.604-.144-.935-.628-2.407-2.7-7.193-3.149-8.216a.11.11 0 0 0-.198-.01c-.513.862-1.258 2.296-1.258 3.392 0 .4.552 2.15.552 2.15l.723 10.074a357 357 0 0 0-4.196 1.595L90.366 6.23c-.008-.084.153-.153.153-.153.11.166 1.263 1.308 1.263.865 0-.323-.066-.56-.153-.865-.712-2.491-2.18-6.176-2.402-6.075s-1.03 2.28-1.03 2.866c0 .358.315.582.315.582s.549 7.583.941 14.484c-1.946.769-3.398 1.374-3.464 1.474m-49.652 15.95c-.505-.743-1.24-1.451-2.188-1.475-.8-.02-2.044.387-1.314 1.379.62.842 2.462.43 3.447.23a.086.086 0 0 0 .055-.133" fill="#000"/></svg>