<svg width="100" height="72" viewBox="0 0 100 72" fill="none" xmlns="http://www.w3.org/2000/svg"><path d="m23.967 44.783-1.873 3.522a.16.16 0 0 1-.23.06l-3.765-2.41a.16.16 0 0 1-.059-.204l1.64-3.505a.163.163 0 0 1 .226-.074c.833.446 2.868 1.455 4.023 2.415.058.048.073.13.038.196" fill="#000"/><path fill-rule="evenodd" clip-rule="evenodd" d="m51.524 52.537-.233-.033a.14.14 0 0 0-.147.078c-1.44 2.959-3.122 6.262-3.574 9.558-.262 1.908-.293 4.153.496 5.961 1.267 2.903 4.502 4.46 7.523 3.335 1.491-.555 2.12-1.314 3.335-2.341 5.377-4.545 6.576-9.272 14.807-11.898 11.3-3.604 12.725-9.013 12.894-23.998 2.248-.828 4.72-1.74 6.878-2.544l1.672 21.503c0 2-.275 10.683.284 9.651.922-1.703 1.195-3.252 1.49-5.109.337-2.12.355-4.174.355-6.316 0-1.113-.73-10.874-1.49-20.596 2.03-.767 3.426-1.313 3.46-1.383.127-.254.951-1.508.667-1.481-.426.04-2.07.596-4.242 1.393-.664-8.461-1.325-16.56-1.518-18.524-.011-.117.213-.213.213-.213.153.23 1.987 1.825 1.987 1.207 0-.452-.091-.781-.213-1.207-.993-3.477-3.477-8.728-3.477-8.728-.633 1.086-1.7 2.218-1.561 3.548.052.497.426 1.206.426 1.206l1.832 23.573a378 378 0 0 0-6.811 2.66c-.036-.968-.081-2.076-.12-3.012l-.01-.223-.005-.093q1.602 0 3.206.1a.14.14 0 0 0 .137-.079l1.763-3.595a.14.14 0 0 0-.016-.151l-.19-.238a.14.14 0 0 0-.097-.053c-1.68-.172-3.354-.371-5.021-.609-.287-5.775-.654-12.255-.892-14.674-.011-.12.22-.22.22-.22.157.238 2.047 1.88 2.047 1.243 0-.465-.094-.804-.22-1.243C86.357 5.41 83.798 0 83.798 0c-.652 1.119-1.75 2.285-1.608 3.655.053.512.439 1.243.439 1.243l.63 18.522a83 83 0 0 1-7.14-1.544c-4.66-1.236-11.71-3.903-11.71-3.903-3-.752-5.988-.617-9.017-.013a.14.14 0 0 0-.097.071l-2.452 4.554.185.68c.017.06.07.103.131.105l8.128.35c.516-.896 1.026-.737 1.916-.709 3.71.119 9.155 2.555 9.155 2.555v.78c-5.936 2.05-13.377 3.046-18.096 7.38-3.561 3.272-5.896 11.669-12.49 9.368-1.294-.452-2.311-3.335-3.122-3.335l-1.277 4.186c.676 2.447 2.326 4.581 2.696 7.097 1.228 8.338-11.503 13.682-18.166 15.47-2.443.655-3.859 1.025-6.387 1.064-9.144.142-14.35-5.215-13.838-13.767.117-1.949.568-4.967.568-4.967h-.568S.21 53.056.045 55.867c-1.309 22.206 26.48 18.193 37.894 6.316 3.807-3.96 4.043-8.692 3.832-14.05 0 0 2.018.264 3.265 0 3.478-.738 5.1-4.027 6.49-7.015a.14.14 0 0 1 .129-.082h.108c.052 0 .1.028.125.075.238.444 1.497 2.755 2.657 4.04 3.316 3.677 8.384 4.586 9.864-1.206.828-3.243-1.198-6.727-3.407-8.943a.143.143 0 0 1 .036-.229c.41-.204 1.44-.714 2.165-1.046 6.385-2.925 13.245-4.723 20.23-5.128l.152 4.462c-1.962.818-3.318 1.426-3.418 1.565-.37.519-.79 1.291-.37 1.11.276-.117 1.776-.674 3.83-1.432l.11 3.236c.176 3.043.85 7.202-.993 9.935-1.728 2.56-6.387 3.997-13.2 7.214S54.127 73.892 49.203 66.611c-2.382-3.522 1.714-10.05 2.438-13.897a.138.138 0 0 0-.116-.177m9.356-9.651c-2.277.067-5.964-.764-5.914-3.569a.136.136 0 0 1 .128-.134c2.206-.114 6.043.88 5.917 3.573a.136.136 0 0 1-.131.13" fill="#000"/><path d="M75.009 42.614c.305.326.85.475 1.277.284 1.16-.522-.998-3.703-.567-4.968.327-.962.55-.194.71.284.497 1.294 1.234 2.553 1.064 3.974-.096.792-.388 1.769-1.065 2.27-1.412 1.048-2.129-.922-2.626-1.56-.165.824-.659 1.832-1.49 2.2-.974.43-1.774-.284-2.058-.852s-.284-3.477-.284-3.477.003-.863.128-1.384c.188-.78.7-1.748.653.887 0 0-.071 1.135 0 1.774.08.726.407 1.173 1.135 1.277.54.078 1.065-.354 1.42-.78s.191-1.994 0-2.697c-.081-.365-.233-.684-.213-1.135.01-.242.535-1.458.78-.923.348.757.568 1.489.568 2.484 0 .106 0 1.734.568 2.342M47.528 31.72h-.124a.14.14 0 0 1-.142-.14v-1.207c0-1.22.097-2.626 0-3.123-.463-2.356-3.349-4.938-3.94-5.446a.143.143 0 0 1-.017-.198l1.028-1.27a.14.14 0 0 1 .2-.019c1.897 1.604 3.404 3.53 3.793 6.01.298 1.895.144 3.586-.67 5.313a.14.14 0 0 1-.128.08m-.692-19.12h3.477c.82.009 1.614.1 2.413.283 0 1.33-4.116 2.839-4.825 3.335-.71.497-.426.497-.426.497s3.313-.442 4.896-1.632c1.465-1.101 2.456-2.787 3.265-4.4-.247-.494-.512-.6-1.065-.78-1.659-.54-3.618-.406-5.322-.284-.996.46-1.67 1.082-2.129 2.129-.14.32-.284.851-.284.851m10.394-1.515c1.037-.444 19.35-7.078 19.478-7.332.127-.254.95-1.508.666-1.48-1.555.147-19.403 7.183-19.773 7.701-.37.519-.791 1.291-.37 1.111" fill="#000"/></svg>