<svg width="100" height="68" viewBox="0 0 100 68" fill="none" xmlns="http://www.w3.org/2000/svg"><path d="M73.514 7.653h-3.752s.154-.572.306-.918c.496-1.13 1.222-1.801 2.297-2.297 1.84-.131 3.953-.277 5.743.306.597.194.882.309 1.149.842-.873 1.74-1.942 3.56-3.523 4.747-1.708 1.285-5.283 1.761-5.283 1.761s-.306 0 .46-.535c.765-.536 5.206-2.164 5.206-3.6a12.2 12.2 0 0 0-2.603-.306" fill="#000"/><path fill-rule="evenodd" clip-rule="evenodd" d="m13.692 3.717-.897-.698s.485-1.336.348-2.192c-.182-1.14-1.219-.946-2.042-.349-.665.482-1.125.973-1.097 1.794.03.86.902 1.35 1.445 1.893l-1.295 1.246s-.867.79-1.495 1.196c-1.293.835-3.254 2.043-4.3 2.441-.154.106-.15.191-.284.3 0 0 .304-.089.498-.15 2.733-.863 5.6-2.578 7.474-4.784l1.096.598zM11 1.574c-.305.53.843.955 1.146 1.096.084-.199.065-.896 0-1.096-.065-.199-.134-.299-.349-.299s-.646.036-.797.3" fill="#000"/><path d="M77.216 25.109c-.1.215-14.565 5.842-15.384 6.218-.332.153 0-.502.293-.942.292-.44 14.39-6.407 15.618-6.532.224-.023-.426 1.04-.527 1.256M50.974 61.035c-.1.216-14.565 5.842-15.384 6.219-.332.153 0-.503.292-.942.293-.44 14.39-6.407 15.619-6.533.224-.023-.427 1.04-.527 1.256M39.725 35.583l1.78-3.346a.15.15 0 0 0-.035-.187c-1.099-.911-3.032-1.87-3.824-2.294a.155.155 0 0 0-.214.07l-1.559 3.33a.153.153 0 0 0 .057.194l3.577 2.29a.153.153 0 0 0 .218-.057m31.051 30.449 1.78-3.346a.15.15 0 0 0-.036-.187c-1.098-.912-3.031-1.87-3.823-2.294a.155.155 0 0 0-.214.07l-1.559 3.33a.153.153 0 0 0 .056.194l3.578 2.29a.153.153 0 0 0 .218-.057M45.612 35.358l1.882-3.538a.16.16 0 0 0-.037-.198c-1.162-.964-3.206-1.978-4.044-2.426a.164.164 0 0 0-.226.074l-1.649 3.522a.16.16 0 0 0 .06.205l3.783 2.422c.08.05.186.023.23-.06" fill="#000"/><path fill-rule="evenodd" clip-rule="evenodd" d="M14.965 25.13a31 31 0 0 1-1.579-1.342.12.12 0 0 0-.155-.007c-2.673 1.985-5.013 4.192-7.096 6.784a.12.12 0 0 0 .057.19c2.26.703 4.468.56 6.814.682 3.656.19 5.718.033 9.37.306 5.418.406 11.637.506 13.199 6.685l.208 1.478c.09 1.273.066 2.843.031 3.693-.456 3.225-1.951 6.326-3.886 8.904a24 24 0 0 1-1.77 2.093c.662 1.988 2.36 3.215 5.846 2.852 7.183-.746 14.446-6.57 18.319-12.6 1.074-1.673.532-2.874.29-4.75-.748-5.815-3.098-11.259-5.786-16.42a.2.2 0 0 1-.02-.12l.747-4.851a.148.148 0 0 1 .258-.075c2.107 2.43 3.473 4.994 4.608 7.994 1.549 4.096 2.267 8.418 3.101 12.697 1.158 5.937.883 15.626 9.499 13.085 3.553-1.048 5.835-4.426 8.549-6.423 1.803-1.327 1.065-.133 1.181 1.223.117 1.348.175 2.958 1.57 3.484 1.407.53 3.728.494 4.4 0 .881-.648 2.347-1.742 2.425-2.832.215-3.015-.05-9.28-.456-15.815-2.383.977-4.183 1.716-4.484 1.859-.412.194-.022-.59.329-1.119.105-.16 1.764-.962 4.075-2.011-.637-9.9-1.542-19.975-1.542-19.975s-.247-3.071-.305-3.627c-.155-1.488.562-2.575 1.27-3.79 0 0 2.779 5.875 3.89 9.765.136.476.238.845.238 1.35 0 .691-2.051-1.093-2.222-1.35 0 0-.252.107-.239.238l1.259 16.335a382 382 0 0 1 5.662-2.453l-1.045-18.96s-.37-.742-.412-1.257c-.112-1.378 1.016-2.523 1.697-3.631 0 0 2.445 5.486 3.39 9.104.117.443.203.786.193 1.252-.015.64-1.873-1.051-2.026-1.293 0 0-.234.094-.225.215.112 1.488.452 7.187.818 13.57 2.502-1.032 4.458-1.786 4.929-1.847.282-.037-.494 1.24-.611 1.497-.036.08-1.794.833-4.232 1.849.107 1.874.215 3.782.318 5.639.56 10.069.863 11.959.837 13.11-.05 2.213-.117 4.336-.514 6.52-.348 1.913-.666 3.509-1.66 5.248-.601 1.053-.115-7.917-.068-9.984l-1.005-14.052-.302-5.489a2270 2270 0 0 1-5.64 2.316l.711 9.227c.186 5.485-1.447 16.194-8.333 15.83-2.66-.14-3.4-1.911-4.181-4.304-.024-.509-.234-.78-.773-.86a.18.18 0 0 0-.165.063c-2.425 2.797-4.738 5.991-8.658 6.418-6.313.688-8.1-2.868-8.917-8.238-.229-1.504-.237-2.918-.776-4.362-.793 4.725-4.33 8.474-7.947 11.34-6.46 5.12-18.495 9.903-19.44-.073-3.097 2.735-6.922 4.75-10.923 5.512-6.275 1.197-13.036-.933-15.983-6.98C-.037 51.13-.194 46.791.146 42.95c.271-3.067 3.123-11.084 3.123-11.084s-.048-.272-.123-.429c-.115-.241-.407-.45-.632-.584-.14-.083-.183-.275-.078-.4l.025-.03a.25.25 0 0 1 .188-.088h1.416c1.943-3.054 3.899-6.092 6.692-8.414a.12.12 0 0 0 .044-.095v-.75a.12.12 0 0 0-.033-.085c-1.334-1.417-2.894-2.938-4.743-3.639-1.204-.456-1.928-.465-3.123 0-.758.295-1.838.98-1.838.98l1.164-4.531c3.192-2.74 7.323-3.396 11.39-3.369 4.153.029 7.635.803 11.111 3.1q.034.024.048.062l.337.955a.12.12 0 0 1-.005.093l-1.614 3.408a.12.12 0 0 1-.054.056l-5.893 3.096a.12.12 0 0 0-.036.185c1.49 1.749 5.93 2.401 5.93 2.401 6.06 1.342 10.767-7.737 12.886-6.429 1.538.95 0 4.562 0 4.562s-1.06 3.779-1.731 3.629 1.128-3.1.203-3.724c-1.09-.735-4.019 5.73-7.967 6.76-4.67 1.218-8.253-.684-11.868-3.456M3.146 36.826c.627-1.79 1.899-4.47 1.899-4.47 2.407 1.521 4.933 2.412 7.716 3 6.281 1.328 14.99-1.265 19.84 3.675q.207.209.388.408l.886 1.173c.353.606.573 1.266.69 2.128.07.52.065.82.032 1.343-.148 2.333-1.139 3.647-2.669 5.358a22 22 0 0 1-2.103 2.05c.116-2.344.836-5.024 1.547-7.363a.193.193 0 0 0-.186-.25H31.1a.19.19 0 0 0-.182.128c-.982 2.705-1.886 5.529-2.239 8.402-5.461 4.096-12.974 6.04-19.409 3.892-3.699-1.236-6.318-3.773-7.287-7.655-.972-3.894-.134-8.11 1.163-11.819m14.802-20.434c-1.766-1.235-4.564-1.088-6.824-.797-.113.014-.146.16-.052.223a39 39 0 0 1 3.464 2.645.12.12 0 0 0 .135.016 41 41 0 0 0 3.27-1.89.118.118 0 0 0 .007-.197" fill="#000"/></svg>