<svg width="100" height="61" viewBox="0 0 100 61" fill="none" xmlns="http://www.w3.org/2000/svg"><path fill-rule="evenodd" clip-rule="evenodd" d="M3.024 37.154h.078c.117 0 .2.112.167.223-.237.777-.52 1.6-.808 2.435-1.699 4.928-3.556 10.317 3.186 9.616 6.44-.67 13.6-5.51 17.071-10.916.774-1.204.613-2.135.408-3.326-.05-.292-.104-.6-.147-.932-.671-5.214-2.777-10.094-5.187-14.722a.17.17 0 0 1-.018-.107l.67-4.35a.132.132 0 0 1 .23-.066c1.89 2.178 3.114 4.477 4.131 7.167 1.215 3.212 1.86 6.58 2.503 9.94v.001q.138.722.278 1.442s.506 2.853.946 4.655c.553 2.261.49 3.724 1.7 5.712 1.114 1.831 3.872 3.89 3.872 3.89s-1.477-4.373-.63-6.973c.611-1.881 1.323-2.942 2.873-4.17 3.049-2.419 14.178 1.785 19.414 2.733.296.053.614.108.944.163.442-1.217 1.018-1.93 1.123-1.898.048.015-.244.795-.577 1.987 1.696.273 3.527.529 4.135.613.11.015.176.126.14.23l-1.14 3.321a.18.18 0 0 1-.144.118 21.3 21.3 0 0 0-3.843.847c-.05 2.092.369 4.2 1.844 5.627 4.046 3.913 9.443.822 13.372-1.288 4.65-2.498 9.853-8.322 9.65-9.743-.124-.87-.435-1.238-.435-1.238-2.16.473-5.688 1.056-7.583-.474-3.05-2.463.338-8.603 2.979-9.163 3.308-.702 5.523 2.386 6.045 5.273 3.557-.438 5.707-3.804 5.305-7.315l-.217-3.742a137 137 0 0 0-2.695 1.01c-.36.155 0-.507.318-.952.074-.105.97-.515 2.318-1.085l-.976-16.881s-.26-.975-.304-1.4S84.793.929 85.334 0c0 0 2.603 5.422 3.452 8.393.104.364.182.646.182 1.031 0 .529-2.088-1.016-2.218-1.213 0 0-.192.082-.182.182.385 3.916.67 8.406.817 12.44 1.8-.732 3.92-1.57 5.907-2.33L92.641 6.15s-.3-1.949-.333-2.418c-.09-1.256.49-2.617 1.069-3.627 0 0 2.445 4.913 3.232 8.21.097.405.169.717.158 1.142-.014.584-1.578-.958-1.706-1.179 0 0-.199.086-.191.196.074 1.108.266 4.772.492 9.245 2.322-.867 4.162-1.506 4.587-1.546.244-.023-.463 1.053-.572 1.27-.035.07-1.692.71-3.95 1.557.134 2.68.276 5.58.41 8.353.44 9.18.845 17.253.82 18.303-.05 2.018-.113 3.953-.455 5.944-.3 1.744-.574 3.199-1.418 4.784-.511.96-.073-7.217-.027-9.101L93.8 28.12l-.44-8.35c-1.806.67-3.77 1.394-5.52 2.038l-.415.153c.05 1.619.076 3.143.076 4.504 0 2.872-1.28 6.307-3.176 8.507-1.117 1.298-3.458 2.698-3.458 2.698 0 1.507-.332 3.353-1.419 5.081-4.135 6.58-20.912 22.035-25.674 7.97-.537-1.586-.568-3.62-.342-5.606-1.39.502-2.745 1.12-4.19 1.806-4.89 2.323-9.149 4.85-14.544 5.818 0 0-.578 1.478-.84 1.401-.264-.076-.544-1.139-.544-1.139-4.888-1.471-7.876-6.518-8.51-11.566-.124-.99-.245-1.953-.607-2.924-.712 4.236-4.22 7.194-7.464 9.764C10.577 53.154-.475 57.737.016 46.41c.1-2.31 1.058-4.668 1.973-6.92.307-.754.609-1.497.872-2.222a.17.17 0 0 1 .163-.114m42.186 8.174c1.968-.854 4.924-2.435 4.924-2.435-3.785-.843-9.41-3.137-13.001-3.137-.298 0-4.468.243-4.468 2.629 0 1.19 2.032 5.891 2.032 5.891s1.101.038 1.805 0c3.585-.19 5.415-1.518 8.708-2.948m31.688-11.124c-.67-.987-1.646-1.926-2.902-1.957-1.062-.026-2.711.512-1.743 1.828.822 1.118 3.266.57 4.573.304a.114.114 0 0 0 .072-.175" fill="#000"/><path d="M62.137.112s2.445 4.912 3.232 8.21c.097.405.169.717.158 1.142-.014.583-1.578-.959-1.706-1.179 0 0-.198.086-.191.196.123 1.855.581 10.89.967 18.879.44 9.179.798 11.19.772 12.239-.049 2.018-.112 3.953-.454 5.944-.3 1.744-.574 3.199-1.418 4.784-.511.96-.046-3.43 0-5.314l-.937-16.885L61.4 6.157s-.298-1.949-.332-2.418c-.09-1.256.49-2.617 1.069-3.627M42.708 21.778c-.05.135-.261.261-.261.261-.305-2.096-1.05-5.48-3.135-6.616-2.218-1.21-4.15 2.205-1.828 3.308.722.343.772.207 1.393 0 1.416-.472 2.637 3.996 2.873 5.05.124.552.045 1.139.187 1.685.03.115.168.15.25.065 1.47-1.509 1.363-5.127 2-6.8.366-.958.515-1.813 1.394-2.438.915-.216 1.201.56 1.733 1.124a.156.156 0 0 0 .206.02c.658-.482.901-1.407.672-2.189-.337-1.151-1.608-1.764-2.611-1.044-2.752 1.974-2.09 5.485-2.873 7.574m-9.77 38.647c.89-.381 16.604-6.073 16.713-6.291s.816-1.294.572-1.271c-1.334.127-16.65 6.164-16.967 6.609s-.679 1.108-.318.953M73.122 5.319h3.074c.725.008 1.427.09 2.133.25 0 1.177-3.639 2.51-4.266 2.95-.627.439-.377.439-.377.439s2.93-.391 4.33-1.443c1.294-.974 2.17-2.464 2.885-3.89-.218-.437-.452-.53-.94-.69-1.467-.478-3.2-.359-4.706-.251-.88.406-1.476.956-1.882 1.882a7 7 0 0 0-.251.753" fill="#000"/><path fill-rule="evenodd" clip-rule="evenodd" d="M22.555 6.656 21.4 5.759s.625-1.72.449-2.82c-.234-1.466-1.569-1.217-2.628-.45-.855.62-1.446 1.253-1.41 2.308.038 1.106 1.16 1.737 1.859 2.436l-1.667 1.602s-1.115 1.017-1.923 1.538c-1.662 1.074-4.185 2.628-5.531 3.14-.197.137-.192.246-.365.386 0 0 .391-.114.64-.193 3.517-1.11 7.203-3.316 9.615-6.153l1.41.77zM19.094 3.9c-.393.682 1.085 1.228 1.474 1.41.109-.256.084-1.154 0-1.41-.084-.257-.173-.385-.449-.385s-.83.046-1.025.385" fill="#000"/></svg>