<svg width="100" height="63" viewBox="0 0 100 63" fill="none" xmlns="http://www.w3.org/2000/svg"><path fill-rule="evenodd" clip-rule="evenodd" d="m65.583 16.841-1.046-.814s.567-1.558.407-2.557c-.212-1.328-1.422-1.103-2.383-.406-.775.562-1.31 1.135-1.278 2.092.034 1.003 1.052 1.575 1.685 2.208l-1.51 1.453s-1.012.922-1.744 1.395c-1.508.973-3.795 2.382-5.016 2.847-.178.124-.173.223-.33.349 0 0 .354-.103.58-.175 3.188-1.006 6.531-3.006 8.718-5.578l1.278.697zm-3.138-2.499c-.356.618.984 1.114 1.337 1.279.098-.233.076-1.046 0-1.279s-.157-.349-.407-.349-.753.042-.93.35" fill="#000"/><path d="M64.27 2.476h2.787a9 9 0 0 1 1.933.227c0 1.066-3.298 2.274-3.866 2.672s-.341.398-.341.398 2.654-.354 3.923-1.307c1.173-.883 1.967-2.233 2.615-3.525-.198-.396-.41-.481-.853-.626C69.14-.118 67.57-.01 66.204.088c-.798.368-1.338.867-1.706 1.705a6 6 0 0 0-.227.683m17.594 21.46c-.273.383-.584.954-.273.82.409-.175 4.46-1.655 8.162-3.025l1.49 23.11c-.022 1.735-.495 7.703 0 6.815.82-1.467 1.075-2.808 1.352-4.415.316-1.835.491-2.056.515-3.914.013-.965-.508-9.439-1.056-17.88-.096-1.469-.195-2.976-.294-4.462 2.354-.877 7.153-2.39 7.187-2.459.094-.187.703-1.114.493-1.094-.416.04-5.368 1.556-7.752 2.458-.368-5.521-.713-10.522-.822-11.803-.009-.102.187-.182.187-.182.13.201 1.702 1.606 1.71 1.069.005-.391-.07-.678-.171-1.049-.823-3.027-2.917-7.61-2.917-7.61-.561.935-1.5 1.905-1.394 3.06.039.431.355 1.05.355 1.05l1.048 16.234c-3.753 1.457-7.672 3.07-7.82 3.277M38.372 25.11h2.862a9.3 9.3 0 0 1 1.985.233c0 1.095-3.387 2.337-3.971 2.745-.584.41-.35.41-.35.41s2.726-.365 4.03-1.344c1.205-.906 2.02-2.294 2.686-3.621-.203-.407-.42-.495-.876-.643-1.365-.445-2.978-.333-4.38-.233-.82.378-1.375.89-1.753 1.752-.115.264-.233.7-.233.7M56.329 62.95c.766-.329 16.52-6.216 16.614-6.404s.703-1.115.493-1.095c-1.15.11-16.56 6.294-16.833 6.678-.274.383-.585.954-.274.82m-3.355-6.591-1.551 2.916a.133.133 0 0 1-.19.05l-3.117-1.995a.133.133 0 0 1-.05-.17l1.36-2.901a.135.135 0 0 1 .185-.061c.69.37 2.375 1.204 3.332 1.999a.13.13 0 0 1 .03.162" fill="#000"/><path d="m48.293 56.734-1.651 3.105a.14.14 0 0 1-.202.053l-3.32-2.125a.14.14 0 0 1-.052-.18l1.447-3.09a.144.144 0 0 1 .198-.065c.735.393 2.529 1.283 3.547 2.129a.14.14 0 0 1 .033.173" fill="#000"/><path fill-rule="evenodd" clip-rule="evenodd" d="m24.262 22.281-1.213-.944s.657-1.808.471-2.966c-.246-1.541-1.65-1.28-2.764-.472-.899.652-1.52 1.317-1.483 2.427.04 1.163 1.22 1.827 1.955 2.562l-1.752 1.685s-1.173 1.07-2.023 1.618c-1.748 1.13-4.402 2.764-5.818 3.303-.207.143-.2.258-.384.404 0 0 .413-.119.675-.202 3.698-1.168 7.575-3.488 10.111-6.471l1.483.809zm-3.64-2.899c-.413.717 1.14 1.292 1.55 1.483.114-.27.088-1.213 0-1.483s-.181-.404-.472-.404c-.29 0-.873.048-1.078.404" fill="#000"/><path d="m20.95 33.257-.45.846 3.318 2.124c.071.046.165.02.205-.053l1.672-3.143a.14.14 0 0 0-.034-.175c-1.031-.857-2.847-1.757-3.59-2.155a.146.146 0 0 0-.201.066l-1.043 2.227.087.071a.155.155 0 0 1 .036.192" fill="#000"/><path d="m16.757 30.775-1.606 3.43a.16.16 0 0 0 .058.199l3.684 2.358c.078.05.181.022.224-.06l1.383-2.599-.042-.026a.144.144 0 0 1-.052-.182l.421-.9c-1.143-.918-3.055-1.867-3.85-2.292a.16.16 0 0 0-.22.072m50.699-3.507-1.551 2.916a.133.133 0 0 1-.19.05l-3.117-1.995a.134.134 0 0 1-.05-.17l1.36-2.901a.135.135 0 0 1 .185-.061c.69.37 2.375 1.204 3.332 1.999a.13.13 0 0 1 .03.162" fill="#000"/><path d="m62.776 27.644-1.652 3.105a.14.14 0 0 1-.202.053l-3.32-2.125a.14.14 0 0 1-.052-.18l1.447-3.09a.144.144 0 0 1 .198-.065c.735.393 2.529 1.283 3.547 2.129a.14.14 0 0 1 .034.173" fill="#000"/><path fill-rule="evenodd" clip-rule="evenodd" d="M78.771 10.202c.057.205 0 .544 0 .544-.933.09-1.436-.95-2.05-1.506 0 5.156.532 22.044 1.185 27.17.26 2.04.773 4.02 1.538 5.928 3.5-1.526 7.1-1.508 8.108 2.595.964 3.924-1.24 8.585-5.544 6.377-1.73-.887-2.853-2.618-3.846-4.23-1.783.795-2.92 1.636-4.726 2.38-2.034.838-4.087.79-6.243.658-1.33-.08-2.102-.058-3.388-.407-1.018-.277-2.51-1.004-2.51-1.004s-1.057.622-2.446 1.411c-1.389.79-3.017.941-4.596.698-2.852-.44-4.016-2.58-4.642-5.183-.292 1.804-.882 4.081-2.62 4.956-4.646 2.34-7.528-2.002-7.415-5.67l-.256-.16-.24.109c-3.487 1.577-7.003 3.167-10.624 4.41-4.568 1.567-9.381 2.813-14.228 3.012-4.49.184-9.599.112-12.498-3.974C-1.353 43.97.163 38.081 2.563 33.8h.257s-1.033 2.368-1.378 3.973c-.552 2.571-.668 4.784 1.121 6.922 2.013 2.405 5.571 2.939 8.493 3.3 4.078.507 8.007-.001 11.985-.896 6.254-1.408 12.214-3.832 18.01-6.538l.288.353c-.224 1.302-.424 3.003.224 4.23.677 1.281 1.588 1.456 2.916 1.57 3.367.289 4.363-1.311 4.112-4.187-.264-3.027-1.363-6.1-2.275-8.973a13.3 13.3 0 0 1 1.153-4.102c1.318 2.337 1.887 4.738 2.468 7.339.523 2.34.577 5.223 1.73 7.435 0 0 1.106 1.488 2.131 1.971 1.744.822 3.486.46 5.05-.564 0 0-.72-2.036-.72-3.388 0-3.231 1.536-5.49 3.732-7.843 2.063-2.21 4.014-1.08 4.831 1.788.593 2.08.509 5.17-.408 7.153-.387.837-1.339 1.945-1.339 1.945 4.327.675 7.895.284 11.84-1.765l.257-.609c-.881-2.328-1.055-4.564-1.314-7.017-.398-3.772-.654-5.889-.801-9.678-.575-14.87-.801-20.087-.801-20.087s-.207-.359-.289-.609c-.492-1.504.343-3.284 1.09-4.582h.416a62 62 0 0 1 3.43 9.26m2.532 35.66s.578.789 1.09 1.122c.507.331 2.643 1.204 2.948.32.64-1.858-3.245-1.656-4.038-1.441m-18-8.48c-1.443-.141-3.352 2.924-4.046 4.204.652 1.3 1.611 3.01 3.294 2.666 1.203-.245 2.164-1.694 2.76-2.666-.148-1.017-.546-4.06-2.008-4.203" fill="#000"/></svg>