<svg width="100" height="60" viewBox="0 0 100 60" fill="none" xmlns="http://www.w3.org/2000/svg"><path d="M70.979 39.875s.43.659.763 1.035c2.734 3.084 6.335 1.091 7.245-2.724.393-1.65.312-2.99-.634-4.31a.303.303 0 0 0-.517.043c-.449.863-.844 1.843-.702 2.796.07.46.644 1.055.436 1.47-.218.437-1.426.597-2.342.437-.835-.146-1.353-.394-1.907-1.035-.993-1.15-.287-1.545-.163-2.779.01-.105.013-.233.013-.353 0-.23-.198-.416-.413-.335-1.343.51-2.041 3.5-3.25 4.502-1.364 1.132-4.29 1.805-5.828.871-1.704-1.034-1.054-2.361-.862-3.815.044-.334-.313-.533-.598-.352-3.852 2.457-9.402 5.945-16.626 4.167-2.959-.728-5.914-2.394-6.754-5.556-.127-.477.01-1.112-.267-1.363-.172-.156-.435-.037-.611.115-2.15 1.857-3.793 6.386-6.572 7.205-7.025 2.072-6.8-5.828-7.745-10.67-.68-3.49-1.266-7.013-2.53-10.353-.925-2.447-2.038-4.537-3.757-6.519a.12.12 0 0 0-.21.061l-.608 3.957a.16.16 0 0 0 .016.097c2.191 4.208 4.107 8.647 4.718 13.39.197 1.529.639 2.508-.237 3.872-3.158 4.917-9.08 9.666-14.938 10.275-6.793.706-5.259-5.986-3.777-10.862a.158.158 0 0 0-.151-.203H2.1a.16.16 0 0 0-.148.104C.999 35.668.135 38.432.013 41.238-.433 51.54 10.301 47.413 15.9 42.976c2.95-2.337 6.496-5.786 7.143-9.638.44 1.177.416 2.805.603 4.03.666 4.38 2.666 7.163 7.745 6.156 0 0 1.186-.679 1.839-1.253 1.13-.994 1.48-1.833 2.288-3.105a309 309 0 0 0 1.405-2.246.222.222 0 0 1 .393.032c.3.714.958 2.202 1.525 2.942.344.45.564.685.98 1.07 1.292 1.197 2.321 1.525 3.977 2.125 1.455.527 2.325.733 3.867.871 1.934.173 3.07.075 4.957-.381 1.836-.444 2.83-.911 4.467-1.852.943-.542 2.273-1.478 2.928-1.948a.343.343 0 0 1 .525.185c.214.728.679 2.114 1.286 2.798.85.956 1.774 1.114 3.05 1.198 2.77.182 4.835-1.818 6.102-4.085m-9.6-16.291 1.575-2.96a.13.13 0 0 0-.031-.165c-.972-.807-2.682-1.655-3.383-2.03a.137.137 0 0 0-.19.062l-1.378 2.946a.136.136 0 0 0 .05.172l3.165 2.026c.066.042.155.02.192-.05" fill="#000"/><path d="m60.291 29.14 1.575-2.96a.13.13 0 0 0-.032-.165c-.971-.807-2.682-1.655-3.382-2.03a.137.137 0 0 0-.19.062l-1.379 2.947a.136.136 0 0 0 .05.171l3.165 2.026c.067.043.156.02.193-.05" fill="#000"/><path d="m64.867 28.814 1.575-2.961a.13.13 0 0 0-.032-.165c-.971-.807-2.682-1.655-3.383-2.03a.137.137 0 0 0-.189.062l-1.38 2.947a.135.135 0 0 0 .05.171l3.166 2.026c.067.043.156.02.193-.05M30.766 53.545l1.575-2.961a.13.13 0 0 0-.031-.165c-.972-.807-2.682-1.655-3.383-2.03a.137.137 0 0 0-.19.062l-1.378 2.947a.136.136 0 0 0 .05.171l3.165 2.026c.066.043.155.02.192-.05" fill="#000"/><path d="m35.342 53.545 1.575-2.961a.13.13 0 0 0-.031-.165c-.972-.807-2.683-1.655-3.383-2.03a.137.137 0 0 0-.19.062l-1.379 2.947a.136.136 0 0 0 .05.171l3.165 2.026c.067.043.156.02.193-.05" fill="#000"/><path fill-rule="evenodd" clip-rule="evenodd" d="m20.809 5.05-1.087-.845s.588-1.62.422-2.658c-.22-1.38-1.478-1.147-2.476-.423-.806.584-1.363 1.18-1.329 2.175.036 1.042 1.094 1.637 1.752 2.295l-1.57 1.51s-1.051.958-1.813 1.45c-1.567 1.012-3.944 2.476-5.212 2.96-.186.128-.18.23-.344.362 0 0 .369-.107.604-.182 3.313-1.046 6.787-3.125 9.06-5.798l1.329.725zm-3.262-2.597c-.37.643 1.023 1.158 1.39 1.329.102-.242.078-1.087 0-1.329-.08-.242-.163-.362-.423-.362s-.783.043-.967.362" fill="#000"/><path d="M38.356 16.444h-3.057s.126-.467.25-.749c.403-.92.995-1.467 1.87-1.871 1.499-.107 3.221-.226 4.68.25.485.158.718.251.935.685-.71 1.418-1.582 2.9-2.87 3.868-1.391 1.046-4.304 1.435-4.304 1.435s-.25 0 .374-.437 4.242-1.763 4.242-2.932c-.702-.16-1.4-.24-2.12-.25m45.438-2.607c-.112.224-16.267 6.075-17.182 6.467-.37.16 0-.522.327-.98s16.07-6.663 17.443-6.794c.25-.024-.476 1.083-.588 1.307m-5.302 11.72c-.351.158-.801.035-1.053-.234-.468-.501-.468-1.843-.468-1.93 0-.82-.181-1.424-.468-2.048-.202-.441-.635.561-.643.76-.016.372.108.636.175.937.158.579.293 1.872 0 2.223-.292.35-.724.707-1.17.643-.6-.086-.87-.454-.936-1.053-.058-.526 0-1.462 0-1.462.039-2.173-.383-1.375-.538-.732-.103.43-.105 1.141-.105 1.141s0 2.399.234 2.867.893 1.057 1.696.702c.686-.303 1.093-1.134 1.229-1.814.41.527 1 2.15 2.164 1.287.559-.414.8-1.219.878-1.872.14-1.171-.467-2.21-.878-3.276-.131-.395-.314-1.027-.585-.234-.355 1.043 1.425 3.665.468 4.095" fill="#000"/><path d="M48.963 54.513c-.327.458-.698 1.14-.327.98.446-.191 4.52-1.682 8.588-3.184-.084 1.296.013 2.674.52 3.835 1.044 2.392 3.71 3.676 6.2 2.75 1.23-.459 1.748-1.084 2.75-1.931 4.433-3.747 5.421-7.645 12.208-9.81 9.316-2.97 11.252-7.387 10.072-22.577 1.853-.683 3.89-1.435 5.67-2.098L96.58 43c0 1.648-.226 8.807.234 7.956.76-1.404.986-2.681 1.229-4.212.277-1.748.292-3.441.292-5.207 0-.917-1.159-11.758-1.785-19.774 1.673-.632 2.823-1.083 2.852-1.14.105-.21.784-1.243.55-1.22-.351.033-1.707.49-3.497 1.147-.548-6.975-.535-10.857-.694-12.477-.01-.096.175-.175.175-.175.127.19 1.639 1.505 1.639.995 0-.372-.076-.644-.176-.995C96.58 5.031 94.532.702 94.532.702c-.522.895-1.4 1.829-1.287 2.925.043.41.351.995.351.995l.953 16.64c-1.81.685-3.82 1.47-5.615 2.192-.233-6.214.14-9.67-.468-15.86-.01-.1.18-.18.18-.18.13.195 1.688 1.55 1.688 1.024 0-.383-.077-.663-.18-1.025C89.31 4.46 87.2 0 87.2 0c-.538.922-1.443 1.884-1.326 3.014.044.422.362 1.024.362 1.024l.231 20.424c-1.617.674-2.735 1.175-2.817 1.29-.306.427-.652 1.064-.306.916.228-.098 1.464-.557 3.158-1.182l.649 5.462c.145 2.509.701 5.938-.82 8.19-1.423 2.111-5.264 3.296-10.88 5.948S62.738 60.918 58.68 54.915c-.553-.817-.683-1.83-.57-2.934 3.955-1.463 7.654-2.849 7.707-2.955.113-.224.839-1.33.588-1.307-.627.06-4.258 1.39-8.047 2.86.6-2.493 1.972-5.209 2.332-7.121a.114.114 0 0 0-.096-.146l-.192-.027a.12.12 0 0 0-.122.064c-1.148 2.36-2.483 4.984-2.906 7.613-4.177 1.635-8.247 3.321-8.411 3.551" fill="#000"/></svg>