<svg width="102" height="64" viewBox="0 0 102 64" fill="none" xmlns="http://www.w3.org/2000/svg"><path fill-rule="evenodd" clip-rule="evenodd" d="M82.813 10.402c.061.222 0 .59 0 .59-1.013.096-1.558-1.03-2.224-1.633 0 5.589.196 11.396.904 16.952a26 26 0 0 0 1.667 6.426c3.794-1.654 7.695-1.634 8.788 2.814 1.046 4.253-1.343 9.306-6.01 6.913-1.875-.963-3.092-2.838-4.168-4.585a225 225 0 0 1-5.835 2.5c2.006 1.442 3.63 3.827 3.786 6.357.157 2.544-.685 4.834-3.057 5.767-2.44.96-4.398-.542-6.287-2.362-1.27-1.223-1.989-2.844-2.57-4.481-.987 2.305-2.392 5-4.656 6.287-1.505.856-2.63 1.167-4.342.903-3.091-.476-4.775-3.153-5.453-5.975-.318 1.957-.93 4.575-2.814 5.523-5.037 2.536-7.765-1.964-7.642-5.94l-.278-.173-.26.118c-3.78 1.709-7.59 3.433-11.516 4.78-4.952 1.699-10.169 3.05-15.423 3.265-4.866.2-10.405.121-13.547-4.307-3.343-4.712-1.7-11.095.903-15.736h.278s-1.12 2.566-1.494 4.307C.964 41.5.839 43.898 2.779 46.215c2.182 2.607 6.039 3.186 9.205 3.578 4.42.548 8.68-.002 12.992-.972 6.78-1.526 13.24-4.154 19.522-7.087l.312.382c-.242 1.412-.459 3.256.244 4.586.733 1.389 1.722 1.578 3.16 1.702 3.65.313 4.371-1.469 4.1-4.586-.286-3.28-1.478-6.611-2.467-9.726.178-1.568.595-3.01 1.25-4.446 1.429 2.533 2.046 5.136 2.676 7.955.566 2.537.625 5.662 1.875 8.059 2.28 4.368 7.235 3.014 9.727 0 3.452-4.177 2.813-6.218 10.073-9.31 1.926-.82 4.829-2.327 4.829-2.327l.278-.66c-.956-2.524-1.144-4.948-1.425-7.608-.43-4.088-.595-6.389-.868-10.49-.241-3.62-.486-9.275-.486-9.275s-.224-.389-.313-.66c-.533-1.63.372-3.56 1.181-4.967h.452a67 67 0 0 1 3.717 10.039m2.362 26.157s.626.854 1.18 1.215c.55.359 2.866 1.305 3.197.348.694-2.015-3.517-1.796-4.377-1.563m-14.52 7.711c-.857.503 1.75 2.338 2.466 2.78.458.281 3.577 1.644 3.265.277-.451-1.98-4.201-3.956-5.731-3.057" fill="#000"/><path fill-rule="evenodd" clip-rule="evenodd" d="m75.205 22.951-1.134-.882s.614-1.69.441-2.771c-.23-1.44-1.541-1.196-2.582-.441-.84.609-1.422 1.23-1.386 2.267.037 1.088 1.14 1.707 1.827 2.394l-1.638 1.575s-1.096.999-1.89 1.512c-1.634 1.055-4.114 2.583-5.437 3.087-.194.134-.188.24-.359.378 0 0 .385-.112.63-.19 3.456-1.09 7.08-3.259 9.45-6.047l1.385.756zm-3.401-2.709c-.386.67 1.066 1.208 1.448 1.386.107-.252.083-1.134 0-1.386-.082-.252-.17-.378-.44-.378-.272 0-.817.046-1.008.378" fill="#000"/><path d="M67.563 3.643h3.02a10 10 0 0 1 2.095.247c0 1.155-3.574 2.465-4.19 2.896s-.37.432-.37.432 2.877-.384 4.252-1.418c1.272-.956 2.133-2.42 2.835-3.82-.214-.43-.444-.522-.924-.679-1.44-.469-3.142-.352-4.623-.246-.865.4-1.45.94-1.848 1.849-.123.279-.247.74-.247.74m18.084 21.96c-.297.416-.634 1.034-.297.89.444-.19 4.836-1.795 8.848-3.28l1.616 25.052c-.025 1.88-.39 10.04.147 9.077.889-1.59 1.165-3.043 1.465-4.785.342-1.99.385-3.92.411-5.933.014-1.047-.55-10.232-1.145-19.382-.104-1.592-.211-3.226-.318-4.837 2.55-.95 4.543-1.711 4.58-1.786.102-.203.762-1.208.534-1.187-.45.044-2.608.808-5.193 1.786-.4-5.985-.773-11.406-.891-12.794-.01-.11.203-.198.203-.198.14.219 1.845 1.74 1.853 1.159.006-.424-.076-.735-.185-1.137C96.384 4.968 94.114 0 94.114 0c-.61 1.013-1.626 2.064-1.512 3.316.042.468.385 1.14.385 1.14l1.136 17.596c-4.068 1.58-8.316 3.328-8.476 3.552m-45.804-5.776h3.102c.732.009 1.44.09 2.153.253 0 1.187-3.672 2.533-4.305 2.976s-.38.443-.38.443 2.956-.394 4.368-1.456c1.307-.983 2.191-2.486 2.913-3.925-.22-.441-.457-.536-.95-.697-1.48-.482-3.228-.361-4.748-.253-.89.41-1.49.965-1.9 1.9a7 7 0 0 0-.253.759m29.875 39.249c.831-.356 15.503-5.67 15.605-5.874s.761-1.208.534-1.186c-1.246.118-15.545 5.755-15.842 6.17s-.633 1.035-.297.89m-9.258.65-1.681 3.16a.145.145 0 0 1-.206.054l-3.379-2.163a.145.145 0 0 1-.053-.183l1.472-3.145a.147.147 0 0 1 .202-.067c.748.401 2.574 1.306 3.611 2.167a.14.14 0 0 1 .034.177m-5.35.153-1.791 3.365a.154.154 0 0 1-.22.058L49.503 61a.154.154 0 0 1-.057-.195l1.568-3.35a.156.156 0 0 1 .215-.07c.797.426 2.741 1.39 3.845 2.307a.15.15 0 0 1 .036.188" fill="#000"/><path fill-rule="evenodd" clip-rule="evenodd" d="m27.268 19.396-1.315-1.023s.712-1.96.512-3.216c-.268-1.67-1.789-1.387-2.997-.511-.974.707-1.648 1.427-1.607 2.63.043 1.262 1.322 1.98 2.119 2.777l-1.9 1.827s-1.271 1.16-2.192 1.754c-1.896 1.224-4.772 2.996-6.307 3.58-.224.156-.218.28-.416.439 0 0 .447-.13.73-.22 4.01-1.265 8.213-3.78 10.962-7.014l1.608.877zm-3.946-3.143c-.447.778 1.237 1.401 1.681 1.608.124-.292.095-1.315 0-1.608-.095-.292-.197-.438-.512-.438-.314 0-.947.053-1.169.438" fill="#000"/><path d="m24.052 32.088-.488.918 3.597 2.302c.077.049.18.022.222-.058l1.812-3.407a.15.15 0 0 0-.036-.19c-1.118-.928-3.086-1.904-3.892-2.336a.16.16 0 0 0-.218.072l-1.13 2.415.094.076a.17.17 0 0 1 .04.208" fill="#000"/><path d="m19.507 29.398-1.74 3.717a.17.17 0 0 0 .062.216l3.993 2.556a.17.17 0 0 0 .244-.064l1.498-2.817-.045-.03a.156.156 0 0 1-.057-.197l.457-.976c-1.24-.994-3.312-2.022-4.174-2.484a.173.173 0 0 0-.239.079" fill="#000"/></svg>