<svg width="100" height="76" viewBox="0 0 100 76" fill="none" xmlns="http://www.w3.org/2000/svg"><path d="M99.68 13.38c-.999-3.793-3.576-9.544-3.576-9.544-.71 1.163-1.893 2.368-1.772 3.813.045.54.435 1.318.435 1.318l2.884 50.574c-.045 2.169-.537 11.58.092 10.474 1.039-1.826 1.37-3.501 1.73-5.508.413-2.293.48-4.52.527-6.843.025-1.207-.548-11.81-1.154-22.373l-.093-1.598c-.53-9.192-1.066-17.99-1.232-20.126-.01-.127.236-.226.236-.226.16.254 2.114 2.024 2.128 1.353.01-.49-.082-.849-.204-1.313M57.3 36.931c-.469.21-1.069.047-1.404-.312-.625-.669-.625-2.459-.625-2.576 0-1.094-.242-1.9-.624-2.732-.27-.588-.847.749-.859 1.015-.021.495.145.847.234 1.249.211.773.39 2.497 0 2.966-.39.468-.966.943-1.56.858-.802-.114-1.16-.606-1.25-1.405-.078-.702 0-1.951 0-1.951.052-2.898-.51-1.834-.717-.976-.138.574-.141 1.522-.141 1.522s0 3.2.312 3.825c.312.624 1.192 1.41 2.264.937.914-.404 1.457-1.513 1.639-2.42.546.702 1.334 2.869 2.888 1.717.745-.552 1.066-1.626 1.17-2.498.188-1.563-.623-2.947-1.17-4.37-.176-.527-.42-1.371-.78-.313-.474 1.391 1.9 4.89.624 5.464m-.845-29.723-6.059 4.145c-.255-.765.668-2.078 1.34-2.615l-.32-.063c-.894-.448-1.119-.882-1.02-1.85.115-1.123 1.08-2.653 1.913-3.316 1.388-1.103 3.404-.378 2.551 1.467-.408.884-.518.536-1.02.127-.364-.295-.663-.266-1.084-.127-1.146.377-1.47 1.052-.32 1.85.595.41 1.265.517 1.978.382 1.094-.207 1.85-1.403 2.614-1.594.02.632-.146 1.129-.574 1.594" fill="#000"/><path fill-rule="evenodd" clip-rule="evenodd" d="m26.713 29.066-1.742-1.355s.944-2.596.678-4.258c-.354-2.213-2.369-1.838-3.968-.678-1.29.936-2.183 1.89-2.129 3.484.057 1.67 1.752 2.623 2.807 3.677l-2.517 2.42s-1.683 1.535-2.903 2.322c-2.51 1.622-6.32 3.968-8.352 4.743-.298.206-.289.37-.551.58 0 0 .591-.171.967-.29 5.31-1.677 10.876-5.007 14.517-9.29l2.129 1.16zm-5.225-4.162c-.593 1.03 1.638 1.855 2.225 2.13.164-.388.127-1.743 0-2.13-.126-.387-.26-.58-.677-.58s-1.254.07-1.549.58" fill="#000"/><path d="M75.218 7.103h-3.209s.132-.49.262-.786c.424-.966 1.045-1.54 1.965-1.964 1.572-.112 3.38-.237 4.91.262.511.166.755.264.983.72-.746 1.488-1.66 3.044-3.012 4.06-1.461 1.098-4.519 1.506-4.519 1.506s-.261 0 .393-.458c.655-.459 4.453-1.85 4.453-3.078a10.5 10.5 0 0 0-2.226-.262M58.219 26.676c-.062.178-11.592 6.102-12.24 6.483-.261.154-.05-.391.151-.765.201-.373 11.39-6.523 12.404-6.752.185-.042-.253.855-.315 1.034" fill="#000"/><path fill-rule="evenodd" clip-rule="evenodd" d="M68.973 48.607c1.714.048 4.256.12 4.518 1.954.626 4.38-20.383 13.116-23.72 15.038-.705.406-16.47 7.25-16.47 7.25 7.044-.29 20.229-4.028 20.229-4.028s16.87-8.87 19.96-13.784c2.631-4.187 2.365-13.431-2.235-16.299-3.527-2.199-7.05-.7-8.047 3.419-.997 4.113 1.035 6.069 4.842 6.409.255.023.571.032.922.041m1.428-4.812c-.698-1.08-1.718-2.33-3.086-2.364-.708-.017-1.881.058-2.112.94-.678 2.584 3.912 1.678 5.17 1.43z" fill="#000"/><path d="M44.4 9.588C43.476 5.785 41.014 0 41.014 0c-.732 1.147-1.933 2.327-1.84 3.77.035.54.409 1.324.409 1.324l1.771 46.478s.294 2.352-.734 4.705c-3.65 5.453-13.12 12.175-19.38 13.88-4.699 1.28-8.554 2.449-12.763 0-8.315-4.836-5.99-13.465-4.753-20.944.018-.105-.099-.175-.18-.107-4.994 4.185-4.517 18.314.228 23.404 7.293 7.822 22.372-.03 29.642-5.529 5.203-3.936 9.889-6.15 10.475-13.215.047-1.205-.325-11.792-.732-22.339l-.062-1.596c-.357-9.179-.726-17.965-.851-20.097-.008-.127.24-.222.24-.222.155.256 2.07 2.06 2.097 1.39.019-.488-.066-.848-.18-1.314M72.359 69.67c-1.349.246-3.481.453-3.481.453 4.762-3.084 10.626-5.477 14.647-9.584 3.118-3.185 4.57-7.034 4.34-11.37-.905-17.022-4.07-43.679-4.07-43.679V1.31a.16.16 0 0 1 .059-.123l1.064-.883a.16.16 0 0 1 .235.033c2.267 3.33 4.063 6.971 4.521 10.987a.158.158 0 0 1-.25.146l-1.954-1.387a.158.158 0 0 0-.25.128c0 1.31.13 2.595.242 3.901 1.118 13.017 3.935 28.435 2.249 40.677-.665 4.829-4.505 9.656-8.718 12.034-2.64 1.49-5.674 2.309-8.634 2.848" fill="#000"/><path d="M60.663 17.55s1.747.298 2.798.22c.141-.01.197-.174.1-.276-2.126-2.242-4.813-4.23-7.556-5.796a.09.09 0 0 0-.088-.001l-.406.221a.09.09 0 0 0-.047.08v3.84q0 .038.028.066c.166.161 1.056 1.028 1.6 1.646 1.443 1.64 1.84 2.874 3.164 4.61 1.187 1.555 1.931 2.393 3.203 3.825l.097.109c1.974 2.22 3.213 3.345 5.29 5.47 4.346 4.447 9.994 8.609 13.11 14.104 1.637 2.89 2.258 6.065 2.781 9.301.046.28.408.304.476.029.152-.622.312-1.43.346-2.19.12-2.63-.147-5.595-1.117-8.044-1.636-4.132-4.803-7.344-7.73-10.579-4.156-4.59-11.302-11.12-11.302-11.12l-2.939-3.21z" fill="#000"/></svg>