<svg width="100" height="86" viewBox="0 0 100 86" fill="none" xmlns="http://www.w3.org/2000/svg"><path d="M20.666 40.025c-.644.29-1.468.065-1.928-.428-.857-.918-.857-3.375-.857-3.536 0-1.502-.333-2.607-.857-3.75-.371-.807-1.163 1.028-1.179 1.393-.03.68.2 1.164.321 1.714.29 1.062.536 3.429 0 4.072-.535.642-1.326 1.295-2.142 1.178-1.1-.157-1.593-.832-1.714-1.928-.108-.965 0-2.679 0-2.679.07-3.978-.702-2.517-.986-1.339-.19.787-.193 2.09-.193 2.09s0 4.392.428 5.249c.43.857 1.636 1.936 3.108 1.286 1.255-.555 2-2.076 2.25-3.322.75.965 1.832 3.938 3.964 2.357 1.022-.757 1.463-2.231 1.607-3.428.257-2.145-.856-4.046-1.607-6-.241-.722-.577-1.881-1.072-.428-.65 1.91 2.608 6.712.857 7.5" fill="#000"/><path fill-rule="evenodd" clip-rule="evenodd" d="m23.656 20.15-1.704-1.325s.922-2.538.662-4.165c-.346-2.164-2.316-1.797-3.88-.662-1.263.915-2.136 1.849-2.083 3.407.056 1.634 1.713 2.566 2.745 3.597l-2.461 2.367s-1.647 1.501-2.84 2.272c-2.456 1.586-6.182 3.88-8.17 4.638-.29.201-.282.362-.538.568 0 0 .578-.168.946-.284 5.193-1.64 10.638-4.898 14.199-9.087l2.082 1.136zm-5.112-4.07c-.58 1.007 1.602 1.814 2.177 2.083.16-.379.124-1.704 0-2.083-.123-.378-.255-.568-.663-.568-.407 0-1.226.068-1.514.568" fill="#000"/><path d="M68.814 9.592c-.117.257-18.065 7.442-19.08 7.917-.41.193-.019-.587.331-1.114.35-.526 17.823-8.096 19.361-8.294.281-.036-.494 1.235-.612 1.491M62.351 69.93c-.111.251-17.555 7.508-18.54 7.985-.398.194-.026-.574.31-1.093.335-.519 17.309-8.144 18.809-8.358.274-.039-.467 1.214-.579 1.466m2.261-45.396 2.338-4.395a.2.2 0 0 0-.047-.245c-1.442-1.197-3.981-2.456-5.022-3.013a.204.204 0 0 0-.28.092l-2.048 4.374a.2.2 0 0 0 .074.255l4.699 3.007a.2.2 0 0 0 .286-.075M40.881 29.62l2.338-4.396a.2.2 0 0 0-.047-.245c-1.442-1.197-3.981-2.456-5.021-3.013a.204.204 0 0 0-.281.092l-2.048 4.374a.2.2 0 0 0 .074.255l4.7 3.008a.2.2 0 0 0 .285-.076M74.367 3.307h-3.72s.152-.568.303-.911c.491-1.12 1.212-1.787 2.278-2.279 1.824-.13 3.92-.274 5.696.304.592.193.875.307 1.139.835-.865 1.727-1.926 3.53-3.493 4.709-1.695 1.274-5.24 1.747-5.24 1.747s-.304 0 .455-.532c.76-.532 5.164-2.146 5.164-3.57a12 12 0 0 0-2.582-.303m25.416 7.613C98.695 6.607 95.842.053 95.842.053c-.821 1.311-2.176 2.663-2.057 4.304.045.613.478 1.5.478 1.5l2.66 57.392c-.076 2.46-.748 13.128-.021 11.88 1.2-2.058 1.595-3.954 2.03-6.226.495-2.595.596-5.12.678-7.754.043-1.37-.478-13.402-1.04-25.388-.49-10.432-1.077-22.23-1.24-24.654-.009-.144.27-.254.27-.254.18.29 2.374 2.322 2.398 1.56.017-.554-.082-.963-.215-1.491" fill="#000"/><path fill-rule="evenodd" clip-rule="evenodd" d="m42.207 69.073-.237.155c-3.674 2.404-6.599 4.318-10.583 6.256-5.451 2.652-12.602 5.021-19.025 4.42-3.206-.301-4.86-.817-6.233-2.04-4.602-4.101-6.142-9.813-.224-23.52.085-.199.074-.3 0-.375-.075-.075-.6 0-.6 0-3.672 7.265-7.718 17.598-3.52 25.467 1.54 2.887 3.4 5.019 6.217 5.618 5.262 1.12 10.28.793 15.67-1.106 6.958-2.734 16.84-6.964 21.35-13.274 1.707-2.387 2.343-6.332.575-8.899-2.76-4.005-11.713-2.01-15.208-5.556-3.343-3.39 4.85-9.134 8.334-10.876.888-.444 1.696-.93 2.448-.283 1.695 1.46 3.56 5.664 6.45 7.11 3.885 1.942 7.989.826 11.49-1.413l5.602-3.531.026.02c4.605 3.473 10.626 8.014 16.266 4.924 4.237-2.322 6.711-11.52 6.262-16.81l-1.21-23.362c-.015-.157.286-.286.286-.286.205.31 2.666 2.45 2.666 1.619 0-.606-.122-1.048-.285-1.619C87.39 7.046 84.058 0 84.058 0c-.85 1.457-2.28 2.977-2.095 4.761.07.667.571 1.619.571 1.619.334 5.777 3.038 35.431 1.437 37.852-2.155 3.258-6.789 3.47-10.217 2.288-1.657-.571-3.861-2.288-3.861-2.288l7.816-2.986 2.166-4.332c-3.369-3.347-7.415-4.273-11.96-4.567-5.577-.36-10.943.043-15.773 3.014 0 0-1.48 2.565-1.554 4.377-.01.25 0 .641 0 .641 1.318-.31 2.711-.673 4.426-.404 2.951.464 5.32 2.59 6.356 4.257-2.912 1.854-8.176 4.028-11.77 2.759-5.816-2.054-4.813-12.16-12.431-5.745-5.474 3.324-11.53 12.18-9.377 18.883 1.138 3.546 8.859 4.566 8.859 4.566s10.594 1.082 5.556 4.378m24.86-31.5c-1.9-.245-4.896.283-4.896.283l4.19 3.626 4.803-2.684s-2.44-1.01-4.096-1.224" fill="#000"/></svg>