<svg width="100" height="95" viewBox="0 0 100 95" fill="none" xmlns="http://www.w3.org/2000/svg"><path fill-rule="evenodd" clip-rule="evenodd" d="M69.178 0s3.156 6.204 4.052 10.511c.093.448.195.693.218 1.15.01.17.094.295 0 .438-.058.09-.218.164-.218.164s-.444-.252-.712-.438c-.747-.516-1.697-1.587-1.697-1.587s-.002.467 0 .766c.023 4.163.325 8.437.657 12.591.234 2.932.838 5.736 1.752 8.54 1.976-.39 4.494-1.556 6.46-1.04 2.99.787 3.95 3.424 4.05 6.187.099 2.696-.367 6.01-3.394 6.788-3.88 1-7.176-3.209-8.595-6.24-6.343 2.26-12.32 5.352-18.175 8.65 6.356.79 12.72 1.856 19.106 2.353 3.69.288 9.471.383 9.471.383s.159.43 0 .603c-1.204 1.313-1.369 2.682-2.135 4.106-.136.253-.547.492-.547.492a39.5 39.5 0 0 0-8.815.657 39 39 0 0 0-8.65 2.683c-3.733 1.655-7.152 3.961-11.003 5.365-2.225.81-4.685.972-6.898 0-2.882-1.266-3.415-4.106-5.365-6.132-1.367-1.42-2.88-.433-4.27.384-2.422 1.42-5.455 3.85-6.898 6.35-1.005 1.74-.52 2.402.93 3.449 3.11 2.245 7.24 1.877 10.73 3.175 2.871 1.069 3.994 2.76 3.723 5.749-.325 3.59-2.54 5.7-5.146 7.828-3.897 3.183-8.39 5.682-13.03 7.61-4.628 1.923-10.132 3.751-15.219 2.792-2.885-.544-5.51-2.16-7.172-4.599C.094 86.36-.26 81.605.144 77.684c.514-4.997 2.198-9.965 5.365-13.905v.438c-1.246 2.978-2.44 6.033-3.12 9.197-.742 3.441-.805 7.077.93 10.237 2.18 3.97 5.552 5.282 9.8 5.42 6.069.198 12.807-2.344 18.175-5.146 3.158-1.647 9.58-5.53 9.252-7.062-.234-1.095-4.923-1.69-7.664-2.463-3.498-.988-7.474-1.536-7.774-5.585-.329-4.434 3.113-11.27 7.117-14.562 2.123-1.745 5.343-4.707 8.157-2.737 2.221 1.555 2.292 5.312 4.872 6.515 5.468 2.549 12.104-1.957 16.479-5.037-4.683-.777-9.39-1.54-14.124-1.916-1.527-.122-2.957-.164-4.052-.383 0 0 .936-2.708 1.916-4.216.712-1.095 5.274-2.994 8.705-4.818 5.876-3.122 9.516-4.218 15.274-7.554l.657-.384s.008-.634 0-1.04c-.065-3.346-1.146-5.107-1.533-8.43-.482-4.144-.225-6.507-.383-10.676-.104-2.737-.274-7.008-.274-7.008l-.274-.875s-.174-1.65 0-2.683c.181-1.074.097-1.929.931-2.628.214-.179.602-.383.602-.383m6.624 36.616-.054.009c.678 1.145 4.334 3.856 5.2 1.916.3-.672-.475-1.448-.985-1.752-1.143-.681-2.927-.38-4.161-.173" fill="#000"/><path d="M76.983 26.896c-.43.601-.917 1.498-.43 1.289.526-.225 4.868-1.818 9.609-3.566L87.264 38.8l2.048 31.225c0 2.449-.337 13.083.348 11.82 1.13-2.086 1.464-3.984 1.825-6.258.412-2.597.434-5.112.434-7.735 0-1.364-.893-18.206-1.823-30.113l-.142-1.802c-.343-4.375-.686-8.67-.985-12.355 5.223-1.931 10.118-3.765 10.189-3.906.147-.295 1.103-1.75.773-1.719-.853.081-5.933 1.95-11.097 3.96-.346-4.228-.618-7.434-.739-8.667-.014-.143.26-.26.26-.26.188.282 2.434 2.235 2.434 1.477 0-.553-.111-.956-.26-1.477C89.312 8.73 86.27 2.3 86.27 2.3c-.776 1.33-2.082 2.716-1.912 4.345.063.609.521 1.477.521 1.477l1.158 14.894c-4.723 1.875-8.864 3.614-9.054 3.88M44.567 87.757c1.114-.477 20.793-7.606 20.93-7.879.136-.272 1.021-1.62.716-1.591-1.671.16-20.85 7.72-21.248 8.276-.398.558-.85 1.388-.398 1.194m-9.714-59.64H38.4c.836.01 1.646.103 2.461.29 0 1.357-4.2 2.896-4.923 3.403-.724.506-.435.506-.435.506s3.381-.45 4.996-1.665c1.495-1.123 2.506-2.843 3.331-4.49-.252-.503-.522-.612-1.086-.796-1.693-.551-3.692-.413-5.43-.29-1.017.47-1.704 1.105-2.173 2.173-.143.328-.29.869-.29.869" fill="#000"/><path fill-rule="evenodd" clip-rule="evenodd" d="m64.853 19.72-1.43-1.111s.775-2.13.557-3.495c-.29-1.816-1.944-1.508-3.257-.556-1.059.768-1.792 1.551-1.747 2.86.047 1.37 1.438 2.152 2.303 3.017l-2.065 1.986s-1.381 1.26-2.382 1.906c-2.06 1.331-5.187 3.256-6.855 3.892-.244.169-.237.304-.452.476 0 0 .485-.14.794-.238 4.357-1.376 8.925-4.11 11.913-7.625l1.748.953zm-4.288-3.415c-.487.845 1.344 1.523 1.826 1.748.135-.318.104-1.43 0-1.748-.103-.317-.214-.476-.556-.476s-1.03.057-1.27.476" fill="#000"/><path d="M54.123 3.946h3.332c.785.01 1.546.097 2.311.272 0 1.274-3.943 2.72-4.623 3.196-.68.475-.408.475-.408.475s3.175-.423 4.691-1.563c1.404-1.055 2.353-2.67 3.128-4.216-.237-.473-.49-.575-1.02-.748-1.59-.517-3.466-.388-5.1-.272-.954.441-1.599 1.037-2.039 2.04a7 7 0 0 0-.272.816" fill="#000"/></svg>