<svg width="101" height="60" viewBox="0 0 101 60" fill="none" xmlns="http://www.w3.org/2000/svg"><path d="M84.162 19.368c-.102.222-15.663 6.453-16.542 6.864-.357.167-.017-.51.286-.966.304-.456 15.454-7.02 16.787-7.191.244-.032-.429 1.07-.53 1.293M59.829 51.434c-.073.159-11.214 4.62-11.843 4.914-.255.12-.012-.365.205-.692s11.063-5.025 12.018-5.148c.174-.023-.307.767-.38.925M79.62 4.17h-3.452s.142-.527.282-.846c.456-1.038 1.124-1.656 2.113-2.112 1.691-.12 3.635-.255 5.281.282.55.178.812.284 1.057.774-.803 1.6-1.786 3.274-3.24 4.366-1.57 1.181-4.859 1.62-4.859 1.62s-.282 0 .423-.493c.704-.493 4.788-1.99 4.788-3.31a11.2 11.2 0 0 0-2.394-.281m20.738 4.378C99.497 5.28 97.296.333 97.296.333c-.599 1.006-1.595 2.049-1.488 3.295.04.465.372 1.134.372 1.134l2.614 43.59c-.03 1.87-.415 9.986.114 9.03.873-1.58 1.148-3.024 1.447-4.756.341-1.979.389-3.899.422-5.901.017-1.042-.504-10.18-1.053-19.284-.481-7.923-1.048-16.884-1.196-18.724-.008-.11.2-.196.2-.196.136.218 1.797 1.737 1.806 1.158.007-.422-.072-.731-.177-1.131" fill="#000"/><path fill-rule="evenodd" clip-rule="evenodd" d="m25.17 8.443-1.13-.878s.612-1.683.44-2.76c-.23-1.435-1.536-1.192-2.573-.44-.837.607-1.415 1.226-1.38 2.259.037 1.082 1.136 1.7 1.82 2.384l-1.632 1.568s-1.091.995-1.882 1.505c-1.627 1.052-4.097 2.573-5.414 3.075-.193.133-.187.24-.357.376 0 0 .383-.111.627-.188 3.441-1.087 7.05-3.246 9.41-6.023l1.38.753zm-3.388-2.698c-.384.668 1.062 1.203 1.443 1.38.106-.25.081-1.129 0-1.38-.082-.25-.17-.376-.44-.376s-.813.045-1.003.376" fill="#000"/><path d="m21.492 27.52 1.652-3.107a.14.14 0 0 0-.032-.173c-1.02-.846-2.815-1.736-3.55-2.13a.144.144 0 0 0-.198.066l-1.448 3.091a.14.14 0 0 0 .053.18l3.32 2.126c.07.045.164.02.203-.053" fill="#000"/><path d="M1.7 26.27c.336-1.25 1.112-3.02 1.307-3.456a.14.14 0 0 0-.041-.17l-.127-.102a.143.143 0 0 0-.219.054c-3.796 8.342-3.113 13.616-.208 16.83 4.837 5.354 16.696 4.594 30.653-.213 2.154-.741 16.756-8.654 12.122-1.552-2.457 3.766-5.19 5.8-6.532 10.31a.14.14 0 0 0 .19.17l.175-.075a.14.14 0 0 0 .073-.07c.161-.349 1.167-2.491 2.111-3.72 2.486-3.238 6.552-5.698 7.539-9.887 1.827-7.752-7.346-2.715-10.953-1.28-7.105 2.828-11.47 4.715-19.162 5.251-4.486.313-8.829.542-12.873-1.778C1.622 34.21.44 30.966 1.7 26.269" fill="#000"/><path d="m26.416 27.287 1.652-3.107a.14.14 0 0 0-.033-.173c-1.019-.846-2.814-1.736-3.549-2.13a.144.144 0 0 0-.198.066l-1.448 3.091a.14.14 0 0 0 .052.18l3.322 2.126c.07.045.163.02.202-.053m-4.01-5.822 1.652-3.107a.14.14 0 0 0-.033-.173c-1.02-.846-2.814-1.736-3.55-2.13a.144.144 0 0 0-.198.065l-1.447 3.092a.14.14 0 0 0 .052.18l3.321 2.125c.07.045.164.02.203-.052" fill="#000"/><path fill-rule="evenodd" clip-rule="evenodd" d="M88.992.003c.458-.147 2.624 6.022 3.559 9.293.114.4.2.71.2 1.135 0 .582-2.163-1.623-2.163-1.623s.224 6.243.483 12.084c.077 1.822.175 4.358.175 4.846 0 3.274-1.21 7.667-3.594 9.964s-3.393 2.336-3.393 2.336-.586 4.226-1.608 5.852c-2.794 4.445-18.053 12.467-18.053 12.467S52.674 59.737 46.303 60c0 0 14.258-6.19 14.895-6.557 3.019-1.738 21.847-9.634 21.281-13.595-.076-.535-.349-1.596-.349-1.596-1.535.186-3.166.413-4.719.275-3.443-.308-5.28-2.077-4.38-5.797.903-3.724 4.41-5.569 7.599-3.58 1.5.935 2.491 2.622 3.033 4.573 0 0 .72-.091 1.164-.222 1.332-.393 4.385-2.757 4.385-4.532l-1-23.411s-.353-.668-.401-1.135c-.13-1.251.722-4.274 1.18-4.42m-9.135 33.72c-.632-.977-1.555-2.108-2.792-2.138-.64-.016-1.701.052-1.91.85-.613 2.338 3.538 1.518 4.676 1.293z" fill="#000"/><path d="m38.261 38.822-.23-.033a.14.14 0 0 0-.145.078c-1.422 2.92-3.081 6.179-3.527 9.432-.258 1.883-.289 4.098.49 5.883 1.25 2.864 4.443 4.401 7.423 3.291 1.472-.548 2.092-1.297 3.292-2.31 5.306-4.486 8.56-11.078 15.196-14.007.8-.353 1.27-.55 2.098-.753-.079 2.119-.628 10.53-.045 9.535.976-1.663 1.3-3.194 1.657-5.03.313-1.611.437-3.189.511-4.798 1.97.073 2.683.826 3.763 2.237.935 1.22 1.127-.132 1.33-1.19.453-2.362.213-4.113-2.17-5.183a6.1 6.1 0 0 0-2.822-.53c-.036-1.29-.11-3.25-.242-6.302-.372-8.437-.654-18.135-.78-20.095-.007-.117.166-.129.166-.129.144.235 1.837 1.951 1.858 1.336.016-.449-.064-.78-.17-1.207-.87-3.492-3.192-8.789-3.192-8.789-.667 1.058-1.597 2.16-1.505 3.487.035.496.22 3.21.22 3.21l1.074 22.97.202 6.017C52.587 39.578 41.278 61.397 35.97 52.71c-2.4-3.927 1.255-9.882 2.407-13.714a.137.137 0 0 0-.115-.175" fill="#000"/></svg>