<svg width="100" height="72" viewBox="0 0 100 72" fill="none" xmlns="http://www.w3.org/2000/svg"><path d="M17.93 57.585C11.75 59.223 1.148 61.36.34 61.521a.1.1 0 0 1-.091-.026l-.208-.173a.116.116 0 0 1-.008-.172l.241-.24a.1.1 0 0 1 .04-.027c9.844-3.859 19.927-7.824 28.929-13.451 2.575-1.61 7.382-4.864 8.747-7.679 1.52-3.136-1.143-8.063-2.346-11.346l1.237-4.052h.47c.224.841.542 1.7 1.194 2.303 1.44 1.335 3.866 1.534 5.203 0 1.22-1.398 3.285-6.27 4.138-6.27 1.151 0 1.549 2.105 1.663 3.071.097.82-.159 5.585-1.167 4.996a.15.15 0 0 1-.07-.13c.007-1.044.132-2.143-.426-3.074-.384-.64-2.112 2.776-2.9 4.308-1.16 2.254-2.27 3.36-4.949 3.156.194 3.302.296 7.181-1.108 10.28-.942 2.077-2.601 3.548-4.309 4.99-2.318 1.96-6.44 4.35-6.44 4.35s-6.444 4.241-10.251 5.25" fill="#000"/><path fill-rule="evenodd" clip-rule="evenodd" d="M83.503 1.381s2.788 5.895 3.904 9.799c.136.477.239.847.239 1.354 0 .694-2.06-1.096-2.23-1.354 0 0-.253.107-.24.239.216 2.198.53 7.472.81 12.812a405 405 0 0 1 6.596-2.577L91.344 5.736s-.406-.77-.462-1.31c-.15-1.443 1.007-2.672 1.694-3.85 0 0 2.696 5.7 3.775 9.473.132.463.23.82.23 1.31 0 .672-1.99-1.06-2.156-1.31 0 0-.244.104-.231.232.132 1.347.468 5.354.878 10.439 2.484-.917 4.39-1.567 4.865-1.612.302-.029-.572 1.302-.707 1.571-.039.078-1.684.72-4.032 1.603.205 2.547.424 5.307.644 8.104l.125 1.597c.825 10.552 1.079 11.632 1.079 12.84 0 2.324 1.252 14.51.886 16.811-.32 2.016-1.732 6.512-2.734 8.36-.606 1.12 0-6.786 0-8.957l-1.74-28.114-.755-9.707c-2.11.786-4.466 1.655-6.643 2.457.129 2.526.247 5.006.34 7.118.093 2.174.21 5.2.21 5.783 0 5.638-.447 10.485-2.737 13.42-1.289 1.652-2.502 3.078-6.158 2.773-3.843-.32-6.737-2.285-9.555-4.692 0 0-10.919 4.692-17.146 7.507-4.815 2.177-7.437 6.266-11.048 9.81-2.05 2.013-4.645 4.434-7.805 3.626-3.59-.917-4.935-5.212-4.948-8.488-.017-4.157 2.363-8.455 4.343-12.032l.093-.167s-.939 3.457-1.536 5.673c-1.078 4.004-3.878 11.594 2.858 11.389 5.655-.173 8.578-7.422 12.455-10.706 2.127-1.803 3.561-2.557 6.1-3.711 5.16-2.346 13.176-5.929 13.176-5.929-2.068-2.422-5.17-4.273-8.393-3.424-.57.15-1.41.537-1.41.537v-.738l1.41-3.895c3.586-2.825 10.77-3.415 15.175-2.954 3.968.415 6.692.97 9.558 3.82v.336l-1.367 4.035-6.983 2.888c3.394 2.82 9.862 2.813 11.591-.477.953-1.813-.264-8.101-.41-12.013l-.492-8.502c-2.526.931-3.772 1.466-4.117 1.614l-.014.005c-.446.191-.684-.45-.291-1 .117-.164 1.881-.942 4.345-1.958L82.229 6.718s-.42-.796-.478-1.354c-.156-1.493 1.041-2.764 1.752-3.983M69.201 44.764c-1.164-1.146-2.622-1.95-3.76-3.088 2.64-.88 5.854-.52 8.259.873a50 50 0 0 1-4.499 2.215" fill="#000"/><path d="m48.632 43.177-1.83 3.443a.16.16 0 0 1-.225.058l-3.68-2.355a.16.16 0 0 1-.058-.2l1.604-3.425a.16.16 0 0 1 .22-.073c.814.437 2.803 1.423 3.933 2.36a.155.155 0 0 1 .036.192m3.042-11.312c1.38-.592 25.759-9.422 25.928-9.76s1.265-2.008.887-1.972c-2.07.197-25.83 9.563-26.322 10.253s-1.053 1.719-.493 1.479M44.045 71.09c1.168-.5 21.79-7.97 21.933-8.256s1.07-1.699.75-1.668c-1.75.167-21.849 8.089-22.266 8.673s-.89 1.454-.417 1.25m-26.806-5.135-1.83 3.443a.16.16 0 0 1-.225.058l-3.68-2.355a.16.16 0 0 1-.058-.2l1.604-3.426a.16.16 0 0 1 .22-.072c.814.437 2.803 1.423 3.933 2.36a.154.154 0 0 1 .036.192m5.801-.597L21.209 68.8a.16.16 0 0 1-.224.06l-3.68-2.356a.16.16 0 0 1-.058-.2l1.604-3.426a.16.16 0 0 1 .22-.072c.814.436 2.803 1.423 3.932 2.36a.155.155 0 0 1 .037.192m14.332-48.711-1.831 3.442a.16.16 0 0 1-.225.059l-3.68-2.355a.16.16 0 0 1-.058-.2l1.604-3.426a.16.16 0 0 1 .22-.072c.815.436 2.803 1.422 3.933 2.36a.155.155 0 0 1 .036.192" fill="#000"/><path fill-rule="evenodd" clip-rule="evenodd" d="M37.706 6.699 36.13 5.474s.853-2.347.613-3.851c-.32-2-2.142-1.662-3.588-.613-1.167.847-1.975 1.71-1.925 3.15.051 1.511 1.584 2.373 2.537 3.327l-2.275 2.187s-1.523 1.389-2.626 2.1c-2.27 1.467-5.715 3.59-7.553 4.29-.269.186-.26.334-.498.524 0 0 .535-.155.875-.262 4.8-1.516 9.835-4.528 13.128-8.402l1.925 1.05zM32.98 2.936c-.536.93 1.481 1.677 2.013 1.925.148-.35.114-1.575 0-1.925s-.236-.525-.613-.525-1.134.063-1.4.525" fill="#000"/><path d="M69.27 3.682h4.143c.977.012 1.923.12 2.875.339 0 1.584-4.904 3.382-5.75 3.974s-.508.592-.508.592 3.949-.527 5.835-1.945c1.746-1.312 2.927-3.32 3.89-5.243-.294-.589-.61-.716-1.268-.93-1.977-.644-4.311-.483-6.342-.338-1.188.548-1.99 1.289-2.537 2.536a9 9 0 0 0-.339 1.015" fill="#000"/></svg>