<svg width="104" height="64" viewBox="0 0 104 64" fill="none" xmlns="http://www.w3.org/2000/svg"><path d="M62.976 23.345c-.457.205-1.042.045-1.369-.304C61 22.389 61 20.646 61 20.53c0-1.065-.236-1.85-.608-2.66-.263-.574-.825.729-.837.988-.02.483.142.825.229 1.216.205.753.38 2.433 0 2.89-.38.456-.942.919-1.521.836-.781-.112-1.13-.59-1.217-1.369-.076-.684 0-1.9 0-1.9.05-2.823-.497-1.787-.699-.95-.134.558-.137 1.482-.137 1.482s0 3.117.304 3.725 1.161 1.374 2.205.913c.89-.394 1.42-1.474 1.597-2.357.532.684 1.3 2.794 2.813 1.672.726-.537 1.039-1.583 1.14-2.433.183-1.522-.607-2.871-1.14-4.257-.17-.513-.41-1.336-.76-.305-.462 1.356 1.85 4.764.608 5.323M40.472 18.08c-.457.205-1.042.045-1.369-.305-.608-.65-.608-2.395-.608-2.509 0-1.066-.236-1.85-.608-2.661-.263-.573-.825.73-.837.989-.02.482.142.825.228 1.216.206.753.38 2.433 0 2.89-.38.456-.941.918-1.52.836-.781-.112-1.13-.59-1.217-1.369-.076-.684 0-1.9 0-1.9.05-2.824-.498-1.787-.699-.951-.134.558-.137 1.483-.137 1.483s0 3.117.304 3.725 1.16 1.374 2.205.913c.89-.394 1.42-1.474 1.597-2.358.532.685 1.3 2.795 2.813 1.673.725-.538 1.039-1.584 1.14-2.433.183-1.522-.607-2.871-1.14-4.258-.171-.512-.41-1.335-.76-.304-.462 1.355 1.85 4.764.608 5.323m21.92 17.406 2.038-3.832a.17.17 0 0 0-.04-.214c-1.258-1.044-3.472-2.142-4.38-2.628a.18.18 0 0 0-.244.081l-1.785 3.814a.175.175 0 0 0 .064.222l4.097 2.623a.175.175 0 0 0 .25-.066M76.551 2.777h-3.125s.129-.477.255-.765c.413-.941 1.018-1.5 1.914-1.914 1.531-.109 3.292-.23 4.783.256.497.161.735.257.957.701-.727 1.45-1.618 2.965-2.934 3.955C76.978 6.08 74 6.476 74 6.476s-.256 0 .382-.446 4.337-1.802 4.337-2.998a10.2 10.2 0 0 0-2.169-.255M69.646 9.55c-.138.298-22.646 9.565-23.914 10.167-.514.244-.053-.663.368-1.28.42-.618 22.305-10.288 24.254-10.61.356-.06-.571 1.427-.709 1.724M16.678 41.384c-.174.21-.414.491-.612.692-.44.446-.933 1.244-1.689.933-.654-.269-.842-2.2-.888-2.799-.155-1.99.696-4.364 1.395-6.353a.08.08 0 0 0-.148-.064c-.907 1.742-1.657 3.448-2.047 5.795-.148.889-.537 7.479 2.533 5.376.964-.66 1.376-2.336 1.616-3.505.018-.091-.1-.147-.16-.075" fill="#000"/><path fill-rule="evenodd" clip-rule="evenodd" d="M84.705.129s2.992 6.179 4.204 10.277c.148.502.26.89.264 1.423.007.731-2.178-1.133-2.361-1.404 0 0-.264.116-.25.254.287 2.658.748 9.595 1.128 15.997a540 540 0 0 1 7.37-3.238l-.943-17.596s-.4-.737-.443-1.246c-.113-1.361 1.137-2.476 1.893-3.56 0 0 2.647 5.448 3.66 9.031.124.439.216.778.201 1.238-.02.631-2.052-1.063-2.218-1.304 0 0-.258.09-.249.209.105 1.369.398 6.343.724 12.11 3.162-1.331 5.627-2.307 6.232-2.408.366-.062-.585 1.465-.726 1.77-.044.094-2.288 1.073-5.407 2.4.121 2.17.245 4.41.363 6.579.537 9.942 1.039 19.923 1.001 21.058-.071 2.184-.161 4.277-.615 6.428-.397 1.882-.76 3.452-1.865 5.154-.67 1.03-.066-7.813.001-9.852l-1.514-28.254c-2.354.994-4.946 2.08-7.37 3.096.1 1.73.194 3.389.273 4.875.118 2.288.27 5.473.276 6.086 0 0 .081 2.446 0 4.01-.061 1.189-.058 1.865-.276 3.035-.256 1.372-.518 2.125-1.036 3.421-.68 1.701-1.048 2.726-2.222 4.132-1.017 1.22-1.768 1.771-3.11 2.622-1.962 1.244-3.346 1.41-5.554 2.132-1.968.645-3.088.97-5.11 1.422-2.672.599-4.203.822-6.93 1.066-1.852.167-2.896.236-4.754.223-1.617-.012-2.548.095-4.133-.222-.92-.185-2.31-.667-2.31-.667l-1.466 2.977.222-3.643s-1.444-.937-2.044-1.822c-.917-1.352-.889-4.088-.889-4.088s-2.363 2.206-4.087 3.333c-1.45.947-2.261 1.561-3.91 2.088-6.34 2.025-9.037-1.072-10.134-5.978-3.366 2.11-6.813 4.104-10.468 5.672C13.11 61.974 1.24 63.295.378 63.388a.12.12 0 0 1-.092-.03l-.24-.2a.13.13 0 0 1-.008-.191l.27-.27a.1.1 0 0 1 .045-.03c10.042-3.937 20.305-7.972 29.677-13.416q-.033-.45-.057-.91c-.246-4.584-.49-11.908-.49-11.908s-.14-11.072-.755-18.127c-.164-1.887-.287-3.619-.484-5.355-3.352 1.282-5.95 2.277-6.36 2.457-.52.228-.032-.665.407-1.269.142-.194 2.531-1.258 5.773-2.62a41 41 0 0 0-1.73-7.415.45.45 0 0 1 .006-.297L27.62.365a.26.26 0 0 1 .482-.018C29.476 3.44 30.17 7 30.593 10.467c6.663-2.746 15.09-6.04 16.263-6.197.357-.049-.614 1.41-.76 1.702-.09.177-8.45 3.383-15.331 6.015q.13 1.27.23 2.498c.287 3.447.533 8.841.533 8.841.087 5.856.042 17.403.946 24.46l.347-.216c2.141-1.339 9.311-5.47 8.4-8.14-1.43-4.187-4.579-7.831-5.014-12.372-.128-1.332.589-3.28.75-3.696a.125.125 0 0 1 .119-.08h.376a.13.13 0 0 1 .096.042l4.51 4.955a.13.13 0 0 1 .005.169l-.143.178a.13.13 0 0 1-.124.047l-1.562-.269a.13.13 0 0 0-.141.185c.396.834 1.768 3.782 2.365 5.893.56 1.98.951 3.925.651 5.99a11 11 0 0 1-1.888 4.754c-1.894 2.723-5.108 4.651-8.009 6.428.137.462.286.857.448 1.174 1.203 2.355 4.908 2.209 7.465 1.378 5.331-1.733 8.657-4.977 9.286-4.977s-.178 1.484-.133 2.4c.081 1.691 1.672 3.695 3.465 3.554 0 0 2.086-4.37 3.688-7.02 2.428-4.015 5.74-9.286 10.663-10.53 2.306-.583 4.862-.047 6.887 1.155 6.345 3.768 5.376 9.864 0 15.418 0 0 1.586-.324 2.577-.622 5.076-1.528 8.37-3.333 8.37-10.321 0-1.86-.508-7.576-.508-7.576l-.418-6.23c-3.39 1.42-6.012 2.52-6.427 2.717-.53.251-.056-.68.376-1.313.14-.206 2.61-1.397 5.95-2.923L83.414 5.76s-.45-.835-.517-1.421c-.178-1.57 1.07-2.92 1.807-4.21m-7.769 49.1c1.93-2.308-2.599-5.091-4.487-5.966-3.903-1.809-6.887-.862-9.908 1.79-3.127 2.744-5.749 7.076-7.554 10.752 6.087 2.533 18.45-2.392 21.95-6.575" fill="#000"/></svg>