<svg width="100" height="85" viewBox="0 0 100 85" fill="none" xmlns="http://www.w3.org/2000/svg"><path d="m40.414 84.18 2.054-3.862a.17.17 0 0 0-.04-.215c-1.268-1.053-3.5-2.16-4.414-2.649a.18.18 0 0 0-.247.081l-1.8 3.845a.18.18 0 0 0 .065.224l4.13 2.643a.177.177 0 0 0 .252-.066" fill="#000"/><path d="m46.13 84.18 2.054-3.862a.17.17 0 0 0-.04-.215c-1.268-1.053-3.5-2.16-4.414-2.649a.18.18 0 0 0-.247.081l-1.8 3.845a.18.18 0 0 0 .065.224l4.13 2.643a.177.177 0 0 0 .251-.066" fill="#000"/><path fill-rule="evenodd" clip-rule="evenodd" d="m27.81 21.6-1.49-1.158s.807-2.22.58-3.643c-.303-1.892-2.027-1.572-3.395-.58-1.104.801-1.868 1.618-1.821 2.981.049 1.429 1.498 2.244 2.4 3.146l-2.152 2.07s-1.44 1.313-2.483 1.987c-2.148 1.387-5.407 3.394-7.146 4.056-.254.177-.247.317-.47.497 0 0 .505-.147.827-.248 4.541-1.434 9.304-4.284 12.418-7.948l1.822.993zm-4.47-3.559c-.507.88 1.4 1.587 1.904 1.821.14-.33.108-1.49 0-1.82-.108-.332-.223-.498-.58-.498-.356 0-1.073.06-1.324.497" fill="#000"/><path d="M65.224 6.704h-4.072s.167-.622.332-.998c.538-1.226 1.327-1.955 2.494-2.493 1.996-.142 4.29-.3 6.233.332.648.211.957.336 1.247.915-.948 1.889-2.108 3.863-3.823 5.152-1.855 1.394-5.735 1.912-5.735 1.912s-.332 0 .499-.582c.83-.582 5.651-2.348 5.651-3.906a13.3 13.3 0 0 0-2.826-.332m5.473 19.67c-.133.266-19.317 7.215-20.403 7.68-.44.189 0-.62.388-1.163.388-.544 19.084-7.914 20.714-8.069.297-.028-.566 1.286-.699 1.552m7.145 49.363c-.133.266-19.317 7.215-20.403 7.68-.44.19 0-.62.388-1.163.387-.543 19.084-7.913 20.713-8.068.298-.029-.565 1.285-.698 1.551" fill="#000"/><path fill-rule="evenodd" clip-rule="evenodd" d="M2.686 60.205h.09c.136 0 .234.13.194.26-1.895 6.234-4.262 14.233 4.424 13.33 7.489-.778 15.468-6.293 19.506-12.58 1.12-1.744.555-2.996.303-4.952-.781-6.064-3.23-11.74-6.033-17.12a.2.2 0 0 1-.02-.125l.778-5.059a.154.154 0 0 1 .268-.078c2.197 2.533 3.621 5.207 4.805 8.335 1.615 4.27 2.363 8.777 3.233 13.239 1.208 6.19.921 16.292 9.904 13.643 3.705-1.093 5.358-4.211 8.287-6.367 1.88-1.383 1.596.103 1.718 1.516.121 1.406.324 2.725 1.801 3.348 6.402 2.234 8.669-6.48 12.126-9.657 3.458-3.176 2.388-1.575 3.978-2.483 5.449-3.11 14.896-6.017 14.896-6.017l-19.107-2.64c.38-1.058.537-1.607.918-2.664 2.843-4.64 11.742-2.425 12.873-6.603.48-1.774.238-5.261.238-5.261s-4.353 1.65-4.666 1.784c-.44.189 0-.62.388-1.163.114-.16 1.814-.912 4.199-1.896L76.22 5.915s-.407-.772-.463-1.312c-.15-1.445 1.008-2.676 1.697-3.857 0 0 2.7 5.709 3.78 9.488.132.463.231.821.231 1.312 0 .672-1.994-1.061-2.16-1.312 0 0-.244.104-.231.232.31 3.145.825 12.795 1.133 19.543a397 397 0 0 1 6.993-2.734L86.143 5.999s-.459-.906-.514-1.537c-.147-1.688 1.227-3.1 2.053-4.462 0 0 3.035 6.704 4.22 11.13.146.542.255.961.245 1.533-.013.784-2.303-1.275-2.491-1.57 0 0-.287.117-.275.265.137 1.675.535 7.706.983 14.739 2.022-.735 3.526-1.236 3.938-1.275.297-.028-.565 1.286-.698 1.552-.034.067-1.281.537-3.145 1.218a4752 4752 0 0 1 1.096 17.779c2.428.233 5.014.458 7.63.725q.057.007.094.052l.184.23c.034.042.04.1.017.147l-1.9 4.267a.14.14 0 0 1-.116.081c-1.739.12-3.669.363-5.546.69.345 6.002.579 10.467.565 11.28-.045 2.713-.111 5.314-.582 7.994-.412 2.346-.79 4.303-1.995 6.441-.73 1.295-.2-9.699-.157-12.232L88.526 52.27c-7.99 1.967-15.19 5.345-17.876 6.684a.138.138 0 0 0-.035.222c2.145 2.152 4.375 5.777 3.57 8.925-1.436 5.624-6.62 4.5-9.84.93-1.125-1.249-2.348-3.493-2.579-3.924a.14.14 0 0 0-.122-.073h-.104a.14.14 0 0 0-.125.08c-1.645 3.537-3.013 9.072-11.088 6.711-2.15-.628-1.434-6.39-2.901-4.698-2.529 2.917-4.79 6.223-8.877 6.668-9.447 1.03-8.834-7.08-10.024-12.968-.828 4.926-5.02 8.789-8.79 11.778C12.576 78.278-.552 83.989.018 70.815c.155-3.587 1.26-7.12 2.478-10.477a.2.2 0 0 1 .19-.133m67.81 6.625c-2.21.066-5.79-.74-5.741-3.464a.13.13 0 0 1 .124-.13c2.142-.111 5.867.854 5.745 3.468a.13.13 0 0 1-.128.126m8.431-27.914c.72-1.75 1.104-4.72 1.104-4.72l.224-2.9c2.129-.785 4.455-1.625 6.561-2.385l.458-.166.809 16.268c-3.79-.427-7.514-.945-11.84-1.796 0 0 1.931-2.47 2.684-4.3" fill="#000"/></svg>