<svg width="100" height="79" viewBox="0 0 100 79" fill="none" xmlns="http://www.w3.org/2000/svg"><path d="M70.084 17.041c-.429.193-.978.043-1.285-.285-.57-.611-.57-2.249-.57-2.356 0-1-.222-1.737-.572-2.498-.247-.538-.774.685-.785.928-.02.453.133.775.214 1.142.193.707.357 2.284 0 2.713-.357.428-.884.862-1.427.785-.733-.105-1.061-.555-1.142-1.285-.072-.643 0-1.785 0-1.785.047-2.65-.468-1.677-.657-.892-.126.524-.129 1.392-.129 1.392s0 2.927.286 3.498c.285.57 1.09 1.29 2.07.856.836-.37 1.333-1.383 1.499-2.213.5.643 1.22 2.624 2.641 1.57.681-.504.975-1.486 1.07-2.283.172-1.43-.57-2.696-1.07-3.998-.16-.481-.384-1.253-.714-.285-.433 1.272 1.738 4.472.571 4.996M41.861 62.022l1.894-3.56a.16.16 0 0 0-.038-.2c-1.168-.97-3.225-1.989-4.068-2.44a.165.165 0 0 0-.227.075l-1.659 3.543a.163.163 0 0 0 .06.206l3.806 2.436c.08.052.188.024.232-.06" fill="#0a0a0a"/><path d="m46.948 61.396 1.894-3.56a.16.16 0 0 0-.038-.2c-1.168-.97-3.225-1.99-4.068-2.44a.165.165 0 0 0-.227.074l-1.659 3.544a.163.163 0 0 0 .06.206l3.807 2.436c.08.052.187.024.231-.06M34.883 20.653h-3.866s.16-.59.316-.946c.51-1.164 1.259-1.856 2.367-2.367 1.894-.135 4.072-.285 5.917.315.614.2.909.319 1.183.868-.899 1.794-2 3.668-3.629 4.892-1.76 1.323-5.444 1.814-5.444 1.814s-.315 0 .474-.552 5.365-2.23 5.365-3.708a12.6 12.6 0 0 0-2.683-.316" fill="#0a0a0a"/><path fill-rule="evenodd" clip-rule="evenodd" d="m18.339 15.793-1.3-1.01s.704-1.936.505-3.176c-.263-1.65-1.766-1.37-2.959-.505-.963.698-1.629 1.41-1.588 2.598.043 1.246 1.307 1.956 2.093 2.743l-1.876 1.804s-1.256 1.145-2.166 1.733c-1.872 1.21-4.714 2.96-6.23 3.537-.221.153-.215.276-.41.433 0 0 .44-.128.721-.217 3.96-1.25 8.112-3.734 10.828-6.93l1.587.867zM14.44 12.69c-.442.768 1.221 1.383 1.66 1.588.122-.29.094-1.3 0-1.588-.094-.29-.195-.433-.505-.433-.311 0-.936.051-1.155.433" fill="#0a0a0a"/><path d="M75.576 3.377c-.135.27-19.633 7.333-20.736 7.806-.448.192 0-.63.394-1.182S74.63 1.958 76.286 1.8c.302-.03-.575 1.306-.71 1.576m-6.135 58.411c-.124.247-17.989 6.718-19 7.152-.41.175 0-.578.361-1.084.362-.506 17.772-7.369 19.29-7.513.276-.027-.527 1.197-.65 1.445m30.091-40.835c-.882-3.28-3.138-8.25-3.138-8.25-.61 1.01-1.629 2.059-1.518 3.31.041.467.382 1.14.382 1.14l2.715 43.78c-.03 1.88-.416 10.031.124 9.07.892-1.585 1.171-3.037 1.475-4.777.348-1.987.395-3.916.427-5.927.016-1.046-.525-10.225-1.096-19.37-.5-7.957-1.088-16.957-1.24-18.805-.01-.11.203-.197.203-.197.14.219 1.84 1.744 1.849 1.162.006-.423-.075-.734-.183-1.136" fill="#0a0a0a"/><path fill-rule="evenodd" clip-rule="evenodd" d="M88.413 0s2.393 5.06 3.35 8.41c.118.41.206.727.206 1.162 0 .596-1.767-.94-1.915-1.162 0 0-.216.092-.205.205.485 4.93.805 9.046.805 14.003 0 3.353-1.212 8.089-3.653 10.44-2.759 2.406-5.893 2.087-7.93-.813-.44-.628-.918-1.657-1.099-2.06a.08.08 0 0 0-.146.002c-.674 1.616-1.548 3.315-3.02 4.327-2.083 1.432-4.592 1.492-6.222-.508-.847-1.04-1.172-2.413-1.33-3.718l-.031.04c-1.396 1.828-2.787 3.651-4.822 4.812-3.657 2.087-6.489 1.19-8.296-2.465a16 16 0 0 1-.441-1.003c-.57-1.38-1.008-2.446-2.69-1.384-2.54 1.604-4.542 4.703-2.152 7.24 1.701-.71 3.832-1.373 5.635-.705 2.202.816 3.11 2.76 3.365 4.97.295 2.54-.466 5.894-3.365 6.417-3.217.581-5.808-2.836-7.004-5.4-1.348.821-2.728 1.587-4.188 2.192-2.079.862-4.88 1.782-7.121.9-1.998-.786-3.068-2.709-3.366-4.735-1.212 2.197-3.332 4.14-5.674 5.087-3.17 1.282-6.717.403-9.666-1.057-1.696-.84-3.216-1.948-4.656-3.17-1.888 1.338-3.788 2.758-5.322 4.5-.7.794-1.644 2.153-1.644 2.153 3.402.449 6.8.607 10.206.765 1.591.074 3.185.148 4.782.252.548.036 1.11.063 1.677.09 4.568.222 9.556.464 11.471 5.31.466 1.181.494 1.975.537 3.17l.01.313c.231 6.1-3.462 11.753-8.1 15.418-1.69 1.336-2.731 2.01-4.695 2.896-4.301 1.94-9.432 2.545-13.931.822C2.067 75.53.447 70.046.063 64.45c-.358-5.247.813-10.215 3.092-14.91 0 0-.837-.333-1.135-.782a3 3 0 0 1-.234-.508s.474-.1.782-.118c.49-.027 1.253.118 1.253.118s2.378-3.757 4.265-5.87c.914-1.024 2.465-2.505 2.465-2.505l-.117-.547a54 54 0 0 1-.64-.584c-1.483-1.366-3.43-3.16-5.386-3.212-.702-.02-1.322.309-1.946.64-.483.256-.97.513-1.498.612-.053-1.941.659-4.138 2.191-5.4 3.137-2.583 14.088-3.235 19.292-.157.85.502 1.355.833 1.683 1.722l-1.409 3.561-5.987 3.052c2.436 2.399 6.327 3.14 9.626 2.505 3.041-.585 5.028-2.67 6.966-4.703.444-.466.885-.93 1.336-1.371.068-.066.176-.085.222-.002.175.313.065 1.165-.027 1.876-.052.404-.098.762-.083.952.045.58.455 1.692 1.135 2.074 2.856 1.604 8.2-.428 10.76-2.074 0 0-.52-1.77-.547-2.935-.081-3.502 6.222-14.792 8.53-9.235.913 2.195 1.866 4.23 4.344 4.93 2.66.753 4.844-.704 6.77-2.347.882-.753 2.124-2.378 3.061-3.683.165-.23.614.003.526.272-.238.726-.432 1.434-.417 1.767.08 1.741 1.428 2.951 3.091 3.209 2.941.455 4.726-2.407 5.948-4.368.612-.981 1.083-1.737 1.487-1.737.402 0 .378.855.355 1.664-.013.45-.025.887.037 1.154.63 2.7 3.066 3.131 5.478 2.348 1.13-.367 3.27-1.567 3.196-3.038-.418-8.215-1.209-22.24-1.209-22.24s-.36-.683-.41-1.162c-.102-.985.481-1.857 1.034-2.684.166-.248.33-.492.47-.734M12.782 53.376c-3.442-.798-8.022-2.857-8.022-2.857s-2.858 5.855-3.13 9.9c-.212 3.133-.043 5.538 1.525 8.257C4.67 71.3 5.84 72.174 8.712 73.137c5.948 1.996 14.293.054 19.41-4.382l.41-.355c3.096-2.673 6.255-5.4 4.246-9.82-1.187-2.612-3.365-3.268-6.068-4.081l-.35-.106c-2.427-.734-4.66-.665-6.946-.595-2.1.065-4.247.13-6.632-.422m-2.23-19.136s2.347-.479 3.834-.274 3.052.979 3.052.979l-3.443 2.387zm40.227 7.357c.668.967 1.465 1.59 2.622 1.761.73.108 1.28.183 1.878-.313-.292-1.98-3.047-1.824-4.5-1.448" fill="#0a0a0a"/></svg>