<svg width="100" height="67" viewBox="0 0 100 67" fill="none" xmlns="http://www.w3.org/2000/svg"><path d="m69.44 28.044 1.904-3.582a.16.16 0 0 0-.038-.2c-1.175-.975-3.244-2-4.091-2.455a.166.166 0 0 0-.23.076l-1.667 3.564a.164.164 0 0 0 .06.207l3.828 2.45a.165.165 0 0 0 .234-.06m-.294-10.109c-.427.192-.974.042-1.279-.284-.568-.609-.568-2.237-.568-2.343 0-.996-.22-1.728-.568-2.485-.245-.536-.77.68-.78.922-.02.452.131.772.212 1.137.192.703.355 2.272 0 2.698s-.879.858-1.42.78c-.729-.104-1.055-.55-1.136-1.277-.07-.64 0-1.775 0-1.775.047-2.637-.465-1.669-.653-.888-.125.521-.128 1.385-.128 1.385s0 2.91.284 3.479c.284.568 1.084 1.283 2.06.852.831-.368 1.325-1.376 1.49-2.201.497.639 1.215 2.609 2.627 1.562.678-.503.97-1.48 1.066-2.272.17-1.422-.568-2.682-1.065-3.977-.16-.478-.383-1.246-.71-.284-.431 1.266 1.728 4.449.567 4.97" fill="#000"/><path fill-rule="evenodd" clip-rule="evenodd" d="m68.273 5.885-1.42-1.104s.769-2.116.552-3.472c-.288-1.803-1.93-1.498-3.234-.552-1.053.763-1.78 1.541-1.736 2.84.046 1.362 1.428 2.138 2.288 2.998l-2.051 1.972s-1.373 1.252-2.367 1.894c-2.047 1.322-5.152 3.234-6.809 3.866-.242.168-.236.302-.45.473 0 0 .483-.14.79-.237 4.327-1.366 8.866-4.082 11.834-7.573l1.735.946zm-4.26-3.392c-.483.839 1.335 1.512 1.814 1.735.134-.315.103-1.42 0-1.735-.102-.316-.212-.474-.552-.474s-1.022.057-1.262.474M39.182 17.724l-1.559-1.212s.844-2.322.607-3.81c-.317-1.98-2.12-1.644-3.55-.606-1.156.838-1.954 1.691-1.906 3.117.051 1.495 1.568 2.347 2.511 3.29l-2.25 2.165s-1.507 1.374-2.599 2.079c-2.246 1.45-5.654 3.55-7.473 4.242-.266.185-.258.332-.493.52 0 0 .53-.154.866-.26 4.75-1.5 9.73-4.48 12.989-8.312l1.904 1.039zm-4.676-3.723c-.53.921 1.466 1.66 1.992 1.905.146-.347.113-1.559 0-1.905s-.234-.52-.606-.52c-.373 0-1.123.063-1.386.52m20.57 24.848.075-.008z" fill="#000"/><path fill-rule="evenodd" clip-rule="evenodd" d="M78.332.619s2.395 5.064 3.353 8.417c.117.41.205.728.205 1.163 0 .597-1.768-.941-1.916-1.163 0 0-.216.092-.205.205.254 2.579 1.102 9.978 1.378 15.827 2.134-.913 4.12-1.818 6.513-2.8L86.576 5.106s-.39-.767-.438-1.3c-.128-1.43 1.033-2.628 1.73-3.783 0 0 2.582 5.672 3.594 9.417.124.459.216.814.21 1.298-.01.663-1.953-1.076-2.113-1.325 0 0-.242.1-.232.225.121 1.446.433 5.984.805 11.621 4.808-1.944 9.007-3.547 9.77-3.62.35-.033-.339.863-.495 1.176-.064.129-4.212 1.88-9.177 3.944.142 2.163.29 4.455.438 6.772l.101 1.58c.664 10.441 1.295 20.922 1.278 22.117-.033 2.297-.085 4.5-.479 6.769-.344 1.987-.662 3.645-1.677 5.458-.616 1.097-.186-8.213-.155-10.357l-1.98-31.313c-2.371.981-4.435 1.997-6.609 2.891.09 1.965.222 3.937.222 5.904 0 4.294-1.551 11.113-6.225 12.789-4.66 1.67-7.517-1.56-8.109-5.88-1.68 1.275-3.431 2.381-5.332 3.296.17 2.362-.554 4.308-1.8 6.292-1.71 2.718-2.908 3.984-5.127 6.214-4.531 4.552-11.041 10.199-18.022 9.477-4.275-.443-6.614-2.643-7.534-6.836q-.098-.447-.17-.907c-3.142 1.96-6.36 3.808-9.766 5.27-6.72 2.883-18.096 4.149-18.922 4.238a.11.11 0 0 1-.088-.029l-.23-.19a.125.125 0 0 1-.007-.185l.259-.26a.1.1 0 0 1 .043-.027c9.655-3.786 19.524-7.666 28.53-12.91.09-1.642.354-3.279.739-4.788.396-1.55 1.29-3.788 2.042-5.231a.2.2 0 0 1 .133-.105.211.211 0 0 1 .246.285c-.96 2.39-1.88 5.867-1.773 9.017q.6-.363 1.196-.735c2.052-1.283 8.923-5.242 8.05-7.8-1.371-4.013-4.389-7.505-4.806-11.856-.122-1.277.565-3.143.719-3.542a.12.12 0 0 1 .114-.077h.36c.035 0 .069.015.092.04l4.322 4.748a.125.125 0 0 1 .005.162l-.137.171a.13.13 0 0 1-.118.045l-1.497-.258a.125.125 0 0 0-.136.177c.38.8 1.695 3.625 2.267 5.648.536 1.897.911 3.761.624 5.74a10.54 10.54 0 0 1-1.81 4.555c-1.997 2.871-5.524 4.82-8.499 6.668a6.3 6.3 0 0 0 1.186 1.825c1.512 1.6 2.719 1.83 4.864 2.15 5.838.872 20.962-9.063 22.138-15.269.188-.99-.22-1.174-.22-1.174s-2.886.632-4.738.466q-.43-.036-.82-.058c-1.182-.072-2.124-.13-3.142-.951-1.86-1.503-1.883-3.657-1.32-5.982 1.859-7.674 10.363-5.108 12.273 1.32 0 0 .835-.108 1.356-.244 1.914-.5 4.213-2.714 5.777-3.243.408-.138.7.258.637.684-.073.5-.129 1.142-.039 1.63.726 3.947 5.999 4.822 8.851 2.539 1.61-1.288.891-9.035.726-11.902-2.75 1.13-4.749 1.95-5.09 2.097-.518.222 0-.73.457-1.37.123-.173 1.934-1.016 4.55-2.16l-1.21-20.951s-.362-.684-.411-1.164c-.134-1.282.894-2.374 1.505-3.421M51.125 37.037c.237-.903 1.297-.877 2.233-.855h.02c1.492.037 2.655 1.231 3.417 2.409 0 0-.895.177-1.475.233l-.118.012-.05.005-.076.008c-1.083.112-3.066.318-3.718-.569-.293-.398-.358-.765-.233-1.243" fill="#000"/></svg>