<svg width="99" height="74" viewBox="0 0 99 74" fill="none" xmlns="http://www.w3.org/2000/svg"><path fill-rule="evenodd" clip-rule="evenodd" d="M89.504.424s-.237-.098-.303 0c-.453.681-1.059 2.27-1.437 4.16-.083.415.454.984.454.984l.151 4.765.227.908.757 14.447-5.673 1.89-1.21-17.018c-.303-2.194 1.452 1.104 2.042.53.446-.436.271-1.047.151-1.59 0 0-1.868-4.848-3.101-7.941L81.108.424c-.521.47-.967.873-1.286 1.513-.566 1.137-.378 2.396-.378 3.63l.227.53 1.513 22.767-2.42.757s-.412.122-.606.302c-.469.437-.378 1.24-.378 1.816l3.404-1.286c.48 5.364 1.361 11.27 1.134 16.565-.076 1.788-1.142 2.951-2.798 3.63-.425.174-.686.211-1.135.303-2.89.589-5.185.495-7.413-1.437-.315-.274-.756-.757-.756-.757l6.43-2.571 1.739-3.63c-2.224-2.567-5.798-3.348-9.077-3.707-1.353-.148-3.48-.227-3.48-.227s-6.327-.005-9.68 1.89a25 25 0 0 0-.984.606s-1.745 3.695-1.589 4.009c.157.313 2.07-.4 2.95-.454 2.23-.138 3.598.807 5.22 2.345.455.432 1.058 1.21 1.058 1.21-2.035 2.036-5.372 3.026-8.244 2.723-3.038-.32-3.044-3.858-3.555-5.824-.512-1.967-1.79-29.652-1.914-32.677-.124-3.026-.817-7.034-1.135-8.169-.16-.573-1.61-5.072-2.095-4.16-.401.756.605 13.54.605 13.918 0 0 1.74 18.91 1.21 28.97-.067 1.28-.4 2.343-1.006 3.025-.605.681-4.824 3.37-7.767 1.891-2.698-1.355-2.51-4.947-4.69-6.504-1.174-.839-3.706 1.89-4.69 3.1-.652.803-2.167 3.644-2.647 6.43-.278 1.613 0 4.69 0 4.69s-3.35 1.62-5.37 2.874c-4.014 2.492-9.38 7.64-9.38 7.64s-5.823 5.041-9 3.252c-1.812-1.02-1.816-2.838-1.816-4.917 0-1.74.908-4.916.908-4.916L4.183 53.9s.29-.699 0-.757c-.246-.049-.454.454-.454.454C2.447 56.713.554 59.913.174 63.28c-.42 3.732-.304 7.278 2.95 9.152.504.29.806.435 1.362.606 5.522 1.697 10.62-5.12 14.069-7.942 3.426-2.804 9.681-5.9 9.681-5.9 1.65 2.198 5.898 8.784 8.85 5.294 1.12-1.323 1.857-2.846 1.967-4.614.125-2.018-.48-4.835-2.345-5.975-2.082-1.273-5.301-.212-7.488.302-.623-1.245-1.31-2.648-.832-3.933.506-1.364 2.019-3.32 3.403-3.782 2.67-.89 2.996 3.004 4.463 4.69 1.61 1.85 4.33 2.434 6.656 1.815 3.207-.853 5.598-6.353 5.598-6.353s-.344 6.208 3.328 8.395c.747.446 1.59.606 2.42.833.831.226 5.068-.227 7.337-2.118 1.523-1.27 4.236-2.799 4.236-2.799l.378.378s4.136 3.926 7.488 4.312c2.897.333 5.278.397 7.262-1.74 1.605-1.73 2.455-4.12 3.025-6.354 1.002-3.925.454-10.362.454-10.362l-.53-7.867 5.447-2.118.227 1.06s.932 9.44 1.285 15.505c.385 6.594.654 13.217.379 19.818l.15.075c.772-1.157 1.204-2.615 1.59-3.933 1.32-4.517.756-12.026.756-12.026L92 26.14l5.597-2.117c.18-.332.662-.874.53-1.286-.097-.303-5.409 1.636-6.127 1.89-.377-4.932-1.513-15.354-.68-14.825.762.486 1.663 1.589 1.815 1.438.127-.127.117-.28.075-.454-.68-2.875-2.612-7.492-3.706-10.363M31.79 58.288c0-.227.87-.227 1.438-.227 1.21 0 3.025.756 3.1 1.21 0 .59.001.657-.604.832-1.724.5-3.934-1.588-3.934-1.815M67.04 46.11s-3.779-2.615-3.48-2.95c.3-.334 2.021-.35 2.776-.303 1.21.075 3.505.26 4.864 1.21 1.36.952-4.16 2.043-4.16 2.043" fill="#000"/><path d="M73.998 22.207c-.13.26-18.834 7.035-19.893 7.489-.43.184 0-.606.378-1.135.378-.53 18.607-7.715 20.196-7.866.29-.028-.551 1.253-.681 1.512m-3.905 37.82c-.13.26-18.835 7.035-19.894 7.489-.429.183 0-.606.379-1.135.378-.53 18.607-7.715 20.195-7.867.29-.027-.55 1.254-.68 1.513m-23.021 13.47 1.757-3.304a.15.15 0 0 0-.035-.184c-1.084-.9-2.993-1.846-3.775-2.265a.153.153 0 0 0-.21.07l-1.54 3.287a.15.15 0 0 0 .056.192l3.532 2.26a.15.15 0 0 0 .215-.056" fill="#000"/><path d="m41.777 73.875 1.758-3.304a.15.15 0 0 0-.036-.184c-1.084-.9-2.992-1.846-3.774-2.265a.153.153 0 0 0-.212.07l-1.539 3.288a.15.15 0 0 0 .056.191l3.532 2.26a.15.15 0 0 0 .215-.056M70.67 3.903h-3.707s.153-.566.303-.908c.49-1.116 1.207-1.779 2.27-2.27 1.816-.128 3.904-.273 5.672.304.59.192.871.305 1.135.832-.862 1.719-1.919 3.516-3.48 4.69-1.687 1.268-5.219 1.739-5.219 1.739s-.302 0 .454-.53c.757-.53 5.144-2.137 5.144-3.555a12 12 0 0 0-2.572-.302M34.06 17.937h-3.706s.153-.565.303-.908c.49-1.115 1.207-1.779 2.269-2.269 1.816-.13 3.905-.273 5.673.303.59.192.871.305 1.135.832-.863 1.72-1.919 3.516-3.48 4.69-1.687 1.268-5.219 1.74-5.219 1.74s-.302 0 .454-.53 5.143-2.138 5.143-3.555a12 12 0 0 0-2.571-.303" fill="#000"/><path fill-rule="evenodd" clip-rule="evenodd" d="m23.622 28.107-1.361-1.059s.737-2.028.53-3.328c-.277-1.73-1.852-1.436-3.102-.53-1.009.732-1.706 1.478-1.664 2.724.045 1.305 1.37 2.05 2.194 2.874l-1.967 1.89s-1.316 1.2-2.27 1.816c-1.961 1.268-4.939 3.102-6.527 3.707-.233.16-.226.289-.43.453 0 0 .461-.134.755-.227 4.15-1.31 8.5-3.913 11.346-7.26l1.664.907zm-4.084-3.252c-.463.805 1.28 1.45 1.74 1.664.128-.303.098-1.362 0-1.664-.1-.303-.204-.454-.53-.454s-.98.054-1.21.454" fill="#000"/></svg>