<svg width="100" height="54" viewBox="0 0 100 54" fill="none" xmlns="http://www.w3.org/2000/svg"><path d="M1.41 30.8c.277-1.036.92-2.502 1.082-2.864a.12.12 0 0 0-.034-.14l-.106-.085a.12.12 0 0 0-.18.045c-3.147 6.913-2.58 11.283-.173 13.947 4.008 4.436 13.754 3.223 25.32-.76l7.105-3.223c.713 9.766 11.786 3.836 16.92 1.685 3.706-1.554 5.622-2.807 9.374-4.248.77-.296 1.978-.733 1.978-.733l1.583-3.237a.15.15 0 0 0 .004-.12l-.2-.501a.146.146 0 0 0-.218-.069c-3.74 2.513-11.093 5.596-13.767 4.88-3.964-1.063-8.845-6.772-7.572-9.275 1.257-2.472 9.869-3.126 14.782-1.695a.147.147 0 0 0 .188-.142v-.174a.14.14 0 0 0-.05-.11c-4.652-3.977-13.286-5.094-16.503 1.288-1.601 3.176-.543 6.84 1.538 9.521 1.007 1.298 2.251 2.284 3.662 3.107a.15.15 0 0 1 .073.127v.035c0 .06-.036.115-.093.136-.405.154-2.05.765-3.203.99-4.378.856-7.042-.064-6.665-5.127l-.366-.147c-5.888 2.344-12.303 5.855-18.677 6.3-3.718.258-9.091 1.057-12.443-.865C1.344 37.38.365 34.692 1.409 30.8m59.05 13.257c-.102.199-14.533 5.3-15.35 5.643-.331.14.004-.465.298-.87s14.361-5.826 15.584-5.933c.224-.02-.431.961-.532 1.16m15.297 9.04 1.427-2.683a.12.12 0 0 0-.028-.15c-.88-.73-2.43-1.499-3.065-1.84a.124.124 0 0 0-.172.057l-1.25 2.67a.123.123 0 0 0 .045.156l2.869 1.836c.06.038.14.017.174-.046M18.92 23.144l1.427-2.683a.12.12 0 0 0-.028-.15c-.88-.73-2.43-1.499-3.066-1.839a.124.124 0 0 0-.171.056l-1.25 2.67a.123.123 0 0 0 .045.156l2.868 1.836c.06.038.141.017.175-.046" fill="#000"/><path d="m18.041 28.124 1.427-2.682a.12.12 0 0 0-.028-.15c-.88-.73-2.43-1.5-3.066-1.84a.124.124 0 0 0-.171.057l-1.25 2.67a.123.123 0 0 0 .045.155l2.868 1.836c.06.039.141.018.175-.046" fill="#000"/><path d="m22.143 27.832 1.427-2.683a.12.12 0 0 0-.029-.15c-.88-.73-2.43-1.5-3.065-1.84a.124.124 0 0 0-.171.057l-1.25 2.67a.123.123 0 0 0 .045.156l2.868 1.835c.06.039.141.018.175-.046" fill="#000"/><path fill-rule="evenodd" clip-rule="evenodd" d="m22.046 10.304-1.072-.834s.58-1.598.417-2.622c-.218-1.362-1.458-1.131-2.443-.417-.795.576-1.344 1.164-1.31 2.145.034 1.028 1.078 1.615 1.727 2.264l-1.55 1.49s-1.036.944-1.787 1.43c-1.545.998-3.89 2.442-5.142 2.919-.183.127-.177.228-.339.358 0 0 .364-.106.596-.18 3.268-1.031 6.695-3.082 8.937-5.719l1.31.715zM18.83 7.742c-.365.634 1.008 1.142 1.37 1.31.101-.238.078-1.072 0-1.31s-.16-.358-.417-.358c-.256 0-.772.043-.953.358" fill="#000"/><path d="M78.443 3.19h-3.589s.148-.548.293-.88c.474-1.08 1.17-1.722 2.197-2.197 1.76-.125 3.782-.265 5.494.293.57.186.843.296 1.098.806-.834 1.665-1.857 3.404-3.369 4.54-1.634 1.23-5.054 1.685-5.054 1.685s-.293 0 .44-.512c.732-.513 4.98-2.07 4.98-3.443a11.7 11.7 0 0 0-2.49-.293" fill="#000"/><path d="M87.278.146s2.268 4.797 3.176 7.973c.11.389.194.69.194 1.102 0 .565-1.675-.892-1.815-1.102 0 0-.205.087-.194.194.197 2.007.495 7.164.74 12.013 1.69-.63 3.558-1.309 5.244-1.9l-.97-14.168s-.364-.499-.4-.837c-.1-.905 1.05-1.613 1.746-2.312 0 0 2.404 3.676 3.318 6.076.112.294.195.522.18.826-.022.418-1.875-.756-2.026-.92 0 0-.237.053-.23.133.117 1.163.442 5.484.788 10.375 1.412-.472 2.45-.787 2.744-.807.224-.016-.447.953-.551 1.15-.025.047-.852.354-2.113.799.507 7.218 1.027 15.219.985 16.049-.074 1.446-.164 2.83-.587 4.245-.37 1.237-.708 2.269-1.726 3.37-.617.666-.032-5.18.036-6.53L94.702 19.58c-1.648.57-3.533 1.214-5.27 1.807.285 5.77 3.005 17.83-3.884 20.14-2.65.89-5.226-.838-5.127-3.735l-.513-.146c-2.069 2.617-4.795 5.48-8.423 5.127-4.76-.463-5.032-4.875-5.42-8.863-.34-3.501-.327-6.424-.272-9.219-2.776 1.015-5.133 1.875-5.45 2.01-.33.14.002-.466.294-.873.115-.161 2.395-1.123 5.179-2.231-.023-5.173-.41-10.195-1.143-15.48-.19-1.37-.845-2.726-1.025-4.09-.143-1.087.468-2.012.935-2.96.045-.092.166-.113.233-.036 1.632 1.88 1.926 6.726 2.201 9.954.401 4.713.431 8.377.366 12.086 3.959-1.554 8.146-3.194 8.808-3.255.223-.02-.427.963-.527 1.163-.055.11-4.222 1.732-8.296 3.223-.033 4.116.144 8.157.894 12.199 1.314 4.64 6.85 2.61 9.668.44 1.231-.948 2.1-2.284 3.223-3.351l.732.127c-.531 1.852-.169 4.037 2.051 4.395 2.687.433 4.501-2.066 4.367-4.522l-.851-11.362c-1.853.633-3.432 1.109-3.67 1.204-.334.134.01-.465.312-.865.087-.117 1.342-.637 3.11-1.318L86.24 4.49s-.342-.649-.39-1.103c-.126-1.214.848-2.249 1.427-3.24" fill="#000"/></svg>