<svg width="100" height="83" viewBox="0 0 100 83" fill="none" xmlns="http://www.w3.org/2000/svg"><path d="M36.172 32.734s-5.037 4.504-7.105 8.204c-1.668 2.984-4.112 8.552-2.93 12.232 1.114 3.468 4.759 4 7.984 4.688 5.494 1.172 9.44.87 5.274 4.542-3.32 2.926-5.763 3.85-9.742 5.786-5.331 2.593-12.466 5.777-18.605 4.322-2.094-.497-3.711-1.001-5.054-2.198-4.501-4.01-6.006-9.595-.22-23 .084-.194.073-.293 0-.366s-.586 0-.586 0C1.597 54.05-2.359 64.154 1.745 71.85c1.507 2.823 3.326 4.907 6.08 5.493 5.146 1.095 9.012.978 14.283-.879 7.691-2.71 15.236-7.618 19.63-11.793 1.123-1.066 1.386-2.033 1.832-3.516.55-1.83.44-3.516.44-3.516 0-4.028-7.386-4.896-11.574-6.08-1.59-.69-5.66-1.711-4.468-4.394.88-1.978 3.33-4.712 4.908-6.592 1.577-1.88 3.662-3.297 3.662-3.297s2.051-1.391 3.956-.805c.634.195.952 1.318.952 1.318.513 3.736 3.806-2.274 2.05-4.907-1.904-2.857-4.54-2.49-7.324-.147" fill="#000"/><path d="M20.174 44.038c-.56.252-1.279.056-1.68-.374-.747-.8-.747-2.94-.747-3.08 0-1.308-.29-2.27-.746-3.266-.323-.704-1.013.896-1.027 1.213-.025.593.174 1.014.28 1.494.252.924.467 2.986 0 3.546-.466.56-1.156 1.128-1.866 1.027-.959-.137-1.387-.725-1.494-1.68-.093-.84 0-2.334 0-2.334.062-3.465-.61-2.193-.858-1.166-.165.685-.168 1.82-.168 1.82s0 3.826.373 4.573 1.425 1.686 2.707 1.12c1.093-.483 1.743-1.809 1.96-2.893.653.84 1.595 3.43 3.453 2.053.89-.66 1.275-1.944 1.4-2.987.224-1.868-.746-3.524-1.4-5.226-.21-.63-.503-1.639-.934-.373-.566 1.663 2.273 5.847.747 6.533m53.324-31.073c-.145.3-21.447 8.365-22.652 8.902-.488.218-.01-.693.414-1.305.424-.613 21.176-9.14 22.992-9.34.332-.037-.61 1.444-.754 1.743m-14.242 60.85c-.144.299-21.446 8.365-22.651 8.902-.489.217-.01-.693.414-1.306.424-.612 21.176-9.14 22.992-9.34.331-.036-.61 1.444-.755 1.744m8.101-42.96 2.102-3.952a.18.18 0 0 0-.042-.22c-1.296-1.077-3.58-2.209-4.515-2.71a.183.183 0 0 0-.252.083l-1.842 3.933a.18.18 0 0 0 .067.23l4.225 2.703a.18.18 0 0 0 .257-.067" fill="#000"/><path d="m72.967 30.855 2.103-3.952a.18.18 0 0 0-.042-.22c-1.297-1.077-3.58-2.209-4.516-2.71a.183.183 0 0 0-.252.083l-1.841 3.933a.18.18 0 0 0 .066.23l4.225 2.703a.18.18 0 0 0 .257-.067" fill="#000"/><path fill-rule="evenodd" clip-rule="evenodd" d="m25.354 25.751-1.58-1.229s.856-2.353.614-3.861c-.32-2.007-2.147-1.667-3.598-.615-1.17.85-1.98 1.715-1.93 3.16.051 1.515 1.588 2.378 2.544 3.335l-2.281 2.194s-1.527 1.392-2.633 2.106c-2.277 1.471-5.732 3.599-7.575 4.3-.27.188-.262.337-.5.527 0 0 .537-.155.878-.263 4.814-1.52 9.863-4.54 13.165-8.425l1.93 1.053zm-4.74-3.774c-.537.934 1.486 1.682 2.02 1.931.148-.351.114-1.58 0-1.93-.115-.352-.237-.527-.615-.527s-1.138.063-1.404.526m28.771 26.711c-1.099 4.536 1.142 6.694 5.341 7.07.282.025.63.034 1.017.045 1.89.053 4.694.132 4.983 2.155.69 4.83-22.481 14.466-26.162 16.586-.777.447-18.166 7.996-18.166 7.996 7.77-.32 22.312-4.442 22.312-4.442s18.608-9.783 22.016-15.204a26.9 26.9 0 0 0 2.064-7.331s2.886-1.791 4.963-2.266c1.783-.407 1.523.417 2.59 1.619 1.92 2.164 3.466 3.369 6.365 3.56 7.036.464 9.185-8.026 9.185-13.9 0-.698-.14-4.325-.25-6.93l-.102-2.23c2.307-.888 4.744-1.828 6.91-2.672l2.33 34.16c-.062 2.576-.755 13.753.135 12.445 1.468-2.16 1.936-4.147 2.445-6.528.583-2.72.675-5.365.742-8.124.041-1.694-1.102-18.969-2.11-33.343 1.897-.753 3.147-1.27 3.181-1.342.145-.3 1.086-1.78.755-1.744-.437.048-1.973.58-4.057 1.366-.585-8.296-1.106-15.332-1.293-17.352-.014-.152.334-.267.334-.267.227.303 2.991 2.426 3.01 1.628.015-.58-.115-1.009-.288-1.562C96.22 7.564 92.573.706 92.573.706 91.567 2.08 89.896 3.5 90.067 5.219c.064.643.616 1.57.616 1.57l1.651 24.216a440 440 0 0 0-6.868 2.786c-.386-8.088-.943-18.232-1.29-21.761-.016-.158.286-.287.286-.287.206.31 2.673 2.456 2.673 1.624 0-.608-.122-1.05-.286-1.624C85.512 7.065 82.17 0 82.17 0c-.853 1.461-2.287 2.985-2.1 4.774.069.668.572 1.623.572 1.623l2.033 28.565c-3.2 1.36-5.597 2.442-5.738 2.646-.425.613-.903 1.523-.415 1.306.398-.177 2.976-1.171 6.26-2.436l.292 4.088c.072 3 1.335 7.933-.324 10.681-2.142 3.547-7.66 2.188-10.142-.215-.103-1.478 1.112-1.867 1.727-3.021 1.256-2.359 1.615-5.161 1.079-7.768-1.13-5.486-5.943-8.306-8.416-2.482-1.11 2.616-.646 5.261-.431 7.984.238 3.026 1.152 2.744-1.835 4.1-.826.375-2.157.863-2.157.863-1.23-2.108-2.158-4.1-4.314-5.79-3.89-2.425-7.776-.772-8.876 3.77m7.965 2.553c-.77-1.191-1.896-2.57-3.404-2.607-.781-.02-2.075.064-2.33 1.036-.747 2.851 4.315 1.851 5.702 1.577zm12.777-11.646c-1.44 0-2.32 1.516-2.374 2.805-.127 3.014.97 4.738 2.374 4.748 1.58.01 3.521-1.969 3.992-3.237.798-2.153-2.223-4.316-3.992-4.316" fill="#000"/></svg>