<svg width="100" height="54" viewBox="0 0 100 54" fill="none" xmlns="http://www.w3.org/2000/svg"><path fill-rule="evenodd" clip-rule="evenodd" d="M84.893 7.154s-.177.076-.168.169l.955 10.68a296 296 0 0 1 5.085-1.986l-.489-11.524s-.43-.767-.43-1.123c0-.785.676-2.8 1.107-3.308s2.437 4.931 3.062 7.431c.076.306.133.543.123.864-.015.44-1.663-1.181-1.767-1.349 0 0-.162.063-.156.146.063.986.28 4.045.474 8.232 1.544-.567 3.21-1.187 3.51-1.215.2-.02-.379.862-.468 1.04-.024.05-1.53.67-2.993 1.221.245 5.316.524 10.691.782 15.995 1.868.201 4.597.096 6.48.222 0 0-1.167 2.717-1.645 3.139-.155.137-.478.225-.478.225a40 40 0 0 0-3.97.252 33 33 0 0 1-.47 3.823c-.254 1.315-1.076 3.31-1.253 3.7s-.225-5.424-.14-7.3c-2.016.402-3.928 1.057-5.8 1.9-2.423 1.093-3.902 2.408-6.43 3.231 0 0-2.22 1.022-3.54.723-1.97-.446-3.369-3.954-3.369-3.954s-.385 2.015-1.215 2.939c-.934 1.039-1.82 1.652-3.216 1.57-1.246-.075-1.991-.607-2.785-1.57-.667-.81-1-2.493-1-2.493s-1.42 2.313-2.8 3.277l-.067.047c-1.42.992-2.484 1.736-4.21 1.477-1.247-.188-2.043-.552-2.847-1.524-.777-.94-.97-2.97-.97-2.97s-2.535 3.574-5 4.432l-.022.008c-1.684.586-2.919 1.016-4.562.315-1.95-.83-3.062-4.477-3.062-4.477s-.606 4.082-2.616 4.754c-.94.315-1.593.298-2.539 0-1.086-.343-1.753-.79-2.307-1.785-.554-.992.292-2.4-.677-3.2-.366-.301-1.338.48-2.74 1.093-5.092 2.227-10.676 4.316-16.247 4.861-3.23.317-5.276.913-8.308-.246-5.326-2.035-6.57-7.093-5.2-11.324.399-1.234 1.43-3.893 1.892-3.893S.862 32.955.945 35.173c.145 3.854 2.092 5.02 5.554 6.186 6.116 2.059 13.38-.234 19.264-2.216 3.146-1.06 7.697-3.113 8.63-3.538.07-.032.145.032.13.108-.111.54-.382 2.13.04 3.091.534 1.216 1.504 1.918 2.678 1.985 1.104.063 2.415-.436 2.892-1.6 1.136-2.77-1.914-7.54-1.677-9.755s.339-2.723.692-2.954c.734-.478 1.256 2.12 1.74 3.724.88 2.925.635 7.323 2.83 9.447 1.893 1.83 5.188.601 7.14-.508 1.786-1.016 3.784-4.158 4.43-3.662.447.343-.388 1.67 0 2.523.463 1.017 1.109 1.488 2.185 1.785 2.339.646 4.542-.56 5.985-1.677 1.173-.908 2.462-3.292 2.847-3.092.655.34-.524 1.822 0 2.769 1.34 2.424 3.96 1.36 5.585 0 1.165-.976 1.662-3.472 2.17-3.231.707.336-.06 2.065.707 2.985.646.774 1.285 1.036 2.277 1.215 2.77.5 6.757-2.04 9.2-3.63 0 0-3.937-.661-7.292-1.062-1.108-.133-3.772-.478-4.893-.462-.045-1.12.925-2.327 1.754-3.108 2.194-.334 6.293-1.438 8.093-2.831.631-.488.293-6.115.167-7.94-1.644.607-2.725 1.08-2.936 1.17-.296.127.001-.805.261-1.17.076-.105 1.1-.415 2.675-1.065L82.905 5.368l-.26-1.183C82.326 2.856 83.17 0 83.599 0s2.867 7.051 2.867 8.11c0 .489-1.452-.773-1.573-.956m-1.618 23.849s1.142-1.586 1.618-2.73c1.138-2.73 1.024-6.458.845-9.327 1.566-.577 3.506-1.285 5.027-1.852l1.087 15.142c-2.684-.324-5.907-.732-8.577-1.233" fill="#000"/><path d="m39.257 50.77-.317.595 2.691 1.723c.06.038.14.017.174-.046l1.422-2.672a.12.12 0 0 0-.029-.15c-.876-.727-2.42-1.493-3.053-1.832a.124.124 0 0 0-.17.056l-.946 2.019q.105.079.2.158a.12.12 0 0 1 .028.149" fill="#000"/><path d="m36.005 48.845-1.245 2.66a.12.12 0 0 0 .044.154l2.858 1.829c.06.038.14.017.174-.046l1.104-2.077-.166-.106a.12.12 0 0 1-.045-.155l.3-.641c-.895-.678-2.267-1.36-2.854-1.675a.124.124 0 0 0-.17.056m17.492 4.028c.556-.261 14.712-5.633 14.777-5.776s.483-1.003.33-.984c-.84.105-14.52 5.37-14.714 5.663-.193.292-.618 1.203-.393 1.097m-34.703-1.764-1.422 2.673a.12.12 0 0 1-.174.045l-2.857-1.828a.12.12 0 0 1-.045-.155l1.245-2.66a.124.124 0 0 1 .171-.056c.633.339 2.177 1.104 3.053 1.832a.12.12 0 0 1 .029.15" fill="#000"/><path fill-rule="evenodd" clip-rule="evenodd" d="m23.916 26.537-1.103-.86s.54-1.472.382-2.462c-.21-1.317-1.323-1.114-2.275-.423-.556.403-1.217 1.257-1.184 2.206.034.994 1.006 1.345 1.634 1.973l-1.717 1.486c-1.138.704-2.882 1.834-4.331 2.674-1.374.796-2.483 1.358-2.483 1.591 0 .234 4.18-1.443 4.18-1.443s2.883-1.46 5.051-4.01l1.082.742zm-3.111-2.478c-.353.613.975 1.105 1.325 1.268.098-.23.075-1.037 0-1.268-.075-.23-.155-.345-.403-.345s-.747.041-.922.345" fill="#000"/><path d="M73.336 3.466h2.416c.356.005 1.584.02 1.68.289.042.118-.288.307-.288.307-.702.371-2.787 1.499-3.527 2.052-.087.065-.032.156.073.125l2.511-.734s.68-.169 1.173-.616c.578-.523 2.057-2.23 1.923-2.884-.153-.75-3.839-.543-4.442-.5-.832.384-1.24 1.127-1.519 1.961" fill="#000"/></svg>