<svg width="100" height="58" viewBox="0 0 100 58" fill="none" xmlns="http://www.w3.org/2000/svg"><path fill-rule="evenodd" clip-rule="evenodd" d="m26.783 22.767-1.184-.92s.641-1.763.46-2.892c-.24-1.503-1.608-1.248-2.694-.46-.877.636-1.483 1.284-1.446 2.366.039 1.134 1.19 1.781 1.906 2.497l-1.709 1.643s-1.143 1.043-1.972 1.578c-1.705 1.101-4.292 2.694-5.672 3.22-.202.14-.196.252-.374.395 0 0 .401-.117.657-.197 3.605-1.139 7.386-3.401 9.859-6.31l1.446.789zm-3.55-2.826c-.402.699 1.113 1.26 1.512 1.446.111-.263.086-1.183 0-1.446s-.177-.395-.46-.395-.852.048-1.052.395" fill="#000"/><path d="M40.525 16.65h-2.7s.11-.412.22-.662c.356-.813.88-1.296 1.653-1.653 1.324-.095 2.846-.2 4.135.22.43.14.635.223.826.606-.628 1.253-1.398 2.563-2.535 3.418-1.23.924-3.804 1.268-3.804 1.268s-.22 0 .331-.386 3.748-1.558 3.748-2.59a8.8 8.8 0 0 0-1.874-.221m12.482 5.412 1.528-2.873a.13.13 0 0 0-.03-.16c-.943-.783-2.603-1.606-3.283-1.97a.133.133 0 0 0-.184.06l-1.338 2.86a.13.13 0 0 0 .048.166l3.072 1.966a.13.13 0 0 0 .187-.049" fill="#000"/><path d="m57.41 22.062 1.529-2.873a.13.13 0 0 0-.03-.16c-.943-.783-2.604-1.606-3.284-1.97a.133.133 0 0 0-.183.06l-1.339 2.86a.13.13 0 0 0 .048.166l3.072 1.966a.13.13 0 0 0 .188-.049M41.21 56.6l1.528-2.873a.13.13 0 0 0-.03-.16c-.943-.783-2.603-1.606-3.284-1.97a.133.133 0 0 0-.183.06l-1.339 2.86a.13.13 0 0 0 .048.166l3.072 1.966a.13.13 0 0 0 .188-.049" fill="#000"/><path d="m45.81 56.173 1.53-2.873a.13.13 0 0 0-.03-.16c-.944-.783-2.604-1.607-3.284-1.97a.133.133 0 0 0-.183.06l-1.339 2.86a.13.13 0 0 0 .048.166l3.072 1.966a.13.13 0 0 0 .187-.049m35.126-35.322c-.11.22-15.909 5.942-16.803 6.326-.363.155 0-.511.319-.959.32-.447 15.718-6.517 17.06-6.645.244-.023-.466 1.06-.576 1.278" fill="#000"/><path fill-rule="evenodd" clip-rule="evenodd" d="m61.164 41.037.196.028a9.8 9.8 0 0 0 1.587-3.27c1.182-4.374-.797-11.064-5.734-12.028-4.913-.959-8.166 7.744-3.385 9.235 1.982.618 6.667-.575 7.761 1.89.78 1.757-4.2 3.812-5.69 4.271-4.142 1.277-6.972 1.204-8.824-2.974-1.263-2.847-.688-4.84-1.643-7.804-.496-1.537-1.378-3.615-1.378-3.615-.97-.493-1.637 2.36-1.364 3.615 1.062 2.534 2.282 7.804 1.789 9.793-.498 2.008-2.364 2.041-3.977 1.528-1.581-.504-1.967-1.283-2.201-2.876-.148-1.003.52-1.706-.46-2.415-.181-.131-3.532 1.506-5.817 2.415-5.615 2.235-11.225 3.755-17.303 4.179-3.546.247-6.977.428-10.173-1.405-3.266-1.874-4.2-4.438-3.204-8.15.265-.987.878-2.386 1.032-2.73a.11.11 0 0 0-.032-.135l-.1-.08a.113.113 0 0 0-.174.042c-3 6.593-2.46 10.76-.164 13.3 3.822 4.231 13.32 4.43 24.35.631l10.32-4.304c.08 2.02.725 4.388 2.694 5.34 3.411 1.648 5.685-1.755 6.162-4.815 0 0 .358 1.34.788 2.103 1.392 2.47 3.19 2.978 5.9 2.925 3.205-.063 6.382-1.463 8.523-3.796q.198-.425.397-.833a.12.12 0 0 1 .124-.065m-2.358-9.704s-.627-1.004-1.265-1.458c-.648-.462-2.93-1.427-3.287-.136-.58 2.098 3.545 1.858 4.552 1.594" fill="#000"/><path d="M51.104 53.198c-.25.35-.533.87-.25.749.382-.164 3.746-1.414 7.18-2.686-.002 1.074.143 2.163.556 3.11 1.063 2.436 3.778 3.742 6.312 2.799 1.252-.467 1.922-1.937 2.942-2.8 4.511-3.813 5.445-6.737 12.282-9.149 7.785-2.747 8.582-7.463 8.724-20.037 1.886-.695 2.881-1.054 4.692-1.729l1.57 20.176c0 1.677-.23 8.963.238 8.098.774-1.43 1.003-2.73 1.25-4.287.283-1.78.298-3.503.298-5.3 0-.934-.779-11.256-1.416-19.414 1.703-.644 3.88-1.454 3.91-1.512.106-.213.797-1.265.558-1.243-.357.034-2.743.852-4.565 1.52-.557-7.1-.703-12.12-.865-13.769-.01-.098.178-.178.178-.178.129.193 1.668 1.531 1.668 1.012 0-.379-.077-.655-.179-1.012C95.353 4.628 93.269.22 93.269.22c-.531.912-1.426 1.862-1.31 2.978.044.417.358 1.012.358 1.012l1.129 18.006c-1.843.698-2.81 1.091-4.636 1.825-.205-5.44-.881-10.826-1.421-16.312-.01-.102.184-.184.184-.184.132.199 1.718 1.577 1.718 1.042 0-.39-.08-.674-.184-1.042C88.247 4.54 86.1 0 86.1 0c-.548.939-1.47 1.918-1.35 3.067.045.43.368 1.043.368 1.043l1.477 20.86c-1.646.686-2.785 1.196-2.868 1.312-.31.435-.663 1.084-.31.932.231-.099 1.49-.566 3.214-1.202l.193 2.992c.148 2.554.714 6.044-.833 8.337-2.473 3.664-1.737 1.502-9.38 5.776-7.642 4.274-12.63 15.085-17.069 10.004-.505-.579-.732-1.31-.772-2.134 2.545-.945 4.332-1.705 4.368-1.776.085-.172.64-1.017.449-.999-.423.04-2.278.787-4.78 1.745.313-2.884 2.224-6.489 2.649-8.744a.116.116 0 0 0-.097-.148q-.336.455-.717.87c-1.08 2.307-2.132 4.97-2.47 7.434a16 16 0 0 0-.095.868c-3.52 1.361-6.835 2.766-6.975 2.96" fill="#000"/><path d="M73.09 32.448c.256.274.714.4 1.072.239.973-.438-.838-3.107-.477-4.169.275-.807.462-.163.596.238.418 1.086 1.036 2.143.893 3.335-.08.665-.325 1.484-.893 1.906-1.185.878-1.786-.775-2.203-1.31-.139.692-.553 1.537-1.25 1.846-.818.36-1.49-.239-1.728-.715s-.238-2.918-.238-2.918.002-.724.108-1.161c.157-.655.587-1.466.547.744 0 0-.06.953 0 1.489.068.61.342.984.953 1.072.454.065.893-.298 1.191-.655s.16-1.673 0-2.263c-.068-.306-.195-.575-.179-.953.01-.202.45-1.223.655-.774.292.635.477 1.25.477 2.084 0 .09 0 1.455.476 1.965M20.783 53.86l-1.306 2.455a.11.11 0 0 1-.16.042l-2.624-1.68a.11.11 0 0 1-.042-.142l1.144-2.444a.114.114 0 0 1 .157-.051c.58.31 2 1.014 2.805 1.683.04.033.05.09.026.137" fill="#000"/></svg>