<svg width="100" height="83" viewBox="0 0 100 83" fill="none" xmlns="http://www.w3.org/2000/svg"><path d="M81.421 10.412C80.236 6.264 77.273 0 77.273 0c-.755 1.295-2.027 2.646-1.862 4.233.062.592.508 1.439.508 1.439l1.678 27.14c.161 1.727-.564 2.564-2.01 3.347-2.032 1.102-4.483.82-6.504-.19-2.89-1.447-2.755-1.992-5.166 1.147-4.863 6.332-8.161 9.997-16 13.172a.2.2 0 0 0-.102.098l-1.635 3.54a.19.19 0 0 0 .039.216l.336.336q.047.047.115.055l15.403 1.67c.162.018.23.212.104.316-2.489 2.08-10.033 5.76-12.992 4.512-1.398-.59-1.607-2.018-1.721-3.348-.116-1.338.153-2.745-1.627-1.435-2.772 2.04-4.337 4.992-7.844 6.027-8.503 2.507-8.231-7.055-9.374-12.914-.824-4.224-1.532-8.49-3.061-12.532-1.12-2.96-2.468-5.492-4.549-7.89a.146.146 0 0 0-.253.074l-.737 4.789q-.01.062.02.117c2.652 5.094 4.97 10.467 5.71 16.207.238 1.85.773 3.036-.287 4.687-3.822 5.951-10.99 11.7-18.08 12.436-8.221.854-6.365-7.245-4.571-13.146a.19.19 0 0 0-.184-.247h-.085c-.08 0-.152.05-.18.126C1.21 57.16.163 60.505.016 63.901c-.54 12.47 12.452 7.474 19.228 2.104 3.57-2.829 7.06-6.53 7.844-11.192.532 1.425.54 2.82.765 4.305.806 5.3 2.57 8.81 8.801 8.13 3.869-.42 6.152-3.573 8.545-6.334a.18.18 0 0 1 .163-.062c.532.078.74.347.762.849.479 10.522 12.988-.335 19.993-2.583 2.644-.849 4.221-1.054 6.983-1.34 1.99-.205 4.995-.196 5.623-.192.073 0 .138-.04.17-.106l1.823-3.644a.2.2 0 0 0 .008-.153l-.216-.575a.19.19 0 0 0-.16-.124l-23.72-2.268a.19.19 0 0 1-.172-.19v-.3c0-.063.03-.121.08-.157.253-.18 1.045-.75 1.546-1.187 2.423-2.113 3.739-4.911 5.453-7.557.432-.667 1.087-1.637 1.282-1.925.035-.053.096-.087.157-.072.826.21.7 3.027.952 3.815.843 2.627 2.952 4.356 5.357 5.548 0 0 .558-.103.86-.287 1.637-.992.718-5.368.383-6.792 1.736.154 2.812-.648 4.018-1.818 2.612-2.532 3.323-6.996 3.635-10.426-.328-7.408-.769-15.048-1.128-18.702-.014-.14.254-.254.254-.254.182.275 2.37 2.178 2.37 1.44 0-.539-.109-.932-.254-1.44" fill="#000"/><path d="M70.334 21.165c-.135.283-20.21 7.988-21.344 8.5-.46.208-.013-.654.385-1.234s19.95-8.719 21.663-8.915c.313-.035-.57 1.366-.704 1.65m7.078 51.081c-.134.284-20.209 7.988-21.344 8.5-.46.208-.012-.653.386-1.233s19.95-8.72 21.663-8.915c.313-.036-.57 1.365-.705 1.648M65.67 72.7l1.863-3.504a.16.16 0 0 0-.037-.195c-1.15-.954-3.174-1.958-4.003-2.402a.16.16 0 0 0-.224.073l-1.633 3.487a.16.16 0 0 0 .06.204l3.745 2.397a.16.16 0 0 0 .228-.06M42.52 82.84l1.864-3.504a.16.16 0 0 0-.038-.195c-1.15-.955-3.174-1.958-4.003-2.402a.16.16 0 0 0-.224.073L38.487 80.3a.16.16 0 0 0 .059.204l3.746 2.397a.16.16 0 0 0 .228-.06" fill="#000"/><path d="m47.494 82.84 1.864-3.504a.16.16 0 0 0-.037-.195c-1.15-.955-3.174-1.958-4.004-2.402a.16.16 0 0 0-.224.073L43.461 80.3a.16.16 0 0 0 .059.204l3.746 2.397a.16.16 0 0 0 .228-.06" fill="#000"/><path fill-rule="evenodd" clip-rule="evenodd" d="m18.287 24.171-1.4-1.089s.758-2.087.544-3.424c-.284-1.78-1.904-1.477-3.19-.545-1.038.753-1.756 1.52-1.712 2.802.046 1.343 1.409 2.109 2.257 2.957l-2.024 1.945s-1.353 1.234-2.334 1.868c-2.019 1.304-5.082 3.19-6.716 3.813-.24.165-.232.297-.443.467 0 0 .475-.138.778-.234 4.269-1.348 8.745-4.026 11.672-7.47l1.712.934zm-4.202-3.346c-.476.828 1.317 1.492 1.79 1.712.132-.311.102-1.4 0-1.712-.101-.311-.21-.467-.545-.467s-1.008.056-1.245.467" fill="#000"/><path d="M65.16 6.27h-4.687s.193-.715.383-1.148c.62-1.411 1.527-2.25 2.87-2.87 2.297-.163 4.938-.346 7.174.383.746.243 1.102.386 1.435 1.052-1.09 2.174-2.426 4.447-4.4 5.931-2.134 1.604-6.6 2.2-6.6 2.2s-.383 0 .573-.67c.957-.67 6.505-2.703 6.505-4.495a15.3 15.3 0 0 0-3.252-.383m12.144 40.423c-.46.207-.012-.654.385-1.234.201-.293 5.28-2.51 10.482-4.661L86.32 7.34s-.48-.847-.53-1.43c-.134-1.56 1.362-2.833 2.268-4.072 0 0 3.164 6.254 4.373 10.364.148.503.259.892.24 1.42-.025.722-2.454-1.228-2.653-1.505 0 0-.309.102-.298.239.216 2.725.971 15.505 1.611 27.15 3.931-1.586 7.351-2.886 8.024-2.963.313-.036-.57 1.366-.705 1.649-.054.113-3.29 1.41-7.229 2.96.512 9.395.927 17.681.889 18.777-.087 2.502-.196 4.9-.74 7.362-.477 2.155-.911 3.953-2.236 5.899-.801 1.178-.073-8.953.008-11.29l-1.08-19.509c-5.148 2.014-10.392 4.046-10.956 4.3" fill="#000"/></svg>