<svg width="100" height="68" viewBox="0 0 100 68" fill="none" xmlns="http://www.w3.org/2000/svg"><path fill-rule="evenodd" clip-rule="evenodd" d="M54.299 31.782c-.247.38-1.174 1.901-.88 1.76.22-.107 3.13-1.267 4.902-2.012.036 1.535.216 5.6.285 7.153l.002.03q.023.533.044 1.093-.556-.105-1.068-.231c-2.758-.68-4.174-1.52-6.93-2.209-6.2-1.548-13.108-2.553-14.688 5.1-.565 2.732.7 7.11.7 7.11s-3.016-2.184-4.381-4.74c-1.71-3.199-1.581-5.716-2.406-9.948-.826-4.231-1.593-9.65-3.125-13.7-1.122-2.967-3.084-6.954-5.168-9.357a.146.146 0 0 0-.254.074l-.739 4.798q-.009.062.02.117c2.153 4.135 7.596 18.014 5.818 21.336-3.344 6.248-13.26 12.424-20.362 13.162-8.237.856-4.001-8.098-2.204-14.01a.19.19 0 0 0-.184-.247h-.086c-.08 0-.152.05-.18.126C2.26 40.371.164 44.73.016 48.133c-.54 12.493 12.476 7.489 19.265 2.108 3.577-2.834 7.841-6.928 8.626-11.6.533 1.428.955 5.48 1.181 6.967.305 2 .875 3.102 2.012 4.776 1.915 2.82 7.02 5.19 7.02 5.19s.252 1.913.61 1.957c.593.071.88-1.958.88-1.958s3.215-.287 8.53-2.531c4.15-1.753 7.73-4.105 11.031-5.67.207 1.5.508 2.94.96 4.22 2.608 7.374 11.35 4.004 16.054.907.427.878.877 1.748 1.451 2.54 1.566 2.16 4.836 4.498 7.573 2.902 1.83-1.068 2.097-3.552 2.085-5.442-.03-4.83-3.135-7.059-7.527-6.03-.687.16-1.723.544-1.723.544l-.408-.544c-1.754-6.653-2.179-13.885-2.63-20.723-.342-5.18-.391-8.095-.408-13.286-.002-.602 0-1.542 0-1.542l.998.771 1.178.77.227-.18C76.317 8.365 74.481 4.57 72.83.987h-.226l-1.406 4.08s.364 1.26.499 2.086c.117.72.181 1.86.181 1.86a227 227 0 0 0 2.54 34.235c.267 1.784.68 4.57.68 4.57-.953 1.143-3.417 1.93-5.051 2.547-3.825 1.444-6.71.988-8.135-2.527l-.006-.02a23 23 0 0 1-.265-1.463c.895-.303 1.773-.514 2.642-.605 1.053-.109 1.975.19 2.622-.107.269-.124 1.596-3.627 1.49-4.525-.05-.416-3.747-.502-7.341-.945-.193-3.178-.294-6.597-.362-9.38 3.787-1.49 9.503-3.66 9.552-3.77.083-.185.629-1.105.427-1.076-.653.092-6.25 1.665-9.98 3.356-.123-5.944-.59-10.108-.827-14.755-.183-3.924-.556-7.96-1.838-11.7-.054-.159-1.243-2.803-1.437-2.102l-.943 3.418a.1.1 0 0 0 0 .063c.091.338.902 3.354 1.278 5.36 1.371 7.328 1.433 13.114 1.595 20.614-1.778.682-4.142 1.46-4.22 1.58m30.048 20.173c-.592-1.223-3.128-.923-4.352-.682-.116.023-.176.15-.108.245 1.074 1.502 5.517 2.621 4.46.437M37.474 44.17c.646 2.694 2.137 6.213 2.137 6.213 2.811.688 4.803-.185 7.451-1.077 4.322-1.456 10.523-5.064 10.523-5.064s-11.618-4.345-16.143-3.68c-1.817.266-4.468 1.526-3.968 3.608" fill="#000"/><path d="m56.1 57.783-1.926 3.62a.166.166 0 0 1-.235.06l-3.87-2.475a.166.166 0 0 1-.06-.21l1.686-3.602a.17.17 0 0 1 .231-.076c.857.46 2.947 1.496 4.135 2.482a.16.16 0 0 1 .038.201m-9.401 9.587c.757-.357 16.705-6.543 16.793-6.738.09-.194.66-1.368.45-1.342-1.146.143-16.444 6.185-16.707 6.584-.263.398-.843 1.64-.536 1.495m-5.04-51.752c-.041.11-.212.212-.212.212-.248-1.703-.853-4.452-2.547-5.376-1.803-.983-3.373 1.792-1.486 2.688.587.279.627.168 1.132 0 1.15-.383 2.143 3.247 2.335 4.103.1.45.036.926.151 1.37a.12.12 0 0 0 .204.053c1.193-1.227 1.107-4.166 1.625-5.526.297-.778.418-1.473 1.132-1.98.744-.177.976.454 1.409.913a.126.126 0 0 0 .167.016c.534-.392.732-1.144.546-1.778-.273-.936-1.307-1.434-2.122-.85-2.236 1.604-1.698 4.457-2.334 6.155M61.194 5.58h3.43c.505.005 2.248.026 2.385.409.06.168-.41.436-.41.436-.996.527-3.956 2.128-5.007 2.912-.123.093-.045.222.104.179l3.565-1.043s.965-.24 1.666-.874c.82-.742 2.92-3.166 2.73-4.095-.219-1.064-5.451-.77-6.307-.71-1.181.546-1.761 1.6-2.156 2.785M99.293 22.2c.123-.247.926-1.47.65-1.443-.415.04-6.45 2.204-8.567 2.98-.648-8.246-.574-11.83-.763-13.744-.01-.114.208-.207.208-.207.149.225 2.226 2.237 2.226 1.634 0-.44-.492-1.865-.61-2.28C91.469 5.75 88.9 0 88.9 0c-.618 1.058-1.752 3.229-1.617 4.525.05.484.503 1.472.503 1.472l1.06 18.782c-2.141.81-5.398 2.065-5.89 2.262-.491.198-.592 1.455-.377 1.455.216 0 4.164-1.55 6.267-2.334l1.698 24.614c0 1.949-.861 6.356-.317 5.351l.027-.05c.89-1.642 1.73-3.192 2.014-4.983.328-2.067.544-4.398.544-6.485 0-1.085-.584-9.962-1.324-19.438 1.978-.747 7.77-2.903 7.805-2.97" fill="#000"/><path fill-rule="evenodd" clip-rule="evenodd" d="m14.21 21.729-1.103-.858s.597-1.643.43-2.695c-.225-1.4-1.5-1.163-2.512-.429-.817.593-1.382 1.197-1.348 2.205.036 1.057 1.109 1.66 1.777 2.328L9.86 23.81s-1.066.972-1.838 1.47c-1.589 1.027-4 2.512-5.286 3.002-.188.13-.183.234-.349.367 0 0 .375-.108.613-.184 3.36-1.06 6.883-3.169 9.188-5.88l1.347.735zm-3.308-2.634c-.375.651 1.037 1.174 1.41 1.347.103-.245.079-1.102 0-1.347-.08-.245-.166-.368-.43-.368-.263 0-.794.044-.98.368" fill="#000"/></svg>