<svg width="100" height="66" viewBox="0 0 100 66" fill="none" xmlns="http://www.w3.org/2000/svg"><path d="M47.876 58.206c-.127.254-18.472 6.899-19.51 7.344-.422.18 0-.593.37-1.113.371-.52 18.25-7.566 19.807-7.715.285-.027-.54 1.23-.667 1.484m12.716 4.876 1.603-3.015a.135.135 0 0 0-.032-.168c-.99-.821-2.731-1.685-3.445-2.067a.14.14 0 0 0-.192.063l-1.405 3a.14.14 0 0 0 .05.176l3.224 2.063c.068.043.159.02.197-.052M69.051 2.73h-3.073s.127-.468.251-.752c.406-.925 1-1.475 1.881-1.881 1.507-.107 3.238-.227 4.704.25.489.16.722.254.94.69-.714 1.426-1.59 2.916-2.884 3.889-1.4 1.052-4.327 1.442-4.327 1.442s-.251 0 .376-.439 4.264-1.772 4.264-2.947a10 10 0 0 0-2.132-.251M55.708 23.852H52.49s.132-.491.263-.788c.425-.969 1.047-1.544 1.97-1.97 1.576-.112 3.388-.237 4.923.263.512.167.756.265.985.722-.748 1.492-1.665 3.052-3.02 4.07-1.465 1.102-4.53 1.51-4.53 1.51s-.263 0 .394-.459c.656-.46 4.464-1.855 4.464-3.086a10.5 10.5 0 0 0-2.232-.262" fill="#000"/><path fill-rule="evenodd" clip-rule="evenodd" d="m20.413 11.79-1.326-1.03s.718-1.976.516-3.241c-.27-1.684-1.803-1.399-3.02-.516-.983.713-1.662 1.439-1.62 2.652.043 1.271 1.333 1.996 2.136 2.799l-1.916 1.841s-1.281 1.169-2.21 1.768c-1.91 1.235-4.81 3.02-6.357 3.61-.226.156-.22.281-.42.442 0 0 .451-.131.737-.221 4.041-1.276 8.278-3.812 11.05-7.072l1.62.884zm-3.977-3.166c-.451.783 1.246 1.411 1.694 1.62.125-.295.096-1.326 0-1.62s-.199-.442-.516-.442-.955.053-1.178.442m56.468 13.354-1.292-1.005s.7-1.924.503-3.158c-.263-1.64-1.757-1.362-2.943-.502-.957.694-1.62 1.402-1.579 2.584.042 1.239 1.3 1.945 2.081 2.727l-1.866 1.794s-1.248 1.139-2.153 1.723c-1.862 1.203-4.687 2.942-6.194 3.517-.22.152-.214.274-.409.43 0 0 .439-.127.718-.215 3.937-1.243 8.065-3.713 10.766-6.89l1.579.861zm-3.876-3.086c-.439.764 1.215 1.375 1.651 1.579.122-.287.094-1.292 0-1.579s-.193-.43-.502-.43c-.31 0-.93.051-1.149.43" fill="#000"/><path d="m19.795 24.314-6.504 4.45c-.274-.821.717-2.23 1.438-2.807l-.343-.069c-.96-.48-1.201-.946-1.095-1.985.123-1.206 1.159-2.849 2.054-3.56 1.49-1.185 3.654-.406 2.739 1.574-.44.95-.556.576-1.096.137-.39-.317-.711-.286-1.164-.137-1.23.406-1.579 1.13-.342 1.986.638.442 1.357.555 2.122.41 1.175-.221 1.986-1.505 2.808-1.71.02.678-.157 1.211-.617 1.71" fill="#000"/><path fill-rule="evenodd" clip-rule="evenodd" d="M24.486 41.232h.084c.126 0 .216.12.18.242-.474 1.56-.953 3.275-1.241 4.934q.556-.264 1.086-.523c3.3-1.605 5.327-2.372 8.08-4.799 3.455-3.046.182-2.795-4.374-3.767-2.675-.57-5.699-1.012-6.622-3.888-.98-3.052 1.046-7.67 2.43-10.146 1.715-3.068 5.893-6.804 5.893-6.804 2.308-1.944 4.496-2.248 6.075.121 1.456 2.184-1.276 7.17-1.7 4.07 0 0-.265-.93-.79-1.093-1.58-.486-3.281.669-3.281.669s-1.73 1.174-3.038 2.733-3.341 3.828-4.07 5.468c-.99 2.225 2.386 3.073 3.705 3.645 3.474.982 9.6 1.702 9.6 5.043 0 0 .092 1.397-.365 2.916-.37 1.23-.588 2.032-1.519 2.916-2.679 2.545-6.768 5.418-11.28 7.655.392 2.484 1.976 4.15 5.894 3.743 6.952-.723 13.983-6.36 17.731-12.196 1.04-1.62.516-2.782.282-4.598-.725-5.63-3-10.898-5.601-15.894a.2.2 0 0 1-.02-.115l.724-4.697a.143.143 0 0 1 .248-.072c2.04 2.352 3.363 4.834 4.461 7.738 1.5 3.964 2.194 8.148 3.002 12.29 1.121 5.746.855 15.125 9.194 12.665 3.44-1.014 4.974-3.91 7.693-5.91 1.745-1.285 1.482.095 1.595 1.407.113 1.305.317 2.706 1.689 3.284 0 0 .77.222 1.276.295 1.366.198 2.183.035 3.523-.295 1.998-.492 4.678-2.422 4.678-2.422l-1.173-6.921-.81-8.108c-2.048.805-8.516 3.332-8.8 3.454-.517.222-.157-1.052.455-1.366.135-.068 6.392-2.531 8.226-3.27l-.045-.447-.61-11.145-.38-10.516s-.326-.62-.371-1.053c-.121-1.16.809-2.147 1.361-3.095 0 0 2.167 4.581 3.034 7.614.106.372.185.66.185 1.053 0 .54-1.6-.852-1.733-1.053 0 0-.196.084-.186.186.169 1.713.268 9.279.847 16.66 0 0 .025.347.07.925a1256 1256 0 0 1 11.28-4.451L90.143 7.54s-.313-.627-.348-1.062c-.094-1.164.86-2.13 1.434-3.066 0 0 2.063 4.634 2.861 7.69.098.374.17.664.162 1.057-.013.54-1.582-.888-1.71-1.093 0 0-.199.08-.191.182.106 1.41.404 6.435.735 12.283 3.476-1.336 6.208-2.346 6.781-2.453.345-.065-.068.642-.224.954-.053.105-2.804 1.23-6.49 2.7l.152 2.719.07 1.286c.47 8.504.91 17.04.888 18.012-.043 1.87-.1 3.662-.437 5.507-.294 1.615-.564 2.962-1.403 4.43-.509.89-.095-6.685-.054-8.43l-1.242-22.717c-3.64 1.444-7.805 3.08-11.126 4.385l-.125.05c.163 1.99.43 4.977.72 7.192.335 2.557.678 5.071 1.342 7.567 0 0 3.424-1.51 5.338-.646 1.757.794 2.459 2.076 2.991 3.93 1.115 3.883-1.263 8.228-5.455 6.57-1.972-.78-3.282-2.819-4.216-4.634-3.401 2.115-9.864 5.328-13.28 1.483-.934-1.05-.529-4.274-1.337-3.341-2.347 2.708-4.243 5.858-8.037 6.272-6.11.666-7.84-2.777-8.631-7.975-.222-1.455-.23-2.824-.75-4.222-.77 4.573-4.193 8.202-7.694 10.977-6.613 5.241-19.262 10.118-18.864-1.885a44 44 0 0 1-3.665 1.489c-4.372 1.54-7.578 1.637-11.847.729-2.284-.486-3.793-2.215-5.042-4.557-3.405-6.382-.124-14.763 2.855-20.656 0 0 .425-.06.486 0 .06.06.07.143 0 .304-4.8 11.118-3.55 15.75.182 19.076 1.114.993 2.455 1.411 4.192 1.823 4.367 1.035 9.342-.76 13.46-2.649.432-1.861 1.042-3.69 1.686-5.465a.19.19 0 0 1 .176-.124m62.202 7.372c-.865-.413-2.325-.148-2.82-.04a.11.11 0 0 0-.062.177c.278.34 1.044 1.218 1.768 1.505.814.324 2.13.12 2.59.034a.11.11 0 0 0 .07-.172c-.24-.337-.894-1.194-1.546-1.504" fill="#000"/></svg>