<svg width="100" height="75" viewBox="0 0 100 75" fill="none" xmlns="http://www.w3.org/2000/svg"><path d="m68.71 31.777 1.764-3.318a.15.15 0 0 0-.035-.185c-1.089-.904-3.006-1.854-3.791-2.275a.154.154 0 0 0-.212.07L64.89 29.37a.15.15 0 0 0 .056.192l3.547 2.27a.15.15 0 0 0 .216-.056m5.621-.606 1.766-3.319a.15.15 0 0 0-.036-.185c-1.088-.904-3.005-1.854-3.79-2.275a.154.154 0 0 0-.213.07l-1.546 3.302a.15.15 0 0 0 .056.193l3.548 2.27a.15.15 0 0 0 .216-.057" fill="#000"/><path fill-rule="evenodd" clip-rule="evenodd" d="m26.968 25.57-1.367-1.064s.74-2.037.532-3.342c-.278-1.737-1.86-1.442-3.115-.532-1.013.735-1.714 1.484-1.671 2.735.044 1.311 1.375 2.059 2.203 2.887l-1.976 1.899s-1.321 1.205-2.279 1.823c-1.97 1.273-4.96 3.115-6.556 3.722-.233.162-.227.291-.432.456 0 0 .464-.134.76-.228 4.166-1.316 8.536-3.93 11.394-7.292l1.672.911zm-4.102-3.267c-.465.809 1.286 1.456 1.747 1.672.129-.304.1-1.368 0-1.672-.099-.303-.204-.455-.532-.455-.327 0-.984.054-1.215.455" fill="#000"/><path d="M59.178 34.071c-.457.205-1.041.046-1.367-.304-.608-.65-.608-2.393-.608-2.507 0-1.065-.236-1.849-.608-2.659-.263-.572-.824.73-.835.988-.021.483.14.825.227 1.215.206.753.38 2.431 0 2.887s-.94.918-1.519.836c-.78-.112-1.129-.59-1.215-1.368-.076-.683 0-1.899 0-1.899.05-2.82-.498-1.785-.699-.95-.134.559-.137 1.482-.137 1.482s0 3.115.304 3.722c.304.608 1.16 1.373 2.203.912.89-.393 1.419-1.472 1.595-2.355.532.684 1.3 2.792 2.811 1.671.725-.537 1.038-1.582 1.14-2.43.182-1.522-.607-2.87-1.14-4.255-.17-.512-.409-1.334-.76-.304-.46 1.354 1.85 4.76.608 5.318M73.46 3.916h-3.723s.154-.568.304-.912c.492-1.12 1.213-1.787 2.28-2.279 1.824-.13 3.921-.275 5.697.304.592.193.875.307 1.14.836-.866 1.726-1.927 3.53-3.495 4.71-1.695 1.274-5.242 1.747-5.242 1.747s-.304 0 .456-.532 5.166-2.147 5.166-3.57a12 12 0 0 0-2.583-.304m3.826 12.494c-.13.26-18.916 7.064-19.98 7.52-.43.185 0-.608.38-1.14s18.688-7.748 20.284-7.9c.291-.028-.554 1.259-.684 1.52M38.92 46.466c.491-2.561.232-4.461-2.354-5.622C24.464 35.412 8.696 70.078 1.925 59c-2.604-4.26 1.361-10.72 2.61-14.876a.15.15 0 0 0-.124-.19l-.25-.035a.15.15 0 0 0-.157.083C2.46 47.15.66 50.685.178 54.214c-.28 2.043-.314 4.445.531 6.382 1.357 3.107 4.82 4.774 8.053 3.57 1.596-.594 2.27-1.407 3.57-2.507 5.756-4.865 9.287-12.016 16.485-15.193.893-.394 1.406-.609 2.355-.836.787-.188 1.241-.318 2.051-.304 2.268.041 3.052.86 4.254 2.431 1.015 1.325 1.223-.142 1.444-1.291" fill="#000"/><path fill-rule="evenodd" clip-rule="evenodd" d="M38.695 25.373c-.38.532-.811 1.325-.38 1.14.23-.099 1.295-.496 2.821-1.06.357 7.372-.066 15.015.874 22.33.425 3.315 1.297 7.266 4.937 8.128 3.194.757 5.997-.371 8.813-1.747-1.27 4.935-2.773 10.398-.532 15.27 1.07 2.325 2.792 4.014 5.09 5.09 1.322-1.058 1.763-3.869.835-5.242-1.266-1.874-3.513-5.343-2.279-8.585.748-1.964 2.887-3.671 3.57-4.026.684-.354 8.129-3.646 8.129-3.646s1.13 1.639 2.051 2.507c1.378 1.298 2.27 2.109 4.102 2.583 1.237.32 2.025.45 3.267.151 1.11-.266 1.716-.625 2.583-1.367.92-.787 1.202-1.468 1.823-2.507.99-1.655 1.539-2.287 1.9-4.558.36-2.27.607-4.317.607-6.609 0-.917-.375-5.456-.854-10.868 1.81-.667 3.75-1.383 5.562-2.056l1.914 24.623c0 2.14-.294 11.435.304 10.331.988-1.823 1.28-3.482 1.595-5.47.36-2.27.38-4.468.38-6.76 0-1.253-.862-12.735-1.719-23.646 2.726-1.021 4.73-1.794 4.773-1.879.13-.26.975-1.547.683-1.519-.513.049-2.756.829-5.575 1.882-.669-8.483-1.31-16.308-1.504-18.291-.013-.125.227-.228.227-.228.164.247 2.128 1.954 2.128 1.291 0-.483-.098-.835-.228-1.291C93.528 5.622 90.869 0 90.869 0c-.678 1.163-1.82 2.375-1.671 3.798.055.532.456 1.292.456 1.292l1.843 23.71c-1.848.709-3.79 1.471-5.567 2.185-.7-7.838-1.564-16.965-1.822-19.59-.012-.125.228-.228.228-.228.164.247 2.127 1.954 2.127 1.292 0-.483-.097-.836-.228-1.292-1.063-3.722-3.722-9.344-3.722-9.344-.678 1.163-1.82 2.375-1.671 3.799.055.531.456 1.291.456 1.291l2.064 25.117c-2.33.962-3.99 1.695-4.1 1.852-.38.531-.812 1.324-.38 1.14.311-.134 2.145-.813 4.585-1.713l1.084 13.183s.353 2.447-.152 3.874c-1.585 4.476-8.02 3.79-10.483.608 2.871-3.741 4.233-9.413 1.215-13.446-2.027-2.709-4.61-1.72-5.925.911-1.605 3.209-1.061 7.133 0 10.408-4.165 1.638-7.852 3.993-10.028 7.976-1.545 2.827-2.067 6.023-2.355 9.192 0 0-.677-1.63-.836-2.735-.901-6.273 4.116-11.601 5.09-17.624l-.152-.228c-2.328 2.106-4.117 3.886-6.913 5.318-4.383.609-9.075 1.214-9.647-3.875-.83-7.38-.637-14.853-.937-22.264 5.904-2.176 14.777-5.436 14.866-5.615.13-.26.976-1.547.684-1.52-1.088.104-9.958 3.497-15.604 5.811 0 0-.012-5.687-.377-9.305-.252-2.505-.408-3.915-.911-6.381-.166-.81-2.145-8.513-2.887-5.014-.532 2.507 1.215 8.812 1.443 11.85.228 3.04.44 9.807.44 9.807-1.395.596-2.305 1.019-2.387 1.133m31.042 16.56c-.167.337-.25.54-.303.912-.078.532.043.842.151 1.368.25 1.209.618 1.852 1.292 2.886.22.338.608.836.608.836s.421-.125.683-.228c.768-.301 1.12-.634 1.823-1.063.57-.347 1.444-.912 1.444-.912s.182-.935.076-1.52c-.152-.836-.543-1.227-1.064-1.899-.527-.68-.851-1.086-1.595-1.519-.39-.227-.612-.445-1.064-.456-.478-.011-.747.179-1.137.455l-.002.001c-.465.33-.658.63-.912 1.14" fill="#000"/></svg>