<svg width="100" height="60" viewBox="0 0 100 60" fill="none" xmlns="http://www.w3.org/2000/svg"><path fill-rule="evenodd" clip-rule="evenodd" d="M50.588 39.226s.291.345.408 1.162c.19 1.334-5.193 7.104-9.556 9.448-3.688 1.98-8.92 5.047-12.548 1.208-1.1-1.163-1.539-3.022-1.583-5.04l.813-.297c6.173-2.242 13.262-4.248 11.952-12.796-.496-3.236-3.45-9.344-7.842-8.461-3.135.63-5.003 5.314-3.629 8.083 1.853 3.732 10.663-.172 10.113 5.28a57.8 57.8 0 0 1-11.185 4.92c.294-1.994.83-3.869 1.36-5.121-.742 1.406-1.398 3.286-1.862 5.28q-1.02.315-2.055.596c-7.45 2.022-21.203 3.868-23.82-4.213-.962-2.976 2.114-8.535 1.342-7.843C.157 33.53-.826 40.711.811 43.918c3.258 6.383 10.731 5.636 16.63 4.833 3.673-.5 5.891-1.288 9.003-2.43-.195 1.84-.18 3.604.13 5.013 2.986 13.61 20.705-1.298 24.585-7.47 1.02-1.622 1.41-3.15 1.27-5.082 0 0-.176-2.885-.6-4.314-.807-2.715-2.708-5.174-5.879-4.58-3.461.648-5.34 6.582-2.478 8.894 1.779 1.436 5.089.888 7.116.444m-1.915-3.818c-.628-.927-1.544-1.808-2.723-1.837-.996-.024-2.544.48-1.636 1.716.772 1.049 3.065.535 4.291.285a.107.107 0 0 0 .068-.165M35.689 30.52s-1.602-2.292-3.13-2.357c-.779-.032-1.76.068-1.927 1.015-.362 2.063 4.12 1.637 5.057 1.342" fill="#000"/><path fill-rule="evenodd" clip-rule="evenodd" d="M67.122 29.896c-.795 3.284.827 4.846 3.868 5.118.203.018.456.025.736.033 1.369.039 3.398.095 3.608 1.56.428 3.002-11.867 8.566-17.047 11.053.617-1.86 1.326-3.654 1.582-5.015.056-.182-.254-.217-.322-.077-.818 1.68-1.713 3.63-2.362 5.63-.331.166-.6.306-.794.418-.562.324-13.152 5.79-13.152 5.79 3.707-.153 9.544-1.501 13.093-2.403-.156 1.504-.05 2.957.459 4.263 1.008 2.585 3.777 3.995 6.423 3.01 1.306-.487 1.857-1.151 2.921-2.051 4.71-3.982 5.502-7.574 12.652-10.056 10.302-3.578 9.496-8.582 9.496-21.914 1.97-.725 4.135-1.524 6.026-2.229l.994 23.878c0 1.752-.24 9.358.249 8.454.808-1.491 1.047-2.849 1.305-4.475.295-1.858.311-3.657.311-5.533 0-.976-.169-14.566-.834-23.083 1.778-.672 3-1.15 3.03-1.212.112-.222.833-1.32.584-1.297-.372.036-1.813.522-3.715 1.22-.582-7.412-.823-11.193-.992-12.914-.01-.102.186-.186.186-.186.134.201 1.741 1.598 1.741 1.056 0-.395-.08-.683-.186-1.056C96.112 4.83 93.936.23 93.936.23c-.555.951-1.49 1.943-1.368 3.108.045.436.373 1.057.373 1.057l1.267 17.338c-1.924.728-4.06 1.563-5.967 2.33-.032-.848-.07-1.82-.106-2.64l-.015-.351c-.242-5.46-.456-10.297-.722-13.003-.01-.106.192-.192.192-.192.138.207 1.793 1.647 1.793 1.088 0-.407-.082-.704-.192-1.088C88.294 4.739 86.053 0 86.053 0c-.572.98-1.534 2.002-1.41 3.202.047.449.385 1.089.385 1.089l1.206 20.623c-1.719.717-3.25 1.426-3.336 1.548-.325.454-.695 1.379-.327 1.22.242-.103 1.922-.897 3.722-1.561.14 4.108 1.093 10.763-.651 13.553-1.745 2.79-4.884 2.857-10.852 5.676s-12.568 16.16-16.881 9.78c-.619-.914-.754-2.088-.622-3.374 1.294-.337 1.334-.21 2.106-.568 5.55-2.573 13.473-7.083 15.94-11.008 2.102-3.343 1.889-10.725-1.784-13.015-2.817-1.756-5.63-.559-6.427 2.73m5.744 1.308c-.558-.863-1.372-1.861-2.465-1.888-.565-.014-1.502.047-1.686.75-.541 2.065 3.124 1.34 4.128 1.142z" fill="#000"/><path d="M77.972 21.387c.267.286.745.417 1.12.249 1.015-.457-.875-3.244-.498-4.352.287-.843.482-.17.621.249.436 1.133 1.082 2.236.933 3.481-.083.695-.34 1.55-.933 1.99-1.237.916-1.865-.809-2.3-1.368-.144.722-.577 1.605-1.305 1.927-.854.377-1.554-.249-1.803-.746s-.249-3.046-.249-3.046.002-.756.112-1.212c.165-.684.613-1.531.572.777 0 0-.062.994 0 1.554.07.636.356 1.028.995 1.119.473.067.932-.311 1.243-.684s.168-1.747 0-2.362c-.07-.32-.204-.6-.186-.995.009-.212.468-1.277.684-.808.304.663.497 1.304.497 2.176 0 .093 0 1.519.497 2.051m-16.466 6.432 5.118-3.502c.361-.393.5-.813.485-1.347-.647.162-1.285 1.172-2.21 1.347-.602.113-1.168.024-1.67-.323-.972-.674-.698-1.244.27-1.563.356-.117.609-.142.916.108.424.345.517.64.862-.108.72-1.558-.983-2.171-2.155-1.24-.704.56-1.52 1.854-1.617 2.803-.083.817.106 1.184.862 1.562l.27.054c-.567.454-1.347 1.562-1.132 2.209" fill="#000"/><path fill-rule="evenodd" clip-rule="evenodd" d="m65.975 15.039-1.261-.981s.683-1.878.49-3.082c-.256-1.601-1.714-1.33-2.871-.49-.935.678-1.58 1.368-1.541 2.521.041 1.21 1.267 1.899 2.03 2.662l-1.82 1.751s-1.219 1.11-2.101 1.68c-1.817 1.175-4.574 2.873-6.045 3.433-.215.149-.21.268-.4.42 0 0 .429-.124.701-.21 3.842-1.213 7.871-3.624 10.506-6.724l1.541.84zm-3.782-3.012c-.43.745 1.185 1.342 1.61 1.54.12-.28.092-1.26 0-1.54-.09-.28-.188-.42-.49-.42-.301 0-.908.05-1.12.42" fill="#000"/><path d="M74.161 3.374h3.126c.737.009 1.451.09 2.17.255 0 1.196-3.7 2.552-4.339 2.999-.638.446-.383.446-.383.446s2.98-.397 4.403-1.467c1.316-.99 2.207-2.506 2.934-3.956-.222-.444-.46-.54-.957-.702C79.624.464 77.863.585 76.33.694c-.895.414-1.5.973-1.914 1.914-.126.289-.255.766-.255.766M29.533 21.175l-1.6 3.008a.14.14 0 0 1-.196.051l-3.215-2.058a.14.14 0 0 1-.05-.174l1.4-2.993a.14.14 0 0 1 .192-.063c.712.38 2.45 1.242 3.437 2.062.05.04.062.11.032.167M81.341 10.58c-.69.326-12.898 5.256-12.977 5.43-.08.175-.606 1.042-.415 1.017 1.047-.138 12.932-5.327 13.169-5.687.238-.359.503-.891.223-.76" fill="#000"/><path fill-rule="evenodd" clip-rule="evenodd" d="m28.07 13.254-1.328-1.033s.719-1.979.516-3.246c-.27-1.687-1.805-1.401-3.025-.517-.984.714-1.665 1.441-1.623 2.656.043 1.274 1.335 2 2.14 2.804l-1.919 1.845s-1.283 1.17-2.213 1.77c-1.914 1.237-4.819 3.025-6.368 3.616-.227.157-.22.282-.42.442 0 0 .45-.13.738-.22 4.047-1.279 8.291-3.818 11.067-7.084l1.623.885zm-3.984-3.173c-.452.785 1.249 1.414 1.697 1.624.125-.296.096-1.328 0-1.624-.097-.295-.2-.442-.517-.442s-.956.053-1.18.442" fill="#000"/></svg>