<svg width="100" height="69" viewBox="0 0 100 69" fill="none" xmlns="http://www.w3.org/2000/svg"><path d="M81.47 19.282c-.124.247-17.924 6.694-18.932 7.126-.408.175 0-.576.36-1.08s17.708-7.342 19.22-7.486c.275-.026-.525 1.193-.649 1.44M44.214 60.86c-.124.247-17.924 6.695-18.931 7.127-.409.175 0-.576.36-1.08s17.707-7.342 19.219-7.486c.276-.026-.525 1.193-.648 1.44m8.141-.966 1.704-3.204a.144.144 0 0 0-.034-.179c-1.05-.873-2.902-1.79-3.66-2.197a.15.15 0 0 0-.205.068l-1.493 3.189a.15.15 0 0 0 .054.185l3.426 2.193c.072.046.168.02.208-.055M74.261 3.34h-3.758s.154-.574.307-.92c.496-1.132 1.224-1.805 2.3-2.302 1.843-.13 3.96-.277 5.753.307.597.195.883.31 1.15.844-.874 1.743-1.945 3.565-3.528 4.755-1.71 1.286-5.292 1.764-5.292 1.764s-.307 0 .46-.537 5.216-2.167 5.216-3.605a12.3 12.3 0 0 0-2.608-.306M40.907 19.678s.17-.102.211-.212c.635-1.691.098-4.533 2.326-6.131.812-.583 1.842-.087 2.114.845.186.633-.012 1.382-.544 1.772a.126.126 0 0 1-.166-.016c-.431-.457-.663-1.085-1.404-.91-.711.506-.832 1.198-1.128 1.974-.516 1.355-.43 4.283-1.619 5.505a.119.119 0 0 1-.203-.052c-.115-.443-.05-.918-.151-1.365-.191-.853-1.18-4.47-2.326-4.088-.503.167-.543.277-1.128 0-1.88-.893-.316-3.658 1.48-2.678 1.688.92 2.29 3.659 2.538 5.356" fill="#000"/><path fill-rule="evenodd" clip-rule="evenodd" d="m16.545 25.155-1.224-.952s.663-1.824.476-2.992c-.249-1.555-1.665-1.292-2.789-.477-.907.658-1.534 1.329-1.496 2.449.04 1.174 1.231 1.843 1.973 2.584l-1.769 1.7s-1.183 1.079-2.04 1.633c-1.764 1.14-4.441 2.788-5.87 3.332-.209.145-.203.26-.387.408 0 0 .416-.12.68-.204 3.73-1.178 7.643-3.519 10.202-6.529l1.496.816zm-3.673-2.924c-.416.723 1.152 1.303 1.565 1.496.115-.272.088-1.224 0-1.496-.09-.272-.184-.408-.476-.408-.293 0-.882.049-1.089.408" fill="#000"/><path fill-rule="evenodd" clip-rule="evenodd" d="M57.603.619s2.238 4.987 3.108 8.276c.106.403.186.715.177 1.14-.011.582-1.707-.953-1.846-1.173 0 0-.213.086-.205.197.145 1.851.696 10.868 1.163 18.84.271 4.668.535 9.345.726 12.949l4.53.534.295.511-1.474 3.655-.49.236-2.28.235-.324.095c.086 2.155-.121 4.287-.502 6.41-.311 1.74-.73 2.993-1.63 4.578s.2-6.919 0-10.37l-.59.172s-3.098 1.456-5.07 2.416c-3.32 1.617-6.556 3.587-10.06 4.795-2.031.7-5.364 1.218-5.364 1.218s-.275 1.769-.59 1.769c-.491 0-.806-1.376-.806-1.376s-2.616-1.11-4.028-2.22c-3.322-2.614-4.45-5.945-5.07-10.021-.218-1.44-.482-2.691-.998-4.074-.76 4.523-4.146 8.112-7.609 10.857C12.094 55.477-.508 60.322.016 48.226c.142-3.294 1.157-6.538 2.275-9.62a.185.185 0 0 1 .174-.123h.083c.125 0 .215.12.179.24-1.74 5.723-3.541 13.58 4.434 12.751 6.876-.715 13.83-6.29 17.537-12.063 1.028-1.601.51-2.75.278-4.546-.717-5.568-2.966-10.78-5.54-15.72a.2.2 0 0 1-.018-.114l.715-4.645a.141.141 0 0 1 .246-.072c2.018 2.326 3.325 4.781 4.411 7.653 1.484 3.921 2.17 8.059 2.97 12.155 0 0 .84 5.526 2.088 8.852.59 1.573.776 2.56 1.749 3.93 1.04 1.465 3.399 3.104 3.399 3.104s-.894-3.24-.766-5.344c.101-1.673.191-2.688.943-4.186.788-1.57 1.41-2.568 2.967-3.38 1.732-.902 3.038-.358 4.99-.334 5.831.073 14.463 3.714 14.463 3.714l.904.107L56.446 5.07s-.339-.675-.378-1.143c-.106-1.254.919-2.3 1.535-3.309m-2.608 44.128a.077.077 0 0 0-.01-.143c-1.051-.363-6.748-2.29-10.99-2.966-3.188-.509-8.449-1.454-8.036 2.534.412 3.99.904 6.096.904 6.096 6.187 0 12.706-2.727 18.132-5.521" fill="#000"/><path fill-rule="evenodd" clip-rule="evenodd" d="M84.214.59s2.476 5.233 3.466 8.698c.121.425.212.753.212 1.203 0 .616-1.828-.973-1.98-1.203 0 0-.224.096-.212.213.217 2.208.64 7.862.962 13.163a371 371 0 0 1 6.14-2.405l-.92-15.161s-.387-.767-.433-1.3c-.124-1.426 1.038-2.618 1.736-3.77 0 0 2.563 5.667 3.563 9.408.123.458.214.812.206 1.295-.011.662-1.946-1.078-2.105-1.328 0 0-.242.099-.232.224.097 1.192.349 4.99.65 9.706 2.294-.847 4.058-1.45 4.496-1.49.276-.027-.525 1.192-.648 1.439-.036.072-1.572.67-3.756 1.492.207 3.263.432 6.86.642 10.287.637 10.422 1.24 20.884 1.22 22.076-.04 2.292-.097 4.49-.496 6.754-.349 1.982-.67 3.636-1.688 5.443-.617 1.093-.165-8.196-.128-10.337l-2.02-33.3c-1.97.733-4.153 1.539-6.149 2.274.09 1.561.17 3.063.23 4.403.348 4.084-.684 9.159-3.282 12.478-.95 1.212-2.06 2.05-3.403 2.73-.047 2.678-.668 5.266-1.768 7.017-3.266 5.195-20 13.459-20 13.459s-12.753 3.419-20.18 4.264c0 0 14.364-6.13 15.108-6.56 3.528-2.03 25.733-11.264 25.072-15.893-.277-1.94-2.963-2.014-4.775-2.065-.371-.01-.705-.02-.975-.044-4.024-.36-6.171-2.427-5.118-6.774 1.054-4.353 4.778-5.937 8.506-3.614 1.95 1.217 3.164 3.518 3.737 6.124 1.989.14 4.43-2.78 4.64-4.696.237-2.142 0-5.188 0-5.188l-.281-4.724c-2.173.801-3.784 1.399-4.067 1.52-.409.175 0-.576.36-1.08.101-.142 1.56-.79 3.634-1.65l-1.095-18.35s-.373-.707-.424-1.202c-.139-1.326.924-2.454 1.555-3.537m-8.963 38.127c-.738-1.142-1.816-2.463-3.262-2.498-.748-.019-1.988.06-2.233.992-.716 2.733 4.135 1.774 5.465 1.512z" fill="#000"/></svg>