<svg width="100" height="59" viewBox="0 0 100 59" fill="none" xmlns="http://www.w3.org/2000/svg"><path d="M67 17.334c-.091.2-14.328 6.208-15.109 6.576-.316.149.282-1.132.553-1.544.272-.411 13.837-6.27 15.02-6.417.216-.027-.372 1.185-.464 1.385m-10.729.01c-.091.2-14.327 6.208-15.109 6.575-.316.15.282-1.131.553-1.543s13.837-6.27 15.02-6.417c.216-.027-.372 1.184-.464 1.385M38.035 51.902c-.091.2-14.327 6.208-15.109 6.575-.316.15.282-1.132.553-1.543s13.837-6.27 15.02-6.417c.216-.027-.372 1.184-.464 1.385m33.77-19.528 1.593-2.996a.134.134 0 0 0-.031-.166c-.983-.817-2.714-1.675-3.424-2.055a.14.14 0 0 0-.19.063l-1.397 2.982a.14.14 0 0 0 .05.174l3.204 2.05c.067.043.157.02.195-.052" fill="#000"/><path d="m67.07 32.61 1.593-2.996a.134.134 0 0 0-.032-.168c-.983-.816-2.714-1.674-3.423-2.054a.14.14 0 0 0-.191.063l-1.396 2.982a.14.14 0 0 0 .05.174l3.203 2.05c.068.043.158.02.196-.051m4.332-27.932h-3.059c.353-1.057.87-1.997 1.923-2.483.763-.054 5.428-.317 5.623.633.17.827-1.703 2.988-2.434 3.65-.624.566-1.485.78-1.485.78l-3.179.93c-.132.038-.203-.077-.092-.16.937-.7 3.576-2.126 4.464-2.596 0 0 .419-.24.365-.39-.122-.34-1.675-.359-2.126-.364" fill="#000"/><path fill-rule="evenodd" clip-rule="evenodd" d="m75.9 15.148-1.278-.996s.626-1.705.442-2.851c-.244-1.526-1.531-1.29-2.634-.49-.644.466-1.41 1.455-1.372 2.554.04 1.152 1.165 1.558 1.893 2.286l-1.989 1.72c-1.317.815-3.338 2.124-5.016 3.097-1.59.921-2.875 1.573-2.875 1.843s4.841-1.671 4.841-1.671 3.34-1.692 5.85-4.645l1.253.86zm-3.603-2.87c-.409.71 1.129 1.28 1.534 1.468.113-.267.087-1.2 0-1.468-.087-.267-.18-.4-.467-.4s-.865.048-1.067.4" fill="#000"/><path d="M31.519 9.66c.688-.268-3.082-10.183-3.543-9.638-.924 1.091-1.058 2.586-1.058 4.097 0 .837.436 2.384.436 2.384.389 8.686 1.394 18.337.991 26.901-.025.536-.638 1.119-1.646 1.444-2.653.857-5.826.823-6.868 1.73-.933.813-1.137 3.001-1.17 3.446a.095.095 0 0 0 .071.1c.692.189 5.935 1.615 9.412 2.633l.074.022c1.211.354 2.612.764 2.612 1.422 0 .834-4.13 3.043-7.11 4.636l-.06.032c-6.59 3.525-17.487 8.197-21.527-.94-.911-2.06-.79-3.476-.689-5.726.167-3.733 3.594-9.27 3.006-9.084-1.175.369-2.567 3.819-3.46 6.582-1.045 3.24-1.649 9.723.202 12.795 3.715 6.167 9.135 5.053 15.718 3.006 5.113-1.59 12.157-5.44 14.609-9.672 1.28-2.21 1.83-4.349 0-5.843-1.197-.978-3.543-1.764-3.543-1.764s1.12-2.366 1.612-3.962c.977-3.171.928-5.115 1.057-8.43.136-3.471-.253-5.415-.453-8.883-.2-3.457-.57-8.85-.57-8.85s1.477 1.726 1.897 1.562" fill="#000"/><path fill-rule="evenodd" clip-rule="evenodd" d="M82.936 11.239c-.28.304-2.083-1.545-2.083-1.545.108 3.497.292 7.136.437 10.63.126 3.035.437 8.606 1.041 13.164a79 79 0 0 0 1.377 7.49s3.737-1.397 5.426-.576c2.19 1.064 2.603 3.402 2.584 5.51-.033 3.639-2.644 6.72-6.767 3.444-1.313-1.042-2.414-3.706-2.414-3.706s-4.774 3.085-7.544 3.085c-3.091 0-5.39-.492-5.795-4.413-1.66 2.447-4.459 4.5-7.42 5.169-1.194.27-3.565.232-6.045-1.243-.848-.504-3.963-3.097-3.963-3.097s-1.908 1.272-2.805 1.854c-3.933 2.556-9.562 4.403-11.653-.705-2.502-6.112-1.06-27.958-2.116-34.591-.46-2.895-1.645-5.844-1.645-7.036 0-1.377.755-3.09 1.175-3.325.879-.492 2.15 8.174 2.317 9.555 1.155 9.585.655 27.102 1.226 29.587 1.11 4.836 3.375 5.627 7.825 4.148 1.385-.46 3.258-1.83 3.258-1.83s-3.201-3.222-5.726-3.04c-.8.058-1.896.484-2.305.653a.1.1 0 0 1-.138-.107c.093-.592.455-2.536 1.334-3.619.696-.856 4.635-1.918 6.516-2.166 2.989-.394 5.894 0 8.564.571 2.148.46 4.947 1.914 5.02 2.536.074.62-1.259 3.074-1.645 3.306-1.511.908-5.357 2.269-5.357 2.269s.907 1.337 4.136 1.94c2.955.552 5.495-.214 7.543-1.904.695-.574 1.52-1.507 2.228-2.305.728-.823 1.33-1.503 1.535-1.503.353 0 .247.522.107 1.203-.158.774-.359 1.753.028 2.403 1.166 1.962 3.467 1.608 5.376 1.277 2.12-.368 5.037-2.24 5.037-2.24s-1.045-4.861-1.319-7.907a294 294 0 0 0-.36-3.669c-.251-2.446-.514-5.012-.707-8.058-.254-4.023-.65-15.424-.65-15.424s-.456-1.235-.5-1.773c-.04-.46.97-4.108 1.433-3.83.254.152 3.993 9.207 3.434 9.818m2.678 33.597s.331.544.628.814c.633.576 3.799 1.608 3.273-.118-.38-1.249-3-.912-3.9-.696m-32.988-6.58c-1.103-.04-2.82.186-2.82.186l3.072 2.5 3.46-1.812s-.568-.332-.958-.487c-1.009-.401-1.669-.345-2.754-.386" fill="#000"/><path d="M84.48 24.879c-.267.405-.856 1.665-.544 1.518.405-.19 4.137-1.777 8.624-3.488l1.203 22.415c0 1.64-.225 8.761.233 7.915.757-1.397.98-2.668 1.222-4.19.276-1.74.566-2.797.566-4.553 0-.914.057-8.666-.566-16.64-.083-1.062-.493-5.925-.39-5.971 2.431-1.09 4.697-2.141 4.732-2.217.09-.197.601-1.137.389-1.11-.443.055-5.121 2.238-5.121 2.238s-.07-1.225-.103-1.609c-.528-6.181-.656-8.466-.767-9.594-.01-.096.175-.175.175-.175.125.19 2.06 2.096 2.06 1.589 0-.37-.074-.64-.174-.99-.815-2.852-3.997-9.066-3.997-9.066-.52.89-1.394 2.85-1.28 3.94.042.408.35.99.35.99l1.468 15.765c-4.41 1.669-7.94 3.02-8.08 3.233" fill="#000"/></svg>