<svg width="100" height="63" viewBox="0 0 100 63" fill="none" xmlns="http://www.w3.org/2000/svg"><path fill-rule="evenodd" clip-rule="evenodd" d="M81.926 10.824c-.295.322-2.01-1.633-2.01-1.633v3.895c.2 3.513.395 19.44 1.92 20.5 1.055.731 3.275-1.39 5.062-.521 6.319 3.07 2.944 14.97-3.949 9.496-1.389-1.104-2.638-3.698-2.638-3.698-3.302 2.372-8.773 4.719-12.476 1.813-1.53-1.202-2.441-4.344-2.441-4.344-.413 3.399-2.705 6.817-6.534 5.546-1.34-.444-2.077-1.108-2.747-2.351-.407-.756-.592-2.118-.592-2.118-2.04 3.057-5.108 5.836-9.011 5.51-1.838-.153-2.903-.683-4.362-1.812-1.193-.923-2.477-2.962-2.477-2.962l-4.972 2.118s3.14 2.387 3.823 3.32c.183.251.288.413.341.719.108.628-.323 2.962-.718 3.626-.142.238-.52.682-.52.682-1.822-1.19-3.688-1.81-5.87-1.849-10.977-.2-20.14 15.976-26.1 15.976-5.236 0-6.138-6.036-5.457-9.98.626-3.63 3.285-9.191 3.536-8.742.462.825-2.03 5.22-2.441 8.741-.266 2.272-.841 4.75 1.543 6.05C7.414 61.3 17.8 48.805 23.174 45.666c2.15-1.255 5.744-2.764 5.744-2.764s-1.36-.288-1.525-.593c-.544-1.005.675-3.476 1.992-4.164 3.375-1.765 9.137-3.41 9.137-3.41s-.739-1.954-.898-3.268c-.3-2.482.234-8.975 3.662-8.975 2.273 0 3.748 4.056 4.003 5.816.367 2.53-.88 5.71-2.639 8.024 1.385 1.67 2.84 2.172 4.955 2.208 5.223.087 9.729-6.498 9.927-6.014.416 1.022-.496 1.756-.198 2.818.682 2.428 1.885 2.585 5.565 2.244 3.672-.34-.51-11.17-.61-12.852-.081-1.358.304-4.29 1.023-4.811.55-.399 2.896 9.44 3.07 10.268.622 2.987.776 6.163 4.128 7.216 2.98.936 6.475-.97 8.813-2.621 0 0-.77-4.818-1.059-8.042-.346-3.85-.43-9.89-.43-9.89l-.629-11.022s-.346-.97-.34-1.616C76.867 3.73 77.881.406 78.371.7c.27.162 4.147 9.478 3.554 10.124m1.58 26.908s.35.575.664.861c.67.61 4.02 1.702 3.464-.125-.402-1.321-3.175-.965-4.128-.736M40.927 26.908c-1.277.028-2.266 1.103-2.405 2.333-.157 1.386 1.225 3.293 1.903 4.416 1.254-.453 3.301-1.337 3.554-2.854.121-.728-2.01-3.918-3.052-3.895" fill="#000"/><path d="M84.758 23.843c-.266.428-.558 1.058-.236.895.392-.2 4.018-1.797 7.603-3.39l1.868 24.016c0 1.736-.239 9.273.246 8.378.8-1.478 1.038-2.824 1.294-4.435.292-1.842.308-3.624.308-5.483 0-.967-.633-9.44-1.293-17.88l-.434-5.482c2.906-1.297 5.35-2.406 5.386-2.492.087-.206.672-1.237.45-1.2-.495.079-3.052 1.19-5.93 2.512-.407-5.07-.772-9.5-.89-10.694-.01-.102.185-.185.185-.185.133.2 1.725 1.584 1.725 1.047 0-.392-.08-.678-.185-1.047-.862-3.019-3.019-7.577-3.019-7.577-.55.942-1.475 1.925-1.355 3.08.045.431.37 1.047.37 1.047l1.185 15.248c-3.626 1.696-7.145 3.428-7.278 3.642M67.207 2.572H70.1a9.4 9.4 0 0 1 2.008.236c0 1.107-3.426 2.363-4.016 2.776s-.355.413-.355.413 2.758-.367 4.076-1.358c1.219-.916 2.044-2.32 2.717-3.662-.206-.411-.426-.5-.886-.65-1.381-.45-3.012-.337-4.43-.236-.83.383-1.39.9-1.772 1.772-.117.267-.236.709-.236.709" fill="#000"/><path fill-rule="evenodd" clip-rule="evenodd" d="m74.89 11.133-1.015-.789s.55-1.511.395-2.48c-.206-1.288-1.38-1.07-2.311-.394-.752.545-1.272 1.1-1.24 2.029.033.973 1.02 1.527 1.634 2.141l-1.465 1.41s-.98.893-1.691 1.352c-1.462.945-3.68 2.311-4.864 2.762-.174.12-.169.216-.321.338 0 0 .344-.1.563-.169 3.092-.976 6.334-2.916 8.455-5.41l1.24.676zM71.846 8.71c-.345.6.954 1.08 1.296 1.24.096-.226.074-1.015 0-1.24-.073-.226-.152-.339-.394-.339s-.73.041-.902.339" fill="#000"/><path d="m62.235 15.153-1.715 3.224a.15.15 0 0 1-.21.055l-3.446-2.206a.15.15 0 0 1-.055-.187l1.502-3.209a.15.15 0 0 1 .206-.067c.763.408 2.626 1.332 3.684 2.21a.145.145 0 0 1 .034.18M52.36 27.224l1.171-2.201a.13.13 0 0 1-.026-.148l.314-.67c-.936-.77-2.557-1.573-3.224-1.93a.13.13 0 0 0-.182.059l-1.324 2.829a.13.13 0 0 0 .048.164l3.038 1.945a.13.13 0 0 0 .185-.048" fill="#000"/><path d="M53.842 24.223a.13.13 0 0 1 .03.159l-.341.64.022.018 3.038 1.945a.13.13 0 0 0 .185-.049l1.512-2.842a.13.13 0 0 0-.03-.158c-.933-.774-2.575-1.589-3.248-1.949a.13.13 0 0 0-.181.06l-1.01 2.157zm1.661-16.051h2.894a9.4 9.4 0 0 1 2.008.237c0 1.107-3.425 2.362-4.016 2.776-.59.413-.354.413-.354.413s2.757-.368 4.075-1.358c1.219-.917 2.044-2.32 2.717-3.662-.206-.412-.426-.5-.886-.65-1.38-.45-3.011-.337-4.43-.236-.83.382-1.39.9-1.772 1.772-.117.267-.236.708-.236.708M42.93 9.466c.789-.393 14.781-6.386 14.869-6.59s.674-1.22.454-1.186c-1.207.185-14.818 6.471-15.084 6.892s-.56 1.043-.24.884m1.035 7.304-1.512 2.843a.13.13 0 0 1-.185.048l-3.039-1.945a.13.13 0 0 1-.048-.164l1.325-2.829a.13.13 0 0 1 .181-.06c.673.36 2.315 1.175 3.247 1.949a.13.13 0 0 1 .03.159m-4.81.359-1.512 2.842a.13.13 0 0 1-.185.048l-3.039-1.945a.13.13 0 0 1-.047-.164l1.324-2.829a.13.13 0 0 1 .181-.06c.673.36 2.315 1.175 3.248 1.949a.13.13 0 0 1 .03.159" fill="#000"/><path fill-rule="evenodd" clip-rule="evenodd" d="m27.536 23.962-1.225-.953s.663-1.826.476-2.995c-.248-1.557-1.666-1.293-2.791-.477-.908.659-1.536 1.33-1.498 2.451.04 1.175 1.232 1.845 1.975 2.587l-1.77 1.702s-1.185 1.08-2.043 1.634c-1.766 1.141-4.446 2.791-5.876 3.336-.21.145-.203.26-.388.409 0 0 .417-.121.681-.205 3.735-1.179 7.651-3.522 10.213-6.535l1.497.817zm-3.676-2.927c-.417.724 1.152 1.305 1.566 1.498.115-.273.089-1.226 0-1.498-.09-.272-.184-.409-.477-.409s-.882.05-1.09.409" fill="#000"/><path d="M36.323 56.44c.67-.34 12.547-5.528 12.62-5.702s.567-1.042.38-1.012c-1.027.165-12.578 5.6-12.802 5.96-.223.36-.47.891-.198.754" fill="#000"/></svg>