<svg width="100" height="72" viewBox="0 0 100 72" fill="none" xmlns="http://www.w3.org/2000/svg"><path fill-rule="evenodd" clip-rule="evenodd" d="M25.861 50.82h.087c.131 0 .225.124.187.25-.651 2.143-1.426 4.551-1.772 6.723 4.186-2.537 8.38-5.9 10.966-8.3 1.55-7.096-.442-14.95-.716-22.131L33.299 6.046s-.56-1.157-.591-1.643c-.084-1.3.886-3.304 1.544-4.338.348-.545 1.45 2.42 2.498 5.357l.03.084c.93 2.604 1.831 5.133 1.676 5.703-.161.589-2.283-1.975-2.283-1.513 0 1.925.814 9.397 1.136 17.666.204 5.279.898 10.674.69 15.952-.528 6.364-1.82 10.125-6.507 13.671-1.777 1.344-4.195 3.382-6.899 5.205.67 1.532 2.235 2.408 5.289 2.09 7.209-.748 14.776-6.035 18.663-12.087 1.078-1.68.534-2.884.291-4.767-.751-5.837-3.11-11.3-5.807-16.48a.2.2 0 0 1-.02-.12l.75-4.87a.148.148 0 0 1 .258-.075c2.115 2.439 3.486 5.012 4.625 8.024 1.555 4.11 2.585 8.499 3.422 12.794.71 3.638 1.078 8.529 2.761 11.173 1.074 1.687 2.525 1.935 4.831 1.808 1.477-.081 2.511-.636 4.01-1.38.956-.476 2.398-1.315 2.398-1.315s-1.373-1.67-2.661-2.366c-1.036-.56-2.445-1.176-3.911-1.019-1.364.147-2.827 1.095-2.827 0 0-.361 1.742-4.075 1.742-4.075s2.228-1.017 3.714-1.512c3.943-1.314 11.534-1.75 16.169.592 1.503.76 3.516 2.498 3.516 2.498l-1.833 3.68-6.383 2.63s3.117 2.267 5.762 2.267c2.448 0 4.435-1.16 5.171-1.654a1.16 1.16 0 0 0 .443-.572c1.064-2.944.336-5.92.154-9.53a705 705 0 0 0-.6-10.129c-2.767 1.053-4.89 1.864-5.168 1.995-.356.168.316-1.27.62-1.733.095-.143 1.923-.911 4.44-1.908a1795 1795 0 0 0-1.437-19.691s-.512-.364-.512-.947c0-.953 1.315-4.502 1.677-4.666.361-.165 2.751 5.834 3.91 9.891.142.497.249.882.249 1.408 0 .722-1.878-1.139-2.056-1.408 0 0-.262.112-.249.249.236 2.396.67 8.318 1.027 14.144 2.126-.822 4.448-1.7 6.534-2.471L92.388 16.66s-.402-.783-.452-1.328c-.136-1.46.993-3.7 1.383-4.343s2.97 6.273 3.957 9.875c.128.469.224.832.219 1.326-.008.68-1.89-1.302-2.056-1.557 0 0-.247.103-.236.231l.012.131c.133 1.533.487 5.577.887 10.733 2.016-.723 3.501-1.222 3.845-1.265.242-.03-.418 1.33-.521 1.556-.026.057-1.303.57-3.202 1.307.176 2.316.358 4.813.53 7.378.717 10.676 1.127 16.881 1.113 18.103-.026 2.349.023 4.465-.372 6.787-.346 2.034-1.072 3.998-2.105 5.855-.625 1.125-.024-8.23 0-10.423l-1.18-19.402-.534-7.314c-2.04.782-4.371 1.668-6.553 2.497.134 2.28.252 4.49.337 6.408.095 2.26.328 5.409.328 6.014 0 7.565-2.004 17.91-12.16 14.986-2.777-.8-6.54-4.535-6.54-4.535s-6.818 5.19-10.68 5.06c-4.744-.157-6.61-2.78-7.43-8.17-.23-1.508-.238-2.928-.779-4.377-.796 4.742-4.346 8.505-7.977 11.382-6.566 5.204-18.649 10.199-19.296-.316-1.138.69-2.31 1.313-3.494 1.81-6.065 2.549-12.447 2.507-16.152-1.467-4.263-4.573-4.321-17.213-.454-20.736.071-.065.178-.001.16.094-.483 2.71-1.461 4.503-1.76 7.157-.425 3.764.638 7.962 5.028 10.516 3.791 2.206 8.26 1.478 12.39 0 1.486-.532 3.088-1.315 4.71-2.245.543-2.528 1.484-5.122 2.3-7.371l.026-.07a.19.19 0 0 1 .182-.128m44.706.874c-1.474-.116-3.78.197-3.78.197l2.005 1.48 1.578 1.478 2.037-1.216 2.136-1.052s-2.39-.762-3.976-.887" fill="#000"/><path d="M53.166 35.114c.989-.466 19.918-7.44 20.034-7.694s.86-1.788.587-1.754c-1.497.186-19.578 6.973-19.921 7.494-.344.52-1.101 2.142-.7 1.954m-13.36-18.136h3.832c.564.007 2.51.03 2.662.457.067.188-.457.488-.457.488-1.112.588-4.418 2.376-5.591 3.252-.139.103-.05.248.115.2l3.982-1.165s1.078-.268 1.86-.976c.916-.83 3.261-3.536 3.049-4.573-.244-1.189-6.088-.86-7.043-.793-1.32.61-1.968 1.787-2.409 3.11m31.287-2.405h3.83c.565.007 2.511.03 2.663.457.068.188-.457.488-.457.488-1.112.588-4.417 2.376-5.59 3.252-.14.103-.051.248.114.2l3.982-1.165s1.078-.268 1.86-.976c.916-.83 3.261-3.536 3.049-4.573-.244-1.19-6.087-.86-7.043-.793-1.32.61-1.967 1.787-2.408 3.11" fill="#000"/><path fill-rule="evenodd" clip-rule="evenodd" d="m22.454 24.398-1.446-1.125s.783-2.155.562-3.536c-.293-1.838-1.967-1.526-3.295-.563-1.072.778-1.813 1.57-1.768 2.894.047 1.387 1.455 2.178 2.33 3.054l-2.089 2.009s-1.398 1.275-2.411 1.929c-2.085 1.347-5.249 3.295-6.937 3.938-.247.171-.24.308-.457.482 0 0 .491-.142.803-.24 4.41-1.393 9.032-4.16 12.056-7.716l1.768.964zm-4.34-3.456c-.492.855 1.36 1.54 1.849 1.769.136-.322.105-1.447 0-1.769s-.217-.482-.563-.482-1.041.058-1.286.482" fill="#000"/></svg>