<svg width="100" height="79" viewBox="0 0 100 79" fill="none" xmlns="http://www.w3.org/2000/svg"><path d="m80.43 78.563 2.178-4.093a.184.184 0 0 0-.044-.228c-1.343-1.115-3.707-2.287-4.676-2.806a.19.19 0 0 0-.262.086l-1.906 4.073a.19.19 0 0 0 .068.238l4.376 2.8a.187.187 0 0 0 .267-.07" fill="#000"/><path fill-rule="evenodd" clip-rule="evenodd" d="m22.417 8.22-1.811-1.41s.98-2.699.704-4.428c-.368-2.3-2.463-1.91-4.126-.704-1.342.973-2.27 1.966-2.214 3.623.06 1.737 1.821 2.727 2.918 3.824l-2.616 2.516s-1.751 1.596-3.02 2.415c-2.61 1.687-6.572 4.127-8.685 4.932-.31.214-.3.385-.573.604 0 0 .615-.179 1.006-.302 5.52-1.744 11.31-5.207 15.096-9.662l2.214 1.208zm-5.434-4.328c-.617 1.07 1.703 1.929 2.314 2.214.17-.403.132-1.812 0-2.214-.131-.403-.27-.604-.704-.604s-1.305.072-1.61.604" fill="#000"/><path d="M63.778 3.4H59.71c.468-1.403 1.156-2.654 2.557-3.3 1.015-.073 7.22-.421 7.479.841.225 1.101-2.265 3.975-3.238 4.856-.83.752-1.974 1.036-1.974 1.036L60.306 8.07c-.176.051-.27-.102-.123-.212 1.246-.93 4.756-2.828 5.937-3.453 0 0 .557-.318.485-.518-.162-.453-2.228-.478-2.827-.485" fill="#000"/><path fill-rule="evenodd" clip-rule="evenodd" d="M16.715 38.03c-.62-.476-1.476-1.241-1.742-1.48a.135.135 0 0 0-.17-.008c-2.949 2.189-5.53 4.623-7.827 7.482a.133.133 0 0 0 .063.21c2.493.775 4.928.617 7.515.752 4.032.21 6.307.036 10.333.337 5.976.447 12.79.607 14.17 6.829.316 1.428.424 3.14.41 4.665 4.545-1.976 9.581-4.057 10.337-4.18.257-.041-.392 1.432-.493 1.676-.055.134-5.237 2.38-10.038 4.452-.602 3.21-1.885 6.393-3.81 8.958-3.746 4.992-9.59 9.38-15.776 10.56-6.921 1.319-14.378-1.03-17.628-7.7C.169 66.704-.273 62.642.145 57.492c.398-4.897 3.67-12.034 3.67-12.034s-.052-.299-.135-.472c-.127-.267-.45-.498-.697-.644-.154-.092-.202-.304-.087-.441l.028-.034a.27.27 0 0 1 .207-.097h1.562c2.143-3.368 4.3-6.718 7.38-9.28a.14.14 0 0 0 .05-.104v-.828a.14.14 0 0 0-.037-.093c-1.471-1.563-3.192-3.24-5.232-4.013-1.327-.503-2.126-.513-3.444 0 0 0-1.938 1.302-2.23 1.075-.233-.182-.161-.55-.161-.55s.518-2.525 1.522-4.791c1.003-2.266 8.69-3.432 13.175-3.432 3.27 0 8.223 1.49 8.223 1.49s4.398 1.42 3.658 3.269c-.258.644-1.217 3.572-1.813 3.885l-6.41 3.27a.134.134 0 0 0-.04.204c1.643 1.928 4.314 2.334 6.788 2.709 3.698 0 7.858-.562 9.86-4.176 1.003-1.813 2.2-4.507 2.621-5.148.162-.246.523-.315.648-.582.424-.907 1.475-2.164 2.33-3.043.856-.88 1.944-1.797 3.238-2.137 6.216-1.633 6.695 10.434 5.341 12.82-.552.972-1.489 2.169-1.489 2.169-4.37-.518-8.107-1.619-10.78-4.08-1.685 4.144-4.311 8.333-8.87 9.453-3.82.94-8.32-.77-12.306-3.828M3.68 50.93c.69-1.975 2.094-4.931 2.094-4.931 2.654 1.678 5.44 2.66 8.51 3.31 6.927 1.463 16.379-1.245 21.73 4.202 1.254 1.277 1.828 2.626 1.913 3.98-3.257 1.436-5.934 2.682-6.057 2.883-.306.504-.964 2.06-.593 1.869.353-.182 3.085-1.36 6.321-2.756l.135-.058c-.43 1.695-1.496 3.35-2.82 4.83-5.935 6.638-15.834 11.035-24.48 8.147-4.079-1.362-6.968-4.16-8.036-8.442C1.325 59.67 2.249 55.02 3.68 50.93m16.324-22.537c-1.947-1.362-5.033-1.2-7.526-.88-.124.016-.16.177-.057.247a43 43 0 0 1 3.82 2.916c.042.036.1.043.149.018a45 45 0 0 0 3.607-2.084.13.13 0 0 0 .007-.218m27.39 2.627c1.036-.718-.63-3.553-1.288-4.015-.834-.585-5.263-.399-4.945.965.286 1.23 5.299 3.696 6.233 3.05" fill="#000"/><path d="M51.881 42.287c-.319.517-1.008 2.118-.623 1.923.283-.144 1.985-.877 4.236-1.84l.396 10.656c.26 4.046-.03 14.113 5.924 15.992 5.568 1.756 12.673-4.055 18.064-6.248 3.64-1.481 7.298-2.456 11.2-2.881.316-.035.65-.06.994-.078l.114 2.344c-.026 2.317-.66 12.196 0 11.008 1.09-1.961 1.857-4.036 2.222-6.183.396-2.329.395-4.708.394-7.064v-.158c1.18-.005 2.103-.014 2.233-.16.194-.218 2.806-4.872 2.396-5.018-.593-.212-2.588-.19-4.809-.212a998 998 0 0 0-.947-19.013c3.153-1.324 5.708-2.416 5.749-2.51.104-.24.777-1.695.516-1.656-.552.083-3.253 1.12-6.375 2.39l-.105-1.606c-.662-9.813-1.325-19.205-1.524-21.483-.012-.136.25-.245.25-.245.174.27 2.163 2.362 2.17 1.645.006-.523-.095-.906-.23-1.4C93.082 6.685 90.357-.62 89.945.059s-1.605 3.044-1.461 4.587c.054.576.478 1.403.478 1.403l1.808 26.894.084 1.751c-4.187 1.745-8.258 3.535-8.416 3.785-.315.497-.998 2.034-.62 1.847.467-.23 4.85-2.044 9.124-3.828l.862 17.8a37 37 0 0 1-.726-.042c-6.433-.438-16.38-2.072-16.38-2.072 2.9-2.794 3.916-9.613 3.916-13.596 0-.594-.12-3.68-.213-5.898-.315-7.108-1.028-18.263-1.373-21.77-.013-.133.244-.243.244-.243.175.264 2.272 2.333 2.272 1.625 0-.517-.105-.894-.244-1.382C78.164 6.94 75.119.032 75.119.032c-.725 1.244-1.828 3.673-1.669 5.195.06.57.487 1.381.487 1.381l1.57 26.083.486 8.746s0 4.435-.485 5.535c-.834 1.89-11.913 3.74-12.755 4.986-.811 1.2-1.659 3.119-1.941 3.78a.19.19 0 0 0 .154.266l18.232 2.299s-4.598 2.671-7.801 3.755c-3.05 1.031-6.168 2.359-9.194 1.262-2.31-.837-3.147-3.69-3.497-5.989l-.527-16.11c5.019-2.146 10.924-4.677 10.986-4.825.105-.25.785-1.765.52-1.724-.857.133-6.783 2.578-11.568 4.667l-.479-14.606s-.656-11.796-.841-13.144S54.984.73 53.883.583c-.615-.083-1.554 3.972-1.554 4.694 0 .485.616 2.08.939 3.431.708 2.966 1.263 7.705 1.263 7.705l.895 24.12c-2.019.91-3.452 1.603-3.545 1.754" fill="#000"/></svg>