<svg width="100" height="55" viewBox="0 0 100 55" fill="none" xmlns="http://www.w3.org/2000/svg"><path d="M28.933 13.08h-.29a.1.1 0 0 0-.092.061c-.125.322-.678 1.826-.58 2.856.337 3.507 2.769 6.323 3.874 9.558.704 2.062-4.835 5.254-6.49 6.288C17.55 36.722 8.808 40.16.273 43.506a.1.1 0 0 0-.034.023l-.21.208a.1.1 0 0 0 .007.149l.185.154q.03.026.07.023c.667-.072 9.837-1.093 15.255-3.417 3.139-1.346 6.078-3.1 8.954-4.93a55 55 0 0 1 .873-.544c2.312-1.42 4.946-2.947 6.472-5.14a8.5 8.5 0 0 0 1.459-3.672c.232-1.595-.07-3.099-.503-4.628-.462-1.63-1.521-3.909-1.828-4.553a.101.101 0 0 1 .11-.143l1.206.208a.1.1 0 0 0 .096-.036l.11-.138a.1.1 0 0 0-.004-.13l-3.484-3.828a.1.1 0 0 0-.074-.033m42.665 12.637 1.581-2.972a.13.13 0 0 0-.031-.166c-.975-.81-2.693-1.66-3.396-2.037a.14.14 0 0 0-.19.062l-1.384 2.958a.136.136 0 0 0 .05.172l3.177 2.034c.067.043.156.02.193-.05m-17.103 4.929 1.58-2.972a.13.13 0 0 0-.03-.166c-.976-.81-2.693-1.66-3.397-2.037a.14.14 0 0 0-.19.062l-1.384 2.958a.136.136 0 0 0 .05.172l3.177 2.034c.067.043.157.02.194-.051" fill="#000"/><path d="m58.72 30.646 1.581-2.972a.13.13 0 0 0-.031-.166c-.976-.81-2.693-1.66-3.396-2.037a.14.14 0 0 0-.19.062L55.3 28.491a.136.136 0 0 0 .05.172l3.177 2.034c.067.043.156.02.193-.051m8.753-4.93 1.581-2.972a.13.13 0 0 0-.031-.166c-.975-.81-2.693-1.66-3.396-2.037a.14.14 0 0 0-.19.062l-1.384 2.958a.136.136 0 0 0 .05.172l3.177 2.034c.067.043.156.02.193-.05" fill="#000"/><path fill-rule="evenodd" clip-rule="evenodd" d="m76.817 12.55-1.013-.788s.549-1.51.394-2.477c-.206-1.287-1.378-1.069-2.308-.394-.751.544-1.27 1.1-1.239 2.027.033.971 1.02 1.525 1.633 2.139l-1.464 1.407s-.98.893-1.689 1.352c-1.46.943-3.677 2.308-4.859 2.758-.173.12-.168.216-.32.338 0 0 .344-.1.562-.169 3.089-.975 6.327-2.913 8.445-5.405l1.239.676zm-3.04-2.42c-.345.598.953 1.078 1.295 1.238.095-.225.073-1.014 0-1.239s-.152-.337-.394-.337-.73.04-.901.337M30.436 8.226l-1.135-.883s.615-1.691.441-2.775c-.23-1.442-1.543-1.197-2.586-.441-.841.61-1.423 1.232-1.387 2.27.037 1.089 1.141 1.71 1.829 2.397l-1.64 1.577s-1.098 1-1.892 1.514c-1.637 1.057-4.12 2.586-5.444 3.09-.194.135-.189.242-.36.38 0 0 .386-.113.631-.19 3.46-1.093 7.089-3.264 9.462-6.055l1.387.756zM27.03 5.514c-.386.671 1.068 1.21 1.45 1.388.108-.252.083-1.135 0-1.388-.081-.252-.17-.378-.44-.378-.272 0-.818.045-1.01.378" fill="#000"/><path d="M74.207 2.508h-2.823s.116-.43.23-.69c.374-.85.92-1.356 1.729-1.73 1.383-.098 2.974-.207 4.32.231.45.147.664.233.865.634-.657 1.31-1.461 2.678-2.65 3.572-1.285.966-3.975 1.325-3.975 1.325s-.23 0 .345-.404c.576-.403 3.918-1.627 3.918-2.707a9.2 9.2 0 0 0-1.959-.23m-8.954 9.457H62.43s.116-.431.23-.692c.373-.85.92-1.354 1.729-1.728 1.383-.098 2.974-.208 4.32.23.45.147.664.233.864.634-.656 1.31-1.46 2.678-2.65 3.572-1.285.966-3.974 1.325-3.974 1.325s-.23 0 .345-.403c.576-.404 3.917-1.628 3.917-2.708a9.2 9.2 0 0 0-1.958-.23M58.55 19.85c-.08.161-11.653 4.353-12.308 4.634-.265.114 0-.374.234-.702s11.513-4.773 12.496-4.867c.18-.017-.341.775-.421.936M42.364 49.11c-.096.192-13.93 5.202-14.713 5.538-.317.136 0-.447.28-.839s13.761-5.706 14.936-5.818c.215-.02-.407.927-.503 1.119m43.53-25.972c-.293.126 0-.412.257-.773.137-.192 3.707-1.664 7.187-3.017l-.78-14.176s-.283-.567-.315-.96c-.085-1.053.777-1.929 1.297-2.775 0 0 1.868 4.193 2.59 6.957.09.339.156.6.147.957-.01.49-1.431-.804-1.548-.988 0 0-.179.071-.172.164.09 1.196.334 5.26.612 10.117 2.35-.892 4.342-1.602 4.747-1.64.198-.02-.375.854-.464 1.03-.033.068-1.892.775-4.224 1.643l.197 3.51.065 1.165c.426 7.694.827 15.418.807 16.298-.038 1.692-.09 3.314-.393 4.983-.266 1.461-.51 2.68-1.269 4.01-.46.804-.087-6.05-.051-7.63l-1.191-21.655c-3.434 1.27-7.12 2.618-7.5 2.78" fill="#000"/><path fill-rule="evenodd" clip-rule="evenodd" d="m40.047 14.99-.598 3.89a.16.16 0 0 0 .016.095c2.154 4.136 4.037 8.5 4.637 13.16.194 1.504.469 1.914-.392 3.255-3.104 4.833-8.925 9.5-14.682 10.099-6.677.694-5.01-5.332-3.553-10.124a.155.155 0 0 0-.102-.193l-.294.181c-.923 2.548-1.739 4.93-1.857 7.658-.438 10.126 9.846 5.844 15.349 1.483 2.804-2.222 5.532-4.815 6.283-8.408.022-.101.163-.113.195-.016.36 1.075.597 2.284.762 3.368.655 4.304 1.783 6.828 6.813 6.05 3.015-.465 4.543-2.65 6.486-4.892 1.107-1.277.524.879 1.207 2.062 1.994 3.453 5.728 1.572 8.1-.15 4.905 2.22 10.154 1.465 14.694-1.359.801 1.557 1.924 3.305 3.616 3.974 3.595 1.422 5.635-2.304 4.679-5.634-.457-1.59-1.058-2.69-2.566-3.37-1.641-.741-4.578.553-4.578.553-.569-2.14-.863-4.296-1.15-6.49-.409-3.11-.761-7.998-.761-7.998-.497-6.33-.582-12.818-.726-14.287-.01-.088.159-.16.159-.16.114.173 1.486 1.366 1.486.903 0-.338-.068-.584-.159-.903-.743-2.601-2.601-6.53-2.601-6.53-.474.813-1.272 1.66-1.168 2.655.038.372.318.902.318.902l.327 9.02.523 9.557.835 8.351 1.006 5.936c-3.266 2.236-6.7 2.78-10.564 1.861 1.55-2.423 2.224-4.998 1.358-7.797-1.733-5.598-5.9-.937-7.093 2.968-.53 1.733-.729 3.7.201 5.332-1.057.729-2.392 1.179-3.622.604-1.115-.521-1.53-1.53-1.61-2.716-.24-3.603-1.985.296-3.621 1.559-1.24.957-3.456 2.036-3.456 2.036-6.906 2.036-6.685-5.729-7.613-10.487-.67-3.43-1.143-6.367-2.384-9.65-.91-2.405-2.004-4.46-3.693-6.407a.118.118 0 0 0-.207.06m48.29 25.002c-.742-.353-1.994-.127-2.42-.034a.093.093 0 0 0-.052.152c.239.292.896 1.044 1.516 1.29.699.278 1.827.104 2.222.03a.093.093 0 0 0 .06-.148c-.206-.289-.767-1.023-1.326-1.29m-21.692-3.658s1.001 2.585 2.526 2.15c1.268-.363 2.126-.8 2.515-2.063.474-1.542-.875-4.035-1.66-3.824-1.308.353-3.38 3.737-3.38 3.737" fill="#000"/></svg>