<svg width="100" height="59" viewBox="0 0 100 59" fill="none" xmlns="http://www.w3.org/2000/svg"><path d="m55.783 22.834 1.41-2.65a.12.12 0 0 0-.028-.149c-.87-.722-2.401-1.48-3.028-1.817a.123.123 0 0 0-.17.056l-1.234 2.638a.12.12 0 0 0 .044.153l2.834 1.814c.06.038.139.017.172-.045M32.968 58.513l1.41-2.65a.12.12 0 0 0-.028-.148c-.87-.723-2.401-1.482-3.028-1.818a.123.123 0 0 0-.17.056l-1.234 2.638a.12.12 0 0 0 .044.153l2.834 1.814c.06.038.139.017.172-.045m4.49 0 1.41-2.65a.12.12 0 0 0-.028-.148c-.87-.723-2.4-1.482-3.028-1.818a.123.123 0 0 0-.17.056l-1.234 2.638a.12.12 0 0 0 .044.153l2.834 1.814a.12.12 0 0 0 .172-.045" fill="#000"/><path fill-rule="evenodd" clip-rule="evenodd" d="m20.744 24.55-1.093-.85s.592-1.627.425-2.67c-.222-1.386-1.485-1.151-2.488-.424-.809.587-1.369 1.185-1.335 2.185.036 1.047 1.099 1.644 1.76 2.305l-1.578 1.517s-1.055.963-1.82 1.457c-1.574 1.016-3.963 2.487-5.237 2.973-.186.129-.18.232-.345.364 0 0 .37-.108.606-.182 3.329-1.051 6.82-3.14 9.102-5.825l1.335.728zm-3.277-2.609c-.371.646 1.027 1.163 1.396 1.335.102-.243.079-1.092 0-1.335-.08-.243-.164-.364-.425-.364s-.787.044-.971.364" fill="#000"/><path d="M78.775 15.291c-.104.208-15.11 5.643-15.959 6.008-.344.147 0-.486.304-.91.303-.425 14.927-6.19 16.2-6.311.234-.022-.441 1.005-.545 1.213M62.027 51.456c-.104.208-15.108 5.643-15.958 6.007-.344.148 0-.485.303-.91.304-.425 14.927-6.19 16.202-6.31.232-.023-.442 1.005-.547 1.213M78.752 2.642H75.78s.122-.453.243-.728c.393-.895.968-1.427 1.82-1.82 1.457-.104 3.133-.22 4.551.242.473.154.699.245.91.668-.691 1.38-1.539 2.82-2.79 3.762-1.355 1.018-4.188 1.396-4.188 1.396s-.243 0 .364-.425 4.127-1.715 4.127-2.852a9.7 9.7 0 0 0-2.064-.243M28.51 22.545h-2.973s.123-.454.243-.728c.393-.896.968-1.427 1.82-1.82 1.458-.105 3.133-.22 4.551.242.473.154.7.245.91.667-.691 1.38-1.538 2.821-2.79 3.763-1.355 1.017-4.188 1.395-4.188 1.395s-.242 0 .364-.425c.607-.424 4.127-1.714 4.127-2.851a9.7 9.7 0 0 0-2.064-.243" fill="#000"/><path fill-rule="evenodd" clip-rule="evenodd" d="M6.38 57.452c1.244-.377 1.794-.965 2.837-1.74 4.613-3.435 7.715-7.03 13.347-9.11.243-.09.985 1.441 1.396 2.062 1.903 2.88 6.194 3.892 7.192 0 .495-1.927.366-5.426-1.55-6.432-1.632-.857-3.877-.656-5.946.133-2.528-2.118.586-5.277 2.46-6.443 1.91 1.456 2.924 5.012 5.206 6.653 10.633 7.648 34.51 1.93 44.144-4.06a.12.12 0 0 1 .138.01c4.254 3.394 8.249 5.674 12.493 1.584 2.231-2.15 2.428-6.887 2.428-9.952 0-.457-.092-2.832-.164-4.538a865 865 0 0 0-.437-8.788 1383 1383 0 0 0 4.566-1.69l2.234 28.73c0 1.71-.235 9.134.242 8.252.79-1.456 1.023-2.781 1.275-4.369.287-1.813.303-3.57.303-5.4 0-1.372-1.294-18.089-2.096-27.946 1.73-.653 2.928-1.121 2.957-1.18.105-.208.779-1.235.547-1.213-.357.034-1.76.51-3.603 1.188a486 486 0 0 0-.475-5.557c-.01-.1.182-.183.182-.183.131.197 1.7 1.561 1.7 1.032 0-.386-.079-.667-.183-1.032C96.723 4.49 94.6 0 94.6 0c-.542.929-1.453 1.897-1.335 3.034.044.425.364 1.031.364 1.031l.767 9.868a310 310 0 0 0-4.535 1.765c-.4-3.118-.49-6.11-.611-7.038-.452-3.454 2.228 1.857 1.9 0-.553-3.137-3.063-7.69-3.063-7.69-.558.957-1.497 1.955-1.375 3.126.046.438.375 1.063.375 1.063l.659 11.392c-2.23.91-3.895 1.634-3.996 1.774-.303.425-.647 1.058-.303.91.278-.119 2.07-.78 4.36-1.624l.882 15.259c.01.171-.034 3.382-.107 3.537-.128.276-.582.665-.788.971s-1.338.858-2.306 1.092c-1.527.369-2.537.194-4.005-.364-.766-.29-1.736-.974-2.129-1.263a.12.12 0 0 1 .03-.208c.74-.273 3.286-1.234 4.83-2.109.95-.538 1.274-2.488 1.274-2.488v-.546c-5.917-3.643-11.75-3.45-18.204-1.153-.69.978-1.315 2.153-1.335 3.372a.12.12 0 0 0 .145.117c2.789-.574 5.097.344 7.029 2.345a.12.12 0 0 1-.029.188c-5.106 2.83-10.187 4.765-16.004 5.447 3.243-2.284 6.46-5.275 4.49-9.345-2.371-4.9-7.462-3.493-11.164-1.274-2.2 1.319-4.064 3.239-6.03 4.895-.086.072-.215-.002-.2-.113.172-1.208.216-2.315.311-3.796.642-10-1.7-22.854-1.968-25.582.096.145 1.252 1.15 1.252.76 0-.284-.057-.492-.134-.76-.626-2.191-2.191-5.5-2.191-5.5-.4.684-1.071 1.397-.984 2.235.032.314.268.76.268.76l1.848 29.407v4.854l-2.989 3.766a.12.12 0 0 1-.117.044c-4.563-.833-7.005-2.811-9.697-6.42-1.538-2.06-2.74-5.362-5.465-2.244-2.48 2.837-2.798 6.035-2.424 9.708-8.92 3.823-16.938 16.685-20.48 9.993-1.767-3.338 1.08-8.02 2.247-11.126a.12.12 0 0 1 .117-.077c1.27.02 1.76-1.45 1.891-2.547.012-.1-.096-.162-.17-.093-.385.352-.569.828-1.14 1.093a.11.11 0 0 1-.116-.013c-1.63-1.235-.418-4.318.177-5.926a.12.12 0 0 0-.114-.163h-.006a.12.12 0 0 0-.1.052c-1.496 2.162-1.736 4.703-1.01 7.215a.12.12 0 0 1-.01.09C1.867 44.032.765 46.865.233 49.514c-.309 1.542-.371 3.325.181 4.84.887 2.43 3.446 3.863 5.965 3.098m70.128-22.974a.12.12 0 0 0 .13.014l3.12-1.533a.12.12 0 0 0-.018-.221c-1.889-.57-3.716-.712-5.68-.491a.12.12 0 0 0-.061.212zm-50.932 11.42c-.052-.067-.008-.16.076-.173.96-.149 2.841-.419 3.344.573.834 1.643-2.53.733-3.42-.4m27.206-12.95c-4.765.815-9.057 5.505-12.04 9.039-.065.076-.024.191.076.194 4.07.112 22.843-1.667 17.971-7.412-1.715-2.023-3.48-2.252-6.007-1.82" fill="#000"/></svg>