<svg width="100" height="69" viewBox="0 0 100 69" fill="none" xmlns="http://www.w3.org/2000/svg"><path fill-rule="evenodd" clip-rule="evenodd" d="m21.76 5.076-1.225-.953s.663-1.825.477-2.994c-.25-1.556-1.666-1.292-2.79-.476-.908.658-1.536 1.33-1.498 2.45.04 1.174 1.232 1.844 1.974 2.585l-1.77 1.702s-1.183 1.079-2.04 1.633c-1.766 1.14-4.445 2.79-5.874 3.334-.209.145-.203.26-.387.409 0 0 .416-.121.68-.205 3.733-1.178 7.647-3.52 10.208-6.532l1.497.816zM18.085 2.15c-.416.724 1.152 1.304 1.566 1.497.115-.272.088-1.225 0-1.497-.09-.272-.184-.408-.477-.408s-.882.049-1.088.408" fill="#000"/><path d="M58.61 26.028c-.413.185-.94.04-1.236-.275-.548-.588-.548-2.16-.548-2.264 0-.962-.213-1.67-.55-2.401-.237-.517-.744.658-.754.892-.019.436.128.745.206 1.098.185.679.343 2.195 0 2.607-.343.411-.85.829-1.372.754-.705-.1-1.02-.533-1.098-1.235-.068-.617 0-1.715 0-1.715.046-2.547-.449-1.612-.63-.857-.122.503-.124 1.337-.124 1.337s0 2.813.274 3.362 1.047 1.24 1.99.823c.803-.355 1.28-1.33 1.44-2.126.48.617 1.173 2.52 2.539 1.509.654-.485.937-1.43 1.029-2.195.164-1.374-.548-2.591-1.03-3.842-.154-.463-.369-1.205-.686-.275-.416 1.223 1.67 4.298.55 4.802m15.34 4.807 1.923-3.616a.16.16 0 0 0-.039-.202c-1.186-.985-3.275-2.021-4.131-2.48a.17.17 0 0 0-.231.076l-1.685 3.6a.166.166 0 0 0 .06.21l3.867 2.473c.081.053.19.024.235-.061M55.75 42.792l1.922-3.617a.16.16 0 0 0-.038-.201c-1.186-.985-3.276-2.021-4.132-2.48a.17.17 0 0 0-.23.076l-1.685 3.6a.165.165 0 0 0 .06.209l3.867 2.474c.081.052.19.024.235-.062" fill="#000"/><path d="m61.18 42.792 1.924-3.617a.16.16 0 0 0-.038-.201c-1.187-.985-3.276-2.021-4.132-2.48a.17.17 0 0 0-.23.076l-1.685 3.6a.165.165 0 0 0 .06.209l3.866 2.474c.082.052.19.024.236-.062M74.483 4.676h-3.171s.13-.484.259-.777c.419-.955 1.033-1.522 1.942-1.942 1.554-.11 3.34-.234 4.854.26.504.164.745.26.97.711-.737 1.471-1.64 3.009-2.977 4.013-1.444 1.086-4.466 1.489-4.466 1.489s-.259 0 .389-.453c.647-.453 4.401-1.83 4.401-3.042a10.3 10.3 0 0 0-2.2-.26m5.071 10.38c-.11.222-16.102 6.014-17.008 6.402-.367.157 0-.517.324-.97.323-.453 15.908-6.596 17.266-6.726.248-.023-.47 1.072-.582 1.294M61.76 16.487c-.11.222-16.102 6.015-17.008 6.403-.367.157 0-.518.324-.97.323-.453 15.908-6.597 17.266-6.726.248-.024-.47 1.071-.582 1.293" fill="#000"/><path fill-rule="evenodd" clip-rule="evenodd" d="M82.197 28.323c-.317.444-.678 1.107-.317.952.173-.074.906-.349 1.977-.745.176 4.74 1.291 15.834.467 19.456-.568 2.493-7.92 2.132-10.256 1.56 0 0 .982-1.482 1.399-2.532 1.936-4.877.576-14.934-5.432-9.445-3.465 3.165-4.651 7.968-3.121 12.363-1.51.801-3.718 1.472-5.25.365-1.532-1.108-1.033-4.195-1.195-4.945-.205-.949-2.97 2.271-4.72 3.729-3.547 2.954-9.84 5.571-12.528.466-.74-1.406-.79-3.993-.79-3.993L41.215 11.87s-.362-3.926-.973-6.364c-.479-1.909-1.52-5.09-1.905-4.885-.386.205-1.44 2.351-1.44 3.85 0 0 1.434 4.272 1.764 7.115 1.58 13.618.506 21.889 1.398 35.428.313 4.75 1.255 9.776 6.628 10.164 6.85.496 10.352-6.658 11.755-6.658 1.02 0-.649 5.735 6.141 5.27 2.239-.154 5.168-2.514 5.168-2.514s2.286 1.045 3.851 1.338c8.026 1.5 10.722-.831 12.748-7.6.727-2.428.735-5.214.69-7.662-.075-3.998-.623-7.67-.878-11.673 2.047-.755 4.52-1.665 6.72-2.482l.36 5.77.823 16.621c-.03 1.986-.434 10.606.137 9.59.942-1.677 1.236-3.212 1.557-5.052.366-2.101.415-4.141.447-6.268.016-1.106-.046-6.048-.655-15.716-.12-1.912-.247-3.88-.37-5.804 1.97-.742 3.365-1.284 3.397-1.348.109-.218.815-1.293.571-1.27-.391.037-1.986.583-4.051 1.347-.392-6.039-.752-11.398-.869-12.81-.01-.116.215-.208.215-.208.148.231 1.946 1.843 1.955 1.228.007-.448-.079-.776-.193-1.201-.935-3.469-3.323-8.722-3.323-8.722-.645 1.07-1.721 2.178-1.604 3.5.044.495.405 1.205.405 1.205l1.118 17.872a315 315 0 0 0-6.71 2.652c-.472-7.361-.956-14.644-1.096-16.326-.01-.116.215-.208.215-.208.148.231 1.946 1.843 1.955 1.228.007-.448-.078-.776-.193-1.201-.935-3.469-3.323-8.722-3.323-8.722-.645 1.07-1.721 2.178-1.604 3.5.044.495.405 1.205.405 1.205l1.344 21.487c-.94.408-1.538.693-1.598.777M71.09 48.25c1.135-.406 2.863-1.421 3.263-3.08.258-1.072-1.763-4.75-2.351-4.622-1.291.283-5.25 3.892-3.892 5.837.806 1.155 1.654 2.338 2.98 1.865M6.679 15.335c8.998-.182 14.694.973 26.246 1.642.464.027 1.034.588 1.034.588l-1.237 3.891-.85.71s-3.75 1.576-6.122 2.654c-3.696 1.681-5.792 2.593-9.343 4.56-1.458.809-3.689 2.15-3.689 2.15.063.97.062 2.455-.385 2.796-.344.264-1.216-.883-1.5-1.662a27.6 27.6 0 0 0-3.344 3.283s6.592.63 10.821.953c5.874.448 14.742-1.44 17.919 5.087.56 1.151.625 1.912.79 3.182.35 2.686-.042 4.288-.79 6.891-2.86 9.944-14.473 18.21-24.99 15.403C-.337 64.373-1.032 53.49 1.51 43.588c.708-2.756 2.595-6.81 2.595-6.81s-.831-.282-.831-.709c0-.223 1.844-.405 1.844-.405l3.608-4.925s-3.223-2.838-5.452-4.56C.977 24.404-.621 23.063.234 19.835c.806-3.047 3.651-4.443 6.445-4.5m18.484 5.736s-4.929-.728-8.107-.993c-4.877-.406-10.317-.71-14.857.345 3.122 2.878 6.506 5.512 9.607 8.107 4.44-2.57 8.805-5.094 13.357-7.459M12.617 40.467c-2.692-.72-6.607-2.695-6.607-2.695s-3.192 5.142-3.81 8.856C.315 57.933 8.68 64.842 20.075 62.478c8.555-1.775 23.123-13.94 11.147-19.625-5.21-2.472-12.757-.82-18.606-2.386" fill="#000"/></svg>