<svg width="100" height="58" viewBox="0 0 100 58" fill="none" xmlns="http://www.w3.org/2000/svg"><path d="M13.165 36.111s.14-.084.174-.173c.52-1.387.08-3.717 1.906-5.027.666-.477 1.51-.07 1.734.693.151.519-.01 1.133-.447 1.453a.103.103 0 0 1-.136-.013c-.354-.375-.544-.89-1.15-.746-.584.414-.683.982-.925 1.617-.424 1.111-.353 3.512-1.328 4.514a.098.098 0 0 1-.166-.043c-.095-.363-.042-.753-.124-1.12-.157-.698-.967-3.664-1.907-3.35-.412.137-.445.227-.924 0-1.541-.732-.26-3 1.213-2.196 1.383.755 1.878 3 2.08 4.391" fill="#000"/><path fill-rule="evenodd" clip-rule="evenodd" d="m37.2 13.785-1.04-.808s.564-1.55.405-2.543c-.211-1.32-1.414-1.097-2.369-.404-.77.559-1.303 1.129-1.27 2.08.033.997 1.045 1.566 1.675 2.195l-1.502 1.445s-1.006.916-1.734 1.387c-1.499.968-3.773 2.368-4.986 2.83-.178.124-.173.222-.33.347 0 0 .354-.102.578-.173 3.17-1 6.493-2.99 8.667-5.547l1.271.694zm-3.12-2.484c-.353.615.979 1.107 1.33 1.271.098-.231.075-1.04 0-1.271-.076-.231-.156-.347-.405-.347s-.749.042-.924.347" fill="#000"/><path d="m58.316 16.658 1.343-2.524a.11.11 0 0 0-.027-.14c-.828-.688-2.286-1.411-2.884-1.731a.117.117 0 0 0-.16.053l-1.177 2.512a.116.116 0 0 0 .043.146l2.698 1.727a.116.116 0 0 0 .164-.044M75.65 30.87l1.342-2.523a.11.11 0 0 0-.027-.14c-.828-.688-2.286-1.411-2.883-1.73a.117.117 0 0 0-.161.052l-1.176 2.512a.115.115 0 0 0 .042.146l2.698 1.727a.116.116 0 0 0 .165-.043M35.899 25.67l1.342-2.523a.11.11 0 0 0-.027-.14c-.828-.688-2.286-1.41-2.883-1.73a.117.117 0 0 0-.162.052l-1.175 2.512a.116.116 0 0 0 .042.146l2.698 1.727a.116.116 0 0 0 .165-.043M74.64 2.978h-2.83s.116-.432.23-.693c.375-.853.923-1.36 1.734-1.734 1.388-.098 2.983-.209 4.333.232.45.146.666.233.867.635-.659 1.313-1.465 2.686-2.658 3.582-1.289.97-3.987 1.33-3.987 1.33s-.23 0 .347-.405c.578-.405 3.93-1.633 3.93-2.716a9.2 9.2 0 0 0-1.965-.23M64.262 44.027c-.1.198-14.387 5.373-15.196 5.72-.328.14 0-.462.29-.867.288-.404 14.213-5.893 15.426-6.009.222-.02-.421.958-.52 1.156" fill="#000"/><path fill-rule="evenodd" clip-rule="evenodd" d="M30.782 43.333c.114-.964.116-2.484.116-2.484 3.791 1.397 7.662 1.078 11.613.75 4.878-.403 9.824-1.137 14.271-3.292 2.17-1.052 4.851-2.37 5.72-4.796.906-2.53.59-6.258-.52-8.609-.8-1.695-2.278-3.758-4.218-4.218-3.416-.809-5.9 2.991-5.373 6.125.45 2.674 2.485 2.638 4.582 2.6.91-.015 1.832-.032 2.64.173 1.276.324 2.025.975 2.254 2.311-3.27 3.528-8.85 5.803-13.636 5.605l.25-.258c.6-.617 1.21-1.244 1.715-1.938 1.116-1.536 2.678-3.775 2.368-5.72-.056-.35-.194-.554-.367-.81a8 8 0 0 1-.153-.23c-5.872-9.293-16.989.85-19.413 7.742a3 3 0 0 0-.092.348c-.089.39-.18.79-.659.866-1.227.193-2.96-1.961-3.467-2.831h-.346c-.44 1.055-.656 2.154-.751 3.293.91 1.34 1.75 2.806 2.137 4.391.353 1.44.267 2.432-.578 3.64-2.414 3.454-7.695 5.612-11.497 6.818-3.886 1.232-7.837 1.73-11.73.115-2.577-1.07-4.02-3.048-4.68-5.777-.597-2.477-.23-4.918.585-7.313.035-.104-.08-.196-.173-.138l-.147.092a.12.12 0 0 0-.047.058C-.247 43.683-.456 47.64.97 51.538c1.834 5.018 6.574 6.56 11.729 5.893 1.682-.217 2.612-.491 4.218-1.04 4.126-1.411 8.29-3.868 11.324-6.991 1.707-1.758 2.253-3.614 2.542-6.067m13-15.195c2.458-.03 4.622 1.526 6.21 3.26.02.021.03.05.03.079-.006 1.133-.263 1.35-1.172 2.115l-.041.035c-2.35 1.979-5.301 3.128-8.205 4.044-2.257.712-5.813.972-7.474.054a.11.11 0 0 1-.043-.15c2.09-3.886 5.67-9.375 10.695-9.437m15.08-2.08c-.443-.77-1.044-1.589-1.907-1.907-.843-.311-2.721-.376-2.31.982.404 1.338 3.263 1.102 4.217.925m25.89-3.458.668-.245.018-.007z" fill="#000"/><path fill-rule="evenodd" clip-rule="evenodd" d="M64.372 22.65c-.289.404-.617 1.006-.289.866.22-.094 1.44-.547 3.101-1.16.042 1.626.065 3.223.09 4.881.038 2.615.08 5.38.197 8.643.032.88.003 1.632-.024 2.343-.05 1.31-.095 2.483.255 4.07.26 1.178.419 1.852.925 2.947.092.2.17.387.243.564.25.604.452 1.09 1.028 1.574.869.73 1.641.788 2.773.866.657.046 1.07-.023 1.652-.121l.313-.052c1.227-.198 1.897-.432 3.062-.867.893-.333 1.503-.666 2.17-1.029.405-.22.83-.453 1.354-.704.326-.156.617-.297.89-.43a51 51 0 0 1 2.577-1.188c.227-.096.434-.186.63-.27.78-.34 1.37-.596 2.316-.885 1.042-.32 1.645-.436 2.716-.636.92-.171 1.44-.241 2.369-.346q.272-.032.574-.057l.071.923c0 .321-.008.853-.019 1.495-.042 2.613-.115 7.037.25 6.363.752-1.387.974-2.648 1.214-4.16.253-1.593.285-3.139.288-4.737a79 79 0 0 1 1.609-.059l1.733-3.177-.173-.29s-1.562.018-3.355-.008c-.296-4.27-.894-12.039-1.42-18.64 3.218-1.2 5.716-2.154 5.763-2.248.03-.06.097-.174.18-.313.278-.469.729-1.229.504-1.208-.572.055-3.294 1.018-6.568 2.256-.377-4.712-.699-8.59-.814-9.767-.01-.095.173-.173.173-.173.124.187 1.618 1.486 1.618.982 0-.368-.075-.636-.174-.982-.809-2.832-2.83-7.107-2.83-7.107-.12.204-.258.41-.398.62-.467.699-.96 1.436-.874 2.269.042.404.347.982.347.982l1.08 13.89a368 368 0 0 0-7.53 2.991c-.224-4.268-.643-10.98-.888-13.472-.01-.095.173-.173.173-.173.125.187 1.618 1.486 1.618.982 0-.368-.074-.636-.173-.982-.81-2.832-2.831-7.107-2.831-7.107-.12.204-.257.41-.398.62-.467.699-.96 1.436-.873 2.269.042.404.346.982.346.982l1.007 17.727c-1.349.577-2.225.986-2.306 1.099-.38.532-.811 1.325-.38 1.14.228-.098 1.264-.485 2.754-1.036l.244 4.297v4.68s-.468.52-.809.808c-1.022.87-2.002 1.045-3.104 1.242-.58.104-1.194.214-1.865.434-.472.155-.907.221-1.319.284-.746.113-1.416.215-2.09.814-.8.712-1.307 1.3-1.386 2.369-.014.18 0 .462 0 .462l12.769 1.56s-2.709 1.601-4.565 2.369q-.383.159-.721.303c-1.19.505-2.055.873-3.496 1.084-.324.047-.627.104-.918.159-1.132.214-2.063.39-3.185-.217-.689-.373-1.036-.7-1.502-1.33-.808-1.09-.924-3.35-.924-3.35s0-8.674-.29-17.838c4.44-1.636 10.358-3.817 10.422-3.944.1-.198.742-1.177.52-1.156-.773.074-6.698 2.326-10.976 4.057-.163-4.791-.407-9.63-.774-13.36l-.003-.027c-.199-2.017-.314-3.191-.98-5.114-.303-.88-.924-2.196-.924-2.196s-.268.265-.404.462c-.268.386-.336.675-.437 1.108l-.026.106c-.176.74-.12 1.237-.043 1.914q.022.187.043.397c.077.753.26 1.297.451 1.863.15.445.305.903.416 1.488.235 1.235.289 2.115.352 3.134.029.47.06.969.11 1.546.315 3.561.467 6.53.553 9.361-1.594.663-2.705 1.159-2.785 1.27M83.88 36.977c3.035.581 4.774.73 7.858.924.395.025.824.045 1.268.06l-1.39-17.894c-2.038.755-4.214 1.557-6.166 2.276l-.011.004-.018.007-.668.246-.718.265c.054 1.113.086 1.931.086 2.267q.001.454.01.922l.002.063c.023 1.284.049 2.67-.253 4.273l-.038.205c-.255 1.358-.415 2.21-1.06 3.493-.489.973-1.56 2.31-1.56 2.31s1.615.379 2.658.579" fill="#000"/></svg>