<svg width="100" height="74" viewBox="0 0 100 74" fill="none" xmlns="http://www.w3.org/2000/svg"><path fill-rule="evenodd" clip-rule="evenodd" d="m40.386 32.899-1.465-1.14s.793-2.182.57-3.58c-.298-1.861-1.992-1.546-3.337-.57-1.086.787-1.837 1.59-1.791 2.93.048 1.404 1.473 2.205 2.36 3.092l-2.116 2.035s-1.416 1.29-2.441 1.953c-2.112 1.364-5.316 3.337-7.025 3.988-.25.174-.243.312-.463.489 0 0 .497-.144.814-.244 4.464-1.41 9.146-4.211 12.208-7.814l1.79.977zm-4.395-3.5c-.499.866 1.377 1.56 1.872 1.79.138-.325.106-1.464 0-1.79-.106-.325-.22-.488-.57-.488s-1.055.058-1.302.488" fill="#000"/><path d="M72.159 4.533h-3.29s.135-.502.268-.806c.434-.99 1.072-1.58 2.014-2.015 1.613-.115 3.467-.243 5.037.269.523.17.773.271 1.007.739-.765 1.526-1.703 3.121-3.089 4.163-1.498 1.126-4.633 1.545-4.633 1.545s-.27 0 .402-.47S74.442 6.06 74.442 4.8a10.7 10.7 0 0 0-2.283-.268m8.975 56.566c-.115.23-16.698 6.236-17.636 6.639-.381.163 0-.537.335-1.006.335-.47 16.496-6.84 17.904-6.974.258-.025-.488 1.11-.603 1.341m-20.847 1.675 1.517-2.85a.13.13 0 0 0-.03-.16c-.936-.776-2.583-1.593-3.258-1.955a.13.13 0 0 0-.182.06l-1.329 2.838a.13.13 0 0 0 .048.165l3.049 1.95a.13.13 0 0 0 .185-.048m-4.874-.165 1.517-2.851a.13.13 0 0 0-.03-.16c-.936-.776-2.583-1.593-3.258-1.954a.13.13 0 0 0-.182.06l-1.328 2.837a.13.13 0 0 0 .047.166l3.049 1.95a.13.13 0 0 0 .185-.048" fill="#000"/><path fill-rule="evenodd" clip-rule="evenodd" d="M79.464 21.793c-.32.447-.682 1.115-.32.96a90 90 0 0 1 2.025-.764l.31 5.348s.05.873 0 1.43c-.233 2.557-1.31 2.887-3.153 3.452-.363.111-.756.231-1.178.38-2.483.872-6.482 1.845-6.482 1.845-1.019.965-1.374 2.232-1.23 3.596 4.77.401 9.51.971 14.241 1.703-2.841 1.832-6.174 3.898-9.604 4.353-3.36.445-5.02-.299-5.678-3.407-.747-3.53-.83-7.652-.909-11.6-.03-1.554-.062-3.08-.132-4.534a199 199 0 0 0-.3-4.989c4.64-1.713 9.401-3.486 9.464-3.61.118-.238.887-1.408.622-1.383-.756.072-5.636 1.887-10.188 3.679-.471-5.724-1.27-11.353-2.768-16.975-1.18.684-1.24 3.126-1.271 4.437l-.006.247c1.052 4.365 1.662 8.71 2.018 13.096-3.347 1.341-6.102 2.51-6.24 2.704-.346.484-.738 1.205-.346 1.037.383-.164 3.296-1.234 6.681-2.482.19 2.685.29 5.387.347 8.12.017.839.075 1.77.135 2.752.286 4.666.642 10.465-2.88 12.908-2.933 2.034-7.34 1.277-9.083-1.278-.21-.306-.365-.81-.531-1.35-.34-1.098-.723-2.34-1.693-2.34-.904 0-2.187 2.15-3.359 4.114-.728 1.22-1.414 2.37-1.94 2.888-1.01.994-1.603 1.546-2.791 2.319-.738.48-1.528.81-2.31 1.138-1.298.543-2.575 1.078-3.557 2.268-.746.903-1.126 1.976-1.506 3.049-.273.77-.546 1.541-.955 2.25-2.678 4.645-6.45 5.955-10.86 7.488-.926.322-1.881.654-2.86 1.028-2.359.903-4.186 1.523-6.055 2.158a184 184 0 0 0-5.3 1.864l-.645.24C6.049 71.091 2.999 72.221.05 73.8c-.092.05-.047.187.057.172 2.337-.334 4.666-.73 6.995-1.125 2.103-.357 4.206-.714 6.315-1.027 2.66-.394 5.203-.828 7.76-1.703 3.126-1.07 6.575-2.557 9.32-4.448 3.174-2.186 4.64-5.746 6.056-9.183l.095-.232c.727 2.39 2.553 5.09 4.968 6.056 3.43 1.37 6.112-2.02 6.103-5.204-.006-2.26-1.311-4.044-3.028-5.394 1.345-1.224 2.374-3.042 3.336-4.74.69-1.22 1.346-2.378 2.058-3.209 1.1-1.283 1.462-.024 1.88 1.424.278.97.582 2.024 1.148 2.456 2.517 1.92 5.806 2.227 8.564.71 2.824-1.554 4.089-4.375 4.258-7.476.446 2.895 1.12 6.884 4.495 7.618 2.923.635 6.744-1.433 10.342-3.38 1.759-.952 3.465-1.876 4.987-2.44 2.522-.935 5.161-1.41 7.828-1.619l.939 12.072c0 2.07-.285 11.061.294 9.993.955-1.763 1.238-3.368 1.543-5.29.349-2.197.367-4.323.367-6.54 0-.717-.29-4.887-.7-10.357a59 59 0 0 1 2.22-.01l1.75-3.879a97 97 0 0 1-4.285-.267c-.168-2.202-.346-4.51-.526-6.815l-.12-1.524c-.317-4.033-.632-7.987-.9-11.279 1.087-.417 1.775-.696 1.798-.741.11-.22.82-1.303.575-1.28-.285.028-1.203.322-2.476.774-.265-3.24-.473-5.68-.569-6.655-.012-.121.22-.22.22-.22.159.238 2.058 1.89 2.058 1.249 0-.467-.094-.809-.22-1.25C94.525 5.438 91.954 0 91.954 0c-.656 1.125-1.76 2.297-1.617 3.674.054.515.441 1.25.441 1.25L91.7 16.78a315 315 0 0 0-8.379 3.286c-.313-3.98-.397-7.969-.788-11.945-.01-.106.194-.193.194-.193.138.21 1.805 1.658 1.805 1.096 0-.41-.083-.71-.194-1.096C83.436 4.77 81.18 0 81.18 0a14 14 0 0 1-.444.692c-.521.78-1.072 1.602-.975 2.531.047.452.387 1.096.387 1.096l.964 16.675c-.968.42-1.586.713-1.648.799m3.22 8.062c.586-2.02.662-5.347.662-5.347v-3.323c2.587-.953 5.88-2.164 8.453-3.128l1.438 18.49c-3.048-.316-6.08-.728-9.145-1.145l-.084-.012c-1.514-.206-3.88-.52-3.88-.52a14.8 14.8 0 0 0 2.555-5.015M44.501 57.39c.065.215.095.567.095.567-1.71.796-3.649-.855-4.684-2.081-2.011-2.38 4.137.018 4.589 1.514" fill="#000"/></svg>