<svg width="100" height="55" viewBox="0 0 100 55" fill="none" xmlns="http://www.w3.org/2000/svg"><path fill-rule="evenodd" clip-rule="evenodd" d="M32.919 36.86s-.033 1.422-.154 2.449c-.308 2.61-.889 4.586-2.706 6.457-3.23 3.324-7.662 5.94-12.054 7.442-1.708.584-2.698.875-4.49 1.107-5.486.709-10.531-.932-12.484-6.273-1.516-4.148-1.294-8.361.232-12.446 0 0 .284-.628.419-.585.104.033.017.354-.03.573-.544 2.565-1.258 5.147-.62 7.784.701 2.904 2.236 5.011 4.98 6.15 4.143 1.718 8.35 1.188 12.485-.123 4.048-1.284 9.669-3.581 12.239-7.257.898-1.286.99-2.341.615-3.875-.413-1.687-2.288-4.049-2.432-4.923-.042-.257.22-.785.452-1.534.237-.768.448-1.754.656-1.837.362-.145.553 1.035 1.374 1.64.937.692 2.605 1.477 2.605 1.477.226-.45.727-1.28.727-1.28s5.543-9.883 10.308-11.682c3.44-1.3 7.49-.476 10.111 3.672.225.355.485.678.554 1.107.33 2.07-1.09 4.223-2.277 5.857-.631.869-1.396 1.721-2.143 2.498a.04.04 0 0 0 .031.07c.21-.012.69-.04.922-.078 2.725-.43 4.533-1.148 6.995-2.174 1.12-.466 2.686-1.23 2.686-1.558 0-.892-2.069-4.474-2.687-6.297-.227-.672-.264-1.35-.533-1.62-.268-.27-.537-.362-.82-.616-.092-.082.451-3.907.677-4.06.287-.196 3.958 3.363 4.102 3.65.097.195.08.23-.041.41-.19.283-1.298.031-1.642-.055-.036-.01-.066.03-.047.062.329.544 2.04 3.467 2.181 5.613.09 1.366.085 2.167-.308 3.479-1.632 5.446-6.902 6.118-12.696 7.125-2.292.398-5.927.595-5.927.595-4.206.348-7.225.543-11.26-.944m20.293-10.255c-1.69-1.847-3.993-3.503-6.61-3.47-5.347.065-9.16 5.908-11.384 10.045a.117.117 0 0 0 .046.16c1.768.977 5.553.7 7.956-.058 3.09-.975 6.232-2.199 8.733-4.305l.044-.037c.967-.815 1.24-1.045 1.247-2.252q0-.047-.032-.083" fill="#000"/><path d="m60.736 41.708-1.495 2.812a.13.13 0 0 1-.183.048l-3.006-1.924a.13.13 0 0 1-.047-.163l1.31-2.798a.13.13 0 0 1 .18-.059c.665.356 2.289 1.162 3.211 1.928a.126.126 0 0 1 .03.156m-10.474 10.46c.74-.348 16.145-6.073 16.232-6.263s.644-1.338.44-1.312c-1.12.14-15.89 5.723-16.148 6.113s-.824 1.603-.524 1.462m-9.257-35.769L39.51 19.21a.13.13 0 0 1-.183.048l-3.006-1.924a.13.13 0 0 1-.047-.163l1.31-2.797a.13.13 0 0 1 .18-.06c.665.357 2.289 1.162 3.211 1.928a.126.126 0 0 1 .03.157" fill="#000"/><path fill-rule="evenodd" clip-rule="evenodd" d="m40.2 8.178-1.136-.883s.615-1.693.442-2.778c-.231-1.443-1.545-1.198-2.588-.442-.842.61-1.425 1.233-1.39 2.273.038 1.09 1.143 1.71 1.831 2.398l-1.64 1.579s-1.099 1-1.895 1.515c-1.637 1.057-4.122 2.588-5.447 3.093-.195.134-.189.241-.36.378 0 0 .386-.111.631-.189 3.463-1.093 7.094-3.266 9.469-6.06l1.389.758zm-3.409-2.714c-.386.672 1.069 1.21 1.452 1.389.107-.253.083-1.137 0-1.389-.082-.253-.17-.379-.442-.379s-.818.046-1.01.379" fill="#000"/><path d="m79.154 21.444-1.495 2.812a.13.13 0 0 1-.183.047L74.47 22.38a.13.13 0 0 1-.047-.163l1.31-2.798a.13.13 0 0 1 .18-.059c.665.356 2.289 1.162 3.212 1.928a.126.126 0 0 1 .03.156m4.512-.164-1.496 2.811a.13.13 0 0 1-.183.048l-3.005-1.923a.13.13 0 0 1-.047-.163l1.31-2.798a.13.13 0 0 1 .179-.059c.665.356 2.29 1.162 3.212 1.927a.126.126 0 0 1 .03.157m.469-9.77c-.087.19-13.198 5.237-13.938 5.586-.3.14.267-1.073.524-1.463s12.733-5.295 13.853-5.435c.205-.025-.353 1.123-.44 1.313m-5.212-9.155h2.79c.41.005 1.828.022 1.939.333.049.137-.333.355-.333.355-.81.428-3.217 1.73-4.071 2.368-.101.075-.037.18.084.145l2.899-.848s.785-.195 1.354-.71c.667-.605 2.375-2.576 2.22-3.33-.178-.866-4.432-.627-5.128-.577-.96.443-1.433 1.3-1.754 2.264" fill="#000"/><path fill-rule="evenodd" clip-rule="evenodd" d="M83.93 25.273c-.257.39-.823 1.604-.523 1.462.276-.13 2.577-1.014 5.359-2.081.068 1.16.13 2.282.183 3.333.142 2.807.582 7.581-.16 9.386-.703 1.708-3.094 2.01-4.656 2.01-1.275 0-3.24-.39-3.24-.39s1.417-2.189 1.64-4.04c.273-2.27.123-6.223-2.317-6.966-2.134-.65-5.28 5.339-5.58 7.314-.26 1.72.636 4.082.636 4.082s-2.854 1.187-4.43.451c-1.706-.796-2.288-2.251-2.502-4.122-.267-2.339-.052-9.079-.267-14.89-.118-3.206-.154-5.006-.39-8.205-.138-1.892-.192-2.957-.43-4.84-.16-1.27-.225-1.99-.492-3.24l-.016-.073c-.265-1.242-.84-3.938-1.625-4.46-.154-.103-1.149 2.173-1.149 3.281 0 .615.501 1.627.76 2.687.427 1.755.572 2.763.82 4.553.544 3.932.328 6.187.492 10.153.178 4.332.216 6.763.37 11.096.166 4.734-.323 12.511 6.255 12.265 2.053-.077 4.82-2.113 4.82-2.113s2.489.963 4.163 1.23c1.394.224 2.226.463 3.61.186.8-.16 1.263-.29 1.969-.698 1.6-.925 1.976-2.175 2.748-3.856.828-1.8.965-2.97 1.149-4.943.177-1.9-.184-4.882-.184-4.882 0-.453-.175-2.807-.246-4.495l-.025-.546c1.388-.533 2.807-1.08 4.09-1.576l.13 1.801 1.178 14.744c-.018 1.679-.633 6.204-.155 5.343.79-1.422 1.347-2.925 1.611-4.482.302-1.778.452-3.555.472-5.353.01-.935-.226-2.646-.964-10.686q-.075-1.101-.154-2.192c1.56-.612 2.613-1.04 2.636-1.09.086-.19.644-1.337.44-1.312-.295.037-1.522.452-3.176 1.05-.437-5.785-.924-10.92-1.044-12.295-.008-.099.181-.177.181-.177.126.195 1.73 2.025 1.736 1.505.004-.379-.07-.656-.168-1.015C96.73 5.429 94.592-.18 94.294.314S93.056 2.77 93.16 3.888c.038.418.346 1.017.346 1.017l1.155 16.045c-1.3.485-2.707 1.02-4.06 1.545-.275-5.322-.766-12.279-.998-14.643-.01-.102.185-.186.185-.186.133.201 1.537 1.592 1.537 1.052 0-.393-.08-.68-.186-1.052C90.273 4.634 88.486.15 88.216.272c-.27.123-1.253 2.776-1.253 3.488 0 .436.382.708.382.708s.805 10.13 1.336 18.778c-2.606 1.029-4.656 1.883-4.75 2.027m-5.806 12.695s2.894-1.544 2.953-2.256c.073-.887-.665-3.959-1.764-3.959-1.108 0-3.59 2.798-3.59 3.836 0 1.32 2.4 2.379 2.4 2.379" fill="#000"/></svg>