<svg width="100" height="70" viewBox="0 0 100 70" fill="none" xmlns="http://www.w3.org/2000/svg"><path d="M63.19 28.507c-.42.188-.957.041-1.257-.28-.558-.598-.558-2.199-.558-2.303 0-.98-.217-1.7-.559-2.443-.241-.527-.758.67-.768.907-.019.443.13.758.21 1.117.188.691.349 2.234 0 2.652-.35.42-.865.844-1.396.768-.717-.102-1.038-.542-1.117-1.256-.07-.628 0-1.745 0-1.745.046-2.592-.457-1.64-.642-.873-.124.513-.126 1.361-.126 1.361s0 2.862.279 3.42c.28.56 1.066 1.262 2.024.838.818-.36 1.304-1.352 1.466-2.164.489.629 1.194 2.566 2.583 1.536.666-.494.954-1.454 1.047-2.234.168-1.397-.557-2.636-1.047-3.909-.157-.47-.376-1.226-.698-.279-.423 1.244 1.7 4.374.559 4.886" fill="#000"/><path fill-rule="evenodd" clip-rule="evenodd" d="m26.029 16.6-1.61-1.252s.871-2.399.626-3.935c-.327-2.045-2.19-1.698-3.668-.626-1.192.865-2.017 1.747-1.967 3.22.052 1.543 1.619 2.424 2.594 3.399l-2.326 2.236s-1.556 1.418-2.683 2.146c-2.32 1.5-5.842 3.668-7.72 4.383-.275.19-.267.343-.51.537 0 0 .547-.159.895-.268 4.907-1.55 10.052-4.628 13.417-8.587l1.968 1.073zm-4.83-3.846c-.548.952 1.514 1.715 2.057 1.968.151-.357.117-1.61 0-1.968s-.241-.536-.626-.536-1.16.064-1.431.536" fill="#000"/><path d="M51.315 32.285c-.13.26-18.859 7.043-19.92 7.498-.429.184 0-.606.38-1.136.378-.53 18.631-7.726 20.222-7.877.29-.028-.552 1.255-.682 1.515m18.247-15.922c-.13.26-18.859 7.044-19.92 7.498-.43.184 0-.606.38-1.136.378-.53 18.631-7.725 20.222-7.877.29-.027-.552 1.255-.682 1.515" fill="#000"/><path fill-rule="evenodd" clip-rule="evenodd" d="M2.5 52.381h.085c.126 0 .217.121.18.242-1.764 5.806-3.59 13.774 4.498 12.934 6.974-.725 14.027-6.38 17.787-12.235 1.043-1.625.517-2.79.282-4.611-.727-5.648-3.008-10.933-5.618-15.945a.2.2 0 0 1-.019-.115l.725-4.712a.143.143 0 0 1 .25-.072c2.046 2.359 3.372 4.849 4.474 7.762 1.505 3.977 2.201 8.174 3.012 12.329 1.124 5.764-.117 14.75 8.248 12.284 2.237-.66 3.986-1.078 5.77-2.685-.474-3.477.093-6.188 1.744-9.212.885-1.621 2.752-4.54 5.009-4.293 1.833.2 2.108 4.559 3.935 5.859.503.358 1.431.67 1.431.67 1.8-3.192 3.352-6.647 5.501-9.615l.07-.095c2.082-2.876 4.316-5.962 8.115-6.48 3.581-.487 8.269 1.812 9.57 5.368 1.33 3.635-1.38 7.281-3.801 9.75 11.494-3.4 9.928-5.412 9.595-16.398l-.305-5.268c-1.989.734-3.427 1.268-3.7 1.385-.43.184 0-.606.38-1.136.097-.136 1.375-.713 3.248-1.497l-1.191-20.61s-.4-.76-.456-1.292c-.148-1.424.993-2.636 1.671-3.799 0 0 2.66 5.622 3.723 9.345.13.456.228.809.228 1.291 0 .663-1.963-1.044-2.127-1.291 0 0-.24.103-.228.228.245 2.491.622 9.126.918 15.085 1.733-.702 3.677-1.47 5.565-2.2L89.665 5.294s-.416-.79-.474-1.344c-.154-1.48 1.033-2.74 1.738-3.95 0 0 2.765 5.847 3.871 9.718.136.474.237.84.237 1.343 0 .689-2.042-1.087-2.212-1.343 0 0-.25.107-.237.237.15 1.53.556 6.404 1.04 12.42 3.157-1.191 5.755-2.107 6.312-2.16.29-.027-.552 1.255-.682 1.515-.046.092-2.417 1-5.51 2.154.172 2.146.351 4.409.53 6.694l.129 1.638c.846 10.825 1.657 21.692 1.657 22.931 0 2.384-.02 4.67-.394 7.032-.329 2.067-.633 3.792-1.66 5.688-.622 1.149-.316-8.518-.316-10.745l-2.51-32.285c-1.87.693-3.833 1.417-5.614 2.073.068 1.395.13 2.73.184 3.94.087 2.073.2 4.96.2 5.515 0 3.725-.177 9.476-4.156 13.724-1.865 1.675-3.852 2.303-6.172 3.131-6.933 2.474-14.764 4.77-21.914 1.923 0 0-.626 2.203-.85 2.147-.447-.112-.223-2.46-.223-2.46s-.89-.69-1.387-1.207c-1.07-1.117-1.59-2.402-2.325-3.712-.357-.637-.519-1.217-1.297-1.029-1.297.313-4.497 3.087-4.383 5.054.055.96.677 1.92 1.207 2.683 2.47-.87 4.945-1.804 7.156 0 1.486 1.212 2.011 3.02 2.102 4.875.069 1.408-.107 2.842-.85 4.07-.884 1.462-2.182 2.118-3.935 1.789-2.557-.481-4.512-3.195-5.68-5.367l-2.166 1.073c-10.267 4.607-12.56 1.847-13.678-5.502-.222-1.46-.23-2.833-.753-4.235-.77 4.588-4.205 8.228-7.717 11.011C12.266 69.617-.515 74.531.016 62.263c.145-3.341 1.174-6.632 2.308-9.758a.19.19 0 0 1 .177-.124m53.046-1.397c5.752 1.826 11.453-.051 16.324-3.265 1.652-1.09 3.307-1.684 4.114-3.622-.452-2.187-2.983-3.815-4.875-4.651-3.225-1.426-5.76-.562-8.318 1.52-3.27 2.662-5.347 6.313-7.245 10.018m-8.99 9.75c1.28-.334 3.078-.54 4.204.357 1.404 1.119-1.297 2.863-4.204-.358" fill="#000"/></svg>