<svg width="100" height="63" viewBox="0 0 100 63" fill="none" xmlns="http://www.w3.org/2000/svg"><path fill-rule="evenodd" clip-rule="evenodd" d="M80.869 23.463c-.358.5-.763 1.245-.358 1.071.254-.108 1.582-.602 3.424-1.282l.512 8.85c.144 2.5.64 8.108 0 10.302-1.048 3.59-6.951 2.987-8.01-.22-.312-.943.244-2.187-.351-2.983s-1.226 2.433-2.37 3.685c-2.195 2.406-7.15 4.528-8.161 0-.25-1.121.527-2.896.527-2.896-1.919.606-2.865 2.949-4.476 4.169-2.957 2.239-9.946 4.05-10.443-1.36-.083-.904.439-2.282.439-2.282h-1.054c-1.814 2.17-3.946 4.505-6.581 5.66-4.76 2.088-8.013.486-9.04-4.212-.608-2.786-.353-4.437-.526-7.284l-.015-.25c1.071-1.987 1.832-4.709 1.832-4.709 1.813 2.114 4.733 4.46 7.67 4.46 0 0 .855-.933 1.251-1.631 1.577-2.778 1.42-10.644-3.481-9.356-.929.244-1.545.878-2.16 1.509-.496.51-.991 1.019-1.648 1.32-.147.067-.28.095-.407.123-.174.038-.338.074-.518.203-.296.212-.4.459-.52.744-.054.125-.11.258-.187.398a20 20 0 0 0-.739 1.558 20 20 0 0 1-.73 1.543q-.24.44-.504.845c-.105-2.939-.102-5.329-.264-8.473 1.829-1.164 3.504-2.56 4.835-4.125l1.591.867.795-1.88-1.301-1.012s.704-1.939.506-3.18c-.264-1.654-1.77-1.373-2.964-.507-.965.7-1.631 1.412-1.59 2.603.042 1.248 1.308 1.96 2.096 2.747-1.29 1.24-2.714 2.381-4.023 3.512q-.024-.403-.052-.823c-.284-4.266-.307-6.8-.922-10.808 4.418-1.839 8.618-3.606 8.673-3.73.115-.253.871-1.513.594-1.476-.732.1-5.115 1.92-9.493 3.835-.588-3.284-1.746-7.695-2.033-8.771a.085.085 0 0 0-.162-.01c-.172.424-.528 1.335-.693 2.004-.32 1.287-.35 3.35-.351 3.501l.001.018c.033.148.488 2.248.858 4.309-3.78 1.684-7.027 3.208-7.174 3.432-.342.522-.723 1.295-.318 1.102.425-.203 3.881-1.631 7.714-3.223q.057.359.103.69c.448 3.2.445 5.024.659 8.249.075 1.138.15 2.197.223 3.202-1.441.871-2.932 1.707-3.893 2.073-.222.153-.215.276-.411.433 0 0 .442-.128.723-.217 1.21-.382 2.44-.88 3.64-1.477.248 3.448.448 6.319.452 9.74a33 33 0 0 1-1.34 1.228 31 31 0 0 1-2.684 2.092c-.717-1.75-1.404-2.687-2.502-4.305-1.66-2.444-2.933-3.559-4.915-5.748-4.033-4.456-10.97-10.795-10.97-10.795L6.801 13.4l-1.755-2.238s1.695.29 2.716.215c.137-.01.191-.17.097-.27C5.795 8.933 3.187 7.003.525 5.483a.09.09 0 0 0-.085 0l-.394.214A.09.09 0 0 0 0 5.773v3.728q0 .037.027.063c.161.157 1.025.998 1.553 1.598 1.4 1.592 1.785 2.79 3.071 4.476 1.152 1.509 1.875 2.322 3.11 3.711l.093.106c1.916 2.156 3.118 3.247 5.134 5.31 3.413 3.492 5.62 5.174 8.82 8.863 1.588 1.832 2.71 2.718 3.905 4.827q.09.159.173.31c-2.31 1.405-4.746 2.614-7.18 3.822l-.001.002-.819.406c-3.006 1.497-6.28 2.884-9.509 4.252-2.888 1.224-5.74 2.432-8.333 3.69 1.432-.286 2.952-.532 4.507-.783 3.761-.608 7.735-1.25 11.214-2.59 3.938-1.516 7.86-3.492 11.372-5.983q.12.362.243.779c.272.912.625 2.793.878 4.243.053.303.499.29.53-.017.125-1.248.268-2.774.304-3.568.037-.822.087-1.288 0-2.106a10 10 0 0 0-.104-.724 36 36 0 0 0 3.017-2.695l-.017.48c-.08 2.053-.078 3.249-.659 5.22-.538 1.832-1.06 2.808-2.062 4.432v.002c-.74 1.198-1.165 1.888-2.15 2.894-1 1.022-1.738 1.401-2.896 2.238-2.706 1.956-4.461 2.693-7.284 4.476-1.583 1-4.037 2.589-4.037 2.589s2.07-.2 3.38-.439c2.38-.433 3.72-.769 5.967-1.667.96-.385 1.511-.589 2.413-1.097 1.385-.782 2.12-1.335 3.247-2.458 1.17-1.166 1.756-1.927 2.545-3.378.874-1.61 1.077-2.659 1.536-4.432.332-1.285.658-3.335.658-3.335l.658 3.554s1.08 3.365 2.808 4.52c2.587 1.729 5.672.761 7.942-.614 1.96-1.188 3.579-3.242 5.046-4.959l.44-.175c.942.942.388 2.81 1.36 3.993 1.543 1.878 3.995 1.898 6.142 1.272 2.905-.846 4.986-3.319 6.67-5.704.145 1.564.623 3.11 1.843 4.168 1.406 1.22 3.039 1.394 4.739.703 2.171-.884 3.441-3.123 4.212-5.222 0 0 .706 2.303 1.755 3.335 2.507 2.464 5.505 1.746 7.635-.307 2.66-2.565 3.112-8.634 3.112-12.289 0-.545-.11-3.377-.196-5.41-.099-2.227-.226-4.889-.365-7.557 1.93-.71 4.082-1.504 6.065-2.24l1.97 32.355c-.035 2.041-.464 10.904.124 9.86.971-1.723 1.277-3.3 1.61-5.192.38-2.16.434-4.257.47-6.444.02-1.137-.558-11.118-1.167-21.06l-.093-1.504c-.19-3.103-.382-6.158-.557-8.894 2.534-.95 4.391-1.666 4.43-1.745.123-.245.918-1.455.644-1.429-.478.046-2.551.765-5.166 1.741-.27-4.206-.489-7.457-.583-8.617-.01-.12.221-.214.221-.214.152.238 1.998 1.899 2.009 1.267.007-.461-.08-.8-.197-1.236C95.272 5.406 92.826 0 92.826 0c-.666 1.098-1.774 2.236-1.656 3.597.044.508.414 1.24.414 1.24l.842 13.828c-2.02.774-4.162 1.618-6.046 2.38-.25-4.706-.522-9.218-.714-11.16-.012-.124.224-.224.224-.224.16.242 2.087 1.917 2.087 1.267 0-.474-.096-.82-.224-1.267C86.71 6.008 84.102.492 84.102.492c-.665 1.14-1.785 2.33-1.64 3.727.055.522.448 1.267.448 1.267l.958 16.592c-1.73.726-2.908 1.258-2.998 1.385M37.3 14.719c-.444.769 1.223 1.385 1.662 1.59.123-.289.094-1.301 0-1.59s-.195-.434-.506-.434-.937.052-1.157.434m6.209 15.22c.744-.514-.453-2.55-.925-2.882-.6-.42-3.438-.381-3.21.598.206.884 3.464 2.75 4.135 2.285" fill="#000"/><path d="M51.133 19.416c1.12-.48 20.916-7.65 21.053-7.925s1.028-1.63.72-1.6c-1.68.16-20.973 7.764-21.373 8.324s-.854 1.396-.4 1.201m11.46 5.22c.323.345.9.503 1.352.3 1.227-.552-1.056-3.918-.6-5.256.346-1.018.581-.206.75.3.527 1.37 1.307 2.702 1.126 4.205-.1.839-.41 1.872-1.126 2.403-1.494 1.108-2.253-.976-2.778-1.652-.175.873-.698 1.94-1.577 2.328-1.031.456-1.877-.3-2.178-.901-.3-.6-.3-3.68-.3-3.68s.003-.912.135-1.464c.2-.826.74-1.849.69.939 0 0-.074 1.201 0 1.877.086.768.431 1.242 1.202 1.352.572.081 1.127-.376 1.502-.826.376-.45.203-2.11 0-2.854-.086-.386-.246-.724-.225-1.201.01-.256.566-1.542.826-.976.367.8.6 1.575.6 2.628 0 .113 0 1.835.601 2.478" fill="#000"/></svg>