<svg width="100" height="68" viewBox="0 0 100 68" fill="none" xmlns="http://www.w3.org/2000/svg"><path d="M27.462 38.975c-.43.193-.98.043-1.287-.286-.572-.613-.572-2.253-.572-2.36 0-1.003-.223-1.74-.573-2.503-.247-.54-.776.686-.786.93-.02.454.133.776.214 1.144.194.708.358 2.288 0 2.717-.357.43-.885.865-1.43.787-.734-.105-1.063-.556-1.144-1.288-.072-.643 0-1.787 0-1.787.047-2.655-.468-1.68-.658-.894-.126.525-.129 1.394-.129 1.394s0 2.932.286 3.504 1.092 1.293 2.074.858c.838-.37 1.336-1.385 1.502-2.216.5.643 1.223 2.628 2.646 1.573.682-.506.977-1.49 1.073-2.288.171-1.432-.572-2.701-1.073-4.005-.16-.482-.385-1.256-.715-.286-.434 1.274 1.74 4.48.572 5.006" fill="#000"/><path fill-rule="evenodd" clip-rule="evenodd" d="m73.216 15.466-1.266-.985s.685-1.886.492-3.095c-.257-1.609-1.722-1.336-2.884-.493-.939.68-1.588 1.375-1.548 2.533.041 1.214 1.273 1.907 2.04 2.673l-1.83 1.76s-1.223 1.115-2.11 1.688c-1.825 1.178-4.594 2.884-6.071 3.447-.217.15-.21.27-.401.422 0 0 .43-.125.703-.211 3.86-1.219 7.906-3.64 10.553-6.754l1.548.844zm-3.8-3.025c-.43.749 1.192 1.348 1.619 1.548.12-.282.092-1.267 0-1.548s-.19-.422-.493-.422c-.302 0-.911.05-1.125.422M16.898 33.57l-1.266-.985s.685-1.887.492-3.095c-.257-1.609-1.722-1.336-2.884-.493-.939.68-1.588 1.374-1.548 2.533.041 1.214 1.273 1.906 2.04 2.673l-1.829 1.759s-1.224 1.116-2.11 1.688c-1.826 1.18-4.595 2.885-6.072 3.448-.216.15-.21.269-.4.422 0 0 .43-.125.703-.211 3.859-1.219 7.906-3.64 10.552-6.754l1.548.844zm-3.799-3.025c-.43.748 1.19 1.348 1.618 1.548.12-.282.092-1.267 0-1.548s-.19-.422-.492-.422c-.303 0-.912.05-1.126.422" fill="#000"/><path d="m57.944 37.49 1.67-3.138a.14.14 0 0 0-.034-.175c-1.03-.855-2.843-1.754-3.585-2.151a.146.146 0 0 0-.2.066l-1.463 3.123a.144.144 0 0 0 .053.182l3.355 2.147c.07.045.165.02.204-.054m5.086-.233 1.67-3.138a.14.14 0 0 0-.034-.175c-1.03-.855-2.843-1.754-3.585-2.152a.146.146 0 0 0-.2.066l-1.463 3.123a.144.144 0 0 0 .053.182l3.355 2.148c.07.045.165.02.204-.054m-32.521 22.49 1.669-3.138a.14.14 0 0 0-.033-.175c-1.03-.855-2.843-1.754-3.586-2.152a.145.145 0 0 0-.2.066l-1.462 3.123a.144.144 0 0 0 .052.182l3.355 2.147a.144.144 0 0 0 .205-.053m36.751-35.37c-.094.205-17.436 6.69-18.236 7.067-.324.152.289-1.16.567-1.581s16.933-6.754 18.144-6.905c.222-.028-.381 1.213-.475 1.419M42.157 7.486c-.093.206-17.435 6.69-18.235 7.067-.325.153.288-1.16.566-1.581s16.933-6.754 18.145-6.905c.22-.027-.382 1.214-.476 1.42m.887 52.071c-.094.206-17.436 6.69-18.236 7.067-.324.153.288-1.16.567-1.581s16.932-6.754 18.144-6.905c.221-.028-.381 1.214-.475 1.419M69.42 3.224h-3.856c.444-1.332 1.096-2.517 2.425-3.13.962-.069 6.844-.4 7.09.798.214 1.043-2.147 3.769-3.07 4.604-.787.713-1.872.982-1.872.982l-4.009 1.173c-.167.048-.255-.097-.116-.201 1.182-.882 4.51-2.682 5.63-3.274 0 0 .527-.302.46-.491-.154-.43-2.113-.454-2.681-.46" fill="#000"/><path fill-rule="evenodd" clip-rule="evenodd" d="M80.7 13.739c-.29.317-1.978-1.608-1.978-1.608l.21 4.106c.022.39.047.992.078 1.753.132 3.162.377 9.061 1.006 13.808.565 4.255 1.482 7.49 1.482 7.49s3.63-1.485 5.389-.63c2.281 1.107 3.076 3.542 3.056 5.738-.034 3.79-2.844 7.144-7.139 3.733-1.367-1.086-2.788-3.733-2.788-3.733s-4.592 3.15-7.477 3.15c-3.22 0-5.993-.723-6.415-4.806-1.73 2.548-4.125 4.808-7.21 5.506-1.242.28-3.878-.004-6.462-1.54-.882-.525-1.716-1.346-2.538-2.156-.68-.669-1.35-1.33-2.034-1.81-1.265-.888-3.126-2.426-3.126-2.426s1.173 2.57 1.166 4.316c-.008 1.916-.379 3.098-1.446 4.689-1.154 1.72-2.177 2.73-4.176 3.266-3.178.852-4.867-.547-6.48-1.881-.931-.773-1.838-1.523-2.992-1.805-5.327-1.3-10.493 4.014-13.625 7.372-1.158 1.242-2.269 2.688-3.363 4.113-2.871 3.74-5.628 7.33-8.838 6.689C.567 66.186-.658 61.186.31 56.2c.44-2.263 3.033-8.025 3.57-8.025.253 0-.153 1.107-.712 2.628-.626 1.704-1.442 3.928-1.738 5.7l-.093.55C.8 60.192.329 62.94 4.603 63.505c2.306.303 6.387-4.578 9.78-8.637 1.55-1.854 2.956-3.537 3.985-4.475l.886-.814c2.014-1.86 3.578-3.302 5.95-4.365l.383-.173c1.784-.805 2.776-1.253 4.842-.97 1.454.199 2.493 1.087 3.507 1.956.886.757 1.753 1.5 2.862 1.753l.027.006c1.85.424 3.109.712 4.872-.006 1.444-.587 2.663-1.586 2.94-2.473.194-.622-1.353-2.753-2.94-4.386-1.146-1.18-2.02-1.884-3.054-2.717-.456-.367-.942-.758-1.495-1.226-1.905-1.61-3.73-3.012-5.31-4.227-.739-.568-1.424-1.094-2.039-1.582-.504-.4-.969-.743-1.37-1.04-.926-.684-1.523-1.124-1.523-1.456 0-1.261.016-1.981.257-3.22.26-1.334.47-2.093 1.073-3.312.603-1.22 6.324-4.242 10.825-6.602 2.836-1.487 22.817-10.755 24.706-8.166 1.64 2.247-.546 5.312-1.988 7.333q-.209.292-.391.553c-.677.971-1.526 1.949-2.373 2.924-.817.942-1.633 1.882-2.293 2.815a11 11 0 0 0-.939 1.63c-.166.345-.258.534-.344.493-.094-.045-.174-.342 0-1.073.292-1.232.969-2.334 1.635-3.419l.278-.454c.414-.685 1.24-1.613 2.093-2.57 1.325-1.488 2.712-3.046 2.712-3.87 0-1.853-6.174.087-7.045.397-6.273 2.236-13.08 5.703-19.293 8.869q-1.183.603-2.334 1.186c-2.297 1.165-5.459 3.687-5.459 3.687s3.824 1.915 6.206 3.266c4.741 2.688 7.328 4.358 11.688 7.628.866.65 1.73 1.39 2.605 2.14 2.449 2.096 4.976 4.26 7.847 4.696 2.772.421 5.635-.222 7.769-1.983.724-.597 1.583-1.569 2.32-2.4.758-.857 1.386-1.566 1.599-1.566.368 0 .257.544.111 1.253-.165.806-.373 1.826.029 2.503 1.215 2.044 3.611 1.674 5.599 1.33 2.21-.383 5.246-2.333 5.246-2.333s-1.088-5.063-1.373-8.235a299 299 0 0 0-.376-3.82c-.26-2.548-.535-5.22-.735-8.394-.266-4.189-.42-10.74-.42-10.74s-.476-1.286-.522-1.846c-.04-.48 1.011-4.278 1.493-3.99.265.16 4.17 9.721 3.588 10.357m2.521 29.536s.344.567.654.848c.659.6 3.956 1.674 3.409-.123-.396-1.3-3.125-.95-4.063-.724" fill="#000"/><path d="M81.807 27.201c-.278.422-.89 1.734-.567 1.582.423-.2 5.459-2.102 10.132-3.883l2.412 32.062c0 1.708-.235 9.125.243 8.244.788-1.455 1.021-2.778 1.273-4.364.287-1.812.59-2.913.59-4.742 0-.951-1.214-17.956-1.863-26.261-.087-1.107-.21-3.643-.325-5.83 3.186-1.22 5.739-2.215 5.774-2.293.094-.206.697-1.447.476-1.42-.461.058-3.155 1.01-6.332 2.19a80 80 0 0 0-.107-1.676c-.4-4.99-.533-7.369-.649-8.543-.01-.1.182-.182.182-.182.13.197 2.146 2.182 2.146 1.654 0-.386-.078-.667-.181-1.03-.85-2.971-3.742-9.326-3.742-9.326-.541.927-1.452 2.968-1.334 4.104.044.424.364 1.03.364 1.03l.96 14.854c-4.594 1.738-9.305 3.608-9.452 3.83" fill="#000"/></svg>