<svg width="100" height="93" viewBox="0 0 100 93" fill="none" xmlns="http://www.w3.org/2000/svg"><path d="M26.1 41.5c-.597.269-1.36.06-1.787-.397-.794-.85-.794-3.126-.794-3.275 0-1.392-.308-2.416-.794-3.475-.344-.748-1.077.953-1.092 1.29-.027.631.184 1.079.298 1.59.268.982.496 3.175 0 3.771-.497.596-1.23 1.2-1.985 1.092-1.02-.146-1.476-.771-1.589-1.787-.099-.893 0-2.481 0-2.481.066-3.686-.65-2.333-.912-1.241-.176.729-.18 1.935-.18 1.935s0 4.07.398 4.864c.397.794 1.515 1.794 2.878 1.192 1.163-.514 1.854-1.924 2.085-3.078.694.894 1.697 3.648 3.672 2.184.948-.702 1.356-2.068 1.49-3.176.238-1.988-.794-3.749-1.49-5.559-.223-.67-.534-1.743-.992-.397-.603 1.77 2.416 6.219.794 6.948" fill="#000"/><path fill-rule="evenodd" clip-rule="evenodd" d="m27.822 24.7-1.792-1.397s.877-2.391.62-3.999c-.342-2.14-2.147-1.81-3.694-.688-.904.656-1.977 2.043-1.924 3.584.055 1.615 1.634 2.185 2.654 3.205l-2.79 2.413c-1.846 1.143-4.68 2.98-7.034 4.343-2.23 1.293-4.033 2.207-4.033 2.586s6.79-2.344 6.79-2.344 4.683-2.373 8.204-6.515l1.758 1.206zm-5.053-4.025c-.573.996 1.584 1.794 2.152 2.06.159-.375.122-1.685 0-2.06-.122-.374-.252-.561-.655-.561s-1.213.067-1.497.561" fill="#000"/><path d="M57.052 76.032c-.11.24-16.73 6.639-17.67 7.08-.38.18.339-1.36.665-1.854s16.142-6.713 17.563-6.89c.26-.032-.448 1.423-.558 1.664" fill="#000"/><path fill-rule="evenodd" clip-rule="evenodd" d="M66.072 40.46c-.406.614-1.299 2.526-.826 2.304.368-.174 8.087-2.922 11.474-4.366l.538-.229c.092 1.696.181 3.397.266 5.078 0 0 .643 7.226 0 9.423-1.077 3.679-3.454 5.682-7.194 6.442-.653-2.786-3.053-5.788-5.115-7.074-4.405-2.746-7.655 1.34-9.414 5.144-3.015 6.521 1.712 8.576 6.61 8.714 1.432.04 5.583-.493 5.583-.493s.28 1.405.21 2.307c-.21 2.73-4.926 6.015-6.995 8.086-5.058 5.067-13.469 9.153-17.707 10.22-4.667 1.173-7.735-.222-9.687-3.139 6.172-3.01 12.33-7.315 14.991-11.91 1.983-3.42 2.835-6.734 0-9.048-1.853-1.514-5.486-2.73-5.486-2.73s1.734-3.665 2.496-6.137c1.513-4.91 1.438-7.92 1.638-13.053.21-5.375-.391-8.386-.702-13.755-.31-5.354-.884-13.703-.884-13.703s2.288 2.672 2.938 2.418c1.067-.416-4.772-15.77-5.486-14.925-1.43 1.69-1.638 4.004-1.638 6.344 0 1.296.676 3.692.676 3.692.601 13.45 2.158 28.395 1.534 41.656-.039.83-.988 1.732-2.548 2.236-4.108 1.326-9.023 1.274-10.635 2.678-1.445 1.259-1.762 4.648-1.812 5.337a.15.15 0 0 0 .11.156c1.072.291 9.19 2.5 14.573 4.076l.116.034c1.875.549 4.044 1.183 4.044 2.202 0 1.292-6.395 4.711-11.01 7.18l-.093.049a98 98 0 0 1-4.826 2.424 25 25 0 0 1-.27-1.174c-1.026-4.981 3.224-12.517 1.716-12.517-.702 0-2.889 7.124-3.224 11.831a41 41 0 0 0-.108 2.707c-9.758 4.213-21.605 6.62-26.622-4.727-1.41-3.19-1.222-5.383-1.066-8.867.258-5.78 5.564-14.353 4.654-14.067-1.82.572-3.975 5.913-5.357 10.193-1.62 5.018-2.554 15.055.312 19.813 5.752 9.549 14.146 7.824 24.339 4.655a51 51 0 0 0 4.285-1.56c1.118 4.674 4.127 7.845 10.587 7.845 4.675 0 8.496-2.246 12.932-4.852l.018-.01c6.71-3.944 14.457-14.406 14.457-14.406 1.118-2.158 2.231-4.69 2.37-8.065 0 0 2.013-.947 3.147-1.793 5.349-3.992 7.116-13.043 7.049-19.857l-.436-6.5c2.685-1.147 6.25-2.394 8.69-3.448l.626 8.718 1.81 34.907c-.057 2.476-.642 13.22.079 11.96 1.19-2.084 1.572-3.995 1.99-6.286.476-2.617.556-5.16.616-7.81.03-1.284-1.002-22.731-1.615-33.915-.163-2.95-.368-5.895-.592-8.839 2.221-.97 7.044-2.577 7.078-2.651.137-.3.884-2.068.693-2.068s-5.919 2.301-7.77 2.874c-.325-4.123-.911-11.544-1.222-15.669-.011-.145.27-.258.27-.258.182.29 3.297 3.409 3.314 2.642.013-.558-.09-.969-.23-1.5-1.007-3.857-4.329-11.528-5.047-13.168a.178.178 0 0 0-.317-.016c-.823 1.381-2.016 3.68-2.016 5.437 0 .641.884 3.447.884 3.447l1.292 20.005c-2.508 1.038-6.065 2.275-8.682 3.412L78.952 15.17c-.016-.164.3-.299.3-.299.214.324 2.474 2.563 2.474 1.694 0-.633-.129-1.096-.3-1.694-1.395-4.883-4.271-12.104-4.706-11.906s-2.018 4.47-2.018 5.617c0 .702.615 1.14.615 1.14s1.135 13.935 1.82 26.253c-3.339 1.483-10.933 4.285-11.065 4.485m-1.403 19.157c-.873-1.349-2.147-2.91-3.856-2.953-.884-.021-2.35.073-2.638 1.174-.846 3.229 4.887 2.096 6.458 1.786z" fill="#000"/><path d="M59.225 6.56h4.97c.731.009 3.256.04 3.454.594.087.243-.594.632-.594.632-1.442.763-5.73 3.082-7.252 4.219-.18.134-.066.321.15.258l5.165-1.51s1.397-.347 2.412-1.266c1.189-1.076 4.23-4.588 3.955-5.932-.316-1.543-7.896-1.117-9.136-1.029-1.712.79-2.552 2.318-3.124 4.034" fill="#000"/></svg>