<svg width="100" height="47" viewBox="0 0 100 47" fill="none" xmlns="http://www.w3.org/2000/svg"><path d="M81.449 41.644c-.079.163-11.702 4.565-12.36 4.858-.266.118-.005-.378.226-.713.232-.334 11.555-4.987 12.546-5.096.18-.02-.333.788-.412.951m-8.321-20.176 1.367-2.57a.115.115 0 0 0-.027-.143c-.844-.7-2.328-1.436-2.937-1.762a.12.12 0 0 0-.164.054l-1.197 2.557a.12.12 0 0 0 .043.15l2.748 1.758a.12.12 0 0 0 .167-.044" fill="#000"/><path d="m76.636 21.468 1.367-2.57a.115.115 0 0 0-.027-.143c-.844-.7-2.328-1.436-2.937-1.762a.12.12 0 0 0-.164.054l-1.197 2.557a.12.12 0 0 0 .043.15l2.748 1.758a.12.12 0 0 0 .167-.044M62.183 45.182l1.367-2.57a.115.115 0 0 0-.027-.144c-.843-.7-2.328-1.436-2.936-1.762a.12.12 0 0 0-.165.054l-1.197 2.558a.12.12 0 0 0 .044.15l2.747 1.757a.12.12 0 0 0 .167-.043" fill="#000"/><path d="m65.972 45.182 1.367-2.57a.115.115 0 0 0-.028-.144c-.843-.7-2.328-1.436-2.936-1.762a.12.12 0 0 0-.164.054l-1.197 2.558a.12.12 0 0 0 .043.15l2.748 1.757a.12.12 0 0 0 .167-.043M34.4 29.606l1.367-2.57a.115.115 0 0 0-.027-.143c-.843-.7-2.328-1.436-2.936-1.762a.12.12 0 0 0-.165.054l-1.197 2.558a.12.12 0 0 0 .043.149l2.748 1.758a.12.12 0 0 0 .167-.044" fill="#000"/><path fill-rule="evenodd" clip-rule="evenodd" d="m37.535 17.307-1.027-.8s.556-1.53.4-2.51c-.21-1.305-1.398-1.084-2.34-.4-.762.552-1.288 1.115-1.256 2.055.033.985 1.033 1.547 1.655 2.169l-1.484 1.426s-.993.906-1.712 1.37c-1.48.956-3.727 2.34-4.926 2.797-.175.121-.17.218-.325.342 0 0 .349-.101.57-.171 3.132-.989 6.415-2.953 8.562-5.48l1.255.686zm-3.082-2.454c-.35.607.966 1.094 1.313 1.255.097-.228.074-1.027 0-1.255-.075-.229-.154-.343-.4-.343-.245 0-.74.041-.913.343" fill="#000"/><path d="M77.281 3.867H74.51s.114-.423.226-.68c.366-.834.903-1.33 1.698-1.696 1.358-.097 2.92-.205 4.243.226.441.143.652.228.849.622-.645 1.286-1.435 2.63-2.603 3.508-1.262.95-3.904 1.302-3.904 1.302s-.226 0 .34-.397c.565-.396 3.847-1.598 3.847-2.659a9 9 0 0 0-1.924-.226m-17.26 9.261H57.25s.114-.423.226-.68c.366-.834.903-1.33 1.697-1.697 1.36-.096 2.921-.204 4.244.227.44.143.652.228.849.622-.645 1.286-1.435 2.63-2.603 3.508-1.262.95-3.904 1.302-3.904 1.302s-.226 0 .34-.397c.565-.396 3.847-1.598 3.847-2.659a9 9 0 0 0-1.924-.226" fill="#000"/><path fill-rule="evenodd" clip-rule="evenodd" d="M86.506 6.544C85.636 3.502 84.024 0 84.024 0c-.554.95-1.487 1.94-1.366 3.104.045.435.373 1.056.373 1.056l.56 9.696c-2.115.888-3.804 1.638-3.892 1.765-.232.334-.493.831-.226.712.233-.104 1.841-.723 3.825-1.486l.343-.132s.086 3.357.34 5.49c.272 2.296 1.052 5.824 1.052 5.824l.21 1.473s-1.8 1.118-3.087 1.474c-2.033.56-4.345.797-4.35-1.825 0-.5.203-.945.177-1.452a.124.124 0 0 0-.095-.115c-.141-.034-.418-.08-.573.024-1.964 1.333-2.861 3.732-5.542 4.35-5.459 1.257-5.046-3.382-5.801-7.086-.285-1.396-.385-2.225-1.005-3.508-.154-.319-.939-1.331-1.473-.466-.536.867.16 2.897-.702 3.974-.843 1.052-2.398 1.6-3.567.701-.569-.437-.59-1.307-1.126-1.824l-.278.115a.14.14 0 0 0-.081.09l-.685 2.268a.14.14 0 0 0 .008.102c.754 1.555 1.457 3.309 1.87 5.002.702 2.877-3.784 5.366-7.226 7.227-11.112 6.008-27.242 6.996-39.43 3.227C7.925 38.434 3.975 36.163.22 33.615a.14.14 0 0 0-.22.116v.32q0 .047.028.084c1.795 2.395 3.844 5.028 6.427 6.625 2.904 1.797 6.722 2.692 10.032 3.3 8.709 1.6 17.512 1.266 26.03-1.053 8.466-2.304 17.8-5.578 17.399-15.855 2.88.588 3.01-2.549 3.754-4.542a.14.14 0 0 1 .13-.089h.312c.06 0 .112.037.131.093.999 2.975-.018 8.099 2.759 10.22 3.26 2.491 7.113-.775 9.009-3.449a.14.14 0 0 1 .114-.059h.39c.07 0 .129.052.14.12.352 2.178 1.476 3.38 3.677 3.248 2.144-.129 4.42-2.035 5.683-2.245.697 1.38 1.72 3.017 3.297 3.438 2.034.542 3.434-.473 3.789-2.386.739-3.975-2.234-6.072-5.773-4.956a.14.14 0 0 1-.18-.09c-.135-.438-.562-1.84-.782-2.811-.843-3.717-1.038-9.71-1.038-9.71 3.04-1.174 6.465-2.375 6.504-2.458.08-.163.593-.971.412-.951-.495.054-3.988 1.273-6.97 2.492-.099-1.657-.311-4.879-.101-6.352.134.202 1.52 1.476 1.52.934 0-.394-.08-.683-.187-1.055M88.4 29.747c.343-1.029 2.74-.676 2.877.351.23 1.72-2.38.127-2.877-.35" fill="#000"/><path d="M87.19 18.298c-.266.118-.005-.378.226-.713.12-.172 3.179-1.489 6.255-2.74L92.583 3.466s-.368-.52-.415-.883c-.128-.97.945-1.783 1.586-2.567 0 0 2.437 3.85 3.4 6.393.119.312.207.553.204.881-.005.45-1.823-.73-1.974-.9 0 0-.224.068-.214.153.116.938.412 3.796.77 7.39 2.006-.791 3.669-1.406 4.022-1.445.181-.02-.333.788-.412.951-.028.059-1.55.666-3.517 1.433.837 8.455 1.944 20.205 1.932 21.261-.017 1.56-.051 3.055-.404 4.595-.309 1.349-.593 2.474-1.528 3.705-.565.744-.222-5.575-.206-7.031l-2.07-21.648c-3.05 1.178-6.232 2.393-6.567 2.543" fill="#000"/></svg>