<svg width="100" height="80" viewBox="0 0 100 80" fill="none" xmlns="http://www.w3.org/2000/svg"><path d="M66.058 72.674c-.114.23-16.648 6.218-17.584 6.62-.38.162 0-.536.335-1.004.334-.468 16.447-6.82 17.851-6.953.257-.025-.487 1.108-.602 1.337" fill="#000"/><path fill-rule="evenodd" clip-rule="evenodd" d="m36.557 25.337-1.195-.928s.647-1.78.465-2.919c-.243-1.517-1.624-1.26-2.72-.464-.885.641-1.497 1.295-1.46 2.388.04 1.144 1.202 1.797 1.925 2.52l-1.725 1.659s-1.154 1.052-1.99 1.592c-1.721 1.111-4.332 2.72-5.725 3.25-.204.141-.198.254-.378.398 0 0 .405-.117.663-.199 3.64-1.149 7.455-3.432 9.95-6.368l1.46.796zm-3.583-2.852c-.406.706 1.123 1.271 1.526 1.46.113-.266.087-1.195 0-1.46-.086-.265-.179-.398-.464-.398s-.86.048-1.062.398" fill="#000"/><path d="m40.72 72.721 1.699-3.194a.14.14 0 0 0-.034-.178c-1.048-.87-2.893-1.784-3.649-2.19a.15.15 0 0 0-.204.068l-1.487 3.178a.146.146 0 0 0 .053.185l3.414 2.185a.146.146 0 0 0 .208-.054m5.39-.404 1.69-3.18a.14.14 0 0 0-.033-.177c-1.043-.866-2.88-1.777-3.633-2.18a.147.147 0 0 0-.203.067l-1.481 3.165a.146.146 0 0 0 .053.184l3.4 2.175a.144.144 0 0 0 .206-.054m9.674.379 1.69-3.18a.14.14 0 0 0-.033-.176c-1.043-.867-2.88-1.777-3.633-2.18a.147.147 0 0 0-.203.067l-1.481 3.164a.146.146 0 0 0 .053.184l3.4 2.176c.071.045.167.02.206-.055m42.982-57.79c-1.081-3.785-3.784-9.5-3.784-9.5-.69 1.181-1.85 2.414-1.7 3.861.057.541.464 1.314.464 1.314l3.939 50.669c0 2.176-.3 11.627.309 10.504 1.004-1.854 1.301-3.54 1.622-5.561.366-2.309.386-4.544.386-6.874 0-1.212-.793-11.836-1.62-22.418l-.126-1.602c-.723-9.209-1.442-18.023-1.652-20.161-.013-.128.231-.232.231-.232.167.25 2.163 1.986 2.163 1.313 0-.491-.1-.85-.232-1.313M15.791 72.497C9.53 74.54.973 75.895.296 75.967a.1.1 0 0 1-.072-.023l-.187-.156a.1.1 0 0 1-.007-.15l.212-.213a.1.1 0 0 1 .035-.023c8.67-3.4 17.55-6.891 25.478-11.847 2.667-1.672 7.116-4.596 7.767-8.03.493-2.604-1.162-6.205-2.371-8.393-.027-.415.389-4.637 1.196-4.125.189.12.197.288.321.474 1.37 2.06 1.944 3.414 5.358 1.707 1.328-.664 1.436-3.32 1.755-5.216.756-4.485 3.146 2.755 3.224 4.552.717 6.639 2.351 12.355 8.71 9.389 2.377-1.108 5.61-4.505 5.61-4.505.57-.61 1.2-.98 1.995-.968.156.003.268.144.256.3-.032.407-.07 1.173.025 1.711.256 1.443.8 2.396 2.229 2.893.895.311 1.749.18 2.655 0 8.182-1.628 1.61-9.152-1.612-12.613-3.03-3.255-8.535-7.54-8.535-7.54l-3.079-2.47c-2.933 1.08-5.262 1.94-5.613 2.09-.42.18 0-.593.37-1.112.112-.155 1.796-.897 4.14-1.864l-7.16-5.747-1.12-.759v-1.422c-.272-.817.099-4.371 1.12-6.073 1.02-1.7 9.289-5.903 15.584-9.05 23.156-11.58 27.113-8.134 12.674 8.791-.079.092-.232.05-.232-.072.011-1.854 1.162-3.983 2.393-5.25C89.497-6.3 49.569 14.196 42.57 18.852c-.078.052-.068.154.007.21l12.298 8.877c4.88-1.922 10.114-3.869 10.925-3.946.284-.027-.54 1.228-.667 1.482-.062.123-4.384 1.74-8.947 3.428l1.565 1.112s8.095 6.444 12.897 11c3.319 3.15 6.187 8.64 11.285 9.2 4.793.525 5.737-2.994 5.398-7.276l-1.87-32.343s-.38-.722-.433-1.229c-.141-1.354.945-2.508 1.59-3.614 0 0 2.53 5.35 3.542 8.891.124.434.217.77.217 1.229 0 .63-1.868-.994-2.024-1.229 0 0-.229.098-.217.217.307 3.12.83 13.068 1.111 19.393.084 1.973.19 4.719.19 5.247 0 0 .163 2.723 0 4.454-.486 5.183-3.028 11.883-9.543 10.48-5.318-1.146-7.424-7.25-11.142-10.48 1.686 4.075 1.782 9.18-2.087 12.092-3.475 2.614-8.184 2.224-8.876-2.988-2.262 2.262-4.689 5.678-8.051 6.004-10.29.999-7.113-15.582-9.484-15.582-.285 0-1.1 3.815-1.375 4.362-.923 1.837-1.895 2.706-4.078 2.514 0 0 .008 5.45-.19 6.81-.197 1.362-1.482 3.422-2.265 4.548-1.75 2.515-4.931 4.165-7.46 5.775-2.922 1.858-5.798 3.932-9.096 5.007" fill="#000"/><path d="M74.11 17.132h3.486c.821.01 1.617.102 2.418.285 0 1.333-4.125 2.845-4.837 3.343-.71.498-.426.498-.426.498s3.32-.443 4.907-1.636c1.468-1.104 2.462-2.793 3.272-4.41-.248-.495-.513-.602-1.067-.782-1.662-.542-3.626-.407-5.334-.285-.999.461-1.674 1.085-2.134 2.134-.141.322-.284.853-.284.853" fill="#000"/></svg>