<svg width="100" height="109" viewBox="0 0 100 109" fill="none" xmlns="http://www.w3.org/2000/svg"><path d="M30.882 45.626c-.658.296-1.501.065-1.972-.439-.877-.938-.877-3.452-.877-3.616 0-1.536-.34-2.667-.876-3.835-.38-.826-1.19 1.051-1.206 1.424-.03.696.204 1.19.329 1.754.296 1.085.548 3.506 0 4.164s-1.357 1.324-2.192 1.205c-1.125-.16-1.628-.851-1.753-1.973-.11-.986 0-2.739 0-2.739.073-4.068-.717-2.575-1.008-1.37-.193.805-.197 2.137-.197 2.137s0 4.493.438 5.37 1.673 1.98 3.178 1.315c1.284-.568 2.046-2.124 2.301-3.398.767.987 1.874 4.028 4.055 2.411 1.045-.775 1.497-2.283 1.643-3.506.263-2.195-.875-4.139-1.643-6.137-.247-.739-.59-1.924-1.096-.438-.665 1.953 2.667 6.865.876 7.67m34.721-14.557c-.18.374-26.762 10.578-28.265 11.256-.61.275-.016-.866.51-1.634.528-.768 26.419-11.546 28.688-11.806.414-.047-.755 1.809-.933 2.184M27.355 64.234l2.866-5.388a.24.24 0 0 0-.057-.3c-1.768-1.468-4.881-3.012-6.157-3.695a.25.25 0 0 0-.344.113l-2.51 5.363a.25.25 0 0 0 .09.312l5.761 3.687a.247.247 0 0 0 .351-.092" fill="#000"/><path d="m35.462 63.377 2.867-5.388a.24.24 0 0 0-.058-.3c-1.768-1.469-4.881-3.012-6.156-3.695a.25.25 0 0 0-.345.113l-2.51 5.363a.25.25 0 0 0 .09.312l5.761 3.687a.247.247 0 0 0 .351-.092" fill="#000"/><path fill-rule="evenodd" clip-rule="evenodd" d="m31.137 27.448-1.855-1.442s1.005-2.764.722-4.535c-.377-2.355-2.522-1.956-4.225-.72-1.375.996-2.325 2.012-2.267 3.709.06 1.778 1.865 2.792 2.988 3.916l-2.68 2.576s-1.792 1.634-3.09 2.473c-2.674 1.727-6.73 4.225-8.894 5.05-.317.219-.308.393-.587.617 0 0 .63-.182 1.03-.309 5.653-1.785 11.58-5.331 15.458-9.892l2.267 1.236zm-5.564-4.43c-.631 1.095 1.744 1.974 2.37 2.266.174-.412.134-1.855 0-2.267-.135-.412-.278-.618-.722-.618s-1.335.074-1.648.618" fill="#000"/><path d="M55.712 5.516h-6.207s.255-.947.507-1.52c.82-1.869 2.021-2.98 3.8-3.8 3.042-.217 6.54-.459 9.5.506.988.322 1.46.512 1.9 1.394C63.77 4.975 62 7.984 59.387 9.95c-2.826 2.124-8.74 2.913-8.74 2.913s-.508 0 .76-.887c1.266-.886 8.613-3.58 8.613-5.953a20.2 20.2 0 0 0-4.307-.507" fill="#000"/><path fill-rule="evenodd" clip-rule="evenodd" d="M69.472 1.267s3.923 8.295 5.493 13.788c.192.673.336 1.193.336 1.906 0 .977-2.897-1.542-3.139-1.906 0 0-.354.152-.336.336.439 4.46.754 12.974 1.14 21.96a511 511 0 0 1 9.49-3.995l-1.49-25.332s-.644-1.21-.717-2.05C80.053 3.73 82.02 1.87 83.206.07c0 0 4.26 8.95 5.908 14.847.202.723.353 1.281.334 2.041-.025 1.042-3.264-1.723-3.53-2.118 0 0-.408.152-.392.35.17 2.117.584 8.46 1.082 16.487 4.526-1.808 8.263-3.207 9.063-3.298.415-.048-.755 1.808-.933 2.183-.064.134-3.519 1.53-7.995 3.299.48 7.799 1.023 16.883 1.5 25.152a.25.25 0 0 0 .24.238l10.721.537a.25.25 0 0 1 .15.058l.555.463c.083.07.113.185.074.286l-2.286 5.895a.25.25 0 0 1-.207.16l-8.52 1a.255.255 0 0 0-.224.267c.463 8.357.776 14.636.749 15.751-.088 3.605-.204 7.062-.897 10.619-.607 3.113-1.162 5.71-2.893 8.537-1.049 1.712-.2-12.895-.118-16.262L84.57 69.274a.252.252 0 0 0-.32-.229c-1.356.381-6.98 1.978-10.677 3.287-5.456 1.931-13.68 5.7-13.68 5.7-1.028 3.092.018 6.564-1.394 9.628-2.336 5.067-15.198 15.607-23.904 18.339C20.948 110.283 4.097 109.153.56 93.035-.802 86.827.398 80.21 3.315 74.618a.24.24 0 0 1 .211-.127.24.24 0 0 1 .221.332c-2.503 6.091-3.116 12.847.14 18.79 9.493 17.337 40.058 5.555 50.305-5.953 1.099-1.099 4.377-3.98 2.063-8.205a.25.25 0 0 0-.272-.125c-3.635.777-8.95 1.334-12.052-1.171-2.414-1.95-3.137-4.33-2.406-7.347.78-3.225 3.452-7.243 6.713-7.854 4.728-.886 9.043 4.642 10.261 8.74l1.013.127 17.078-6.614c.243-.095.202-.451-.057-.487l-26.176-3.636c-.125-.017-.211-.121-.181-.244.276-1.137 1.99-5.74 1.99-5.74s9.88-2.027 14.947-4.434c1.127-.535 1.908-1.665 2.359-2.153v-7.898c-1.622.636-2.725 1.075-2.998 1.198-.61.275-.017-.866.51-1.634.095-.139 1.022-.606 2.488-1.279V36.99L67.678 8.777s-.59-1.12-.672-1.905c-.219-2.101 1.465-3.89 2.466-5.605M48.238 69.292l-.025-.001c-1.58-.039-4.036.763-2.595 2.722 1.277 1.737 5.189.771 7.055.403-.989-1.528-2.499-3.077-4.435-3.124M71.826 49.15c1.195-3.546 1.24-9.5 1.24-9.5l-.018-.43c2.846-1.111 6.263-2.442 9.535-3.724l1.348 22.912a.253.253 0 0 1-.284.267c-5.268-.642-10.362-1.177-15.544-2.452a.257.257 0 0 1-.124-.424c.472-.508 1.388-1.527 1.92-2.342 1.01-1.542 1.339-2.56 1.927-4.307" fill="#000"/></svg>