<svg width="100" height="68" viewBox="0 0 100 68" fill="none" xmlns="http://www.w3.org/2000/svg"><path d="M75.875 34.762c-.486.209-.25-.69.428-1.284.155-.136 1.367-.69 3.168-1.468L78.016 6.834s-.437-.83-.498-1.41c-.161-1.554 1.085-2.877 1.825-4.146 0 0 2.903 6.136 4.063 10.2.143.498.25.883.25 1.41 0 .723-2.144-1.14-2.323-1.41 0 0-.262.112-.249.249.305 3.096.796 12.056 1.131 19.115 2.2-.927 4.768-1.988 7.255-2.999L87.984 5.006s-.381-.758-.426-1.284c-.12-1.41 1.03-2.586 1.722-3.722 0 0 2.522 5.603 3.504 9.3.12.453.21.804.201 1.28-.012.655-1.92-1.068-2.077-1.315 0 0-.24.097-.23.221.152 1.91.618 9.293 1.106 17.421 3.954-1.588 7.304-2.883 8.035-3.053.321-.075.146.622 0 .916-.058.116-3.607 1.614-7.958 3.418l.055.92c.36 6.032 1.276 12.135 1.162 18.173 0 0-.785 6.87-2.355 10.012-.934 1.867-.01-2.856 0-3.337-.04-2.583.109-5.286 0-7.853-.226-5.323-.798-10.757-1.113-16.098l-.056-.863c-2.47 1.02-5.04 2.075-7.278 2.992l.083 1.843c.096 2.263.218 5.414.218 6.02 0 4.066-.411 11.433-3.371 14.286 0 0-.638.723-1.113 1.112-.692.566-1.123.872-1.963 1.178-1.016.37-1.68.49-2.748.327-.897-.136-1.461-.273-2.16-.85-.7-.578-.886-1.13-1.243-1.964-.346-.807-.508-2.065-.564-2.611-.016-.147-.148-.257-.29-.217-1.104.315-1.905 1.793-2.68 2.632-1.966 2.13-4.202 3.832-7.133 4.319-3.833.637-6.965-.908-8.31-4.712-1.428-4.036-.927-8.636-1.113-12.825-.44-9.893-.004-20.135-1.832-29.906-.401-2.143-1.268-5.364-1.365-5.725a.13.13 0 0 1 0-.068l1.007-3.65c.018-.064.08-.105.143-.09.89.225 1.147 1.617 1.393 2.335 1.369 3.994 1.768 8.307 1.963 12.499l1.7 33.417q0 .022.01.042c1.851 4.582 5.993 4.431 10.069 2.597 3.003-1.351 5.462-4.054 7.53-6.537a.13.13 0 0 1 .148-.038l.66.253c.06.023.094.086.082.148-.418 2.138-.35 4.807 1.984 5.52 4.712 1.44 6.61-2.683 6.78-7.528l-.618-10.687a582 582 0 0 0-3.668 1.508" fill="#000"/><path fill-rule="evenodd" clip-rule="evenodd" d="m16.45 5.112-1.178-.916s.638-1.755.458-2.88C15.491-.18 14.13.074 13.047.858c-.873.633-1.476 1.279-1.44 2.356.04 1.13 1.185 1.774 1.898 2.487l-1.701 1.636s-1.139 1.038-1.963 1.57c-1.698 1.097-4.274 2.683-5.648 3.207-.201.14-.195.25-.373.392 0 0 .4-.116.655-.196 3.59-1.133 7.354-3.386 9.816-6.282l1.44.785zm-3.534-2.814c-.4.696 1.108 1.254 1.505 1.44.111-.262.086-1.178 0-1.44s-.176-.393-.458-.393c-.281 0-.848.047-1.047.393" fill="#000"/><path d="m24.647 8.947 2.056-3.866a.17.17 0 0 0-.041-.215c-1.269-1.053-3.502-2.16-4.417-2.651a.18.18 0 0 0-.247.081l-1.801 3.848a.18.18 0 0 0 .065.224l4.133 2.645a.177.177 0 0 0 .252-.066m43.846 32.675 2.36-3.405a.164.164 0 0 0-.016-.207c-1.075-1.13-3.051-2.418-3.857-2.98a.17.17 0 0 0-.24.05l-2.118 3.415a.17.17 0 0 0 .036.218l3.59 2.943a.167.167 0 0 0 .245-.035m.815-10.97c-.437.197-.995.044-1.307-.29-.581-.622-.581-2.287-.581-2.396 0-1.018-.225-1.767-.58-2.541-.252-.548-.789.697-.8.944-.02.46.135.788.218 1.161.196.72.363 2.324 0 2.76s-.899.877-1.452.798c-.745-.107-1.079-.564-1.161-1.307-.073-.653 0-1.815 0-1.815.048-2.696-.476-1.706-.668-.907-.129.533-.131 1.415-.131 1.415s0 2.977.29 3.558c.29.58 1.109 1.312 2.106.871.85-.376 1.356-1.407 1.524-2.25.509.653 1.242 2.668 2.687 1.597.693-.514.992-1.513 1.089-2.324.174-1.454-.58-2.742-1.09-4.066-.162-.49-.39-1.275-.725-.29-.44 1.294 1.767 4.549.58 5.082m5.789-13.269c-.114.248-17.494 7.204-18.476 7.664-.398.186-.018-.57.32-1.08.34-.51 17.26-7.836 18.75-8.028.272-.035-.48 1.196-.594 1.444" fill="#000"/><path fill-rule="evenodd" clip-rule="evenodd" d="M47.005 44.25c.12-.255.905-1.516.624-1.483-.717.086-4.911 1.743-9.217 3.539a14 14 0 0 0-.367-3.868c-1.619-6.722-8.31-6.828-14.135-7.263-3.901-.292-6.105-.125-10.012-.328-2.506-.13-4.865.023-7.28-.727a.13.13 0 0 1-.063-.205c2.227-2.77 4.727-5.128 7.584-7.249a.13.13 0 0 1 .165.008c.258.232 1.087.973 1.688 1.433 3.863 2.963 8.521 4.435 13.415 3.73 5.11-.735 10.124-3.72 12.106-8.703.708-1.78.785-2.927.785-4.843 0-5.213-6.475-18.146-12.564-10.6-1.766 2.188-3.053 5.8-1.636 8.441 2.12 3.95 6.962 1.277 10.274 2.814 5.306 2.462-.511 5.105-3.795 6.413-3.222 1.283-6.614 1.964-10.078 1.44-2.397-.363-4.194-.823-5.786-2.69a.13.13 0 0 1 .039-.199l6.297-3.308a.13.13 0 0 0 .058-.06l1.725-3.641a.13.13 0 0 0 .005-.1l-.36-1.02a.13.13 0 0 0-.052-.066c-3.714-2.456-7.435-3.283-11.873-3.313-4.345-.03-8.76.672-12.171 3.6l-1.244 4.842s1.154-.732 1.964-1.047c1.277-.497 2.05-.488 3.337 0 1.976.748 3.643 2.374 5.069 3.888a.13.13 0 0 1 .035.09v.802q-.001.062-.047.101C8.51 27.16 6.42 30.406 4.344 33.67H2.83a.26.26 0 0 0-.202.094l-.026.032c-.112.133-.066.34.084.428.24.142.552.365.675.624.08.167.131.458.131.458S.446 43.873.156 47.15c-.364 4.106-.195 8.74 1.636 12.499 3.149 6.462 10.374 8.738 17.08 7.46 5.993-1.143 11.617-4.914 15.246-9.75 2.067-2.755 3.665-6.069 4.153-9.516 4.46-1.774 8.676-3.47 8.734-3.593m-19.11 7.73c-.411.189-.014-.587.34-1.109.17-.25 4.29-2.085 8.7-3.946-.193-1.365-.86-2.703-2.097-3.963-5.184-5.278-14.49-2.508-21.202-3.927-2.974-.628-5.673-1.58-8.245-3.206 0 0-1.36 2.864-2.029 4.777-1.386 3.963-2.281 8.469-1.243 12.63 1.035 4.148 3.834 6.86 7.787 8.18 8.377 2.797 18.462-.898 24.212-7.33 1.635-1.828 2.678-3.785 2.852-5.726-4.362 1.732-8.596 3.401-9.074 3.62m8.656-38.843c-.285-.42-1.035-1.46-1.778-1.913-1.417-.863-2.7-1.039-4.062-.134a.35.35 0 0 0-.152.365c.542 2.588 3.815 2.057 5.895 1.88a.127.127 0 0 0 .097-.198M19.18 18.77c-1.887-1.319-4.876-1.162-7.292-.851a.13.13 0 0 0-.056.238 42 42 0 0 1 3.702 2.826.13.13 0 0 0 .144.017 44 44 0 0 0 3.495-2.02.126.126 0 0 0 .007-.21" fill="#000"/></svg>