<svg width="100" height="65" viewBox="0 0 100 65" fill="none" xmlns="http://www.w3.org/2000/svg"><path fill-rule="evenodd" clip-rule="evenodd" d="M91.004 13.457c-.929-3.252-3.252-8.163-3.252-8.163-.136.235-.295.472-.456.713-.537.802-1.103 1.65-1.004 2.606.049.464.399 1.128.399 1.128l1.094 19.796c-.427 1.862-1.693 2.833-3.475 2.978-1.442.118-2.7-.218-3.392-1.489-.37-.679-.247-1.807-.152-2.377a.34.34 0 0 0-.288-.4 7 7 0 0 0-.255-.026.31.31 0 0 0-.303.186c-.682 1.523-1.651 3.518-3.139 4.355-.862.484-1.501.619-2.482.496-.608-.076-.991-.14-1.49-.496-.648-.465-.932-.953-1.075-1.738-.154-.848.496-2.151.496-2.151h-.91s-1.886 2.77-3.64 3.889l-.334.216c-.541.355-.943.619-1.652.776-.757.169-1.224.145-1.986 0-.938-.177-1.513-.366-2.233-.992-.52-.452-.693-.95-.878-1.483-.13-.372-.265-.762-.53-1.165a4 4 0 0 1-.329-.66c-.197-.466-.373-.88-.911-.995-.225-.048-.37-.032-.58-.009l-.082.01c-.977.103-1.47.667-2.058 1.34-.158.182-.323.372-.507.562-1.534 1.592-2.005 2.908-2.565 5.047-.265 1.013-.413 2.648-.413 2.648s-1.02-.123-1.655 0c-1.036.2-1.577.69-2.297 1.34l-.35.315c-1.602 1.41-2.252 2.599-2.897 4.633-.626 1.975-.33 5.295-.33 5.295s-.984.518-1.656.745c-1.808.61-4.879.292-4.879.292-1.096-.462-1.26-1.582-1.35-2.624q-.018-.241-.026-.474c-.037-.86-.065-1.522-1.248-.651-.77.567-1.422 1.224-2.065 1.872-1.17 1.18-2.31 2.329-4.085 2.852-5.624 1.659-6.351-3.419-6.98-7.806-.116-.812-.229-1.6-.369-2.318l-.24-1.245c-.555-2.9-1.11-5.806-2.16-8.579-.878-2.32-1.934-4.305-3.565-6.184a.114.114 0 0 0-.199.057l-.578 3.754a.15.15 0 0 0 .016.092c2.08 3.994 3.897 8.205 4.477 12.705.036.286.082.552.126.805.177 1.027.316 1.83-.352 2.87-2.996 4.665-8.615 9.171-14.173 9.749-6.445.67-4.99-5.68-3.583-10.306a.15.15 0 0 0-.144-.193h-.067a.15.15 0 0 0-.141.099c-.904 2.49-1.724 5.113-1.84 7.775-.423 9.775 9.762 5.86 15.074 1.65 2.642-2.094 5.23-4.797 6.027-8.169.039-.164.272-.183.323-.021.29.92.489 1.893.683 2.848.728 3.565 1.406 6.885 6.616 6.317 2.724-.297 4.445-2.321 6.127-4.299q.285-.337.571-.667c.458-.529.842 1.027.994 1.64.03.119.05.203.06.227.993 2.329 3.645 2.456 5.875 2.069.754-.132 1.582-.574 2.413-1.018 1.121-.598 2.249-1.2 3.213-1.05.625.096 1.163.236 1.68.37 1.023.265 1.97.51 3.367.374 2.821-.276 6.142-1.036 7.86-3.475 1.086-1.54 1.666-2.814 1.407-4.716-.345-2.53-1.828-3.117-3.6-3.817-.73-.288-1.507-.595-2.275-1.065-1.456-.892-2.671-2.503-2.15-4.302.367-1.273 2.403-3.69 3.805-3.227.907.3 1.353 1.252 1.822 2.253.533 1.138 1.095 2.338 2.398 2.711 3.316.95 6.137-1.991 7.608-4.64a.167.167 0 0 1 .238-.057l.273.182c.045.03.072.08.074.134.073 1.92 1.25 3.749 3.307 3.968 2.52.268 4.131-2.065 5.144-4.078a.17.17 0 0 1 .303.001l.097.188c1.4 2.636 3.694 3.758 6.619 2.4 2.317-1.076 3.644-5.006 3.889-7.695-.069-1.545-.13-3.078-.19-4.55v-.004c-.165-4.059-.311-7.653-.518-9.755-.01-.11.2-.199.2-.199.142.215 1.857 1.707 1.857 1.128 0-.422-.085-.73-.199-1.128M46.83 44.761c.594-1.054 3.252-3.789 4.468-3.145 3.06 1.623-.56 7.546-3.31 6.95-1.736-.376-1.905-2.482-1.158-3.805m8.513-1.1c-.332-.303-.65-.595-1.141-.635-.095-.007-.167.076-.162.17.043.757-.075 1.425-.343 2.144-.247.662-.623 1.223-.999 1.784-.434.646-.867 1.294-1.105 2.099a.16.16 0 0 0 .128.201c1.865.315 3.638.29 5.451-.278q.166-.052.372-.113c1.464-.436 4.267-1.27 2.938-2.949-.57-.718-1.67-1.016-2.722-1.3-.645-.174-1.272-.344-1.746-.603-.258-.14-.468-.332-.672-.52" fill="#000"/><path d="M69.272 55.019c-.101.213-15.183 6.001-16.036 6.386-.345.156-.009-.491.29-.927s14.988-6.55 16.275-6.698c.236-.027-.428 1.026-.529 1.239m-31.133 8.848 1.56-2.933a.13.13 0 0 0-.032-.163c-.962-.8-2.657-1.64-3.35-2.011a.136.136 0 0 0-.188.061l-1.366 2.92a.134.134 0 0 0 .049.17l3.136 2.006c.066.042.154.02.19-.05" fill="#000"/><path d="m33.505 64.198 1.56-2.933a.13.13 0 0 0-.03-.164c-.963-.799-2.658-1.639-3.352-2.01a.136.136 0 0 0-.187.061l-1.367 2.919a.134.134 0 0 0 .05.17l3.135 2.007c.066.042.154.02.191-.05m38.14-52.514c-.346.156-.789.035-1.036-.23-.46-.493-.46-1.813-.46-1.9 0-.807-.18-1.4-.461-2.015-.2-.434-.625.553-.633.749-.016.365.106.625.172.92.156.57.288 1.843 0 2.188s-.713.696-1.151.634c-.591-.085-.856-.448-.921-1.037-.058-.518 0-1.439 0-1.439.038-2.137-.377-1.353-.53-.72-.102.423-.103 1.123-.103 1.123s0 2.36.23 2.821c.23.46.879 1.04 1.67.69.674-.297 1.074-1.115 1.208-1.784.403.518.985 2.116 2.13 1.267.55-.408.787-1.2.864-1.843.138-1.152-.46-2.174-.864-3.223-.13-.389-.31-1.011-.575-.23-.35 1.025 1.401 3.606.46 4.03M74.898 1.24c-.101.212-15.182 6-16.035 6.385-.346.156-.01-.491.29-.927C59.45 6.262 74.14.148 75.426.001c.236-.027-.428 1.026-.529 1.238M71.73 20.678l1.56-2.933a.13.13 0 0 0-.03-.164c-.963-.799-2.658-1.639-3.352-2.01a.136.136 0 0 0-.187.06l-1.367 2.92a.134.134 0 0 0 .05.17l3.135 2.007a.135.135 0 0 0 .191-.05m-1.324 4.798 1.56-2.932a.13.13 0 0 0-.03-.164c-.963-.799-2.658-1.64-3.352-2.011a.136.136 0 0 0-.187.062L67.03 23.35a.134.134 0 0 0 .049.17l3.135 2.006c.066.043.154.02.191-.05" fill="#000"/><path d="m74.874 25.476 1.56-2.932a.13.13 0 0 0-.03-.164c-.963-.799-2.658-1.64-3.352-2.011a.136.136 0 0 0-.187.062l-1.366 2.919a.134.134 0 0 0 .049.17l3.135 2.006c.066.043.154.02.191-.05" fill="#000"/><path fill-rule="evenodd" clip-rule="evenodd" d="m17.623 17.927-1.211-.942s.656-1.805.47-2.962c-.245-1.538-1.646-1.278-2.759-.47-.897.65-1.518 1.314-1.48 2.422.04 1.162 1.218 1.824 1.951 2.558l-1.75 1.682s-1.17 1.068-2.019 1.616c-1.746 1.128-4.395 2.76-5.808 3.298-.207.143-.201.257-.384.403 0 0 .412-.119.673-.201 3.692-1.166 7.564-3.483 10.096-6.462l1.48.808zm-3.634-2.894c-.412.716 1.139 1.29 1.548 1.48.114-.269.088-1.21 0-1.48s-.182-.404-.471-.404c-.29 0-.873.048-1.077.404" fill="#000"/><path d="M80.951 6.022h-2.68s.11-.409.218-.656c.354-.808.873-1.287 1.642-1.642 1.314-.093 2.824-.198 4.103.219.427.139.63.22.82.602-.623 1.244-1.387 2.543-2.516 3.392-1.22.918-3.775 1.259-3.775 1.259s-.22 0 .328-.383c.547-.383 3.72-1.547 3.72-2.572a8.7 8.7 0 0 0-1.86-.219M32.428 29.927h-3.139s.13-.48.256-.77c.415-.944 1.023-1.506 1.922-1.92 1.539-.11 3.307-.232 4.804.255.5.163.738.26.961.705-.73 1.456-1.624 2.978-2.946 3.972-1.43 1.074-4.42 1.473-4.42 1.473s-.256 0 .384-.449c.64-.448 4.356-1.81 4.356-3.01a10.2 10.2 0 0 0-2.178-.256m67.38-19.321c-.989-3.571-3.638-9.023-3.638-9.023-.8 1.058-2.112 2.138-2.018 3.49.035.504.439 1.243.439 1.243l1.857 47.227c-.103 2.019-.873 10.77-.163 9.763 1.172-1.665 1.573-3.213 2.014-5.07.505-2.122.632-4.195.743-6.357s-1.303-36.78-1.58-41.177c-.008-.12.26-.203.26-.203.168.242 2.242 1.962 2.274 1.338.023-.456-.067-.794-.188-1.231" fill="#000"/></svg>