<svg width="100" height="108" viewBox="0 0 100 108" fill="none" xmlns="http://www.w3.org/2000/svg"><path d="m54.204 100.594 2.87-5.394a.24.24 0 0 0-.058-.3c-1.77-1.47-4.887-3.015-6.163-3.7a.25.25 0 0 0-.345.114l-2.513 5.369a.25.25 0 0 0 .09.312l5.768 3.691a.247.247 0 0 0 .35-.092M25.598 53.438c-.612.275-1.395.06-1.833-.407-.814-.872-.814-3.207-.814-3.36 0-1.427-.316-2.477-.814-3.562-.353-.768-1.105.977-1.12 1.323-.028.647.19 1.105.305 1.629.275 1.008.51 3.257 0 3.868-.509.61-1.26 1.23-2.035 1.12-1.046-.15-1.513-.791-1.63-1.833-.1-.916 0-2.544 0-2.544.068-3.78-.666-2.393-.935-1.273-.18.748-.184 1.985-.184 1.985s0 4.173.407 4.988c.407.814 1.554 1.839 2.952 1.221 1.193-.527 1.901-1.972 2.138-3.155.712.916 1.74 3.74 3.766 2.24.972-.72 1.39-2.121 1.527-3.258.244-2.038-.813-3.845-1.527-5.7-.229-.687-.548-1.788-1.018-.408-.617 1.815 2.478 6.378.815 7.126m43.494-15.656c-.165.373-25.988 11.13-27.445 11.838-.59.287-.04-.85.456-1.619S67.727 35.93 69.948 35.612c.406-.058-.69 1.797-.856 2.17" fill="#000"/><path fill-rule="evenodd" clip-rule="evenodd" d="m29.973 32.14-2.154-1.675s1.166-3.208.838-5.263c-.437-2.735-2.928-2.271-4.905-.838-1.595 1.157-2.698 2.337-2.631 4.307.07 2.064 2.165 3.241 3.469 4.545l-3.11 2.99s-2.081 1.898-3.589 2.871c-3.103 2.005-7.811 4.905-10.323 5.862-.368.254-.357.457-.682.717 0 0 .731-.212 1.196-.358 6.562-2.073 13.443-6.19 17.943-11.484l2.632 1.436zm-6.46-5.144c-.732 1.273 2.025 2.293 2.751 2.632.203-.479.157-2.154 0-2.632-.156-.479-.322-.718-.837-.718s-1.55.086-1.914.718" fill="#000"/><path d="M61.74 10.644h-4.638s.19-.708.379-1.136c.613-1.397 1.51-2.227 2.84-2.84 2.273-.162 4.887-.343 7.1.378.738.24 1.09.383 1.42 1.042-1.079 2.152-2.401 4.4-4.355 5.87-2.112 1.587-6.532 2.176-6.532 2.176s-.379 0 .568-.662c.947-.663 6.438-2.675 6.438-4.45a15 15 0 0 0-3.22-.378" fill="#000"/><path d="M91.137.096S94.783 8.5 96.172 14.03c.17.677.297 1.201.274 1.912-.032.976-2.841-1.632-3.07-2.003 0 0-.36.14-.347.325.145 2.204.557 10.459 1.004 19.844 3.008-1.22 5.279-2.072 5.879-2.15.407-.053-.717 1.793-.887 2.165-.046.101-2.018.953-4.89 2.151.15 3.173.302 6.43.448 9.589.701 15.363 1.352 30.784 1.295 32.54-.109 3.374-.243 6.61-.881 9.936-.56 2.911-1.069 5.34-2.61 7.977-.933 1.597-.057-12.075.045-15.226l-1.959-43.298c-3.352 1.38-7.192 2.946-10.551 4.316l-.68.278c.12 2.493.232 4.882.327 7.03 1.31 9.196 2.748 24.979-5.446 31.674-6.068 4.958-13.546 1.284-18.708-3.024-1.178-.982-2.502-1.472-4.758-1.427-1.251.024-1.945.251-3.15.589-1.452.406-2.232.767-3.587 1.427-10.93 5.325-15.965 16.574-24.569 24.422-1.945 1.774-2.936 3.068-5.367 4.079-4.922 2.048-10.367-.324-12.642-5.043-1.418-2.94-1.507-6.652-1.194-9.823.542-5.476 3.115-11.04 5.312-16.02a.23.23 0 0 1 .24-.139l.387.04a.23.23 0 0 1 .203.287c-1.687 6.49-7.433 16.696-3.163 23.123 11.1 16.71 28-35.065 51.078-30.126 6.245 1.337 6.444 5.83 11.767 6.261 8.651.7 10.654-3.851 10.245-11.763L75.07 44.092c-2.012.823-3.406 1.4-3.715 1.545-.596.28-.03-.853.478-1.617.106-.16 1.298-.768 3.138-1.632l-1.964-33.99s-.66-1.253-.752-2.13c-.245-2.35 1.638-4.35 2.757-6.267 0 0 4.386 9.274 6.141 15.415.215.752.376 1.334.376 2.131 0 1.093-3.24-1.724-3.51-2.13 0 0-.395.169-.375.375.401 4.083 1.017 14.91 1.504 24.689a539 539 0 0 1 11.228-4.861l-1.27-28.087s-.554-1.137-.61-1.923c-.15-2.103 1.588-3.834 2.641-5.513" fill="#000"/></svg>