<svg width="100" height="55" viewBox="0 0 100 55" fill="none" xmlns="http://www.w3.org/2000/svg"><path d="M32.777 36.552s.137-.082.17-.17c.511-1.362.08-3.652 1.873-4.938.654-.47 1.483-.07 1.703.68.15.51-.01 1.113-.438 1.428a.1.1 0 0 1-.134-.014c-.347-.367-.534-.873-1.13-.732-.573.407-.67.965-.909 1.59-.416 1.09-.346 3.449-1.304 4.433a.096.096 0 0 1-.163-.042c-.093-.357-.041-.74-.122-1.1-.154-.686-.95-3.6-1.873-3.292-.405.135-.438.224-.909 0-1.514-.719-.254-2.946 1.192-2.157 1.36.742 1.845 2.947 2.044 4.314" fill="#000"/><path fill-rule="evenodd" clip-rule="evenodd" d="m57.058 14.998-.926-.72s.501-1.38.36-2.265c-.188-1.177-1.26-.977-2.11-.36-.686.498-1.161 1.005-1.132 1.853.03.888.931 1.394 1.492 1.955l-1.338 1.287s-.895.816-1.544 1.235c-1.335.862-3.36 2.11-4.441 2.522-.158.11-.154.197-.293.309 0 0 .314-.092.514-.155 2.823-.891 5.784-2.663 7.72-4.94l1.132.617zm-2.779-2.213c-.315.548.871.986 1.184 1.132.087-.206.067-.926 0-1.132s-.139-.309-.36-.309c-.222 0-.668.037-.824.31" fill="#000"/><path d="M69.888 47.103c-.089.183-13.192 5.107-13.934 5.435-.3.133-.005-.426.257-.802.262-.375 13.027-5.583 14.144-5.703.204-.022-.377.886-.467 1.07M80.013 26.64l1.251-2.354a.106.106 0 0 0-.025-.13c-.772-.642-2.131-1.316-2.688-1.614a.11.11 0 0 0-.15.05l-1.096 2.34a.11.11 0 0 0 .039.137l2.516 1.61a.11.11 0 0 0 .153-.04m-2.78-24.293h-2.64s.11-.403.216-.647c.349-.795.86-1.267 1.616-1.616 1.294-.092 2.781-.195 4.04.216.42.136.62.217.808.592-.613 1.225-1.366 2.504-2.477 3.34-1.202.904-3.718 1.24-3.718 1.24s-.215 0 .324-.378c.538-.377 3.663-1.522 3.663-2.532a8.6 8.6 0 0 0-1.832-.215m-19.41 25.223 1.252-2.353a.106.106 0 0 0-.025-.132c-.772-.64-2.132-1.315-2.689-1.613a.11.11 0 0 0-.15.05l-1.096 2.341a.11.11 0 0 0 .04.137l2.515 1.61a.11.11 0 0 0 .153-.04" fill="#000"/><path d="M54.047 27.822 55.3 25.47a.106.106 0 0 0-.025-.13c-.772-.642-2.132-1.316-2.689-1.614a.11.11 0 0 0-.15.05l-1.096 2.341a.11.11 0 0 0 .04.137l2.515 1.61a.11.11 0 0 0 .153-.04" fill="#000"/><path fill-rule="evenodd" clip-rule="evenodd" d="M65.776.356s1.745 3.69 2.443 6.132c.085.3.15.53.15.847 0 .435-1.29-.685-1.397-.847 0 0-.199.031-.199.14 0 2.162.623 9.022.816 13.384 0 0 .035.383.086.986 1.18-.486 2.451-1.003 3.72-1.513a145 145 0 0 0-.447-6.836 54 54 0 0 1-.103-1.441c-.058-.95-.109-1.77-.327-2.923a10 10 0 0 0-.388-1.387c-.178-.528-.35-1.035-.42-1.737l-.04-.37c-.072-.63-.125-1.094.04-1.785l.013-.057.01-.041c.095-.404.158-.673.407-1.033.128-.184.378-.431.378-.431s.578 1.227.861 2.047c.62 1.793.729 2.888.914 4.769l.002.025c.295 2.99.504 6.745.654 10.58 3.683-1.465 7.021-2.732 7.652-2.842.275-.048-.435.935-.54 1.13-.045.084-3.304 1.36-7.071 2.817.22 6.137.407 12.276.635 18.413.157 3.047 1.716 5.134 4.926 4.528 3.317-.626 6.139-1.934 9.043-3.65l-11.577-1.385c-.089-1.873 1.174-3.204 2.913-3.469 3.056-.464 6.123-.602 6.258-4.14v-4.363l-.275-4.863c-1.154.427-1.966.73-2.136.802-.302.13 0-.426.266-.798.06-.085.76-.407 1.822-.858L83.93 3.692s-.284-.538-.323-.915c-.08-.777.379-1.464.814-2.115.131-.196.26-.388.371-.579 0 0 1.885 3.987 2.64 6.626.092.323.161.573.161.916 0 .47-1.392-.741-1.508-.916 0 0-.17.073-.162.162l.748 12.566c1.3-.53 2.805-1.126 4.267-1.692L89.9 3.692s-.285-.538-.324-.915c-.081-.777.379-1.464.814-2.115.131-.196.26-.388.371-.579 0 0 1.885 3.987 2.64 6.626.092.323.161.573.161.916 0 .47-1.392-.741-1.508-.916 0 0-.17.073-.162.162.317 3.216.603 6.661.87 10.178 2.244-.848 4.098-1.502 4.493-1.54.204-.019-.388.882-.48 1.065-.032.065-1.73.714-3.934 1.537.468 6.298.874 12.773 1.273 18.524 1.671.025 5.725.31 5.725.31l.162.27-1.616 2.962s-3.165.27-4.002.309c-.003 1.49-.034 2.931-.27 4.416-.223 1.41-.43 2.586-1.13 3.879-.34.628-.273-3.497-.234-5.933a24 24 0 0 0-.049-2.254c-2.474.214-5.075 1.769-7.291 2.845-2.337 1.133-4.675 2.438-7.263 2.873-5.273.886-6.275-4.596-6.115-8.763.06-1.558-.407-7.302-.457-10.71-.031-2.09-.063-4.18-.136-6.27l-3.683 1.42c.388 5.046 1.118 11.65-3.334 15.16-.486.383-1.025.71-1.562 1.017 0 0-.151 1.158-.326 1.885-.676 2.816-2.221 4.88-4.495 6.597-4.372 3.3-10.064 5.123-15.298 6.417-4.607 1.138-9.253 1.573-13.992 1.558-5.383-.017-11.166-.333-16.313-2.03-4.048-1.334-7.99-3.33-10.658-6.742C.996 44.85 0 43.132 0 43.132c2.687 1.344 5.097 3.17 7.866 4.386 5.103 2.241 10.391 3.189 15.914 3.625 9.232.73 18.56-.01 27.188-3.625 2.244-.94 13.087-5.909 10.259-9.135 0 0-.547.175-.906.254-2.456.54-6.203.14-6.127-3.118.043-1.809 1.289-4.082 3.118-4.567 1.25-.332 2.2.213 3.117 1.015.942.822 1.57 1.964 2.103 3.081 1.3.117 3.024-1.16 3.475-2.356.781-2.071.32-6.737.076-10.06-2.354.906-4.142 1.595-4.437 1.723-.396.171-.044-.425.279-.835.1-.126 1.778-.865 4.094-1.834-.37-5.995-.694-11.993-1.04-17.99 0 0-.263-.498-.3-.847-.097-.934.652-1.73 1.097-2.493m-8.647 33.46c-.502.045-1.188.106-1.23.76-.09 1.358 3.003.973 3.806.798-.682-.794-1.444-1.66-2.574-1.558zm27.449 1.566s1.505.352 2.478.539c2.807.538 2.424.57 5.28.671l-1.32-17.803c-1.304.483-2.669.986-3.904 1.441l-.384.141.2 3.367v4.894c-.491 2.52-.715 4.706-2.35 6.75" fill="#000"/></svg>