<svg width="103" height="67" viewBox="0 0 103 67" fill="none" xmlns="http://www.w3.org/2000/svg"><path fill-rule="evenodd" clip-rule="evenodd" d="m57.266 9.319-1.235-.961s.669-1.84.48-3.02c-.25-1.569-1.68-1.302-2.814-.48-.915.664-1.548 1.34-1.51 2.47.041 1.185 1.243 1.86 1.99 2.608l-1.783 1.716s-1.194 1.088-2.06 1.647c-1.78 1.15-4.48 2.814-5.922 3.363-.21.146-.205.262-.39.411 0 0 .419-.121.686-.206C48.472 15.68 52.42 13.317 55 10.28l1.51.824zM53.56 6.368c-.42.73 1.162 1.315 1.579 1.51.116-.275.09-1.236 0-1.51-.09-.275-.185-.412-.48-.412-.296 0-.89.05-1.099.412M34.248 18.11l-1.235-.96s.669-1.84.48-3.02c-.25-1.569-1.679-1.303-2.813-.48-.915.664-1.548 1.34-1.51 2.47.04 1.185 1.242 1.86 1.99 2.608l-1.784 1.716s-1.194 1.088-2.059 1.647c-1.78 1.15-4.481 2.813-5.922 3.362-.211.146-.205.263-.391.412 0 0 .42-.121.686-.206 3.764-1.188 7.712-3.55 10.294-6.588l1.51.824zm-3.705-2.95c-.42.73 1.161 1.315 1.578 1.51.116-.275.09-1.236 0-1.51-.09-.275-.185-.412-.48-.412-.296 0-.89.05-1.098.412" fill="#000"/><path d="m52.73 24.94 1.588-2.986a.134.134 0 0 0-.032-.166c-.98-.813-2.704-1.668-3.41-2.047a.14.14 0 0 0-.191.063l-1.391 2.971a.14.14 0 0 0 .05.173l3.191 2.043c.068.043.157.02.195-.051m24.103 4.342 1.8-3.383a.15.15 0 0 0-.036-.189c-1.11-.922-3.065-1.89-3.866-2.32a.157.157 0 0 0-.216.072l-1.576 3.367a.155.155 0 0 0 .057.196l3.617 2.315a.155.155 0 0 0 .22-.058m4.73-26.837h-2.75s.112-.42.224-.674C79.4.943 79.933.45 80.721.087c1.348-.096 2.898-.203 4.21.224.438.143.647.227.843.618-.64 1.276-1.424 2.61-2.583 3.48-1.252.942-3.873 1.292-3.873 1.292s-.225 0 .337-.393c.56-.393 3.817-1.587 3.817-2.639a9 9 0 0 0-1.909-.224m1.954 12.995c-.11.22-15.952 5.958-16.849 6.342-.363.156 0-.512.32-.96.32-.45 15.76-6.535 17.105-6.663.246-.024-.467 1.061-.576 1.28" fill="#000"/><path fill-rule="evenodd" clip-rule="evenodd" d="M30.597 29.028h.307c.03 0 .06.013.08.035l3.708 4.075a.11.11 0 0 1 .004.139l-.117.147a.11.11 0 0 1-.102.038l-1.273-.22a.108.108 0 0 0-.115.157c.379.716 1.695 3.27 2.187 5.009.46 1.628.796 3.025.55 4.723-.208 1.426-.466 2.611-1.287 3.791-1.833 2.635-5.193 4.867-7.844 6.553-1.38.877-2.76 1.812-4.18 2.67.206 1.366.682 2.651 1.59 3.674 3.813 4.291 9.631.839 13.64-1.314 4.742-2.548 10.389-8.556 10.182-10.006-.127-.887-.24-1.525-.24-1.525-2.203.482-5.8 1.077-7.733-.484-3.112-2.512-1.07-8.962 2.693-9.667 2.886-.54 6.05 2.65 6.585 5.869l4.11-1.608c-.856-3.068-1.367-6.688.207-9.603 1.515-2.806 2.891-3.746 5.226-1 2.018 2.372 1.845 6.56.755 9.226-.518 1.265-1.83 2.985-1.83 2.985 3.69 3.95 10.691 2.102 14.45-.768-1.729-2.026-4.524-3.732-7.219-3.022a4.5 4.5 0 0 0-.91.367s-.013-.377 0-.618c.07-1.35 1.178-3.256 1.178-3.256 2.998-2.363 9.207-2.696 12.89-2.311 3.318.347 6.025 1.154 8.421 3.537v.28l-1.572 3.032-5.838 2.414c2.837 2.359 9.097 3.032 10.543.28.797-1.515.123-9.635 0-12.905l-.341-3.823c-2.14.789-4.937 2.013-5.209 2.13-.373.16 0-.526.329-.986.097-.137 2.755-1.415 4.815-2.264L88.171 5.013s-.35-.666-.4-1.132c-.13-1.249.871-2.311 1.466-3.33 0 0 2.331 4.928 3.264 8.192.114.4.2.709.2 1.132 0 .58-1.722-.916-1.865-1.132 0 0-.211.09-.2.2.18 1.838.61 10.46.843 14.925 1.772-.71 3.059-1.102 4.853-1.784L95.196 4.865s-.15-.818-.196-1.27c-.126-1.206.615-2.84 1.113-3.27.498-.427 2.662 5.605 3.564 8.76.11.387.193.686.193 1.095 0 .562-1.96-1.5-2.098-1.708 0 0-.204.087-.194.193.111 1.126.493 8.387.837 12.638 2.076-.766 3.67-1.31 4.067-1.348.252-.024-.478 1.089-.591 1.314-.033.065-1.408.601-3.371 1.34.171 2.13.532 6.29.715 8.629l.105 1.335c.689 8.823.902 9.725.902 10.736 0 1.943-.083 3.914-.388 5.838-.267 1.685-.966 4.069-1.803 5.614-.507.936 0-5.54 0-7.354l-.81-14.048-.808-9.969c-1.764.657-3.071 1.013-4.891 1.683.107 2.112.137.9.215 2.666.077 1.818.175 4.348.175 4.836 0 3.265.783 9.772-2.053 13.309-1.92 2.394-3.749 3.112-6.737 2.863-3.213-.268-5.729-2.366-8.084-4.379-5.717 4.57-13.528 6.716-18 2.603l-2.32-2.603-5.43 2.122c.15 2.1-.273 3.76-1.381 5.524-4.218 6.71-22.44 22.753-26.34 8.12-.271-1.016-.395-2.107-.413-3.213-1.313.723-2.668 1.348-4.091 1.776C11.909 60.25 1.104 62.443.315 62.602a.1.1 0 0 1-.085-.023l-.191-.16a.107.107 0 0 1-.008-.158l.223-.223a.1.1 0 0 1 .037-.023c7.41-2.906 14.433-5.743 21.28-9.51.607-3.345 1.716-6.015 1.923-6.015.343 0-.564 2.485-.947 5.471a95 95 0 0 0 3.639-2.161c1.76-1.101 8.71-4.64 7.96-6.835-1.177-3.445-2.928-6.885-4.108-10.411-.354-1.055.32-3.06.46-3.457a.1.1 0 0 1 .1-.069m49.345 9.053a42 42 0 0 1-3.761 1.852c-.482-.474-1.025-.879-1.565-1.282-.55-.41-1.1-.82-1.58-1.3 2.208-.736 4.895-.435 6.906.73m-34.336 4.742c-.683-1.007-1.678-1.965-2.96-1.996-1.082-.026-2.764.522-1.777 1.865.838 1.14 3.331.581 4.663.31a.116.116 0 0 0 .074-.18m9.849-3.116c1.586-.364 2.753-1.436 3.754-2.717-.52-1.472-1.924-4.226-3.566-4.018-1.037.13-1.955 1.727-1.905 2.962.057 1.422.962 2.625 1.717 3.773" fill="#000"/></svg>