<svg width="100" height="71" viewBox="0 0 100 71" fill="none" xmlns="http://www.w3.org/2000/svg"><path d="M67.805 8.895c-.111.25-17.442 7.412-18.42 7.883-.397.191-.026-.57.308-1.084s17.2-8.043 18.69-8.252c.272-.038-.467 1.203-.578 1.453m-43.561 19.73c-.45.202-1.025.045-1.346-.299-.599-.64-.599-2.356-.599-2.468 0-1.049-.232-1.82-.598-2.618-.259-.564-.812.718-.823.972-.02.475.14.813.225 1.197.202.74.374 2.393 0 2.842s-.926.904-1.496.823c-.768-.11-1.112-.581-1.197-1.346-.075-.674 0-1.87 0-1.87.05-2.777-.49-1.758-.687-.935-.133.55-.135 1.458-.135 1.458s0 3.067.299 3.665c.299.599 1.142 1.352 2.169.898.876-.387 1.396-1.45 1.57-2.319.524.673 1.28 2.749 2.768 1.645.713-.529 1.021-1.558 1.122-2.393.179-1.497-.598-2.824-1.122-4.188-.168-.504-.403-1.314-.748-.3-.454 1.334 1.82 4.687.598 5.236" fill="#000"/><path fill-rule="evenodd" clip-rule="evenodd" d="M84.835.28s2.856 6.039 3.998 10.037c.14.49.245.869.245 1.387 0 .712-2.109-1.122-2.285-1.387 0 0-.258.11-.245.245.222 2.252.322 7.05.608 12.52 2.17-.87 4.869-2.222 7.067-3.057L93.077 5.662s-.183-1.002-.24-1.555C92.683 2.63 93.59.626 94.2.101s3.262 6.866 4.366 10.732c.135.473.237.84.237 1.34 0 .689-2.4-1.836-2.57-2.092 0 0-.25.106-.237.236.136 1.38.357 3.542.778 8.75.585-.26 2.537-.927 3.024-.973.309-.03-.587 1.334-.725 1.61-.04.08-1.724.736-2.17.965.21 2.608.63 11.136.854 14l.128 1.636c.845 10.809 1.105 11.915 1.105 13.153 0 2.38-.101 4.794-.475 7.152-.328 2.064-1.184 4.984-2.21 6.878-.62 1.146 0-6.787 0-9.01l-.99-17.21-.968-15.643c-2.16.805-4.885 2.112-7.114 2.934.367 7.201 1.81 14.965-3.063 21.043-2.353 2.933-4.593 3.813-8.254 3.508-3.935-.329-7.017-2.9-9.903-5.365-7.004 5.599-16.573 8.227-22.05 3.189l-2.844-3.189-6.652 2.6c.185 2.573-.334 4.607-1.692 6.767-5.166 8.22-27.49 27.874-32.269 9.947-.332-1.244-.483-2.58-.505-3.935-.023-1.356.486-5.41.486-5.41.744-4.098 2.102-7.369 2.356-7.369.42 0-.691 3.044-1.16 6.702 0 0-.292 3.452-.04 5.125.253 1.674.837 3.249 1.95 4.501 4.67 5.258 11.798 1.028 16.708-1.609 5.81-3.121 12.728-10.482 12.474-12.258-.155-1.087-.293-1.869-.293-1.869-2.699.59-7.107 1.32-9.474-.592-3.812-3.078-1.31-10.98 3.299-11.843 3.535-.662 7.413 3.247 8.067 7.19l5.035-1.97c-1.048-3.759-1.674-8.193.254-11.765 1.856-3.438 3.542-4.589 6.403-1.225 2.47 2.907 2.26 8.038.924 11.303-.634 1.55-2.242 3.656-2.242 3.656 4.52 4.839 13.098 2.575 17.704-.94-2.12-2.482-5.544-4.572-8.845-3.703-.584.154-1.116.45-1.116.45s-.015-.462 0-.757c.086-1.654 1.444-3.989 1.444-3.989 3.673-2.894 11.28-3.303 15.792-2.83 4.064.424 7.38 1.413 10.316 4.332v.344l-1.926 3.714-7.152 2.957c3.476 2.89 11.144 3.714 12.916.344.976-1.857 1.186-7.148 1.035-11.155l-.278-4.78c-2.622.966-3.244 1.302-3.578 1.445-.456.196 0-.644.403-1.207.12-.168.573-.57 3.096-1.61L83.53 5.747s-.43-.816-.49-1.387c-.159-1.53 1.067-2.832 1.796-4.08m-12.84 35.763a51 51 0 0 1-4.608 2.27c-.59-.581-1.254-1.077-1.916-1.57-.675-.504-1.347-1.005-1.935-1.594 2.704-.901 5.996-.532 8.46.894m-42.064 5.81c-.836-1.233-2.055-2.407-3.625-2.445-1.327-.033-3.387.64-2.178 2.284 1.026 1.397 4.08.713 5.713.38.1-.02.148-.134.09-.219m12.066-3.817c1.943-.446 3.373-1.76 4.6-3.328-.637-1.804-2.358-5.178-4.37-4.924-1.27.161-2.394 2.117-2.334 3.63.07 1.741 1.179 3.215 2.104 4.622" fill="#000"/><path d="m43.212 17.956-1.945 3.657a.167.167 0 0 1-.238.062l-3.91-2.502a.17.17 0 0 1-.061-.212l1.704-3.64a.17.17 0 0 1 .233-.077c.866.464 2.979 1.512 4.179 2.508.06.05.075.135.038.204m24.019 3.163-2.204 4.144a.19.19 0 0 1-.27.07l-4.431-2.835a.19.19 0 0 1-.07-.24l1.931-4.125a.19.19 0 0 1 .265-.087c.98.525 3.375 1.713 4.735 2.842a.186.186 0 0 1 .044.23m4.765-17.423h3.37c.795.01 1.564.098 2.339.275 0 1.29-3.99 2.751-4.677 3.233-.688.481-.413.481-.413.481s3.212-.428 4.746-1.582c1.42-1.067 2.38-2.7 3.163-4.264-.239-.479-.495-.582-1.031-.756-1.608-.524-3.507-.393-5.158-.275-.966.445-1.618 1.048-2.064 2.063-.136.311-.275.825-.275.825" fill="#000"/><path fill-rule="evenodd" clip-rule="evenodd" d="m41.998 6.271-1.514-1.177s.82-2.254.589-3.699C40.766-.527 39.015-.2 37.626.807c-1.121.813-1.897 1.642-1.85 3.026.05 1.451 1.522 2.279 2.438 3.195L36.03 9.13s-1.463 1.333-2.523 2.017c-2.18 1.41-5.49 3.447-7.255 4.12-.259.179-.251.322-.48.504 0 0 .515-.149.842-.252 4.611-1.456 9.447-4.35 12.61-8.07l1.85 1.008zm-4.54-3.615c-.515.895 1.423 1.611 1.933 1.85.143-.337.11-1.514 0-1.85s-.226-.504-.588-.504-1.09.06-1.345.504M24.129 14.297l-1.514-1.177s.82-2.255.589-3.7c-.307-1.921-2.058-1.596-3.447-.588-1.121.813-1.897 1.642-1.85 3.027.05 1.45 1.522 2.278 2.439 3.194l-2.186 2.102s-1.463 1.333-2.522 2.018c-2.181 1.409-5.49 3.447-7.256 4.12-.259.178-.251.321-.479.504 0 0 .514-.15.84-.253 4.612-1.456 9.449-4.35 12.611-8.07l1.85 1.009zm-4.54-3.615c-.515.894 1.423 1.611 1.934 1.85.142-.337.11-1.514 0-1.85s-.227-.505-.589-.505-1.09.06-1.345.505" fill="#000"/></svg>