<svg width="100" height="81" viewBox="0 0 100 81" fill="none" xmlns="http://www.w3.org/2000/svg"><path fill-rule="evenodd" clip-rule="evenodd" d="M41.765 38.32c4.254.287 6.582 1.04 10.721 2.062 5.354 1.32 11.821 2.886 16.816 4.719L67.24 50.37c-7.904 1.817-15.507 4.48-23.093 7.331 0 .574.298 3.75-.229 3.803-.412.041-2.092-1.53-2.428-2.887-4.395 1.568-8.768 3.227-12.967 5.27-3.013 1.465-5.704 2.88-8.201 5.131-1.626 1.466-2.396 2.436-3.895 4.032-1.505 1.603-2.88 3.505-4.582 4.903-1.804 1.482-4.224 2.586-6.597 1.832C2.3 78.85.664 75.62.162 72.775c-.66-3.732.823-7.467 2.199-10.859.894-2.202 2.612-5.498 2.612-5.498s-.404 1.799-.733 2.932c-1.091 3.752-3.251 7.473-2.98 11.5.168 2.478 1.6 4.811 4.307 4.995 3.018.205 5.705-2.297 7.56-4.353 1.916-2.122 3.462-4.515 5.59-6.46 3.938-3.599 8.657-5.405 13.425-7.606 2.5-1.154 6.414-2.932 6.414-2.932-1.999-1.816-4.22-3.416-6.093-5.361-.844-.877-1.548-1.234-2.062-2.337-1.242-2.662-.199-5.517 2.062-7.24 2.696-2.054 6.057-1.455 9.3-1.236m-9.21 5.544c.348.743 1.243 1.304 1.833 1.833 2.776 2.487 5.743 4.734 8.476 7.285 5.492-1.89 11.023-3.63 16.633-5.132-5.67-2.18-11.71-3.625-17.732-4.444-2.914-.397-5.64-.607-8.568-.23-.439.05-.857.229-.642.688" fill="#000"/><path d="M59.498 19.456c-1.061.047-2.812-.305-2.812-.305l1.754 2.376 2.865 3.32s7.005 6.79 11.056 11.537c1.99 2.333 3.278 3.529 4.925 6.115 1.135 1.782 1.83 2.784 2.55 4.77.479 1.323.791 2.087.9 3.49.065.852-.001 1.335-.065 2.186-.061.823-.256 2.403-.424 3.694-.041.317-.505.317-.55.002-.219-1.513-.527-3.476-.782-4.431-.443-1.664-.806-2.582-1.611-4.104-1.177-2.225-2.314-3.179-3.906-5.128-3.208-3.927-5.448-5.74-8.883-9.468-2.03-2.202-3.244-3.37-5.167-5.667l-.094-.112c-1.24-1.48-1.965-2.346-3.114-3.947-1.283-1.788-1.646-3.045-3.051-4.739-.53-.639-1.4-1.538-1.563-1.706a.1.1 0 0 1-.026-.066l.114-3.869a.09.09 0 0 1 .05-.079l.415-.21a.09.09 0 0 1 .088.003c2.717 1.659 5.365 3.74 7.44 6.062.095.106.034.27-.109.276M39.563 73.061c1.527-.736 28.663-12.21 28.822-12.55.16-.342 1.245-2.057.813-1.975-2.363.454-28.73 12.353-29.224 13.067s-1.03 1.756-.411 1.458m27.814-62.255h3.326c.785.01 1.544.097 2.308.272 0 1.272-3.937 2.715-4.615 3.19-.68.475-.408.475-.408.475s3.17-.422 4.684-1.56c1.4-1.054 2.349-2.666 3.123-4.21-.237-.472-.49-.574-1.019-.746-1.587-.517-3.46-.388-5.09-.272-.954.44-1.598 1.035-2.037 2.037-.135.307-.272.814-.272.814M57.435 7.21c-.26.651-1.1 1.42-1.1 1.42s.734-.524 1.1-.963c.456-.547.723-.906.87-1.603.945-4.459-5.427-1.883-7.422-1.329-2.028.563-3.95 1.35-6.094 1.145-1.161-.11-1.619-.4-2.474-1.145-.263-.23-.533-.23-.78 0-.613.572-1.023 1.452-.595 2.29.14.275.393.41.596.642.268.308.24.592.412.963.246.53.687 1.328.687 1.328a7.5 7.5 0 0 0-.32-2.749c1.088.304 2.129.378 3.253.275 2.796-.256 5.36-1.696 8.018-2.474.89-.26 1.823-.492 2.749-.275 1.313.307 1.62 1.165 1.1 2.474M47.132 27.778l-2.053 3.86a.177.177 0 0 1-.251.066L40.7 29.063a.18.18 0 0 1-.065-.224l1.798-3.841a.18.18 0 0 1 .247-.082c.913.49 3.144 1.595 4.41 2.647.064.053.08.142.041.215" fill="#000"/><path fill-rule="evenodd" clip-rule="evenodd" d="m22.475 39.55-1.436-1.116s.778-2.14.559-3.51c-.292-1.824-1.952-1.514-3.27-.558-1.064.771-1.8 1.558-1.755 2.871.046 1.377 1.443 2.162 2.313 3.032l-2.074 1.994s-1.388 1.265-2.393 1.914c-2.07 1.337-5.21 3.27-6.884 3.909-.246.17-.238.305-.455.478 0 0 .488-.141.798-.239 4.376-1.382 8.964-4.127 11.965-7.658l1.755.958zm-4.307-3.43c-.488.85 1.35 1.53 1.835 1.756.135-.32.104-1.436 0-1.755-.105-.32-.215-.479-.559-.479-.343 0-1.034.057-1.276.479" fill="#000"/><path d="M76.723 33.477c-.434.608-.928 1.515-.434 1.304.39-.167 2.86-1.08 6.044-2.253.354 5.828.648 11.749.768 16.818.104 4.376-1.472 8.21-4.708 11.326-1.069 1.03-1.846 1.4-3.074 2.235-2.867 1.947-4.712 2.658-7.696 4.423-1.673.99-4.268 2.563-4.268 2.563s2.154-.145 3.52-.352c2.484-.377 3.885-.684 6.244-1.549 1.01-.37 1.587-.564 2.538-1.065 1.461-.769 2.242-1.32 3.445-2.45 1.25-1.176 1.882-1.947 2.744-3.43 0 0 2.518-3.415 2.949-5.984 1.192-7.109.897-15.334.293-23.55 2.342-.863 4.837-1.784 7.065-2.615l.653 9.422.876 19.414c0 2.51-.344 13.403.357 12.109 1.157-2.137 1.5-4.081 1.87-6.41.421-2.661.444-5.238.444-7.924 0-6.167-.163-12.097-.647-18.271a1061 1061 0 0 1-.692-9.412c2.422-.914 4.093-1.568 4.134-1.65.15-.298 1.116-1.77.782-1.739-.503.048-2.458.71-5.035 1.656-.408-5.958-.703-10.683-.856-12.248-.015-.146.267-.267.267-.267.191.29 2.493 2.29 2.493 1.514 0-.566-.115-.98-.268-1.514-1.246-4.362-4.362-10.95-4.362-10.95-.795 1.362-2.133 2.782-1.959 4.45.065.624.534 1.514.534 1.514l1.288 18.571c-2.281.866-4.77 1.837-7.065 2.754-.423-5.444-.95-10.852-1.234-15.897-.074-1.32-.168-2.618-.13-3.937a.16.16 0 0 1 .257-.122l1.928 1.455a.16.16 0 0 0 .256-.139c-.343-4.06-2.045-7.78-4.23-11.203a.16.16 0 0 0-.235-.04l-1.098.859a.16.16 0 0 0-.062.122l-.124 4.211S81.402 17.66 82.24 31.02c-3.09 1.264-5.376 2.261-5.517 2.458" fill="#000"/></svg>