<svg width="102" height="82" viewBox="0 0 102 82" fill="none" xmlns="http://www.w3.org/2000/svg"><path d="M81.176 42.333c-.379.53-.808 1.319-.379 1.135.224-.096 1.23-.472 2.682-1.01l.204 4.07s.097 2.468-.535 3.745c-1.488 3.004-5.398 2.51-8.076 1.8-3.622-.961-4.786-3.362-7.832-5.546-3.239-2.322-6.366-4.878-9.716-7.037 3.427-1.277 6.134-2.309 6.184-2.408.133-.266.994-1.577.697-1.549-.683.065-4.372 1.4-8.45 2.968a100 100 0 0 0-10.12-5.45v-.389c5.622-4.716 11.376-9.275 17.465-13.378C70.849 14.198 78.829 8.96 87.41 5.76c1.211-.452 7.9-3.614 7.9-.827 0 2.967-7.721 6.568-7.394 11.822 0 0 1.41-2.188 2.432-3.503 2.029-2.611 4.611-4.72 6.032-7.784 1.76-3.792 1.513-5.88-2.578-5.4-11.257 1.321-22.63 9.745-31.913 16.103-4.534 3.105-6.887 5.12-11.092 8.66-2.7 2.272-5.197 3.279-6.081 6.907-.3 1.232-.44 1.944-.487 3.211-.015.418 0 1.07 0 1.07 1.927 1.627 3.97 3.119 6.013 4.61l.106.077c-3.58 1.44-6.469 2.67-6.618 2.88-.388.543-.827 1.35-.388 1.162.46-.197 4.177-1.56 8.313-3.085 2.036 1.498 4.043 3.026 5.904 4.718 1.903 1.732 5.937 5.053 6.081 7.882.111 2.189-6.013 3.983-8.708 5.205-4.956 2.246-9.508 3.92-13.67 7.54-2.42 2.105-4.019 4.657-6.179 6.909-1.776 1.852-5.032 3.702-7.637 2.383-4.783-2.42-.597-11.893.973-15.08h-.682c-1.81 3.23-3.787 7.985-3.405 11.82.387 3.89 3.373 8.39 7.93 6.86 3.323-1.115 5.194-4.576 7.54-6.908 3.571-3.55 7.045-5.612 11.579-7.784 3.253-1.558 5.31-1.947 8.464-3.697 4.882-2.708 6.687-7.79 4.184-12.746 2.855 2.128 5.323 5.165 8.32 7.006 9.088 5.585 14.146-3.752 13.767-12.309l-.088-1.944c2.266-.835 4.95-1.823 7.399-2.732l.438 6.895 1.01 17.484c-.03 2.076-.442 11.084.153 10.022.983-1.754 1.289-3.359 1.622-5.282.38-2.196.43-4.328.46-6.55.017-1.156-.186-6.438-.833-16.54l-.098-1.529-.35-5.395c2.774-1.039 4.827-1.83 4.869-1.915.13-.26.972-1.54.681-1.513-.517.05-2.796.843-5.65 1.911-.392-5.955-.729-10.846-.854-12.337-.01-.122.224-.218.224-.218.155.242 2.036 1.924 2.045 1.281.006-.468-.084-.811-.204-1.255-.98-3.624-3.481-9.11-3.481-9.11-.674 1.117-1.797 2.277-1.672 3.66.046.516.424 1.258.424 1.258l1.12 17.63a377 377 0 0 0-7.363 2.914c-.26-5.623-.568-11.583-.828-14.22-.011-.121.22-.22.22-.22.158.237 2.05 1.882 2.05 1.244 0-.465-.095-.805-.22-1.244-1.025-3.586-3.587-9.003-3.587-9.003-.653 1.12-1.753 2.288-1.61 3.66.053.512.44 1.244.44 1.244l.985 19.603c-1.312.563-2.163.961-2.242 1.072" fill="#000"/><path fill-rule="evenodd" clip-rule="evenodd" d="M4.289 52.998c.012-.075 0-.195 0-.195 1.909.263 2.482-2.239 2.627-3.697-.401.422-1.293 1.499-1.946 1.46-1.532-.093-.983-3.463-.876-4.282.19-1.454 1.07-3.6 1.07-3.6s-1.157 2.127-1.605 3.6c-.442 1.456-.907 3.238-.584 4.768.152.72.357 1.215.973 1.654 0 0-.027.09-.048.146-1.072 2.885-2.739 5.54-3.406 8.66-.687 3.213-.942 6.708 1.168 9.486 2.124 2.795 4.935 3.05 7.93 1.459 2.826-1.5 5.102-4.244 7.589-6.227 3.467-2.765 6.954-5.09 10.994-6.957 1.23 2.174 2.967 4.82 5.4 5.74 3.65 1.381 5.658-2.095 5.643-5.302-.006-1.493-.26-3.093-1.07-4.378-.741-1.176-1.724-1.919-3.113-2.14-1.677-.268-3.842.629-5.449 1.07-2.44-3.212.484-9.477 4.573-9.292.613.027.971.14 1.508.438.393.217.842.865 1.168.291.695-1.227 1.026-3.358 0-4.573-2.182-2.581-5.562.44-6.957 2.238-2.642 3.406-3.016 7.592-2.53 11.773-3.296 1.915-6.54 3.928-9.584 6.227-3.406 2.574-6.99 7.627-11.383 8.368-2.972.5-4.915-.968-5.449-4.038-.751-4.315 2.712-8.586 3.357-12.697m27.584 5.351c.958-.26 1.997-.352 2.967-.097.537.14 1.599.452 1.8 1.07.397 1.22-1.885.925-2.53.73-.94-.286-1.655-.931-2.238-1.703" fill="#000"/><path fill-rule="evenodd" clip-rule="evenodd" d="m27.105 36.534-1.416-1.1s.767-2.11.55-3.461c-.287-1.798-1.924-1.493-3.224-.55-1.049.76-1.774 1.536-1.73 2.83.047 1.358 1.424 2.132 2.281 2.99l-2.045 1.965s-1.368 1.248-2.36 1.888c-2.04 1.318-5.135 3.224-6.787 3.853-.241.168-.234.301-.447.472 0 0 .48-.14.786-.236 4.314-1.362 8.838-4.069 11.797-7.55l1.73.944zm-4.247-3.381c-.481.836 1.331 1.507 1.809 1.73.133-.315.103-1.416 0-1.73s-.212-.472-.55-.472c-.34 0-1.02.056-1.259.472" fill="#000"/><path d="m22.416 76.876-1.865 3.506a.16.16 0 0 1-.229.06l-3.748-2.399a.16.16 0 0 1-.06-.203l1.634-3.49a.163.163 0 0 1 .224-.074c.83.445 2.856 1.45 4.007 2.405a.16.16 0 0 1 .037.195" fill="#000"/><path d="m16.48 78.044-1.864 3.506a.16.16 0 0 1-.229.06l-3.748-2.4a.16.16 0 0 1-.06-.203l1.634-3.49a.163.163 0 0 1 .224-.073c.83.444 2.856 1.449 4.006 2.404.058.048.073.13.038.196m25.391 3.033c1.02-.437 19.032-6.962 19.157-7.211s.935-1.484.655-1.457c-1.53.145-19.084 7.065-19.448 7.575s-.777 1.27-.364 1.093m28.141-55.809h3.23c.761.009 1.498.094 2.24.263 0 1.236-3.822 2.637-4.481 3.098-.66.461-.396.461-.396.461s3.078-.41 4.548-1.515c1.36-1.023 2.28-2.589 3.032-4.087-.23-.459-.475-.558-.989-.725-1.54-.502-3.36-.376-4.943-.264-.925.428-1.55 1.005-1.977 1.978-.131.298-.264.79-.264.79" fill="#000"/></svg>