<svg width="101" height="73" viewBox="0 0 101 73" fill="none" xmlns="http://www.w3.org/2000/svg"><path d="m34.602 12.49 2.155-4.05a.18.18 0 0 0-.043-.227c-1.33-1.103-3.67-2.264-4.629-2.777a.19.19 0 0 0-.259.085L29.94 9.553a.186.186 0 0 0 .068.234l4.331 2.772a.185.185 0 0 0 .264-.069" fill="#000"/><path d="m28.151 13.1 2.155-4.051a.18.18 0 0 0-.043-.226c-1.33-1.104-3.67-2.264-4.629-2.778a.19.19 0 0 0-.258.085l-1.888 4.032a.185.185 0 0 0 .068.235l4.331 2.772a.185.185 0 0 0 .264-.07m34.692 59.378 2.155-4.051a.18.18 0 0 0-.043-.226c-1.33-1.104-3.67-2.264-4.629-2.778a.19.19 0 0 0-.259.085L58.18 69.54a.186.186 0 0 0 .068.235l4.331 2.772a.186.186 0 0 0 .264-.069M67.077 5.48h-3.733s.153-.57.304-.914c.493-1.124 1.216-1.792 2.286-2.286 1.83-.13 3.933-.275 5.714.305.594.193.878.307 1.143.838-.868 1.732-1.932 3.542-3.505 4.724-1.7 1.278-5.257 1.752-5.257 1.752s-.304 0 .457-.533c.762-.534 5.181-2.153 5.181-3.581a12 12 0 0 0-2.59-.305m4.651 24.417c-.107.235-16.342 6.484-17.258 6.915-.372.175.33-1.328.648-1.81.32-.483 15.767-6.557 17.154-6.73.254-.032-.437 1.39-.544 1.625M44.249 62.76c-.108.235-16.342 6.485-17.258 6.916-.372.174.33-1.328.648-1.811.319-.483 15.767-6.557 17.154-6.73.254-.032-.437 1.39-.544 1.625" fill="#000"/><path fill-rule="evenodd" clip-rule="evenodd" d="M41.4 27.077c.749 3.845.572 6.557-1.421 9.93-1.45 2.452-5.308 5.003-5.308 5.003s3.433.768 5.308 1.93c1.174.728 2.175.975 2.742 2.235.522 1.157.218 2 0 3.25-.333 1.923-1.022 2.923-2.12 4.515l-.038.057c-.98 1.422-1.602 2.233-2.997 3.25-5.816 4.242-20.153 12.427-28.673 9.855C2.247 65.095.406 59.749.03 53.312c-.286-4.89 1.524-11.404 3.733-14.96.669-1.076 1.847-2.92 2.032-2.488.184.431-.66 2.26-.66 2.26s-1.85 4-2.464 6.73c-.683 3.038-1.305 4.914-.61 7.95.944 4.12 3.527 7.46 7.67 8.685 6.959 2.057 16.871-2.56 23.213-5.994 1.646-.89 7.505-4.114 7.619-5.028.076-.61-3.251-1.616-3.988-1.88-2.97-1.063-9.37-2.412-11.631-3.428-.352-.158-.432-.503-.432-.889 0-.762.432-3.083.838-3.48 2.133-2.082 7.362-2.879 10.616-4.621 1.538-.824 3.759-2.413 3.759-2.413-.28-2.48-2.602-3.101-4.775-3.353-3.733-.431-8.727 1.295-9.27-4.85-.272-3.083 2.642-8.25 5.308-8.788 5.232-1.055 9.531 5.779 10.413 10.311m-5.713-1.981s-1.42-2.305-2.921-2.769c-1.575-.486-4.466-.388-3.124 1.626.66.99 4.807 1.21 6.045 1.143" fill="#000"/><path d="M79.8 10.899s.63 8.961 1.016 14.705c.391 5.813 1.008 11.641 1.042 17.472.027 4.713-.57 10.743-3.226 14.096-2.602 3.284-7.257 5.345-10.133.94-.793-1.215-.406-3.2-.889-3.607-.642-.541-2.782 3.023-4.8 4.698-2.692 2.235-7.27 4.196-11.047 2.235-6.408-3.327-4.75-21.282-5.334-29.18-.422-5.71-.176-11.481-.914-17.169-.397-3.06-1.116-6.043-2-8.998a.1.1 0 0 1-.005-.035c.085-1.048 1.018-4.732 1.523-4.732.969 0 2.398 6.821 2.59 7.873.373 2.048.467 3.216.711 5.283.846 7.162 1.016 25.27 1.016 25.27.14 4.197-.032 10.92 1.219 13.587 1.882 4.012 6.375 3.834 10.819 1.803 3.439-1.572 6.832-6.855 8.025-6.578.738.171.435.622.381 1.168l-.002.027c-.155 1.566-.316 3.203.967 4.392.69.639 1.77.939 2.92.813 2.155-.236 4.362-1.608 4.775-2.337.635-1.117.613-5.036.508-7.364-.533-11.835-1.879-25.194-2.362-37.765-.022-.584-.477-1.665-.812-2.388.231-1.69.94-3.733 1.854-5.104.584-.254 5.426 12.613 4.673 12.927-.61.254-1.847-1.198-2.514-2.032m3.355 22.884c-.318.483-1.02 1.985-.648 1.81.347-.163 2.888-1.16 5.918-2.348l.63-.247 1.099 20.026c-.047 2.062-.534 11.008.066 9.958.991-1.735 1.31-3.326 1.656-5.233.397-2.18.464-4.296.514-6.504.025-1.069-.427-9.876-.937-19.188 4.182-1.644 8.258-3.262 8.312-3.38.107-.234.797-1.656.544-1.624-.692.086-4.886 1.642-8.953 3.239-.358-6.484-.96-12.945-1.449-19.418-.009-.122.225-.215.225-.215.152.241 2.746 2.838 2.76 2.2.01-.465-.076-.807-.191-1.249-.84-3.212-3.605-9.599-4.203-10.965a.148.148 0 0 0-.264-.013c-.685 1.15-1.679 3.064-1.679 4.527 0 .534.737 2.87.737 2.87l1.666 23.215c-3.113 1.252-5.675 2.345-5.803 2.539" fill="#000"/></svg>