<svg width="100" height="72" viewBox="0 0 100 72" fill="none" xmlns="http://www.w3.org/2000/svg"><path d="M70.244 5.201h-4.192s.172-.64.342-1.026c.554-1.262 1.365-2.013 2.566-2.567 2.055-.146 4.417-.31 6.417.342.667.218.986.346 1.283.941-.975 1.945-2.17 3.977-3.935 5.305-1.909 1.435-5.903 1.968-5.903 1.968s-.343 0 .513-.6c.856-.598 5.818-2.417 5.818-4.02a13.7 13.7 0 0 0-2.91-.343" fill="#000"/><path fill-rule="evenodd" clip-rule="evenodd" d="M25.923 10.198 24.486 9.08s.778-2.14.558-3.512c-.291-1.825-1.953-1.515-3.272-.559-1.065.773-1.801 1.56-1.756 2.874.047 1.378 1.444 2.163 2.314 3.033l-2.075 1.996s-1.389 1.266-2.395 1.916c-2.07 1.337-5.212 3.272-6.889 3.911-.245.17-.238.305-.454.479 0 0 .488-.142.798-.24 4.379-1.382 8.97-4.13 11.973-7.663l1.756.958zm-4.311-3.432c-.489.849 1.351 1.53 1.836 1.756.135-.32.104-1.437 0-1.756-.104-.32-.215-.48-.559-.48-.343 0-1.034.058-1.277.48" fill="#000"/><path d="M58.005 32.453c-.133.266-19.284 7.203-20.368 7.667-.44.189 0-.62.387-1.161.388-.543 19.051-7.9 20.678-8.055.297-.028-.564 1.284-.697 1.55" fill="#000"/><path d="M50.877 28.03c-.407.57-.87 1.42-.407 1.222.51-.219 4.827-1.8 9.453-3.507.919.929 1.847 1.838 3.017 3.035 3.885 3.975 6.398 5.89 10.04 10.09 1.808 2.085 3.084 3.093 4.445 5.494.931 1.642 1.359 2.637 1.898 4.446.31 1.038.711 3.18 1 4.83.06.344.567.329.602-.02.143-1.42.306-3.158.347-4.061.042-.936.099-1.467 0-2.398-.164-1.535-.531-2.361-1.1-3.796-.852-2.153-1.646-3.23-2.946-5.145-1.889-2.781-3.338-4.05-5.595-6.543-2.133-2.357-4.98-5.176-7.417-7.52 4.143-1.538 7.624-2.854 7.681-2.97.14-.28 1.046-1.66.734-1.63-.761.073-5.068 1.645-9.652 3.417a294 294 0 0 0-3.833-3.585l-3.247-3.546-1.998-2.548s1.93.33 3.092.245c.156-.012.218-.193.11-.307-2.349-2.477-5.318-4.673-8.348-6.404a.1.1 0 0 0-.097 0l-.449.244a.1.1 0 0 0-.052.088v4.244a.1.1 0 0 0 .03.071c.184.179 1.167 1.136 1.768 1.82 1.594 1.81 2.033 3.176 3.497 5.094 1.657 2.172 3.481 4.24 5.368 6.218-4.204 1.677-7.77 3.183-7.941 3.422" fill="#000"/><path d="M78.542 27.89c-.4.562-.855 1.397-.4 1.203.304-.13 1.982-.753 4.269-1.597.559 5.66 1.083 11.92 1.408 18.04.254 4.792-1.35 9.045-4.795 12.564-1.138 1.163-1.978 1.594-3.297 2.547-3.08 2.227-5.078 3.066-8.291 5.095-1.803 1.139-4.596 2.947-4.596 2.947s2.356-.228 3.846-.5c2.71-.492 4.236-.874 6.793-1.897 1.095-.438 1.721-.67 2.748-1.249 1.576-.89 2.414-1.52 3.696-2.797 1.332-1.328 2-2.194 2.897-3.846 0 0 2.649-3.824 3.039-6.653 1.22-8.853.294-16.204-.77-25.238 1.89-.696 3.954-1.457 5.905-2.18l2.791 35.909c0 2.347-.322 12.542.334 11.33 1.083-1.999 1.403-3.818 1.75-5.998.394-2.49.416-4.901.416-7.415 0-1.307-.856-12.767-1.748-24.182l-.136-1.727a4881 4881 0 0 0-.708-8.922c3.12-1.166 5.475-2.07 5.522-2.164.137-.275 1.028-1.632.72-1.602-.57.054-3.17.966-6.37 2.17-.443-5.472-.803-9.778-.946-11.23-.013-.137.25-.25.25-.25.18.27 2.333 2.143 2.333 1.416 0-.53-.107-.916-.25-1.416C93.786 6.165 90.869 0 90.869 0c-.743 1.275-1.995 2.604-1.833 4.166.061.583.5 1.416.5 1.416l1.335 17.17a413 413 0 0 0-5.948 2.347 292 292 0 0 1-.929-8.955c-.124-1.443-.268-2.864-.268-4.31 0-.143.16-.225.277-.142l2.16 1.533a.174.174 0 0 0 .275-.161c-.506-4.438-2.491-8.46-4.995-12.141a.177.177 0 0 0-.26-.036l-1.176.976a.18.18 0 0 0-.064.136v4.619s1.212 8.473 2.336 19.564c-2.144.893-3.629 1.557-3.737 1.709" fill="#000"/><path fill-rule="evenodd" clip-rule="evenodd" d="M2.922 49h.099a.22.22 0 0 1 .21.283C1.17 56.069-.964 65.381 8.488 64.399c8.151-.847 16.393-7.455 20.787-14.298 1.22-1.898.604-3.26.33-5.389-.85-6.6-3.515-12.776-6.566-18.633a.22.22 0 0 1-.022-.135l.847-5.506a.168.168 0 0 1 .292-.084c2.392 2.757 3.941 5.666 5.23 9.07 1.757 4.649 2.571 9.553 3.518 14.408l1.876 9.444c.716 3.518 2.284 7.192 5.857 8.533 0 0-.779-3.267-.784-5.397-.008-3.472.576-7.52 3.967-9.363 2.968-1.613 6.551-.337 9.594.277 5.962 1.202 9.124 2.733 15.13 3.69 2.42.385 3.8.434 6.226.784.487.07 1.246.184 1.246.184s.004.253 0 .416c-.058 1.929-1.891 4.566-1.891 4.566-1.56.195-3.226.254-4.751.646-4.014 1.03-7.67 3.712-11.368 5.489-3.401 1.633-5.176 2.925-8.79 4.012-1.802.543-3.492 1.1-5.396 1.061 0 0-.187 1.01-.507 1.569a6 6 0 0 1-.462.645c-.647-.29-.726-1.01-.645-1.66-2.542-1.117-5.106-2.506-6.965-4.613-2.307-2.614-3.217-5.612-3.216-9.064-.26-1.706-.269-3.311-.88-4.95-.9 5.361-4.914 9.616-9.019 12.868C14.335 69.142-.602 74.885.02 60.548c.169-3.904 1.371-7.75 2.697-11.403a.22.22 0 0 1 .206-.144m38.13 6.397 2.583 7.149c6.088 0 14.14-3.428 20.34-7.011 0 0-6.023-1.926-9.962-2.86-3.802-.901-8.491-2.725-11.808.415-.755.715-1.303 1.198-1.153 2.307" fill="#000"/></svg>