<svg width="100" height="75" viewBox="0 0 100 75" fill="none" xmlns="http://www.w3.org/2000/svg"><path fill-rule="evenodd" clip-rule="evenodd" d="M76.112 35.279c-.397.555-.848 1.384-.397 1.19.22-.093 1.164-.447 2.54-.956q.037.87.07 1.737c.106 2.723-.385 6.967-.385 6.967s-.765.647-1.351.869c-3.88 1.467-9.94 3.107-9.94 3.107-1.404 1.016-2.133 2.387-2.528 4.073 0 0 4.344.42 7.121.752 3.907.468 9.979 1.39 9.979 1.39s-2.118 1.444-3.552 2.239c-2.867 1.59-8.067 3.764-10.557 2.374-1.03-.575-1.626-2.122-1.68-3.3-.032-.737.336-1.19 0-1.815-.559-1.042-3.003 2.328-4.593 3.61-2.47 1.991-4.883 3.813-8.24 3.512-2.548-.228-3.693-1.155-4.633-3.512-.393-.986-.444-1.599-.618-2.645-.334-2.009-.212-5.21-.212-5.21s-.186-6.824-.347-11.195c-.292-7.905-.097-16.714-2.2-24.434-.328-1.2-1.236-2.934-1.236-2.934s-.338.36-.521.617c-.716 1.007-.907 3.03-.907 3.03.533 2.743 1.39 5.438 1.776 8.203.249 1.79.236 2.81.366 4.613.703 9.733.097 15.244.83 24.975.431 5.725.263 13.24 7.701 13.317 6.008.062 10.233-7.206 10.924-6.736 1.2.817.023 3.17 2.316 4.768 3.436 2.393 10.485-2.598 14.012-4.13 3.29-1.43 5.124-2.381 8.628-3.147q.303-.066.606-.126c-.046 3.161-.219 10.421.316 9.434.996-1.838 1.29-3.511 1.609-5.515.229-1.444.321-2.858.358-4.286 1.99-.252 3.998-.342 6.008-.356l.521-.135L100 51.552l-.077-.406s-2.612-.073-4.285-.154c-1.625-.08-2.996-.142-4.293-.22-.207-6.498-1.062-13.067-1.568-19.515 3.738-1.391 6.767-2.542 6.82-2.648.136-.272 1.02-1.617.715-1.588-.644.061-3.891 1.223-7.66 2.659-.684-8.684-1.435-17.92-1.63-19.912-.013-.127.229-.23.229-.23.165.248 2.145 1.97 2.145 1.302 0-.487-.099-.843-.23-1.302C89.094 5.784 86.412.116 86.412.116c-.683 1.172-1.834 2.394-1.685 3.83.056.536.46 1.302.46 1.302L87.16 30.64a376 376 0 0 0-6.382 2.546 79 79 0 0 0-.164-4.129c1.964-.744 3.286-1.266 3.321-1.336.136-.272 1.02-1.617.715-1.588-.43.041-2.019.572-4.148 1.348-.416-5.358-1.149-10.707-1.174-16.074-.002-.596 0-1.525 0-1.525s.458.542.792.85c.475.437 1.331.983 1.331.983s.133-.18.193-.308c.203-.438 0-1.236 0-1.236L77.592 0s-.998 2.04-1.37 3.435c-.114.426-.251 1.1-.251 1.1l.463 2.24c.476 7.149 1.035 14.46 1.457 21.676-6.132 2.316-14.184 5.581-14.44 5.94-.397.556-.848 1.384-.397 1.19.711-.304 9.01-3.327 14.928-5.535q.118 2.12.216 4.224c-1.225.53-2.009.9-2.086 1.009m3.738 8.166c.547-1.888.554-3.022.734-4.98.12-1.296.18-2.59.195-3.885 1.962-.723 4.267-1.571 6.502-2.398l1.43 18.399a83 83 0 0 1-4.672-.554c-2.769-.402-7.045-1.293-7.045-1.293s.609-.657.946-1.12c.588-.807.836-1.323 1.235-2.239.319-.732.453-1.163.675-1.93" fill="#000"/><path d="M49.35 35.003c1.112-.477 20.747-7.588 20.883-7.86s1.019-1.618.714-1.589c-1.667.16-20.802 7.702-21.2 8.258-.396.556-.847 1.384-.396 1.19m9.727 7.462c.353.377.984.55 1.477.328 1.34-.603-1.154-4.28-.657-5.742.38-1.113.636-.225.82.328.576 1.495 1.428 2.95 1.231 4.593-.11.916-.447 2.045-1.23 2.625-1.633 1.21-2.461-1.066-3.035-1.804-.19.953-.762 2.118-1.723 2.542-1.126.498-2.05-.328-2.379-.984-.328-.656-.328-4.02-.328-4.02s.003-.996.148-1.599c.218-.902.809-2.02.755 1.026 0 0-.082 1.312 0 2.05.093.84.47 1.356 1.312 1.477.625.089 1.23-.41 1.64-.903.41-.492.222-2.304 0-3.117-.093-.421-.268-.791-.245-1.312.012-.28.618-1.685.902-1.066.401.874.656 1.72.656 2.87 0 .124 0 2.005.656 2.708M35.51 31.769h.356c.035 0 .069.014.092.04l4.304 4.729a.124.124 0 0 1 .005.161l-.136.17a.12.12 0 0 1-.118.045l-1.478-.254a.125.125 0 0 0-.132.18c.439.832 1.967 3.796 2.538 5.814.534 1.89.923 3.51.636 5.481-.24 1.656-.54 3.031-1.492 4.4-2.127 3.059-6.028 5.648-9.103 7.605-3.553 2.26-7.115 4.847-11.156 6.06-6.006 1.805-18.544 4.35-19.46 4.535a.11.11 0 0 1-.099-.028l-.222-.185a.124.124 0 0 1-.009-.184l.259-.258a.1.1 0 0 1 .042-.028c10.543-4.133 20.41-8.149 30.053-14.176 2.044-1.278 10.108-5.385 9.238-7.933-1.365-3.996-3.397-7.99-4.767-12.082-.41-1.225.372-3.552.534-4.011a.12.12 0 0 1 .115-.08" fill="#000"/><path fill-rule="evenodd" clip-rule="evenodd" d="m36.193 23.915-1.458-1.134s.79-2.173.567-3.565c-.296-1.852-1.983-1.537-3.321-.567-1.08.784-1.828 1.583-1.783 2.916.048 1.398 1.467 2.196 2.35 3.079l-2.107 2.025s-1.409 1.284-2.43 1.944c-2.101 1.357-5.29 3.32-6.99 3.969-.25.172-.242.31-.462.486 0 0 .495-.144.81-.243 4.444-1.403 9.103-4.191 12.15-7.776l1.783.972zm-4.374-3.483c-.496.861 1.37 1.552 1.863 1.782.137-.324.105-1.458 0-1.782-.106-.324-.219-.486-.567-.486-.35 0-1.05.058-1.297.485" fill="#000"/><path d="M65.143 3.355h3.646c.86.01 1.692.107 2.53.298 0 1.395-4.316 2.976-5.06 3.497s-.446.52-.446.52 3.474-.463 5.134-1.71c1.535-1.155 2.574-2.922 3.422-4.613-.259-.518-.536-.63-1.116-.819-1.74-.566-3.793-.425-5.58-.297-1.045.482-1.75 1.134-2.232 2.232a8 8 0 0 0-.298.892m-2.141 67.729-1.856 3.49a.16.16 0 0 1-.228.06l-3.73-2.388a.16.16 0 0 1-.059-.203l1.626-3.472a.16.16 0 0 1 .223-.074c.826.443 2.842 1.442 3.986 2.393a.16.16 0 0 1 .038.194m21.693 0-1.856 3.49a.16.16 0 0 1-.227.06l-3.73-2.388a.16.16 0 0 1-.059-.203l1.626-3.472a.16.16 0 0 1 .223-.074c.825.443 2.841 1.442 3.986 2.393a.156.156 0 0 1 .037.194" fill="#000"/></svg>