<svg width="100" height="64" viewBox="0 0 100 64" fill="none" xmlns="http://www.w3.org/2000/svg"><path d="M80.934 12.452c-.113.227-16.438 6.14-17.363 6.536-.374.16 0-.528.33-.99.33-.463 16.24-6.734 17.627-6.866.253-.024-.481 1.094-.594 1.32M75.42 26.893l1.769-3.327a.15.15 0 0 0-.035-.186c-1.092-.906-3.014-1.86-3.802-2.28a.154.154 0 0 0-.212.069l-1.55 3.311a.15.15 0 0 0 .056.193l3.557 2.277a.15.15 0 0 0 .216-.057M63.626 61.492l1.77-3.327a.15.15 0 0 0-.036-.186c-1.092-.906-3.014-1.86-3.801-2.28a.154.154 0 0 0-.213.069l-1.55 3.311a.15.15 0 0 0 .056.193l3.557 2.276a.153.153 0 0 0 .217-.056" fill="#000"/><path d="m80.394 26.893 1.77-3.327a.15.15 0 0 0-.036-.186c-1.091-.906-3.014-1.86-3.801-2.28a.154.154 0 0 0-.212.069l-1.55 3.311a.15.15 0 0 0 .055.193l3.557 2.277a.153.153 0 0 0 .217-.057M68.6 61.492l1.77-3.327a.15.15 0 0 0-.035-.186c-1.092-.906-3.014-1.86-3.802-2.28a.154.154 0 0 0-.212.069l-1.55 3.311a.15.15 0 0 0 .056.193l3.557 2.276a.15.15 0 0 0 .216-.056m-8.011-33.11c-.398.18-.908.04-1.192-.265-.53-.567-.53-2.085-.53-2.185 0-.928-.205-1.611-.53-2.317-.229-.5-.718.635-.728.86-.018.42.123.72.199 1.06.178.656.33 2.119 0 2.516-.331.398-.82.8-1.325.729-.68-.098-.984-.515-1.06-1.192-.066-.596 0-1.656 0-1.656.045-2.458-.433-1.556-.608-.827-.117.486-.12 1.29-.12 1.29s0 2.716.265 3.246 1.011 1.196 1.92.794c.776-.342 1.237-1.283 1.391-2.053.464.596 1.133 2.434 2.45 1.457.632-.468.905-1.38.994-2.119.159-1.326-.53-2.5-.994-3.708-.148-.447-.356-1.163-.662-.265-.402 1.18 1.612 4.149.53 4.635M80.062 3.586H76.55c.404-1.213.998-2.293 2.208-2.851.876-.062 6.232-.363 6.456.727.195.95-1.955 3.431-2.795 4.192-.717.649-1.705.894-1.705.894l-3.65 1.068c-.152.044-.232-.088-.105-.183 1.075-.803 4.105-2.442 5.125-2.981 0 0 .48-.275.419-.447-.14-.391-1.924-.413-2.44-.42" fill="#000"/><path fill-rule="evenodd" clip-rule="evenodd" d="m60.844 16.762-1.251-.973s.677-1.864.486-3.059c-.254-1.589-1.7-1.32-2.85-.486-.927.672-1.568 1.358-1.529 2.502.041 1.2 1.258 1.884 2.016 2.641l-1.807 1.738s-1.21 1.102-2.085 1.668c-1.804 1.165-4.54 2.85-6 3.406-.213.148-.207.266-.395.417 0 0 .425-.123.695-.209 3.813-1.204 7.811-3.596 10.426-6.672l1.53.834zm-3.754-2.989c-.425.74 1.177 1.332 1.599 1.53.118-.279.09-1.252 0-1.53s-.187-.417-.486-.417c-.3 0-.901.05-1.113.417m-13.63 8.189-1.25-.974s.677-1.864.486-3.058c-.254-1.589-1.701-1.32-2.85-.486-.927.672-1.568 1.357-1.53 2.502.042 1.2 1.259 1.884 2.017 2.641l-1.808 1.738s-1.209 1.102-2.085 1.668c-1.803 1.165-4.539 2.85-5.999 3.406-.213.148-.207.266-.395.417 0 0 .424-.123.695-.209 3.812-1.204 7.81-3.596 10.426-6.672l1.529.834zm-3.753-2.99c-.426.74 1.176 1.333 1.599 1.53.117-.278.09-1.251 0-1.53-.091-.277-.188-.416-.487-.416-.3 0-.9.05-1.112.417" fill="#000"/><path d="M98.825 8.977c-.733-2.88-2.741-7.509-3.263-8.733a.128.128 0 0 0-.231-.012c-.598 1.031-1.286 2.628-1.286 3.94 0 .479.503 2.069.503 2.069l1.705 21.324 1.794 21.027c-.041 1.849-.466 9.872.058 8.93.865-1.555 1.143-2.982 1.446-4.693.346-1.954.405-3.853.449-5.833.021-.958-.87-11.505-1.315-19.857-.313-5.815-1.338-12.463-1.765-18.27-.008-.108.196-.192.196-.192.133.216 1.863 1.993 1.876 1.42.01-.417-.066-.723-.167-1.12" fill="#000"/><path fill-rule="evenodd" clip-rule="evenodd" d="M36.362 45.675c1.145-1.893 2.174-4.909 2.174-4.909 1.74 1.918 4.792 4.748 7.922 4.748 0 0 .912-.995 1.334-1.74 1.681-2.961 1.768-11.34-3.458-9.966-.99.26-1.647.935-2.302 1.609-.529.544-1.056 1.086-1.757 1.406a2 2 0 0 1-.433.132c-.186.04-.361.078-.552.216-.316.227-.427.49-.556.793a4 4 0 0 1-.198.425c-.295.537-.541 1.099-.788 1.66a21 21 0 0 1-.778 1.645c-1.107 2.03-2.466 3.59-4.291 4.987-6.64 5.085-15.816 8.973-24.046 12.46l-.275.116c-3.078 1.304-9.48 3.64-8.188 3.717 1.29.077 1.639-.04 3.298-.307 4.008-.648 10.288-2.222 13.778-3.22 2.623-.749 13.023-6.366 17.97-11.76-1.003 3.401-1.318 7.322-.715 10.068 3.039 13.852 20.907-.488 24.856-6.77 1.037-1.651 1.907-3.586 1.766-5.552l4.64-2.972s-.163 1.142 0 1.844c.655 2.829 3.512 3.563 6.064 3.298 1.96-.204 4.555-2.17 4.555-2.17s3.854 1.53 6.428 1.471c5.634-.127 6.886-3.408 8.077-8.496.48-2.048.252-3.15.252-5.254 0-3.717-1.12-16.458-1.481-24.65 0 0 1.638 2.013 1.928 1.565.127-.195-.014-.97-.168-1.565-.615-2.375-3.206-8.766-3.353-8.496-.671 1.23-1.565 3.997-1.565 3.997l.503 1.23s1.397 16.572 1.732 26.27c.125 3.602.867 7.993-.391 9.614-.867 1.118-2.578 1.239-4.36 1.425-1.535.161-3.94-.307-3.94-.307s1.816-2.739 1.9-5.338c.069-2.135-.004-6.303-2.879-6.707-2.123-.3-5.497 5.937-5.673 8.216-.128 1.67.587 4.248.587 4.248s-1.915.84-3.158.643c-1.778-.282-2.922-1.07-3.438-2.795-.262-.878.41-1.726-.14-2.46-.314-.418-2.037 1.202-3.381 1.901-1.173.61-3.046 1.478-3.046 1.478-.82-2.763-3.367-6.1-6.595-5.495-3.523.66-5.435 6.7-2.522 9.052 1.81 1.462 5.18.904 7.242.453 0 0 .297.35.416 1.181.194 1.358-5.286 7.23-9.727 9.617-3.752 2.015-9.576 4.809-13.268.902-2.102-2.224-.85-7.856 0-11.458m9.944-4.677c.794-.549-.482-2.72-.986-3.073-.638-.448-3.664-.406-3.421.638.22.942 3.692 2.93 4.407 2.435m10.687.548c-.64-.943-1.572-1.84-2.772-1.869-1.014-.025-2.589.49-1.665 1.746.758 1.03 2.957.58 4.231.319l.136-.028a.11.11 0 0 0 .07-.168m17.49-3.082c0-.866 2.962-3.745 3.437-3.857.3-.07.547-.088.782.112.56.475 1.537 2.739 1.537 3.605 0 1.202-3.297 2.879-3.297 2.879s-2.46-1.301-2.46-2.739" fill="#000"/></svg>