<svg width="91" height="57" viewBox="0 0 91 57" fill="none" xmlns="http://www.w3.org/2000/svg"><path d="m65.932 28.714 1.585-2.981a.134.134 0 0 0-.032-.166c-.978-.812-2.7-1.666-3.405-2.044a.14.14 0 0 0-.19.063l-1.39 2.966a.14.14 0 0 0 .05.173l3.188 2.04a.137.137 0 0 0 .194-.052" fill="#000"/><path d="m70.174 28.026 1.586-2.981a.134.134 0 0 0-.032-.166c-.978-.812-2.7-1.666-3.406-2.044a.14.14 0 0 0-.19.063l-1.389 2.966a.14.14 0 0 0 .05.173l3.187 2.04a.137.137 0 0 0 .194-.052m-1.896-9.879c-.344.155-.785.034-1.032-.23-.458-.49-.458-1.806-.458-1.892 0-.803-.178-1.395-.459-2.006-.198-.432-.622.55-.63.745-.016.364.106.623.171.918.155.567.287 1.834 0 2.178-.286.344-.71.693-1.146.63-.589-.083-.852-.445-.918-1.031-.057-.516 0-1.433 0-1.433.038-2.13-.375-1.348-.527-.717-.101.42-.103 1.118-.103 1.118s0 2.35.23 2.81c.229.458.874 1.035 1.662.687.671-.297 1.07-1.11 1.204-1.777.401.516.98 2.107 2.121 1.261.547-.405.783-1.194.86-1.835.138-1.148-.458-2.165-.86-3.21-.129-.387-.309-1.007-.573-.23-.348 1.022 1.396 3.592.458 4.014m1.262-15.42h-2.81s.116-.429.23-.688c.37-.846.915-1.349 1.72-1.72 1.377-.098 2.96-.207 4.3.23.446.145.66.23.86.63-.654 1.303-1.454 2.665-2.638 3.554-1.279.962-3.956 1.32-3.956 1.32s-.229 0 .344-.402c.574-.402 3.899-1.62 3.899-2.695a9 9 0 0 0-1.95-.23M20.983 53.94l1.585-2.98a.134.134 0 0 0-.032-.167c-.978-.812-2.7-1.666-3.405-2.044a.14.14 0 0 0-.19.063l-1.39 2.967a.136.136 0 0 0 .05.172l3.188 2.04c.067.043.156.02.194-.051" fill="#000"/><path fill-rule="evenodd" clip-rule="evenodd" d="m27.802 21.524-1.182-.92s.64-1.76.46-2.888c-.24-1.501-1.607-1.247-2.692-.46-.876.635-1.482 1.283-1.445 2.364.039 1.133 1.189 1.779 1.904 2.494l-1.707 1.642s-1.142 1.04-1.97 1.575c-1.702 1.1-4.286 2.692-5.665 3.217-.202.14-.196.252-.374.394 0 0 .401-.116.656-.197 3.602-1.137 7.378-3.396 9.848-6.302l1.444.788zM24.256 18.7c-.402.698 1.112 1.258 1.51 1.444.112-.263.086-1.182 0-1.444-.085-.263-.177-.394-.46-.394-.282 0-.85.047-1.05.394" fill="#000"/><path d="M71.166 9.632c-.098.197-14.276 5.332-15.078 5.676-.326.14 0-.458.286-.86.287-.401 14.104-5.848 15.308-5.962.22-.021-.418.95-.516 1.146M1.371 30.902c.27-1.007.896-2.433 1.053-2.785a.115.115 0 0 0-.033-.137l-.103-.082a.115.115 0 0 0-.176.043c-3.06 6.725-2.51 10.976-.168 13.568 3.9 4.315 13.459 3.703 24.71-.172 1.736-.598 15.49-7.445 11.754-1.72-1.98 3.036-4.184 4.675-5.266 8.312a.113.113 0 0 0 .154.136l.14-.06a.1.1 0 0 0 .06-.057c.13-.281.94-2.008 1.701-3 2.004-2.608 5.282-4.592 6.078-7.968 1.472-6.25-5.922-2.19-8.83-1.032-5.727 2.28-11.228 4.269-17.429 4.7-3.616.253-7.117.438-10.377-1.432-3.332-1.912-4.284-4.527-3.268-8.314m41.702-1.432c-.287.4-.612.999-.287.86.285-.122 2.246-.845 4.666-1.736l.317-.117 1.026 13.204c0 1.615-.222 8.63.23 7.797.745-1.376.965-2.628 1.203-4.128.272-1.713.287-3.373.287-5.102 0-.736-.393-6.136-.872-12.373a.115.115 0 0 1 .074-.117c3.94-1.453 8.095-2.998 8.148-3.105.098-.196.736-1.167.516-1.146-.64.06-4.843 1.628-8.684 3.143a.114.114 0 0 1-.156-.097c-.628-8.13-1.36-17.193-1.548-19.1-.01-.094.171-.172.171-.172.124.186 1.606 1.475 1.606.975 0-.365-.074-.63-.172-.975-.803-2.809-2.81-7.052-2.81-7.052-.511.878-1.373 1.793-1.26 2.867.041.401.343.975.343.975l1.811 23.296a.115.115 0 0 1-.071.116c-2.48 1.002-4.432 1.838-4.538 1.986" fill="#000"/><path fill-rule="evenodd" clip-rule="evenodd" d="M74.47 23.42c-.286.402-.612 1.258-.286 1.118.208-.089 1.377-.594 2.995-1.298l.33 6.974c.19 3.279.952 7.704-3.096 8.256-1.804.246-4.095-.626-4.433-2.637-.127-.755.278-1.346.045-2.108a.107.107 0 0 0-.16-.058c-1.76 1.077-3.513 2.67-5.587 2.972a.11.11 0 0 1-.11-.048c-.86-1.267-1.413-2.6-2.78-3.453-1.12-.698-1.97-1.103-3.268-.86-1.855.348-2.766 1.778-3.21 3.612-.416 1.716-.4 3.306.974 4.415.752.607 1.447.649 2.32.702q.287.016.604.043c1.367.122 3.498-.344 3.498-.344s.41.18.516.918c.172 1.203-4.834 6.541-8.772 8.657-.505.271-.978.543-1.431.804-2.926 1.685-7.6 3.052-10.322.17-1.153-1.22-1.188-2.403-1.376-4.07-.246-2.176.956-5.348 1.253-6.09a.116.116 0 0 0-.108-.16h-.044a.11.11 0 0 0-.101.061c-.08.154-.294.566-.427.857-.416.908-.613 1.44-.86 2.408-.837 3.28-1.285 8.554 1.663 11.008 1.148.956 2.125 1.107 3.611 1.261 1.594.165 2.54-.132 4.048-.605l.08-.026c1.852-.58 2.873-1.312 4.291-2.33h.001q.355-.255.754-.536c1.728-1.216 2.637-2 4.128-3.498 1.638-1.645 2.522-2.58 3.784-4.586.905-1.44 1.437-3.009 1.334-4.72a.12.12 0 0 1 .07-.114c.223-.095.895-.384 1.34-.613.978-.503 2.282-1.446 2.728-1.775a.116.116 0 0 1 .183.078l.088.665c.362 2.778 2.602 4.52 5.561 3.727 5.59-1.497 5.219-10.324 5.219-14.62 0-.432-.087-2.676-.155-4.288l-.045-.98c1.835-.8 3.9-1.702 5.731-2.51l1.701 21.882c0 1.615-.221 8.63.23 7.797.745-1.376.966-2.628 1.204-4.128.272-1.713.286-3.373.286-5.102 0-1.079-.846-12.2-1.567-21.27 1.901-.846 3.248-1.462 3.278-1.52.098-.197.506-1.053.286-1.032-.344.033-1.78.587-3.659 1.371-.396-4.966-.74-9.122-.86-10.344-.01-.094.172-.172.172-.172.123.186 1.605 1.475 1.605.975 0-.365-.074-.63-.172-.975C86.75 4.472 84.742.23 84.742.23c-.511.878-1.372 1.793-1.26 2.867.041.401.344.975.344.975l1.128 14.512a317 317 0 0 0-5.693 2.514c-.239-5.034-.59-11.443-.807-13.655-.01-.097.177-.177.177-.177.127.192 1.654 1.52 1.654 1.004 0-.375-.076-.65-.177-1.004C79.28 4.371 77.213 0 77.213 0c-.527.904-1.414 1.846-1.3 2.953.044.414.355 1.004.355 1.004l.857 18.122c-1.53.715-2.58 1.236-2.655 1.341M60.55 36.896a.11.11 0 0 1-.073.172c-.224.042-.629.112-.923.14-.736.072-2.404.307-2.924-.4-.82-1.115.577-1.57 1.476-1.549 1.055.026 1.877.809 2.443 1.637" fill="#000"/></svg>