<svg width="100" height="84" viewBox="0 0 100 84" fill="none" xmlns="http://www.w3.org/2000/svg"><path fill-rule="evenodd" clip-rule="evenodd" d="M76.92 35.178c-.266.405-1.233 2.401-.784 2.19.347-.163 2.734-1.067 5.853-2.24.15 2.448.285 4.814.394 6.983.215 4.265.745 9.36-.33 11.224-1.382 2.396-5.46 3.02-8.385 2.22-1.838-.503-2.85-2.343-4.2-2.22-1.352.122-2.431 2.945-4.202 4.1-2.903 1.894-6.289 1.986-9.724 1.528-2.34-.312-4.172-2.027-4.172-2.027l6.845-3.085s2.266-2.967 2.439-4.583c.131-1.234-7.698-4.073-12.78-4.466-5.49-.424-12.633 1.293-13.837 2.703-.405.474-2.262 4.583-2.027 4.906.135.186.186.312.352.47.166.159 1.779-.74 2.997-.793 2.861-.122 5.704 2.223 7.58 4.113-7.051 2.909-17.833 7.051-23.62 11.898-3.429 2.872-9.607 13.485-15.072 10.724-2.014-1.018-2.386-2.5-2.732-4.73-.53-3.408 5.187-16.1 3.819-14.66C3.659 61.196-.83 71.066.134 76.12c.787 4.128 3.752 8.57 8.52 7.374 4.556-1.143 8.224-7.142 11.663-10.341 5.06-4.708 9.368-5.845 15.57-8.785 4.11-1.947 10.548-4.935 10.548-4.935 3.02 3.009 7.028 5.835 11.487 5.582 5.17-.294 6.375-1.734 9.959-6.493 0 0 .25 3.526 1.057 5.435.78 1.844 3.878 5.876 6.581 5.876.832 0 1.22-2.321 1.352-4.055.122-1.614-.53-4.113-.53-4.113s1.607-.022 2.527-.41c6.046-2.556 6.544-12.355 6.544-17.661 0-.688-.265-4.264-.373-6.83-.038-.864-.083-1.78-.132-2.733 2.413-.906 4.997-1.876 7.298-2.748l3.036 40.548c-.049 2.116-.623 9.92 0 8.842 1.03-1.78 1.805-4.71 2.165-6.669.412-2.236.477-4.08.53-6.345.285-12.428-1.907-25.145-2.643-37.552 2.346-.9 3.947-1.537 3.982-1.613.13-.285.964-2.003.658-1.965-.187.023-2.107.7-4.766 1.666-.421-5.867-1.149-11.755-1.595-17.606-.01-.124.233-.22.233-.22.158.248 2.85 2.913 2.866 2.258.01-.477-.079-.828-.199-1.282C95.601 8.05 92.73 1.493 92.11.091c-.051-.116-.21-.122-.275-.014-.711 1.18-1.743 3.145-1.743 4.647 0 .548.765 2.946.765 2.946l1.237 21.65a969 969 0 0 0-7.292 2.717c-.429-7.8-1.096-17.176-1.425-20.518-.015-.155.282-.282.282-.282.203.306 2.335 2.419 2.335 1.599 0-.598-.121-1.035-.282-1.599C84.394 6.63 81.68-.183 81.269.004s-1.903 4.217-1.903 5.3c0 .661.58 1.074.58 1.074s1.117 14.06 1.92 26.776c-2.83 1.087-4.865 1.903-4.945 2.024m-1.963 29.374a4 4 0 0 0-.113-.8c-.475-1.737-1.936-2.767-3.518-3.428a.057.057 0 0 0-.079.062c.056.314.25 1.285.6 1.896.658 1.15 1.786 1.932 3.036 2.327a.057.057 0 0 0 .075-.057M46.64 50.06c-1.275-.019-3.26.147-3.26.147s1.907 1.432 3.054 2.438a66 66 0 0 1 1.47 1.352l4.788-2.586s-1.315-.748-2.233-1.028c-1.431-.437-2.322-.301-3.819-.323" fill="#000"/><path d="M64.062 4.725h5.09c.749.009 3.334.04 3.537.607.089.25-.608.648-.608.648-1.477.782-5.868 3.157-7.428 4.32-.184.138-.067.33.154.266l5.29-1.548s1.431-.355 2.47-1.296c1.218-1.102 4.333-4.698 4.05-6.075C76.295.067 68.532.503 67.262.594c-1.753.809-2.613 2.373-3.2 4.13" fill="#000"/><path fill-rule="evenodd" clip-rule="evenodd" d="m71.054 26.541-1.568-1.219s.85-2.335.61-3.831c-.318-1.99-2.13-1.653-3.57-.61-1.161.843-1.964 1.701-1.915 3.135.05 1.503 1.576 2.36 2.525 3.309L64.872 29.5s-1.515 1.381-2.612 2.09c-2.26 1.46-5.686 3.57-7.515 4.267-.268.185-.26.333-.496.522 0 0 .532-.154.87-.261 4.777-1.509 9.786-4.505 13.061-8.359l1.916 1.045zm-4.702-3.744c-.533.926 1.474 1.669 2.002 1.915.148-.348.114-1.567 0-1.915-.113-.348-.234-.523-.609-.523s-1.128.063-1.393.523" fill="#000"/><path d="M37.142 81.552c1.153-.543 23.17-8.662 23.306-8.958s1.004-2.084.685-2.045c-.685.086-22.897 8.303-23.175 8.724-.277.421-1.283 2.499-.816 2.279M22.792 51.86l-2.16 4.062a.186.186 0 0 1-.265.07l-4.342-2.78a.186.186 0 0 1-.068-.235l1.892-4.042a.19.19 0 0 1 .26-.085c.96.514 3.307 1.678 4.64 2.784.067.056.084.15.043.227" fill="#000"/><path fill-rule="evenodd" clip-rule="evenodd" d="m25.635 22.477-1.568-1.22s.849-2.334.61-3.83c-.319-1.99-2.131-1.653-3.57-.61-1.162.843-1.965 1.701-1.916 3.135.052 1.503 1.576 2.36 2.525 3.308l-2.264 2.177s-1.514 1.381-2.612 2.09c-2.258 1.459-5.686 3.57-7.514 4.266-.268.186-.26.334-.496.523 0 0 .532-.155.87-.261 4.777-1.509 9.785-4.505 13.061-8.36l1.916 1.046zm-4.702-3.744c-.533.926 1.474 1.669 2.002 1.915.148-.348.114-1.567 0-1.915-.113-.348-.234-.523-.61-.523-.374 0-1.128.063-1.392.523" fill="#000"/></svg>