<svg width="100" height="74" viewBox="0 0 100 74" fill="none" xmlns="http://www.w3.org/2000/svg"><path fill-rule="evenodd" clip-rule="evenodd" d="M87.61.043c.396-.652 3.01 6.356 4.01 10.007.13.475.228.842.222 1.344-.007.688-1.915-1.32-2.082-1.578 0 0-.251.104-.24.234.133 1.52.221 6.4.476 12.4 2.935-1.084 5.3-1.912 5.734-1.966.232-.029-.4 1.272-.498 1.487-.034.075-2.245.944-5.166 2.069.1 2.165.224 4.444.378 6.74.33 4.906.645 9.92.89 14.05q.499.045.97.082c2.999.233 7.608 0 7.693.395s-1.627 4.078-2.185 4.439c-.414.268-3.11.103-6.175.388.116 2.173.004 3.928 0 4.33-.027 2.38.022 4.525-.378 6.879a18.9 18.9 0 0 1-2.093 5.997c-.478.86-.024-8.166 0-10.389.025-2.223-.215-6.44-.215-6.44q-.277.055-.552.118c-3.356.764-6.216 2.234-9.297 3.696-4.605 2.184-9.747 6.55-14.2 1.139-1.648-2.002-1.419-6.485-1.419-6.485s-.71 3.216-2.138 4.579c-2.336 2.23-6.153 2.92-8.414.186-.936-1.133-.298-2.696-1.139-3.603-.603-.65-3.242 4.572-6.414 5.671-3.96 1.372-7.376 1.353-9.483-2.58-1.048-1.955-1.07-5.578-1.07-5.578s-.235 1.988-.604 3.208a13 13 0 0 1-1.022 2.533c-.807 1.58-4.913 4.992-8.577 7.53-5.48 3.797-14.323 9.357-20.732 4.021C.102 61.792-.66 54.344.497 49.421c.572-2.432 1.999-5.904 2.463-5.904.744 0-2.126 6.095-1.65 9.878.654 5.184 2.507 7.84 7.88 8.762 2.603.448 6.74-.816 10.365-2.65 6.206-3.137 13.18-8.645 13.806-10.667.284-.915.36-1.453.535-2.394.217-1.172.153-7.51 0-12.319-.166-5.2-.344-8.12-.883-13.294-.47-4.511-1.325-9.46-1.58-11.505-.073-.581.297-3.998 1.138-5.067.326-.414 1.302 3.254 2.278 9.227s1.27 16.145 1.72 24.288c.203 3.668.162 7.09.558 9.39.411 2.396 1.048 3.937 3.393 4.579 1.464.4 3.822-.201 5.671-.883 3.138-1.158 6.345-6.439 7.53-5.788.64.352-.51 2.099.256 3.556.767 1.458 1.103 2.028 2.743 1.976 3.342-.107 5.74-2.214 5.74-5.532 0-.953.186-7.539 0-12.365l-.012-.34v-.001c-.086-2.24-.154-4.007-.258-5.792-3.555 1.356-6.564 2.503-6.89 2.657-.34.16.301-1.216.593-1.658.112-.17 2.83-1.284 6.195-2.596a149 149 0 0 0-.348-4.1c-.485-4.97-1.743-10.181-1.743-12.667 0-2 .604-5.353 1.116-4.997.511.356.704 1.853 1.069 3.068.792 2.641.943 4.202 1.371 6.926.46 2.924.59 4.583.86 7.53.094 1.02.172 2.111.239 3.25 4.797-1.836 9.903-3.7 10.562-3.782.232-.03-.4 1.271-.498 1.487-.051.112-5.058 2.034-9.978 3.911.407 8.463.297 18.867.953 22.863.792 4.817 3.045 5.548 7.508 4.206 3.323-.999 8.832-4.206 8.832-4.206s-13.644-1.65-15.991-1.813c-.192-.014-.349-.349-.349-.349s.969-2.58 1.79-3.626c.474-.604 7.647-2.045 10.482-3.37.29-.135.592-.448.778-.663.123-.141.199-.314.23-.498.13-.753.453-2.954.317-5.649a632 632 0 0 0-.23-4.253c-1.783.682-3.038 1.167-3.243 1.263-.34.16.303-1.215.594-1.657.067-.102 1.057-.538 2.558-1.15a1690 1690 0 0 0-1.409-21.068s-.455-.323-.455-.842c0-.849 1.17-4.009 1.493-4.155.321-.146 2.45 5.195 3.481 8.807.127.442.221.784.221 1.253 0 .643-1.671-1.014-1.83-1.253 0 0-.233.1-.221.22.257 2.62.78 9.964 1.117 16.078a443 443 0 0 1 6.107-2.35L86.668 5.79s-.408-.793-.459-1.347c-.138-1.48 1.007-3.749 1.402-4.4m-9.647 43.033c2.631-2.536 3.588-7.287 3.588-10.901 0-.54.085-.706 0-2.717-.03-.672-.064-1.384-.102-2.124 1.904-.727 4.062-1.548 6.096-2.326l.39 8.538.658 11c-5.096-.583-10.63-1.47-10.63-1.47" fill="#000"/><path d="M65.854 4.117h3.387c.499.006 2.22.027 2.354.404.06.167-.404.432-.404.432-.984.52-3.906 2.1-4.943 2.874-.123.092-.045.22.102.177l3.52-1.03s.953-.236 1.644-.862c.81-.734 2.883-3.127 2.695-4.043-.215-1.051-5.38-.761-6.226-.701-1.166.538-1.739 1.58-2.129 2.75m15.507 62.135-1.84 3.46a.16.16 0 0 1-.226.06l-3.7-2.369a.16.16 0 0 1-.057-.2l1.612-3.444a.16.16 0 0 1 .22-.073c.82.439 2.82 1.43 3.954 2.373a.155.155 0 0 1 .037.193M50.14 73.811c.838-.394 19.318-7.323 19.416-7.539s.73-1.516.498-1.487c-1.27.158-19.03 6.927-19.32 7.37-.292.441-.935 1.816-.595 1.656m-6.895-7.186-.458.86 3.645 2.334c.078.05.182.022.225-.06l1.84-3.46a.155.155 0 0 0-.036-.193c-1.136-.942-3.135-1.934-3.954-2.372a.16.16 0 0 0-.22.072l-1.188 2.537.11.089a.155.155 0 0 1 .036.193" fill="#000"/><path d="m39.032 64.132-1.612 3.444a.16.16 0 0 0 .058.2l3.7 2.368c.078.05.182.023.225-.06l1.383-2.598-.055-.035a.16.16 0 0 1-.058-.2l.425-.908c-1.15-.916-3.051-1.859-3.844-2.284a.16.16 0 0 0-.222.073" fill="#000"/><path fill-rule="evenodd" clip-rule="evenodd" d="m23.6 27.294-1.318-1.025s.713-1.964.512-3.222c-.267-1.674-1.792-1.39-3.002-.512-.976.708-1.652 1.43-1.61 2.635.042 1.264 1.325 1.985 2.123 2.783l-1.904 1.83s-1.274 1.161-2.197 1.758c-1.9 1.226-4.781 3.001-6.319 3.587-.225.156-.218.28-.417.44 0 0 .448-.13.732-.22 4.017-1.268 8.229-3.788 10.983-7.03l1.611.88zm-3.954-3.149c-.449.78 1.24 1.404 1.684 1.611.124-.293.095-1.318 0-1.61-.096-.294-.197-.44-.513-.44-.315 0-.949.053-1.171.44" fill="#000"/></svg>