<svg width="100" height="87" viewBox="0 0 100 87" fill="none" xmlns="http://www.w3.org/2000/svg"><path d="M10.842 51.612c-.227.274-.54.642-.8.904-.574.581-1.216 1.622-2.203 1.217-.854-.35-1.099-2.872-1.16-3.653-.202-2.596.91-5.696 1.821-8.291a.105.105 0 0 0-.193-.084c-1.183 2.274-2.162 4.5-2.671 7.563-.193 1.16-.7 9.761 3.305 7.017 1.259-.863 1.797-3.05 2.11-4.575.024-.119-.132-.191-.21-.098m43.635-17.469 1.981-3.725a.17.17 0 0 0-.04-.207c-1.221-1.015-3.373-2.082-4.255-2.554a.173.173 0 0 0-.238.078l-1.735 3.707a.17.17 0 0 0 .062.216l3.983 2.549a.17.17 0 0 0 .242-.064M36.37 40.438l1.884-3.541a.16.16 0 0 0-.037-.198c-1.162-.964-3.208-1.979-4.047-2.428a.164.164 0 0 0-.226.075l-1.65 3.524a.16.16 0 0 0 .06.205l3.786 2.423a.16.16 0 0 0 .23-.06" fill="#000"/><path fill-rule="evenodd" clip-rule="evenodd" d="m71.973 17.365-1.698-1.324s.831-2.265.588-3.789c-.324-2.027-2.035-1.715-3.501-.652-.856.621-1.873 1.935-1.823 3.396.052 1.53 1.548 2.07 2.515 3.037L65.41 20.32c-1.75 1.083-4.436 2.822-6.666 4.115-2.113 1.225-3.822 2.09-3.822 2.45s6.435-2.221 6.435-2.221 4.437-2.248 7.774-6.173l1.665 1.143zm-4.788-3.814c-.544.944 1.5 1.7 2.04 1.951.15-.354.115-1.596 0-1.95-.117-.355-.24-.533-.622-.533-.381 0-1.149.064-1.418.532" fill="#000"/><path d="M65.816 3.52h-4.188c.482-1.447 1.19-2.734 2.632-3.4 1.045-.074 7.432-.433 7.698.867.233 1.133-2.33 4.092-3.332 4.999-.855.774-2.033 1.066-2.033 1.066l-4.352 1.273c-.181.053-.277-.105-.126-.218 1.283-.958 4.895-2.912 6.111-3.554 0 0 .573-.328.5-.534-.167-.466-2.294-.492-2.91-.5M47.927 20.453h-3.882c.447-1.34 1.104-2.534 2.44-3.15.97-.07 6.89-.402 7.137.802.215 1.05-2.16 3.794-3.09 4.634-.792.718-1.884.989-1.884.989l-4.034 1.18c-.168.05-.258-.097-.117-.202 1.189-.888 4.538-2.7 5.665-3.295 0 0 .532-.304.464-.494-.155-.433-2.127-.457-2.699-.464m11.335 49.893c-.095.225-17.614 7.782-18.468 8.212-.346.175.278-1.261.566-1.725s17.07-7.836 18.374-8.035c.239-.036-.377 1.323-.472 1.548m22.309-37.162c-.288.464-.912 1.9-.566 1.726.436-.22 5.202-2.291 9.783-4.3l.385 5.374 1.402 25.526c-.055 2.416-.626 12.9.078 11.67 1.161-2.033 1.534-3.898 1.94-6.133.466-2.554.544-5.035.603-7.622.029-1.253-.614-13.644-1.213-24.557a373 373 0 0 0-.348-5.508c3.222-1.42 5.802-2.577 5.838-2.663.096-.225.711-1.584.473-1.547-.496.075-3.222 1.184-6.43 2.557-.383-5.2-.838-10.395-1.23-15.597-.01-.142.263-.252.263-.252.178.283 3.218 3.326 3.235 2.579.012-.546-.089-.946-.224-1.464-.984-3.764-4.225-11.25-4.926-12.85a.173.173 0 0 0-.31-.016c-.802 1.348-1.967 3.59-1.967 5.306 0 .625.863 3.363.863 3.363l1.448 20.164c-4.495 1.966-8.95 4.007-9.097 4.244" fill="#000"/><path fill-rule="evenodd" clip-rule="evenodd" d="M33.589 46.573s-5.012 3.978-6.937 7.423c-1.553 2.778-3.275 6.918-2.318 8.951 1.444 3.068 4.43 3.724 7.433 4.365 5.114 1.09 9.228 1.55 4.91 4.57-6.733 4.706-18.248 10.999-26.391 9.068-11.294-2.677-8.484-15.18-4.91-23.458.078-.18.068-.273 0-.341-.068-.069-.546 0-.546 0-3.343 6.614-7.027 16.021-3.205 23.186 1.402 2.628 3.096 4.569 5.66 5.114 4.791 1.02 8.743 1.058 13.65-.671 7.16-2.524 14.246-6.925 18.337-10.812 1.617-1.536 1.844-4.702 1.701-6.861 0-3.75-6.876-4.558-10.775-5.66-1.48-.643-4.656-.988-3.546-3.485 1.311-2.95 6.937-8.277 10.025-7.327 1.419.437 2.582 4.352 3.994 5.35 1.688 1.195 2.995 1.501 5.062 1.555 4.133.107 8.317-2.852 11.366-5.328 4.351 4.107 7.906 5.524 13.054 4.995 3.522-.362 8.37-3.486 8.37-3.486s1.537 3.009 3.24 4.174 3.13 2.234 5.062 1.51c2.033-.763 2.46-2.67 2.775-4.818.429-2.915-.226-5.538-2.775-7.015-2.3-1.334-6.793.466-6.793.466s-1.313-6.457-1.91-10.634c-1.504-10.536-1.398-27.217-1.398-27.217s1.5 2.3 2.509 1.687c.51-.311-4.01-12.416-4.352-11.855-1.443 2.375-1.784 4.04-1.62 5.084.122.777.644 1.909.644 1.909s.022 17.654 1.465 28.838c.677 5.247 2.22 13.365 2.22 13.365s-2.972 2.134-5.173 2.775c-2.343.682-3.874.985-6.238.377-1.94-.498-4.485-2.486-4.485-2.486s5.284-1.843 6.75-2.753c.443-.276 2.02-3.153 2.02-3.885 0-.858-3.5-2.346-6.194-2.927-3.486-.752-5.836-.984-9.502-.603-3.188.331-7.326 1.08-8.014 1.776-1.2 1.214-2.433 4.64-2.176 4.973s1.12-.382 1.865-.489c3.064-.436 5.63 1.25 7.681 3.441 0 0-3.026 2.258-5.306 2.798-3.537.838-5.684.357-7.68-2.798-.366-.576-.8-1.553-.8-1.553-1.773-2.66-4.158-3.47-6.749-1.288m25.13-2.598c-1.538-.13-3.951.178-3.951.178l3.64 3.108 4.53-2.309s-2.534-.833-4.218-.977m26.752 8.392c-.999-.377-3.308.244-3.308.244s.987.879 1.443 1.31c.56.53 3.312 1.688 3.397.2.044-.77-.378-1.318-1.532-1.754" fill="#000"/></svg>