<svg width="100" height="72" viewBox="0 0 100 72" fill="none" xmlns="http://www.w3.org/2000/svg"><path d="m64.947 28.272 1.926-3.62a.16.16 0 0 0-.038-.202c-1.188-.987-3.28-2.024-4.137-2.483a.17.17 0 0 0-.231.076l-1.687 3.604a.166.166 0 0 0 .061.21l3.87 2.477c.082.052.19.023.236-.062M45.877 65.14l1.925-3.62a.16.16 0 0 0-.038-.202c-1.188-.987-3.28-2.024-4.137-2.483a.17.17 0 0 0-.23.076l-1.687 3.603a.166.166 0 0 0 .06.21l3.871 2.477c.081.053.19.024.236-.061" fill="#000"/><path d="m51.26 64.452 1.926-3.62a.16.16 0 0 0-.039-.202c-1.188-.986-3.28-2.023-4.136-2.482a.17.17 0 0 0-.231.076l-1.687 3.603a.166.166 0 0 0 .06.21l3.871 2.477c.082.052.19.024.236-.062m11.225-1.947 1.925-3.62a.16.16 0 0 0-.038-.202c-1.188-.986-3.28-2.023-4.136-2.482a.17.17 0 0 0-.232.076l-1.686 3.603a.166.166 0 0 0 .06.21l3.871 2.477c.082.052.19.024.236-.062" fill="#000"/><path fill-rule="evenodd" clip-rule="evenodd" d="m42.954 18.716-1.42-1.105s.769-2.117.552-3.473c-.289-1.804-1.932-1.498-3.236-.552-1.053.763-1.781 1.541-1.737 2.841.047 1.362 1.429 2.14 2.29 3L37.35 21.4s-1.373 1.252-2.368 1.894c-2.048 1.323-5.154 3.236-6.812 3.868-.243.168-.236.302-.45.473 0 0 .483-.14.79-.237 4.33-1.367 8.87-4.083 11.84-7.577l1.736.947zm-4.262-3.394c-.483.84 1.336 1.513 1.815 1.736.134-.315.103-1.42 0-1.736s-.212-.473-.552-.473-1.023.056-1.263.473" fill="#000"/><path d="M69.715 3.604h-4.312C65.9 2.115 66.63.79 68.114.104 69.19.029 75.766-.34 76.04.998c.24 1.166-2.4 4.213-3.431 5.147-.88.797-2.093 1.098-2.093 1.098l-4.481 1.31c-.187.055-.286-.108-.13-.224 1.32-.986 5.04-2.998 6.292-3.66 0 0 .59-.337.515-.549-.172-.48-2.362-.507-2.997-.515m2.505 11.101c-.113.247-18.748 7.154-19.71 7.607-.39.183.347-1.395.681-1.902s18.143-7.23 19.6-7.41c.266-.034-.458 1.458-.571 1.705m2.642 49.597c-.112.247-18.747 7.154-19.71 7.606-.39.184.347-1.394.682-1.9.334-.508 18.143-7.23 19.6-7.412.266-.033-.459 1.459-.572 1.706" fill="#000"/><path d="M77.487 4.982c-.17-.63 1.174-4.008 1.632-4.552.288-.343 3.522 7.989 3.98 9.993.118.512.253.885 0 1.346-.252.46-2.09-1.776-2.09-1.776l.373 10.738s.039 4.325-.516 7.016c-.377 1.83-.486 2.938-1.374 4.581-.572 1.057-1.804 2.492-1.804 2.492s5.974.87 9.821 1.26a82 82 0 0 0 3.966.279l-.27-5.679-.129-1.98c-3.505 1.348-6.868 2.634-7.254 2.814-.336.157.335-1.275.634-1.732.138-.21 3.162-1.46 6.51-2.763L89.715 7.774s-.658-2.306-.658-2.832c0-1.444.889-3.332 1.501-4.467.056-.104.193-.098.237.013.535 1.348 2.894 6.795 3.645 9.964.103.436.18.773.17 1.232-.012.63-2.067-1.538-2.203-1.776 0 0-.21.092-.201.211.357 5.214.68 10.727.962 16.056 3.226-1.224 6.239-2.298 6.786-2.352.227-.022-.432 1.331-.535 1.555-.045.099-2.904 1.221-6.164 2.481l.096 1.881c.103 2.08.214 4.385.322 6.718 3.469.143 6.472.22 6.15.452-.945 2.777-1.775 3.894-2.32 4.467-.162.172-1.868-.052-3.063 0l-.542.025c.275 6.163.492 11.515.479 12.161-.045 2.178-.105 4.267-.46 6.417-.31 1.882-.595 3.452-1.481 5.164-.537 1.036-.102-7.791-.06-9.826l-.653-13.742c-.782.093-1.565.226-2.552.43-2.721.565-4.145 1.285-6.758 2.234-5.16 1.875-9.077 5.555-12.914 5.555-2.172 0-3.346-1.178-4.123-3.207-.238-.62 0-1.832-.372-2.004-1.165-.537-3.952 5.537-8.047 6.128-2.902.418-4.352.945-7.302-1.747-1.317-1.203-1.46-5.641-1.918-9.077-.23-1.727-.487-5.555-1.632-5.555-.802 0-.728 3.916-2.12 5.956-1.288 1.89-3.607 1.374-3.607 1.374s0 4.983-.544 7.875-1.703 4.314-3.894 6.099c-4.782 3.894-8.677 5.612-14.089 8.705l-.078.045c-.93.532-1.495.854-2.556 1.129-5.756 1.489-9.077 2.176-14.833 3.436-1.64.36-2.587.544-4.266.544-.945 0 4.078-1.933 6.7-3.15 7.478-3.47 12.17-4.435 18.956-8.647 5.398-3.35 11.511-6.758 12.857-9.937 1.265-2.988-2.548-8.819-2.548-10.05 0-1.79 1.092-4.161 1.202-4.381.373-.745.95 2.024 1.976 2.777 1.104.81 1.905 1.045 3.179.544 2.405-.945 2.118-1.918 2.462-3.035.575-1.87-.114-4.467 1.403-4.84 1.38-.338 1.863 2.62 2.434 4.554.745 2.52 1.06 9.077 1.976 10.623s2.394 2.205 4.41 2.205c3.55 0 5.526-1.919 7.158-3.207 1.748-1.38 3.915-4.353 4.439-3.58.523.774-.212 2.046.257 3.208.483 1.195.713 1.709 1.89 2.233.716.319 3.45-.436 5.47-1.088 3.07-.992 7.444-3.58 7.444-3.58s-4.527-.736-7.445-1.088c-3.288-.396-8.205-.615-8.447-.773s-.312-.138-.515-.343 1.451-3.265 1.832-3.78 6.443-1.833 8.763-2.778c1.098-.447 2.49-.658 2.72-2.09.307-1.922.094-10.851-.315-17.696-.132-2.205-.401-5.641-.401-5.641s-.358-.5-.487-.974" fill="#000"/></svg>