<svg width="100" height="71" viewBox="0 0 100 71" fill="none" xmlns="http://www.w3.org/2000/svg"><path fill-rule="evenodd" clip-rule="evenodd" d="M38.727 44.434c-1.073.233-2.807 0-2.807 0 .181 4.72-.022 8.887-3.296 12.375C22.808 67.268-1.086 70.802.038 51.246c.143-2.476 1.404-6.187 1.404-6.187h.488s-.388 2.659-.488 4.375c-.44 7.53 4.036 12.25 11.9 12.124 2.173-.034 3.391-.36 5.491-.937 5.73-1.575 16.678-6.281 15.622-13.624-.318-2.215-1.737-4.096-2.319-6.25l1.099-3.687c.697 0 1.571 2.54 2.685 2.937 3.476 1.091 7.49-.632 9.18-3.77 1.58-2.94 4.212-9.942 8.872-8.04 3.028 1.236 3.773 9.102 1.275 11.275-1.678 1.459-4.596.163-6.324-.637-1.215-.563-2.941-1.765-2.941-1.765s-1.122 2.594-2.255 3.97l-.03.037c-.965 1.171-1.56 1.895-2.912 2.61l-.006.005c-.752.398-.983.52-2.052.752m9.755-11.296c1.763-2.137 5.465-.6 5.147 2.255-2.179.1-4.039-.248-5.147-2.255" fill="#000"/><path fill-rule="evenodd" clip-rule="evenodd" d="M60.698 43.31c-.899 3.708.933 5.472 4.367 5.78.23.02.515.028.831.037 1.546.043 3.838.107 4.075 1.761.564 3.95-18.382 11.829-21.392 13.562-.635.365-14.852 6.538-14.852 6.538 6.353-.261 18.243-3.632 18.243-3.632s15.214-7.999 18-12.431c.998-1.588 1.534-3.982 1.511-6.416l5.776-2.527c1.234 2.04 2.948 4.672 5.54 4.902 4.18.371 5.251-5.298 3.627-8.334-1.646-3.077-4.987-2.615-7.843-1.421 0 0-.461-1.483-.687-2.451-.495-2.126-.48-3.373-.735-5.54-.212-1.796-.543-3.701-.674-5.138 4.1-1.51 9.053-3.45 13.3-5.16l2.081 26.762c0 1.933-.266 10.327.275 9.33.891-1.646 1.155-3.144 1.44-4.94.326-2.05.343-4.035.343-6.105 0-1.077-.705-10.513-1.44-19.912l-.11-1.422-.365-4.614c4.202-1.714 7.281-3.034 7.346-3.164.204-.407.956-1.318.5-1.274-.771.073-3.933 1.195-7.982 2.737-.448-5.592-.83-10.197-.967-11.594-.012-.113.206-.205.206-.205.147.222 1.92 1.764 1.92 1.166 0-.436-.088-.755-.205-1.166C91.867 5.077 89.465 0 89.465 0c-.612 1.05-1.643 2.145-1.51 3.43.05.48.412 1.167.412 1.167l1.283 16.495a812 812 0 0 0-13.165 5.248c-.156-1.997-.278-3.997-.404-5.996-.228-3.615-.405-5.643-.442-9.265a177 177 0 0 1 0-2.282c0-.085.1-.128.163-.072l1.357 1.226c.98 0 .323-1.318.147-1.863C76.365 5.183 74.653.826 74.478.38a.1.1 0 0 0-.055-.052L73.909.13a.1.1 0 0 0-.123.049c-.84 1.744-1.112 3.426-.892 5.36l.441.932 1.03 17.893.246 2.747c-3.366 1.398-5.726 2.448-5.892 2.68-.593.831-1.38 1.677-.706 1.388.466-.2 3.118-1.183 6.695-2.502l1.52 13.481-5.28 2.519c-.546-1.9-1.525-3.535-2.993-4.45-3.18-1.983-6.358-.631-7.257 3.082m6.486 1.476c-.63-.973-1.55-2.101-2.783-2.131-.639-.016-1.696.052-1.905.847-.611 2.331 3.528 1.514 4.662 1.29zm17.377 1.049c-.063-1.664-3.213-1.291-4.167-1.079.682 1.076 2.031 1.829 3.334 1.667.428-.053.854-.037.833-.588" fill="#000"/><path d="M39.829 52.783c.72-.308 13.426-4.91 13.514-5.087s.66-1.046.462-1.028c-1.079.103-13.462 4.985-13.72 5.344-.256.36-.548.896-.256.771M58.86 38.31l4.882-3.34c.345-.375.478-.776.462-1.285-.616.154-1.225 1.118-2.106 1.284-.575.109-1.115.024-1.593-.308-.928-.642-.667-1.186.256-1.49.34-.112.581-.135.874.103.405.329.493.61.822-.103.687-1.486-.937-2.071-2.055-1.182-.672.534-1.45 1.767-1.542 2.672-.08.78.101 1.13.822 1.49l.257.052c-.54.432-1.284 1.49-1.079 2.106m-1.113-11.216h2.906a9.5 9.5 0 0 1 2.016.237c0 1.111-3.44 2.372-4.033 2.787s-.355.415-.355.415 2.768-.37 4.091-1.364c1.224-.92 2.052-2.329 2.728-3.676-.206-.413-.427-.502-.89-.653-1.386-.451-3.023-.338-4.447-.237-.833.384-1.395.904-1.779 1.78-.118.267-.237.71-.237.71" fill="#000"/><path fill-rule="evenodd" clip-rule="evenodd" d="m69.316 15.252-1.244-.967s.674-1.853.484-3.04c-.253-1.58-1.691-1.312-2.833-.484-.921.669-1.558 1.35-1.52 2.487.041 1.193 1.25 1.873 2.004 2.626L64.41 17.6s-1.202 1.095-2.073 1.658c-1.792 1.157-4.512 2.832-5.962 3.385-.213.147-.207.265-.394.415 0 0 .422-.123.69-.208 3.79-1.196 7.765-3.574 10.364-6.632l1.52.83zm-3.73-2.97c-.424.734 1.168 1.323 1.588 1.519.117-.276.09-1.244 0-1.52s-.186-.414-.484-.414c-.297 0-.895.05-1.105.414" fill="#000"/><path d="M63.433 2.974h2.906a9.5 9.5 0 0 1 2.016.237c0 1.112-3.44 2.372-4.032 2.788s-.356.415-.356.415 2.769-.37 4.092-1.364c1.223-.92 2.052-2.329 2.727-3.677-.206-.413-.427-.502-.89-.652C68.512.269 66.875.382 65.45.484c-.832.384-1.395.904-1.779 1.779a7 7 0 0 0-.237.711" fill="#000"/><path fill-rule="evenodd" clip-rule="evenodd" d="m20.197 28.193-1.244-.967s.674-1.853.484-3.04c-.253-1.58-1.691-1.311-2.833-.483-.921.668-1.558 1.35-1.52 2.487.04 1.192 1.25 1.872 2.004 2.625l-1.797 1.727S14.09 31.638 13.22 32.2c-1.792 1.158-4.512 2.833-5.963 3.386-.212.147-.206.264-.393.414 0 0 .422-.122.69-.207 3.79-1.197 7.765-3.575 10.364-6.632l1.52.829zm-3.731-2.97c-.423.735 1.17 1.324 1.589 1.52.117-.277.09-1.244 0-1.52-.09-.277-.186-.415-.484-.415-.297 0-.895.05-1.105.415" fill="#000"/><path d="m20.67 39.918-1.757 3.302a.15.15 0 0 1-.215.056l-3.53-2.259a.15.15 0 0 1-.055-.191l1.538-3.286a.153.153 0 0 1 .21-.07c.782.419 2.69 1.365 3.773 2.264a.15.15 0 0 1 .035.184" fill="#000"/></svg>