<svg width="100" height="85" viewBox="0 0 100 85" fill="none" xmlns="http://www.w3.org/2000/svg"><path fill-rule="evenodd" clip-rule="evenodd" d="M23.362 10.18 21.79 8.957s.851-2.342.611-3.843c-.319-1.997-2.137-1.658-3.58-.611-1.166.845-1.972 1.706-1.923 3.144.052 1.508 1.582 2.367 2.534 3.32L17.16 13.15s-1.52 1.385-2.62 2.096c-2.267 1.464-5.705 3.581-7.54 4.28-.268.186-.26.334-.497.524 0 0 .534-.155.874-.262 4.791-1.513 9.816-4.52 13.102-8.385l1.921 1.048zm-4.717-3.756c-.535.93 1.479 1.674 2.01 1.922.147-.35.113-1.572 0-1.922-.115-.349-.236-.524-.612-.524s-1.132.063-1.398.524M56.56 55.547c.128-.258.962-1.528.675-1.5-.516.049-3.072.918-6.287 2.084-.144-3.472-.317-7.963-.536-12.954q.29-.261.6-.574c.977-.979 1.94-2.962 1.94-2.962s.52.84.92 1.328c1.244 1.523 2.892 2.568 4.904 2.094 3.236-.762 4.989-5.303 4.853-8.275-.035-.759-.46-3.674-1.38-3.219-.242.12-.259.336-.408.562-.56.852-.949 1.385-1.022 2.401-.069.96.113 1.67.818 2.35-.647.996-1.745 1.231-2.861 1.124-1.6-.154-3.428-1.37-3.525-3.116-.052-.957.756-1.726.664-2.81 0 0-.422-.092-.664 0-1.379.528-2.498 4.45-4.24 5.926-.24.204-.513.39-.81.559-.431-9.098-1.018-19.232-1.85-27.694-.014-.142.259-.259.259-.259.186.28 2.416 2.22 2.416 1.467 0-.548-.111-.949-.26-1.467C49.56 6.385 46.54 0 46.54 0c-.77 1.32-2.066 2.697-1.898 4.314.063.604.518 1.467.518 1.467l2.039 33.744c-1.218.16-2.454.078-3.44-.293-1.008-.38-2.052-1.26-2.504-2.248-.334-.731-.335-1.243-.255-2.043.07-.697.393-1.268.358-1.992-1.705-.853-5.257 4.41-6.794 5.568C31.83 40.575 27.6 40.97 24.295 40.1c-1.943-.511-3.728-1.092-5.108-2.605l6.691-3.27 1.737-4.443c-1.763-3.255-7.693-3.62-11.085-3.934-4.938-.456-9.747.254-13.945 2.963-.982 1.644-1.669 3.504-1.278 5.415.756-.293 1.437-.75 2.197-1.022.62-.221.979-.459 1.635-.409 2.608.201 5.08 2.853 6.998 4.496v.766c-3.099 2.79-5.607 6.06-7.778 9.604 0 0-.744-.247-1.213-.154-.185.037-.332.014-.46.154-.276.304.631 1.017.87 1.226-1.504 3.782-2.88 7.733-3.321 11.8-.54 4.985-.317 11.007 2.503 15.376 2.81 4.353 7.667 5.848 12.566 5.977 5.615.147 10.833-1.95 15.12-5.466 4.334-3.554 7.737-8.313 8.736-13.895q.075-.414.134-.836c2.668-.953 6.018-2.147 9.057-3.238l.072 1.198c0 2.431-.334 12.988.345 11.734 2.347-4.332 2.447-9.156 2.243-13.891zM34.34 63.64c-.425.182 0-.6.376-1.125.09-.126 1.33-.665 3.189-1.416-.044-1.468-.62-2.614-1.555-3.733-2.955-3.537-8.071-3.363-12.26-3.626-2.999-.19-6.065-.034-9.041-.511-3.236-.52-6.56-1.857-9.45-3.372-1.726 3.2-3.093 6.647-3.576 10.268-.362 2.707-.38 5.553.46 8.173 1.058 3.307 3.109 5.496 6.283 6.999 3.594 1.7 7.8 1.95 11.698 1.277 3.976-.687 8.003-2.885 11.187-5.262 2.618-1.955 6.78-5.229 6.354-9.007-2 .716-3.411 1.226-3.664 1.335m5.024-24.766c.189.246.124.468.205.767.388 1.434.625 3.081 1.788 4.137 1.556 1.415 4.227 1.48 6.157.977l.747 12.362a465 465 0 0 0-8.82 3.368c.157-2.154-.068-4.345-1.047-6.286-1.38-2.737-3.268-3.43-6.08-4.24-4.618-1.33-9.276-.843-13.996-1.021-2.278-.087-3.551-.22-5.823-.409-2.277-.19-5.824-.562-5.824-.562 1.177-1.891 2.566-3.354 4.24-4.802 1.41-1.219 3.78-2.911 3.78-2.911 2.035 1.696 4.225 3.331 6.692 4.342 2.479 1.015 5.26 1.578 7.918 1.021 1.928-.403 3.744-1.36 5.262-2.605.69-.566 3.959-5.237 4.801-4.138M15.05 31.06l-2.963.306 2.043 1.584 1.686 1.634h.358l.817-.613 2.912-1.839-.97-.562-1.125-.255z" fill="#000"/><path fill-rule="evenodd" clip-rule="evenodd" d="M62.775 53.286c-1.017 4.195 1.056 6.19 4.94 6.538.26.023.582.032.94.042 1.748.05 4.34.122 4.608 1.993.638 4.468-20.791 13.379-24.196 15.34-.718.413-16.8 7.395-16.8 7.395 7.186-.296 20.635-4.109 20.635-4.109s17.21-9.047 20.361-14.06c1.154-1.836 1.761-4.625 1.706-7.44 1.103-.121 1.857-.53 2.708-1.21 3.715-2.964 5.336-8.75 5.772-13.23.147-1.51 0-3.883 0-3.883-.215-2.44-.402-4.986-.578-7.59 2.42-.892 5.041-1.859 7.455-2.756l1.827 33.657c-.058 2.488-.652 13.287.073 12.02 1.198-2.093 1.582-4.014 2.003-6.316.48-2.63.563-5.185.625-7.85.033-1.386-.591-13.555-1.254-25.677q-.17-3.102-.33-6.205l-.038-.713c3.342-1.252 5.785-2.195 5.837-2.3.163-.326 1.22-1.935.855-1.9-.63.06-3.352 1.003-6.793 2.286-.283-5.37-.582-10.74-.983-16.1-.01-.147.271-.26.271-.26.184.292 2.42 2.33 2.438 1.56.013-.562-.09-.975-.23-1.508C93.492 6.654 90.553.046 90.553.046c-.82 1.333-2.18 2.711-2.046 4.37.05.62.495 1.514.495 1.514l1.22 22.488a493 493 0 0 0-7.466 2.928c-.444-6.769-.84-13.85-1.486-20.412-.014-.143.26-.26.26-.26.187.281 2.43 2.231 2.43 1.475 0-.552-.111-.955-.26-1.475C82.485 6.42 79.448 0 79.448 0c-.775 1.328-2.079 2.713-1.91 4.339.064.607.521 1.475.521 1.475l1.733 26.738c-2.975 1.227-5.105 2.166-5.246 2.364-.475.666-1.015 1.657-.475 1.426.393-.169 2.728-1.033 5.826-2.174l.59 9.1c.296 3.549.116 10.617-4.853 11.187-.454.052-.923 0-1.38 0-.636-1.986-1.708-3.682-3.27-4.656-3.598-2.242-7.192-.714-8.21 3.487m7.337 1.67c-.713-1.1-1.754-2.376-3.149-2.41-.722-.018-1.919.059-2.154.958-.691 2.637 3.99 1.712 5.273 1.459z" fill="#000"/><path d="M54.918 27.474c1.05-.45 19.597-7.167 19.725-7.425.129-.257.963-1.527.675-1.5-1.575.15-19.65 7.275-20.025 7.8s-.8 1.308-.375 1.125M65.06 7.956h4.238c1 .012 1.968.123 2.942.346 0 1.621-5.018 3.46-5.883 4.066s-.52.606-.52.606 4.04-.54 5.97-1.99c1.786-1.343 2.994-3.398 3.98-5.364-.301-.602-.624-.732-1.298-.952-2.022-.658-4.41-.494-6.488-.346-1.215.561-2.036 1.32-2.596 2.596-.171.391-.346 1.038-.346 1.038" fill="#000"/></svg>