<svg width="100" height="79" viewBox="0 0 100 79" fill="none" xmlns="http://www.w3.org/2000/svg"><path d="M99.928 33.642c.338-.033-.641 1.459-.792 1.761-.041.083-1.7.733-4.114 1.644.903 11.563 1.144 15.19 1.144 16.514 0 2.546-.264 5.39-.664 7.912-.347 2.186-1.372 4.078-2.457 6.08l-.033.062c-.664 1.226.387-4.151.387-6.53L92.208 38.44c-2.567.957-5.265 2.24-7.938 3.225l-2.048.941v-.94l.72-.941 1.27-.677c2.59-1.04 5.247-2.373 7.86-3.362l-2.187-30.7s-.445-.843-.506-1.434c-.165-1.582 1.103-2.929 1.856-4.22 0 0 2.954 6.245 4.136 10.38.144.507.683 2.142.683 2.678 0 .736-2.611-2.404-2.793-2.678 0 0-.267.114-.253.254.23 2.336 1.086 14.27 1.876 24.332 2.582-.948 4.538-1.608 5.043-1.657M61.177 4.248h-3.411s.14-.52.278-.835c.451-1.027 1.111-1.637 2.089-2.088 1.671-.12 3.593-.252 5.22.278.543.177.802.281 1.045.766-.794 1.582-1.766 3.236-3.202 4.316-1.553 1.167-4.804 1.6-4.804 1.6s-.278 0 .418-.486c.696-.488 4.734-1.968 4.734-3.272a11 11 0 0 0-2.367-.279" fill="#000"/><path fill-rule="evenodd" clip-rule="evenodd" d="m20.29 5.907-1.345-1.046s.729-2.005.523-3.289C19.195-.136 17.64.153 16.404 1.05c-.997.723-1.687 1.46-1.645 2.69.044 1.29 1.353 2.026 2.168 2.841L14.984 8.45s-1.3 1.185-2.243 1.793c-1.939 1.253-4.88 3.065-6.45 3.663-.23.159-.223.286-.426.448 0 0 .457-.132.748-.224 4.1-1.295 8.399-3.867 11.21-7.175l1.645.897zm-4.036-3.214c-.457.796 1.265 1.433 1.72 1.645.126-.3.097-1.346 0-1.645-.098-.299-.202-.448-.524-.448s-.968.054-1.196.448" fill="#000"/><path d="m41.713 17.932 2.349-4.416a.2.2 0 0 0-.047-.246c-1.45-1.203-4-2.468-5.046-3.028a.205.205 0 0 0-.282.093L36.63 14.73a.2.2 0 0 0 .074.256l4.721 3.021c.1.064.232.03.288-.075" fill="#000"/><path fill-rule="evenodd" clip-rule="evenodd" d="M50.573 52.62c.136-.29 1.033-1.732.713-1.693-.82.098-2.495.913-7.413 2.964a16 16 0 0 0-.42-4.417c-1.848-7.678-9.49-7.799-16.144-8.297-4.455-.333-6.973-.141-11.435-.373-2.863-.149-5.557.025-8.316-.832a.147.147 0 0 1-.07-.233c2.542-3.163 5.398-5.857 8.66-8.28a.15.15 0 0 1 .19.009c1.556 1.402 3.277 2.707 5.08 3.778 5.327 3.165 11.159 3.824 15.765-.664 1.747-1.703 3.1-5.027 5.588-5.699.091 1.804-.34 3.49-1.058 5.146h.45c2.853-3.405 5.145-14.774-.996-9.041-3.535 3.299-6.82 7.922-12.49 6.471-2.739-.414-5.485-.788-7.303-2.921a.148.148 0 0 1 .044-.227l7.193-3.778a.15.15 0 0 0 .065-.068l1.97-4.16a.15.15 0 0 0 .006-.113l-.41-1.166a.15.15 0 0 0-.06-.075c-4.242-2.805-8.492-3.75-13.56-3.784-4.964-.034-10.007.768-13.903 4.11L1.3 24.81s1.318-.836 2.242-1.196c1.459-.568 2.343-.557 3.812 0 2.257.855 4.162 2.711 5.79 4.442.026.027.04.064.04.102v.916a.15.15 0 0 1-.054.116c-3.41 2.834-5.796 6.542-8.168 10.27H3.233a.3.3 0 0 0-.23.107l-.03.037c-.127.152-.075.387.096.488.274.162.63.418.771.713.092.192.15.523.15.523S.51 51.112.178 54.855c-.415 4.69-.223 9.984 1.869 14.276 3.596 7.382 11.848 9.981 19.507 8.52 6.846-1.304 13.27-5.611 17.415-11.136 2.361-3.146 4.186-6.93 4.743-10.867 5.095-2.027 6.795-2.888 6.86-3.028M34.25 59.37c-.47.216-.016-.67.388-1.266.194-.286 2.512-1.38 7.549-3.505-.221-1.56-.982-3.088-2.395-4.527-5.922-6.029-16.55-2.865-24.217-4.485-3.397-.718-6.48-1.805-9.418-3.662 0 0-1.552 3.271-2.317 5.456-1.583 4.526-2.606 9.673-1.42 14.425 1.182 4.738 4.38 7.835 8.895 9.343 9.567 3.195 21.086-1.025 27.654-8.371 1.867-2.088 3.059-4.324 3.257-6.54-4.981 1.978-7.43 2.883-7.976 3.133M21.906 22.44c-2.155-1.506-5.57-1.327-8.33-.972-.136.017-.177.196-.062.273a48 48 0 0 1 4.227 3.227.15.15 0 0 0 .165.02 50 50 0 0 0 3.992-2.307.144.144 0 0 0 .008-.24M50.242 41.22c-.301.464-.636 1.152-.278.979.27-.13 1.917-.825 4.078-1.734.044 1.884.1 3.762.183 5.63.212 4.784-.36 11.044 1.27 15.655 3.183 8.997 13.85 4.885 19.59 1.106.52 1.072 1.07 2.133 1.77 3.099 1.91 2.635 5.9 5.489 9.24 3.541 2.234-1.302 2.56-4.333 2.546-6.64-.036-5.895-3.826-8.614-9.185-7.359-.839.197-2.103.664-2.103.664l-.498-.664c-2.14-8.118-2.659-16.941-3.209-25.286-.417-6.32-.478-9.878-.498-16.212-.002-.735 0-1.881 0-1.881l1.217.94 1.439.94.277-.22C75.246 9.003 73.004 4.37 70.99 0h-.278l-1.715 4.98s.445 1.536.609 2.545c.143.879.221 2.269.221 2.269-.019 14.116 1.013 27.849 3.099 41.775.326 2.177.83 5.576.83 5.576-1.162 1.396-2.6 2.226-4.594 2.978-4.652 2.094-9.379 2.267-11.496-2.954l-.008-.024c-1.005-4.576-1.372-10.937-1.533-17.557 4.714-1.983 10.406-4.385 10.467-4.52.1-.226.766-1.348.52-1.313-.796.112-6.464 2.548-11.015 4.612-.151-7.253-.09-14.705-.378-20.376-.223-4.788-.678-9.713-2.242-14.276-.067-.194-1.518-3.421-1.754-2.565l-1.15 4.17a.14.14 0 0 0-.001.078c.111.412 1.101 4.092 1.56 6.539 1.673 8.943 1.686 18.232 1.883 27.384-2.129.989-3.68 1.753-3.774 1.899m29.36 20.44c-.083-.118-.01-.272.132-.3 1.493-.294 4.588-.66 5.31.833 1.29 2.665-4.131 1.299-5.441-.534" fill="#000"/></svg>