<svg width="100" height="54" viewBox="0 0 100 54" fill="none" xmlns="http://www.w3.org/2000/svg"><path fill-rule="evenodd" clip-rule="evenodd" d="M54.77 6.602s1.734 3.904 2.404 6.478c.083.315.144.559.136.89-.01.455-1.332-.749-1.44-.921 0 0-.166.067-.16.153.108 1.447.782 7.128 1.123 13.36l.209 3.08-.366 3.913-.365 3.555c3.47-3.1 10.416-10.82 15.134-5.59 2.585 2.865 1.92 5.509-.522 8.089-.807.853-2.348 1.879-2.348 1.879 3.439.059 8.877-1.058 10.28-4.801.314-.835-.012-6.501-.365-10.646-.308-3.625-1.2-9.237-1.2-9.237l.626-3.08.418-.536s.518 2.067.783 3.407c.4 2.021.54 3.172.782 5.218.212 1.785.267 2.792.418 4.583.512 6.087.94 15.614.94 15.614.67 2.464 2.428 4.082 4.957 2.974 1.659-.726 2.35-2.09 2.192-3.862l-.949-13.666-.135-1.74c-1.288.475-2.202.816-2.386.895-.314.134 0-.442.276-.829.065-.09.856-.453 2.041-.954L86.06 9.468s-.269-.51-.306-.867c-.1-.955.666-1.768 1.121-2.548 0 0 1.784 3.771 2.497 6.268.088.306.153.543.153.867 0 .444-1.317-.701-1.427-.867 0 0-.16.07-.152.153.126 1.284.53 6.214.961 11.67a277 277 0 0 1 4.78-1.893l-.94-12.075s-.275-.522-.313-.887c-.102-.978.682-1.811 1.148-2.61 0 0 1.827 3.862 2.557 6.42.09.312.157.555.157.886 0 .456-1.349-.717-1.461-.887 0 0-.165.07-.157.157.1 1.023.374 4.31.698 8.35 2.293-.864 4.176-1.527 4.58-1.566.213-.02-.401.915-.496 1.105-.034.067-1.751.724-3.996 1.562.108 1.343.22 2.75.33 4.171l.085 1.082c.56 7.15 1.095 14.328 1.095 15.147 0 1.574-.013 3.084-.26 4.644-.217 1.365-.418 2.505-1.096 3.758-.411.758-.21-5.627-.21-7.098L93.77 23.336c-1.44.534-2.967 1.097-4.34 1.603l-.447.165.053.673.083 1.056c.545 6.982.814 11.976.814 12.776.083 1.496-.074 2.919-.587 4.331-.516 1.424-.931 2.238-1.97 3.34-2.41 2.559-7.046 1.688-7.475-2.296L79.17 38.2c-.332.896-.667 1.862-1.2 2.661-.991 1.485-2.402 2.138-4.019 2.714-4.488 1.6-9.53 1.58-14.247 1.67-3.303.064-6.952.368-10.124-.73-2.479-.859-4.192-2.136-5.584-4.384-1.2 1.832-2.75 3.419-4.905 4.018-4.035 1.122-7.64-1.176-9.394-4.697-3.705 2.025-7.555 3.928-11.637 5.063-3.534.982-7.715 1.872-11.377 1.148-3.69-.73-5.857-2.77-6.471-6.628-.496-3.115-.118-5.883 1.148-8.767h.47s-.865 2.246-.94 3.757c-.685 13.91 21.489 7.511 27.868 2.662 0 0-.88-1.984-.992-3.34-.172-2.092 1.315-8.342 4.645-6.106 1.206.81 1.828 2.944 1.983 4.28.297 2.557-.774 5.111-2.714 6.783 2.158 2.332 5.28 3.218 8.298 2.192 2.138-.727 3.783-2.465 5.114-4.227h.626c-.428 1.275-.035 2.047.783 3.027 1.395 1.67 3.714 2.275 5.793 2.505.93-1.305 1.91-2.58 3.027-3.73l-.53-10.63-.938-17.363s-.262-.528-.292-.894c-.079-.98.725-1.794 1.21-2.582M29.382 34.286c.269.766.992 1.826.992 1.826 1.14-.56 2.775-1.192 2.557-2.713-.116-.812-.987-2.496-1.775-2.87-2.232-1.063-2.184 2.59-1.774 3.757m40.966.992c-2.053-2.724-4.572-2.292-7.41-1.2-3.76 1.445-6.88 4.748-9.446 7.723 4.801.574 13.986-.679 17.43-4.227.733-.755.012-1.52-.574-2.296" fill="#000"/><path d="M39.403 19.807h2.557a8.3 8.3 0 0 1 1.774.208c0 .978-3.026 2.088-3.548 2.453s-.313.365-.313.365 2.436-.325 3.6-1.2c1.077-.81 1.806-2.05 2.4-3.235-.18-.364-.375-.442-.782-.575-1.22-.397-2.66-.298-3.914-.208-.733.338-1.228.795-1.565 1.565-.104.236-.21.627-.21.627m-12.433 5.147-1.345 2.528a.116.116 0 0 1-.165.044l-2.703-1.73a.116.116 0 0 1-.042-.147l1.178-2.516a.117.117 0 0 1 .161-.053c.599.32 2.06 1.045 2.889 1.733a.11.11 0 0 1 .027.141" fill="#000"/><path fill-rule="evenodd" clip-rule="evenodd" d="m25.521 17.33-.983-.765s.532-1.465.382-2.404c-.2-1.248-1.336-1.037-2.239-.382-.729.528-1.232 1.067-1.202 1.966.033.943.989 1.48 1.584 2.076l-1.42 1.365s-.95.866-1.638 1.311c-1.417.915-3.567 2.24-4.714 2.677-.168.116-.163.209-.311.327 0 0 .333-.097.546-.164 2.996-.946 6.138-2.826 8.193-5.243l1.201.655zm-2.95-2.35c-.334.582.925 1.047 1.257 1.202.093-.218.071-.983 0-1.201s-.147-.328-.382-.328-.708.04-.874.327" fill="#000"/><path d="m41.268 49.749-1.312 2.466a.113.113 0 0 1-.16.042l-2.637-1.687a.113.113 0 0 1-.042-.143l1.15-2.455c.027-.06.1-.083.157-.052.584.313 2.009 1.02 2.818 1.691a.11.11 0 0 1 .026.138m4.279-.371-1.345 2.528a.116.116 0 0 1-.164.043l-2.703-1.73a.116.116 0 0 1-.043-.147l1.178-2.516a.117.117 0 0 1 .162-.053c.598.32 2.059 1.045 2.888 1.734a.11.11 0 0 1 .027.14m11.516 4.119c.744-.319 13.875-5.076 13.966-5.258s.682-1.081.478-1.062c-1.115.106-13.913 5.151-14.178 5.523s-.567.926-.266.797m21.694-43.288c.227.244.635.355.953.212.867-.39-.745-2.765-.423-3.71.244-.718.41-.145.53.213.371.966.922 1.906.794 2.967-.07.592-.289 1.321-.794 1.696-1.055.782-1.59-.689-1.961-1.166-.123.616-.492 1.369-1.113 1.643-.728.322-1.325-.212-1.537-.636s-.212-2.597-.212-2.597.002-.644.096-1.033c.14-.583.522-1.305.487.662 0 0-.053.848 0 1.325.06.543.303.877.848.954.403.058.795-.265 1.06-.583s.143-1.489 0-2.013c-.06-.273-.174-.512-.16-.848.008-.18.4-1.089.584-.69.26.566.424 1.112.424 1.855 0 .08 0 1.295.424 1.75m-8.868-3.611c.747-.333 13.96-5.331 14.049-5.517.09-.185.674-1.103.468-1.08-1.126.123-13.997 5.408-14.26 5.788-.264.38-.56.944-.258.809" fill="#000"/></svg>