<svg width="100" height="92" viewBox="0 0 100 92" fill="none" xmlns="http://www.w3.org/2000/svg"><path d="M72.586 3.42h-3.849s.159-.587.315-.942C69.56 1.318 70.305.63 71.408.12c1.886-.134 4.055-.284 5.89.314.613.2.906.318 1.179.864-.895 1.786-1.992 3.652-3.613 4.87-1.752 1.318-5.42 1.807-5.42 1.807s-.314 0 .472-.55c.785-.55 5.34-2.22 5.34-3.692a12.5 12.5 0 0 0-2.67-.314m1.341 15.463c-.164.329-23.868 8.914-25.21 9.49-.544.233 0-.767.48-1.438.478-.671 23.58-9.778 25.593-9.97.367-.034-.699 1.589-.863 1.918m.016 58.565c-.162.323-23.472 8.767-24.792 9.332-.535.23 0-.754.471-1.414.472-.66 23.19-9.615 25.169-9.803.362-.035-.687 1.562-.848 1.885M22.827 40.894c-.625.281-1.424.063-1.87-.415-.832-.89-.832-3.274-.832-3.43 0-1.458-.323-2.53-.832-3.638-.36-.784-1.128.997-1.143 1.351-.029.66.193 1.129.312 1.663.28 1.03.52 3.326 0 3.95-.52.623-1.287 1.256-2.079 1.143-1.067-.153-1.545-.807-1.663-1.87-.104-.936 0-2.6 0-2.6.069-3.858-.68-2.442-.956-1.299-.184.764-.187 2.027-.187 2.027s0 4.262.415 5.093c.416.832 1.587 1.878 3.015 1.247 1.217-.538 1.94-2.014 2.182-3.222.728.936 1.778 3.82 3.846 2.287.992-.735 1.42-2.165 1.56-3.326.249-2.081-.831-3.925-1.56-5.82-.234-.701-.56-1.826-1.04-.416-.63 1.852 2.53 6.512.832 7.275" fill="#000"/><path fill-rule="evenodd" clip-rule="evenodd" d="m23.646 22.273-1.889-1.47s1.023-2.813.735-4.615c-.384-2.399-2.568-1.992-4.302-.735-1.399 1.015-2.367 2.05-2.308 3.777.062 1.81 1.9 2.843 3.043 3.987l-2.728 2.622s-1.825 1.664-3.147 2.518c-2.722 1.758-6.851 4.301-9.054 5.14-.323.224-.313.402-.598.63 0 0 .641-.186 1.05-.315 5.754-1.817 11.789-5.427 15.736-10.07L22.492 25zM17.98 17.76c-.643 1.117 1.775 2.011 2.412 2.308.178-.42.137-1.888 0-2.308-.136-.42-.282-.63-.734-.63-.451 0-1.36.076-1.678.63" fill="#000"/><path d="M99.751 12.552C98.527 7.846 95.357.707 95.357.707c-.886 1.44-2.356 2.928-2.212 4.72.053.67.534 1.635.534 1.635l3.37 62.693c-.064 2.687-.712 14.35.072 12.982 1.295-2.26 1.712-4.334 2.168-6.82.52-2.84.61-5.6.68-8.479.035-1.497-.632-14.64-1.341-27.734l-.108-1.981c-.621-11.395-1.25-22.302-1.446-24.949-.012-.157.293-.28.293-.28.198.316 2.612 2.518 2.632 1.686.014-.606-.098-1.052-.248-1.628" fill="#000"/><path fill-rule="evenodd" clip-rule="evenodd" d="M83.462.766s3.202 6.77 4.482 11.253c.157.549.275.973.275 1.555 0 .798-2.365-1.258-2.562-1.555 0 0-.29.123-.274.274.388 3.949 1.42 19.63 1.775 27.635.105 2.497.24 5.972.24 6.641 0 4.486-.633 10.515-5.4 13.79-4.34 2.982-9.306 1.75-13.37-.656-2.06-1.22-4.87-3.722-4.87-3.722-2.886 2.102-6.146 4.514-9.632 5.528-5.087 1.48-9.253-.022-11.327-5.144-1.09-2.694-1.259-7.333-1.259-7.333-.875 5.234-2.748 9.838-6.895 13.352 0 0 4.418 1.26 7.169 2.299 3.385 1.278 7.188 2.38 5.91 7.004-2.298 8.318-13.158 13.932-20.248 16.745-4.818 1.912-10.3 3.962-15.54 3.338-5.917-.703-9.887-4.374-11.274-10.233-2.05-8.66.94-16.763 5.111-24.196a.309.309 0 0 1 .537.304C1.879 65.556-1.47 79.253 8.269 84.22c8.263 4.213 19.362-.675 27.033-4.652 3.79-1.965 7.03-3.491 9.936-6.686a.216.216 0 0 0-.06-.338 73 73 0 0 0-2.38-1.184c-5.47-2.542-14.83-4.323-14.83-4.323-.757-1.18-.489-2.559 0-3.886 1.245-3.371 4.21-3.793 6.677-5.91 2.678-2.297 4.773-5.052 5.691-8.482.796-2.973.438-5.514.438-8.591 0-10.2-.53-20.136-1.97-30.262l.766-5.418h.547s.679 2.19 1.04 3.612c2.96 11.655 2.007 23.79 2.846 35.68.286 4.053.04 10.063 4.76 11.929 3.812 1.507 8.49-1.056 11.492-3.174-2.078-1.91-4.88-4.627-7.934-4.487-1.224.056-2.442.516-3.557.985 0-2.42 1.164-4.895 3.01-6.458 9.007-2.672 20.755-4.568 28.182 2.627l-2.299 4.542-8.208 3.338c3.169 2.757 8.035 4.34 11.984 2.244 4.228-2.244 3.002-9.99 2.846-14.666L81.998 6.896s-.482-.915-.549-1.556c-.178-1.714 1.196-3.174 2.013-4.574M65.454 49.798c-1.287-1.43-2.77-2.611-4.378-3.667 3.252-.548 6.66-.689 9.577 1.04a27.6 27.6 0 0 0-5.199 2.627" fill="#000"/></svg>