<svg width="100" height="81" viewBox="0 0 100 81" fill="none" xmlns="http://www.w3.org/2000/svg"><path d="m46.288 76.01 1.782-3.352a.15.15 0 0 0-.035-.187c-1.1-.913-3.036-1.873-3.83-2.298a.155.155 0 0 0-.214.07L42.43 73.58a.154.154 0 0 0 .056.195l3.583 2.293a.154.154 0 0 0 .218-.057" fill="#000"/><path d="m51.488 75.605 1.782-3.352a.15.15 0 0 0-.035-.187c-1.1-.913-3.036-1.873-3.83-2.298a.155.155 0 0 0-.214.07l-1.561 3.336a.154.154 0 0 0 .056.194l3.584 2.294a.153.153 0 0 0 .218-.058M70.81 71.92l1.783-3.352a.15.15 0 0 0-.035-.187c-1.1-.913-3.036-1.874-3.83-2.298a.155.155 0 0 0-.214.07l-1.561 3.336a.153.153 0 0 0 .056.194l3.583 2.293a.153.153 0 0 0 .219-.057M22.92 75.537l1.783-3.352a.15.15 0 0 0-.036-.186c-1.1-.914-3.036-1.874-3.83-2.299a.155.155 0 0 0-.213.07l-1.562 3.337a.153.153 0 0 0 .056.194l3.584 2.293a.153.153 0 0 0 .218-.057M2.95 46.099c-.178.4-.952 2.48-1.26 3.626-1.155 4.308-.328 7.299 3.463 9.474 3.71 2.128 7.693 1.917 11.808 1.63 7.055-.491 14.142-2.837 20.66-5.431 0 0 5.293-2.87 5.672-2.229.38.642-.33 2.601 0 3.782.378 1.357.743 1.714 1.992 2.364.507.264 3.163.61 4.323-.642.895-.966.81-1.957.81-3.275 0-1.452-2.262-9.084-2.262-9.084s-.13-2.216.337-3.511c.136-.377.388-.855.56-1.165a.195.195 0 0 1 .347.01c1.624 3.357 2.042 5.988 2.91 9.63.429 1.805.732 4.565 1.755 6.112.92 1.39 1.136 1.593 2.77 1.925 3.106.632 9.286-2.627 12.493-4.592 0 0-6.737-.725-11.042-1.284-1.847-.24-4.727-.303-4.727-.641 0-.777 1.075-2.251 1.79-3.68.236-.474 9.009-4.988 14.925-7.903a451 451 0 0 1 6.146-2.937s-1.056-4.939-1.52-8.139c-.794-5.483-.753-8.616-1.047-14.148-.197-3.717-.1-7.936-.472-9.49-.18-.75-.464-1.126-.574-1.89S73.853.998 74.327.356c.248-.338 3.038 7.125 3.612 9.32l.004.015c.09.341.298 1.137.131 1.37-.245.344-1.992-1.723-1.992-1.723s.272 6.156.507 10.097c.249 4.183.203 6.549.743 10.704.81 6.247 1.587 6.99 1.587 6.99s3.06-1.113 4.997-.742c3.884.742 4.593 5.909 3.04 9.05-1.41 2.85-4.412 2.084-6.484.607-1.583-1.128-2.938-4.018-2.938-4.018-5.243 1.964-10.197 4.39-15.027 7.226 4.817.844 9.649 1.53 14.52 1.959 3.645.32 9.084.135 9.186.641.1.507-1.475 3.744-2.06 4.12-.473.304-3.573.035-5.876.338-2.81.37-4.432.622-7.058 1.688-3.41 1.385-6.888 3.715-10.468 5.167-4.66 1.89-7.8 0-9.353-5.167 0 0-.226 2.342-.98 3.58-1.6 2.629-4.215 3.55-6.855 1.62-1.288-.942-1.704-1.963-2.093-3.511-.207-.822-.203-2.162-.203-2.162s-6.373 3.21-10.738 4.458c-10.68 3.053-22.118 6.01-28.442-.175-2.16-2.39-2.726-7.554-1.308-12.083.494-1.578 1.157-2.377 1.816-3.826a.13.13 0 0 1 .201-.05l.117.094a.13.13 0 0 1 .038.156" fill="#000"/><path fill-rule="evenodd" clip-rule="evenodd" d="m69.97 27.29-1.26-.98s.682-1.877.49-3.08c-.256-1.6-1.713-1.329-2.87-.49-.933.677-1.578 1.367-1.539 2.52.041 1.208 1.267 1.896 2.03 2.66L65 29.668s-1.218 1.11-2.1 1.68c-1.815 1.172-4.57 2.869-6.04 3.429-.215.149-.208.268-.398.42 0 0 .428-.124.7-.21 3.839-1.212 7.865-3.621 10.498-6.719l1.54.84zm-3.78-3.01c-.428.745 1.185 1.341 1.61 1.54.12-.28.092-1.26 0-1.54-.09-.28-.188-.42-.49-.42-.3 0-.907.05-1.12.42M28.638 38.095l-1.26-.98s.682-1.877.49-3.079c-.256-1.6-1.713-1.329-2.87-.49-.933.677-1.578 1.367-1.54 2.52.042 1.207 1.268 1.896 2.03 2.66l-1.82 1.749s-1.217 1.11-2.099 1.68c-1.815 1.172-4.57 2.869-6.04 3.429-.215.149-.209.267-.398.42 0 0 .427-.124.7-.21 3.839-1.213 7.864-3.621 10.497-6.719l1.54.84zm-3.78-3.01c-.428.745 1.185 1.342 1.61 1.54.119-.28.092-1.26 0-1.54-.091-.28-.188-.42-.49-.42-.3 0-.907.051-1.12.42" fill="#000"/><path d="M65.001 3.879h-3.608c.415-1.246 1.026-2.355 2.268-2.929.9-.064 6.404-.373 6.634.747.2.976-2.009 3.526-2.872 4.307-.736.667-1.751.919-1.751.919l-3.75 1.097c-.157.046-.24-.09-.11-.188 1.106-.825 4.22-2.509 5.267-3.063 0 0 .494-.282.43-.46-.143-.401-1.976-.424-2.508-.43m34.421 17.829c-.086.187-18.052 7.041-18.781 7.385-.296.139.151-1.304.405-1.689.253-.384 17.811-7.01 18.916-7.148.202-.025-.455 1.264-.54 1.452M80.964 73.093c-.086.188-18.052 7.042-18.781 7.385-.296.14.151-1.304.405-1.688.254-.385 17.811-7.01 18.916-7.148.202-.025-.455 1.264-.54 1.451" fill="#000"/><path d="M93.371 9.917C92.385 6.315 89.805-.6 89.415.042s-1.52 2.882-1.384 4.343c.051.546.453 1.328.453 1.328l1.711 25.463 1.34 23.614c-.024 2.194-.625 11.548 0 10.423 1.033-1.857 1.759-3.822 2.105-5.855.394-2.323.346-4.438.372-6.787.013-1.222-.554-11.638-1.27-22.314-.627-9.29-1.255-18.182-1.443-20.34-.011-.128.236-.23.236-.23.165.254 2.048 2.235 2.055 1.556.006-.495-.09-.857-.219-1.326" fill="#000"/></svg>