<svg width="100" height="56" viewBox="0 0 100 56" fill="none" xmlns="http://www.w3.org/2000/svg"><path d="m1.527 36.653-.198-.057a.12.12 0 0 0-.14.063C.026 39.138-.092 41.939.047 44.635c.268 5.2 2.915 10.19 8.541 11.091 3.923.628 7.893-.353 11.507-1.838 4.233-1.74 9.576-4.456 11.921-8.482 1.314-2.254 1.3-5.07 1.424-7.592 1.123-.04 2.22.242 3.321-.119 1.858-.607 3.065-2.078 4.093-3.677.53 1.056 1.37 2.16 2.61 2.373 4.495.77 5.765-5.419 4.745-8.541-.33-1.107-1.041-1.096-1.424-.119-.506 1.291-.557 1.815 0 3.025.855 1.854-1.38 2.428-2.906 1.542-1.503-.872-1.013-2.074-.95-3.5.01-.208 0-.533 0-.533h-.236c-1.278 1.145-1.606 2.758-2.67 4.033-1.347 1.616-4.452 2.241-6.346 1.364-1.491-.69-2.007-2.549-2.965-3.736-1.172 1.042-1.626 2.813-.95 4.27 1.171 2.52 3.442 5.81 1.958 8.6-1.478 2.778-5.61 4.78-8.304 6.11-4.702 2.319-10.588 4.168-15.777 2.728-3.617-1.005-6.581-4.357-6.94-8.126-.19-2.019.258-4.785.909-6.702a.12.12 0 0 0-.08-.153m73.232-6.186 1.378-2.59a.116.116 0 0 0-.027-.145c-.85-.706-2.347-1.448-2.96-1.777a.12.12 0 0 0-.166.055l-1.207 2.578a.12.12 0 0 0 .044.15l2.77 1.773a.12.12 0 0 0 .168-.044m4.983-.475 1.378-2.59a.116.116 0 0 0-.028-.145c-.85-.706-2.347-1.448-2.96-1.776a.12.12 0 0 0-.165.054l-1.207 2.579a.12.12 0 0 0 .043.15l2.77 1.773a.12.12 0 0 0 .169-.045m-.68-26.023h-2.907s.12-.444.238-.712c.384-.875.946-1.395 1.779-1.78 1.424-.101 3.062-.214 4.448.238.463.15.684.24.89.652-.676 1.348-1.504 2.757-2.728 3.677C79.46 7.04 76.69 7.41 76.69 7.41s-.237 0 .356-.416c.593-.415 4.033-1.676 4.033-2.787a9.5 9.5 0 0 0-2.016-.237" fill="#000"/><path fill-rule="evenodd" clip-rule="evenodd" d="m39.561 15.656-1.068-.83s.578-1.591.416-2.61c-.217-1.356-1.452-1.126-2.432-.415-.791.573-1.338 1.158-1.305 2.135.035 1.024 1.074 1.607 1.72 2.254l-1.542 1.483s-1.032.94-1.78 1.423c-1.538.994-3.873 2.432-5.118 2.906-.183.127-.177.227-.338.356 0 0 .362-.105.593-.178 3.253-1.027 6.665-3.068 8.897-5.694l1.305.712zm-3.203-2.55c-.363.63 1.004 1.136 1.364 1.305.1-.238.078-1.068 0-1.305-.077-.238-.16-.356-.415-.356s-.769.042-.949.356M56.88 4.505l-1.068-.83s.579-1.59.416-2.61C56.01-.29 54.776-.06 53.796.65c-.791.574-1.338 1.159-1.305 2.135.035 1.024 1.074 1.608 1.72 2.254l-1.542 1.483s-1.032.94-1.78 1.423c-1.538.994-3.873 2.432-5.118 2.907-.183.126-.177.227-.338.356 0 0 .362-.106.593-.178 3.254-1.028 6.665-3.069 8.897-5.694l1.305.712zm-3.203-2.55c-.363.631 1.004 1.137 1.364 1.305.1-.237.078-1.068 0-1.305-.077-.237-.16-.356-.415-.356s-.768.043-.949.356M76.69 14.588l-1.067-.83s.578-1.59.415-2.61c-.217-1.356-1.452-1.126-2.432-.415-.791.574-1.338 1.159-1.305 2.135.035 1.024 1.074 1.608 1.72 2.254l-1.542 1.483s-1.032.94-1.78 1.424c-1.538.993-3.873 2.431-5.118 2.906-.183.126-.177.227-.338.356 0 0 .363-.105.593-.178 3.254-1.028 6.665-3.069 8.897-5.694l1.305.712zm-3.203-2.55c-.363.631 1.004 1.137 1.365 1.305.1-.237.077-1.068 0-1.305-.078-.237-.16-.356-.416-.356-.255 0-.768.043-.949.356" fill="#000"/><path d="M57.236 13.752c-.357.16-.813.036-1.068-.237-.474-.508-.474-1.868-.474-1.957 0-.832-.184-1.444-.475-2.076-.205-.447-.643.569-.652.771-.016.377.11.644.178.949.16.588.296 1.898 0 2.254-.297.356-.735.717-1.186.652-.61-.087-.882-.46-.95-1.067-.059-.534 0-1.483 0-1.483.04-2.202-.388-1.394-.545-.742-.105.436-.107 1.157-.107 1.157s0 2.432.237 2.906c.238.475.906 1.072 1.72.712.695-.307 1.108-1.15 1.246-1.839.415.534 1.014 2.18 2.195 1.305.566-.42.81-1.235.89-1.898.142-1.187-.474-2.24-.89-3.321-.134-.4-.32-1.042-.594-.237-.36 1.057 1.444 3.716.475 4.151" fill="#000"/><path fill-rule="evenodd" clip-rule="evenodd" d="M84.814 5.894s2.096 4.592 2.934 7.633c.103.372.18.66.18 1.055 0 .54-1.548-.854-1.677-1.055 0 0-.19.083-.18.186.191 2.006.56 8.521.865 14.2 1.672-.666 3.75-1.466 5.753-2.215l-.954-13.933s-.305-.527-.341-.893c-.075-.753.45-1.407.947-2.027.15-.187.296-.37.424-.551 0 0 2.015 3.9 2.8 6.47.096.315.168.559.162.89-.01.455-1.533-.748-1.658-.92 0 0-.191.066-.183.152.107 1.168.411 5.276.751 10.091 2.65-.968 4.85-1.721 5.314-1.764.182-.017-.184.58-.41.947-.066.11-.121.199-.145.246-.039.074-2.065.822-4.675 1.764.57 8.103 1.202 17.632 1.182 18.581-.032 1.573-.079 3.08-.395 4.632-.277 1.359-.53 2.492-1.335 3.727-.39.6-.233-3.39-.14-5.745.022-.579.041-1.059.047-1.348l-1.31-19.145c-1.526.546-3.124 1.116-4.57 1.631l-1.21.431c.245 4.593.436 8.395.436 8.395s.027 2.068-.119 3.38c-.42 3.78-1.704 8.708-6.11 9.075-2.691.225-5.234-.28-7.71-1.304-1.75 1.192-3.444 2.05-5.575 2.075-4.599.053-5.255-4.443-5.81-8.246-.113-.774-.221-1.52-.358-2.192-.639 2.713-2.07 4.943-4.034 6.88-3.198 3.155-11.008 9.548-16.132 7.117-4.465-2.117-2.428-9.72-.89-13.404a16 16 0 0 1 .324-.705c.02-.04.06-.066.106-.066h.114c.082 0 .14.08.112.158-.79 2.262-1.496 4.839-1.368 7.256.078 1.457.71 2.588 2.076 3.084 4.156 1.509 8.711-1.656 11.922-3.974l.396-.285c2.287-1.644 5.135-3.69 6.069-6.417 1.096-3.201-.321-6.952-1.492-10.051l-.169-.448c-.218-.58-.578-1.299-.977-2.095-1.335-2.665-3.106-6.2-1.455-8.343.1-.13.297-.297.297-.297h.237c3.449 4.799 4.825 10.487 5.872 16.192.167.91.316 1.822.466 2.734.359 2.19.718 4.378 1.313 6.519.55 1.839 2.07 2.854 3.915 2.788l.074-.003c.911-.032 2.268-.08 2.654-1.065-.738-1.89-.867-3.464-.237-5.398.606-1.858 2.458-5.297 4.626-5.871 1.547-.41 2.359.891 2.788 2.135.628 1.82.508 4.182 0 6.05-.28 1.032-.818 1.973-1.424 2.847 1.752.543 3.96.967 5.754.355 3.027-1.032 2.925-3.763 2.823-6.455a39 39 0 0 1-.036-1.433l-.478-8.273c-.978.35-1.646.593-1.807.66-.35.145 0-.477.308-.895.056-.076.594-.326 1.446-.685l-1.08-18.678s-.316-.62-.36-1.055c-.09-.894.421-1.686.905-2.436.146-.225.289-.447.412-.666M75.444 38.1c-1.51-.341-4.151 3.143-3.677 4.33.475 1.186 1.424 1.763 2.195 1.898 2.087.363 3.185-1.734 2.965-3.44-.112-.87-.5-2.566-1.482-2.788" fill="#000"/></svg>