<svg width="101" height="50" viewBox="0 0 101 50" fill="none" xmlns="http://www.w3.org/2000/svg"><path d="m50.84 18.807 1.143-2.149a.096.096 0 0 0-.022-.12c-.705-.585-1.947-1.2-2.455-1.473a.1.1 0 0 0-.138.046l-1 2.138a.1.1 0 0 0 .035.125l2.298 1.47a.1.1 0 0 0 .14-.037m3.639 0 1.144-2.149a.096.096 0 0 0-.023-.12c-.705-.585-1.947-1.2-2.455-1.473a.1.1 0 0 0-.137.046l-1.001 2.138a.1.1 0 0 0 .036.125l2.297 1.47a.1.1 0 0 0 .14-.037m19.087-3.837 1.143-2.149a.096.096 0 0 0-.022-.12c-.706-.585-1.947-1.2-2.456-1.473a.1.1 0 0 0-.137.045l-1 2.139a.1.1 0 0 0 .035.124l2.297 1.47a.1.1 0 0 0 .14-.036" fill="#000"/><path fill-rule="evenodd" clip-rule="evenodd" d="m38.765 17.64-.885-.688s.48-1.32.344-2.165c-.18-1.124-1.204-.933-2.017-.344-.656.476-1.11.961-1.082 1.771.029.85.89 1.333 1.426 1.87l-1.279 1.23s-.855.78-1.475 1.18c-1.277.824-3.213 2.017-4.246 2.41-.151.105-.147.189-.28.296 0 0 .3-.087.492-.148 2.698-.852 5.528-2.545 7.379-4.722l1.082.59zm-2.656-2.115c-.302.524.832.943 1.131 1.083.084-.197.064-.886 0-1.083s-.133-.295-.344-.295c-.212 0-.638.036-.787.295" fill="#000"/><path d="M76.466.984c-.084.169-12.25 4.575-12.938 4.87-.28.12 0-.393.246-.737C64.02 4.772 75.876.099 76.909 0c.189-.018-.359.815-.443.984" fill="#000"/><path fill-rule="evenodd" clip-rule="evenodd" d="M54.803 21.055c3.635 1.49 4.876 6.232 4.083 9.79-.437 1.96-1.57 3.729-3.05 5.067-8.205 7.416-22 9.025-32.469 8.412-4.316-.252-8.63-.766-12.741-2.164-2.276-.775-4.315-1.688-6.199-3.198-1.617-1.297-2.885-2.815-3.984-4.575L0 33.698c0-.17.105-.243.295-.148 2.787 1.394 5.207 3.29 8.068 4.526a46.1 46.1 0 0 0 15.004 3.001c2.362.076 3.688.082 6.051.099 2.757.02 5.347-.005 8.068-.492 3.874-.694 7.784-1.798 11.413-3.345 1.383-.59 2.14-.975 3.444-1.722 1.48-.848 2.344-1.303 3.64-2.41.723-.619 1.186-1.083 2.017-2.018.83-.934-1.72-2.345-2.607-2.558-1.768-.424-3.331.315-4.772-.885-.924-.77-.563-2.678 0-4.231.704-1.944 2.175-3.282 4.182-2.46M53.13 25.63c.893.296 2.41 0 2.41 0-.338-.41-.658-.897-1.082-1.23-.438-.343-1.417-.641-2.017-.492-.318.08-.599.335-.59.69.014.576.857.893 1.279 1.032" fill="#000"/><path d="M90.44 7.483c-.695-2.315-2.433-5.81-2.433-5.81-.443.723-1.19 1.476-1.092 2.362.036.33.298.803.298.803l.835 14.291c-3.849 1.439-9.349 3.66-9.516 3.894-.246.345-.525.858-.246.738.464-.199 6.141-2.265 9.82-3.643 0 0 .172 2.229.345 5.062-.853.366-1.406.625-1.457.697-.246.344-.525.857-.246.737.145-.062.803-.308 1.75-.658.132 2.244.257 4.756.298 6.807.034 1.733-1.936 2.74-3.247 3.395-2.632 1.316-5.642 2.12-7.92 4.034-2.336 1.963-3.93 4.952-6.543 6.543-.804.49-1.918.833-2.853.54-2.161-.673-1.968-3.689-1.673-5.017s1.202-3.518 1.77-5.166c2.484-1.58 5.51-3.443 7.43-5.51.771-.83 1.121-2.123 1.278-3.246.37-2.65-1.074-4.996-1.968-7.38.29.08.913.415 1.181.296.088-.039.197-.148.197-.148L73.3 17.808c-.736.92-.61 2.51-.197 3.542 0 0 .844 2.391 1.476 3.887.418.99.836 1.672 1.23 2.705.136.36.03.608-.05.984-.295 1.378-8.107 6.205-12.15 7.625l-.05-.64c-.541-9.445-1.551-19.111-2.066-28.63l1.18 1.033h.246c-.245-1.476-1.016-3.846-1.77-5.46a45 45 0 0 0-.69-1.378s-.217 0-.344.049c-.468.177-.602 1.165-.64 1.623-.098 1.23.148 3.247.148 3.247l.197.345c.45 10.222 1.968 20.956 1.968 30.844 0 0-1.796.816-2.952 1.329-3.376 1.496-8.707 3.69-8.707 3.69v.196c1.138-.142 3.394-.59 3.394-.59s5.579-1.359 8.363-2.017l-.098 4.083h.099c1.042-1.043 1.186-3.096 1.426-4.477.615-.28 1.222-.572 1.82-.885a55 55 0 0 0 2.457-1.396l.052-.03-.492 1.327c-.494 1.442-1.268 2.962-1.426 4.477-.11 1.054-.066 2.28.246 3.296.372 1.211 1.067 2.283 2.263 2.804.752.328 1.722.397 2.508.148.785-.248 1.534-.87 2.116-1.427 1.88-1.802 3.44-3.883 5.411-5.608 2.262-1.979 5.447-2.307 7.97-3.936 1.018-.657 1.806-1.558 2.41-2.607.348-.603.738-1.623.738-1.623s.479-1.42.64-2.362c.203-1.194.147-3.099.147-3.099l-.183-3.472.762-.28c1.227-.453 2.59-.955 3.875-1.431l1.015 13.054c0 .273-.007.726-.016 1.272-.036 2.225-.098 5.993.213 5.419.64-1.181.829-2.255 1.033-3.542.233-1.47.246-2.894.246-4.379 0-.7-.417-6.343-.888-12.42 1.949-.729 3.427-1.295 3.456-1.354.02-.038.063-.112.116-.202.18-.304.472-.796.327-.782-.355.034-1.98.605-3.975 1.356-.506-6.505-1.052-13.229-1.2-14.737-.008-.081.147-.147.147-.147.106.16 1.378 1.265 1.378.836 0-.313-.064-.541-.148-.836-.689-2.411-2.41-6.051-2.41-6.051-.102.174-.22.35-.339.528-.398.595-.818 1.222-.744 1.931.036.345.295.837.295.837l1.42 18.25c-1.587.61-3.248 1.27-4.608 1.828l-.266-5.032c.93-.355 1.527-.595 1.545-.632.085-.169.632-1.002.443-.984-.229.022-.99.269-2.04.643L89.05 7.625c-.008-.078.149-.142.149-.142.107.153 1.39 1.215 1.39.803 0-.3-.063-.52-.148-.803" fill="#000"/><path d="M73.89 8.29c-.296.132-.674.029-.886-.198-.393-.421-.393-1.55-.393-1.623 0-.69-.153-1.197-.394-1.722-.17-.37-.534.472-.54.64-.014.312.09.534.147.787.133.487.246 1.574 0 1.87-.246.294-.61.594-.984.54-.505-.072-.731-.382-.787-.885-.05-.443 0-1.23 0-1.23.032-1.826-.322-1.156-.453-.615-.087.361-.088.96-.088.96s0 2.016.196 2.41c.197.393.751.889 1.427.59.576-.254.919-.953 1.033-1.525.344.443.841 1.808 1.82 1.082.47-.347.672-1.024.738-1.574.118-.985-.393-1.858-.738-2.755-.11-.331-.265-.864-.492-.196-.298.876 1.198 3.082.394 3.443m10.823 22.433c-.296.133-.674.03-.886-.197-.393-.421-.393-1.55-.393-1.623 0-.69-.153-1.198-.394-1.722-.17-.371-.534.472-.541.64-.014.312.091.534.148.787.132.487.245 1.574 0 1.869-.247.295-.61.595-.984.541-.506-.072-.732-.382-.787-.886-.05-.442 0-1.23 0-1.23.032-1.826-.323-1.155-.453-.614-.087.361-.089.959-.089.959s0 2.017.197 2.41.751.89 1.427.59c.576-.254.918-.952 1.033-1.524.344.443.841 1.808 1.82 1.082.47-.348.672-1.025.738-1.574.118-.985-.393-1.858-.738-2.755-.11-.332-.265-.864-.492-.197-.298.877 1.198 3.082.394 3.444" fill="#000"/></svg>