<svg width="104" height="67" viewBox="0 0 104 67" fill="none" xmlns="http://www.w3.org/2000/svg"><path d="m15.505 26.797-7.16-3.493s-.676 3.707-.175 4.453c.471.704 1.03.83 1.659 1.397 1.883 1.697 2.39 3.216 4.366 4.803 3.506 2.816 8.153 3.69 11.614 6.462 3.542 2.838 1.575 3.624-1.572 5.939C20.17 49.35 17.82 50.97 13.41 53.43c-2.577 1.437-7.101 4.772-10.217 3.056-3.862-2.126-1.2-9.807-.038-12.909a.17.17 0 0 0-.042-.182l-.091-.091a.172.172 0 0 0-.28.052c-.457 1.04-2.3 5.394-2.605 8.502-1.834 18.688 15.407 5.485 22.792-.262 3.825-2.977 6.949-5.2 6.462-10.654-.564-6.303-7.118-6.786-11.615-9.518-1.859-1.13-3.543-2.194-4.89-3.93h2.62zM83.8 22.016c-.123.258-18.448 7.292-19.484 7.76-.42.189-.012-.598.352-1.127.363-.53 18.211-7.96 19.775-8.138.286-.033-.52 1.247-.643 1.505" fill="#000"/><path fill-rule="evenodd" clip-rule="evenodd" d="m55.675 11.836-1.28-.994s.693-1.905.498-3.126c-.26-1.624-1.738-1.349-2.912-.497-.948.687-1.603 1.387-1.563 2.557.042 1.226 1.286 1.925 2.06 2.7L50.63 14.25s-1.236 1.127-2.131 1.705c-1.843 1.19-4.64 2.913-6.131 3.481-.218.151-.212.272-.404.426 0 0 .434-.126.71-.213 3.897-1.23 7.983-3.675 10.655-6.82l1.563.853zm-3.836-3.054c-.435.755 1.202 1.361 1.633 1.562.12-.284.093-1.278 0-1.562-.092-.285-.191-.427-.497-.427s-.92.051-1.136.427M15.68 11.138l-1.28-.995s.693-1.905.498-3.126c-.26-1.624-1.738-1.348-2.912-.497-.948.687-1.603 1.388-1.563 2.557.042 1.226 1.286 1.926 2.06 2.7l-1.847 1.776S9.4 14.679 8.505 15.258c-1.843 1.19-4.64 2.912-6.131 3.48-.218.152-.212.272-.405.427 0 0 .435-.126.71-.213 3.898-1.231 7.984-3.676 10.656-6.82l1.563.853zm-3.836-3.055c-.435.756 1.202 1.361 1.633 1.563.12-.284.093-1.279 0-1.563-.092-.284-.191-.426-.497-.426s-.92.05-1.136.426" fill="#000"/><path d="M78.554 9.641h-4.28s.177-.653.35-1.048c.565-1.288 1.394-2.054 2.62-2.62 2.097-.149 4.508-.315 6.55.35.68.221 1.005.352 1.31.96-.996 1.985-2.216 4.06-4.018 5.414-1.948 1.465-6.025 2.009-6.025 2.009s-.35 0 .524-.611c.873-.612 5.938-2.468 5.938-4.105a14 14 0 0 0-2.97-.349" fill="#000"/><path fill-rule="evenodd" clip-rule="evenodd" d="M91.826 11.327c-1.082-3.787-3.787-9.505-3.787-9.505-.69 1.182-1.85 2.415-1.7 3.864.056.54.464 1.313.464 1.313l1.692 19.668c-2.035.824-3.47 1.449-3.57 1.586-.352.483-.751 1.204-.356 1.038.256-.107 2.132-.764 4.027-1.446.36 5.834 1.853 12.004-5.166 14.114-.883-2.969-3.619-6.208-7.087-5.558-3.785.709-5.84 7.199-2.71 9.727 1.856 1.499 5.91.978 7.977.764 0 0 .303-.059.43.834.209 1.459-5.858 7.928-10.63 10.491 0 0-3.479 2.687-6.13 3.104-3.357.528-8.835-.994-9.525-4.821 2.666-1.774 5.17-3.709 7.041-5.165 3.825-2.977 6.95-5.2 6.462-10.654-.563-6.303-7.117-6.786-11.614-9.518-1.86-1.13-3.544-2.194-4.89-3.93h2.62v-.698l-7.161-3.493s-.675 3.707-.175 4.453c.472.704 1.03.83 1.66 1.397 1.883 1.697 2.39 3.216 4.366 4.803 3.505 2.816 8.153 3.69 11.614 6.462 3.541 2.838 1.575 3.624-1.572 5.939-3.28 2.412-5.441 3.933-8.467 5.72.425-2.485 1.459-4.924 1.459-4.924h-.348s-.353.67-.556 1.112c-.503 1.1-.742 1.745-1.042 2.918-.135.531-.228.926-.299 1.353q-.744.43-1.575.894c-2.577 1.437-7.102 4.772-10.217 3.056-1.68-.924-2.125-2.898-1.998-5.09 2.476-1.772 4.55-3.531 5.442-4.952 2.567-4.084 2.307-13.103-2.18-15.9-3.44-2.145-6.878-.683-7.85 3.334-.973 4.013 1.009 5.922 4.724 6.253.248.023.556.031.899.04 1.672.048 4.152.117 4.407 1.907.196 1.37-1.781 3.18-4.665 5.066a43 43 0 0 1 1.182-3.567.17.17 0 0 0-.04-.182l-.093-.091a.172.172 0 0 0-.28.052 48 48 0 0 0-1.65 4.35c-6.155 3.83-15.487 7.829-17.595 9.042-.687.396-16.068 7.074-16.068 7.074 6.873-.283 19.736-3.93 19.736-3.93s7.197-3.784 12.944-7.733c-1.145 12.9 7.066 10.134 14.57 5.386.066 2.5.615 5.307 2.621 6.977 6.387 5.318 15.817-2.247 20.496-6.947 1.985-1.995 3.057-3.127 4.586-5.558 1.115-1.774 1.761-3.515 1.61-5.628 5.798-3.854 7.826-7.05 7.532-14.004-.07-1.576-.183-3.352-.32-5.192 2.171-.78 4.557-1.64 6.612-2.389l1.191 30.298c-.108 2.13-.921 11.368-.172 10.304 1.237-1.757 1.66-3.391 2.127-5.351.532-2.24.667-4.427.783-6.71.075-1.479-.525-17.356-1.036-29.605 1.376-.514 2.267-.862 2.294-.916.121-.237.901-1.406.635-1.383-.331.03-1.45.384-2.987.922-.254-6.029-.478-10.96-.574-12.478-.008-.125.276-.213.276-.213.177.255 2.366 2.07 2.399 1.411.025-.48-.07-.838-.198-1.299C101.377 5.754 98.581 0 98.581 0c-.845 1.117-2.229 2.257-2.13 3.683.038.533.463 1.313.463 1.313l.714 18.148a352 352 0 0 0-6.653 2.535c-.45-5.713-1.078-11.737-1.313-14.12-.012-.128.232-.232.232-.232.166.25 2.164 1.987 2.164 1.313 0-.49-.1-.85-.232-1.313M77.93 42.607c-.968.1-2.742.284-3.325-.509-.993-1.35.7-1.903 1.789-1.876 1.351.033 2.386 1.09 3.074 2.154q-.762.15-1.534.23zm-34.44-7.392c-.681-1.053-1.676-2.273-3.011-2.306-.69-.016-1.835.057-2.06.917-.662 2.522 3.816 1.637 5.043 1.395z" fill="#000"/></svg>