<svg width="100" height="58" viewBox="0 0 100 58" fill="none" xmlns="http://www.w3.org/2000/svg"><path d="M66.152 16.75c-.095.191-13.81 5.159-14.586 5.492-.315.135 0-.444.277-.832.277-.389 13.644-5.658 14.809-5.768.212-.02-.404.919-.5 1.109M48.99 52.443c-.096.191-13.88 5.184-14.66 5.518-.316.136 0-.446.28-.836.278-.39 13.711-5.685 14.882-5.797.213-.02-.407.924-.502 1.115m-6.315-28.807c-.377.17-.86.038-1.13-.25-.503-.539-.503-1.98-.503-2.074 0-.881-.195-1.529-.503-2.199-.217-.474-.682.603-.69.817-.018.399.116.682.188 1.005.17.622.314 2.01 0 2.387-.315.377-.778.76-1.257.691-.645-.092-.934-.488-1.005-1.13-.063-.566 0-1.571 0-1.571.041-2.333-.411-1.477-.578-.785-.111.461-.113 1.225-.113 1.225s0 2.576.251 3.078c.251.503.96 1.135 1.822.754.736-.325 1.173-1.217 1.32-1.948.44.566 1.074 2.31 2.324 1.383.6-.445.858-1.31.942-2.01.151-1.259-.502-2.373-.942-3.52-.141-.423-.338-1.102-.628-.25-.382 1.12 1.53 3.936.502 4.397" fill="#000"/><path fill-rule="evenodd" clip-rule="evenodd" d="m29.385 16.406-1.137-.884s.616-1.695.442-2.78c-.23-1.445-1.546-1.2-2.59-.443-.843.611-1.426 1.234-1.39 2.275.037 1.09 1.143 1.712 1.832 2.4l-1.643 1.58s-1.1 1.003-1.896 1.517c-1.639 1.059-4.126 2.59-5.453 3.096-.194.134-.188.242-.36.38 0 0 .387-.113.632-.19 3.466-1.095 7.1-3.27 9.478-6.066l1.39.758zm-3.412-2.717c-.387.672 1.07 1.211 1.453 1.39.108-.252.083-1.137 0-1.39-.082-.252-.17-.379-.442-.379s-.819.046-1.01.38m57.123 4.063-1.041-.81s.563-1.55.404-2.544c-.211-1.322-1.415-1.098-2.37-.405-.772.56-1.306 1.13-1.273 2.082.034.998 1.047 1.567 1.677 2.198L78.99 19.72s-1.006.917-1.734 1.388c-1.5.969-3.777 2.37-4.992 2.833-.177.123-.172.222-.329.347 0 0 .353-.102.578-.173 3.173-1.002 6.5-2.992 8.675-5.552l1.272.694zm-3.123-2.486c-.355.615.978 1.108 1.33 1.272.098-.232.075-1.041 0-1.273-.076-.23-.156-.347-.405-.347s-.75.042-.925.348" fill="#000"/><path d="M79.11 3.71h-3.15s.129-.48.256-.77c.416-.95 1.027-1.513 1.93-1.93 1.543-.11 3.318-.232 4.821.258.501.163.74.26.965.707-.733 1.461-1.63 2.988-2.958 3.986C79.54 7.04 76.538 7.44 76.538 7.44s-.257 0 .386-.45 4.372-1.817 4.372-3.022a10.3 10.3 0 0 0-2.186-.257" fill="#000"/><path fill-rule="evenodd" clip-rule="evenodd" d="M83.528 21.726c-.293.409-.625 1.02-.293.877.25-.108 1.78-.673 3.785-1.412l.402 6.962c.11 1.89-.088 3.16-1.659 4.079-1.468.858-4.329 1.268-5.514 0-2.164-2.316-1.947-.53-4.024 1.252-2.053 1.761-4.847 2.755-7.479 3.265 0 0 1.607-1.665 2.278-2.96.71-1.374 1.207-2.899.76-4.443-.943-3.243-4.954-5.188-8.163-4.404-3.049.746-4.799 3.53-6.416 5.96-1.41 2.121-2.683 4.276-3.797 6.569-2.063-.932-3.072-2.59-2.72-4.79.01-.061-.052-.11-.107-.082-1.448.733-3.148 2.573-4.614 2.784-.374.054-.968.002-.968.002-.712-2.398-2.922-5.013-5.722-4.489-1.815.34-2.707 1.74-3.142 3.535-.407 1.679-.39 3.234.954 4.32 1.56 1.26 4.51.78 6.283.393 0 0 .59.174.505.897-.505 4.275-11.564 11.693-16.214 10.996l-.121-.018c-1.55-.231-2.658-.397-3.75-1.552-.737-.78-1.007-1.546-1.157-2.438q.145-.09.29-.184c2.33-1.482 5.261-3.002 6.872-5.318a7.95 7.95 0 0 0 1.365-3.437c.217-1.492-.066-2.899-.47-4.33-.432-1.526-1.424-3.657-1.71-4.26a.095.095 0 0 1 .102-.133l1.13.194a.1.1 0 0 0 .089-.034l.103-.129a.094.094 0 0 0-.004-.122l-3.26-3.581a.1.1 0 0 0-.07-.031h-.271a.09.09 0 0 0-.086.058c-.116.3-.635 1.709-.542 2.672.314 3.282 2.59 5.916 3.624 8.943.66 1.93-4.524 4.916-6.072 5.884q-.625.39-1.259.769c.246-2.207 1.26-5.266 1.26-5.266s-.556 1.185-.72 1.542c-.406.888-.6 1.41-.84 2.356-.173.674-.26 1.075-.326 1.737C15.03 48.334 7.56 51.27.255 54.134a.1.1 0 0 0-.032.021l-.195.196a.094.094 0 0 0 .006.139l.173.144q.028.025.066.021c.623-.067 9.204-1.022 14.273-3.197 2.483-1.065 4.834-2.403 7.127-3.825.013.723.074 1.429.212 2.058 1.015 4.626 5.446 5.586 9.481 4.32 3.384-1.062 6.51-3.75 8.977-6.228 1.603-1.61 2.468-2.524 3.702-4.488.9-1.432 1.423-2.838 1.3-4.544 1.402-.63 2.673-1.44 3.887-2.381.325 1.887 1.258 3.377 2.772 4.518L51.7 43.09l.304.341.91-2.126c3.565 1.118 7.582.67 11.2 0 4-.74 8.876-1.787 11.77-4.897.63-.678 1.518-1.822 1.518-1.822h.266c.088 2.922 1.223 5.214 3.682 6.795.937.602 1.388.807 1.936-.304.689-1.393.557-3.25 0-4.67.877.106 1.5-.132 2.202-.645 3.016-2.205 3.46-6.536 3.46-10.02 0-1.728-.12-3.46-.201-5.187a1585 1585 0 0 0 5.126-1.896L96.045 46.6c0 1.816-.25 9.702.258 8.766.838-1.547 1.086-2.955 1.353-4.641.306-1.926.322-3.792.322-5.736 0-1.012-.662-9.877-1.352-18.708l-.105-1.336c-.192-2.446-.383-4.86-.561-7.07 1.564-.59 2.633-1.01 2.66-1.064.1-.201.751-1.192.527-1.17-.332.031-1.6.459-3.28 1.074-.34-4.188-.615-7.48-.725-8.595-.01-.106.194-.193.194-.193.139.21 1.805 1.658 1.805 1.096 0-.41-.083-.71-.194-1.096C96.045 4.77 93.79 0 93.79 0c-.575.986-1.544 2.015-1.418 3.223.047.451.387 1.095.387 1.095l1.024 13.177c-1.65.626-3.455 1.332-5.086 1.987-.21-4.359-.503-9.66-.688-11.537-.008-.086.157-.157.157-.157.112.17 1.461 1.343 1.461.888 0-.332-.067-.575-.156-.888-.731-2.558-2.558-6.421-2.558-6.421-.467.799-1.25 1.632-1.149 2.61.038.366.313.888.313.888l.886 15.32c-1.938.797-3.344 1.414-3.434 1.54M41.8 35.72c-.55-.85-1.39-1.713-2.468-1.739-.558-.014-1.445-.077-1.627.617-.534 2.038 3.037 1.332 4.055 1.13zm12.633 2.32s3.638.49 5.808.075c2.275-.435 9.454-2.686 10.137-5.467.486-1.983-2.327-3.265-3.91-3.91-3.523-1.435-6.525.872-8.657 3.493-.94 1.156-3.378 5.808-3.378 5.808" fill="#000"/></svg>