<svg width="100" height="54" viewBox="0 0 100 54" fill="none" xmlns="http://www.w3.org/2000/svg"><path fill-rule="evenodd" clip-rule="evenodd" d="m33.226 14.712-1.113-.866s.603-1.658.433-2.72c-.226-1.414-1.513-1.174-2.535-.433-.825.598-1.395 1.208-1.36 2.226.036 1.067 1.119 1.675 1.793 2.35l-1.608 1.545s-1.075.98-1.855 1.484c-1.604 1.036-4.038 2.535-5.336 3.03-.19.131-.184.236-.352.37 0 0 .378-.109.618-.185 3.392-1.071 6.949-3.199 9.275-5.936l1.36.742zm-3.339-2.659c-.378.658 1.047 1.185 1.422 1.36.105-.247.081-1.113 0-1.36-.08-.247-.166-.37-.433-.37-.266 0-.8.044-.989.37" fill="#000"/><path d="M53 19.478s.127-.077.158-.16c.477-1.27.074-3.406 1.748-4.607.61-.437 1.383-.065 1.588.636.14.475-.009 1.038-.409 1.331a.095.095 0 0 1-.125-.012c-.324-.343-.498-.816-1.054-.684-.535.38-.625.9-.848 1.483-.388 1.018-.323 3.219-1.216 4.137a.09.09 0 0 1-.153-.04c-.086-.332-.038-.69-.113-1.025-.144-.641-.887-3.359-1.748-3.072-.378.126-.408.209-.847 0-1.413-.67-.238-2.748 1.112-2.012 1.268.692 1.72 2.75 1.906 4.024m20.714 33.687 1.537-2.888a.13.13 0 0 0-.031-.161c-.948-.787-2.617-1.615-3.3-1.98a.134.134 0 0 0-.185.06L70.39 51.07a.13.13 0 0 0 .048.167l3.088 1.976a.13.13 0 0 0 .188-.049m10.099-32.637c-.097.194-14.087 5.262-14.879 5.601-.321.138 0-.453.283-.849s13.918-5.77 15.106-5.883c.217-.021-.413.937-.51 1.131M59.21 47.296c-.102.205-14.844 5.544-15.679 5.902-.338.145 0-.477.298-.894s14.666-6.08 15.917-6.2c.23-.022-.434.988-.536 1.192M80.185 2.428h-2.733s.113-.417.224-.669c.36-.823.89-1.312 1.673-1.673 1.339-.095 2.879-.202 4.182.223.435.142.643.225.837.614-.636 1.267-1.415 2.592-2.566 3.457-1.244.936-3.848 1.283-3.848 1.283s-.223 0 .335-.39 3.792-1.576 3.792-2.622a9 9 0 0 0-1.896-.223" fill="#000"/><path fill-rule="evenodd" clip-rule="evenodd" d="M59.537 32.422c.386-.273.929 1.33 1.142 2.396 1.01 5.066-4.842 9.907-7.414 4.648 0 0-1.586 2.425-3.136 3.168-1.405.673-2.508 1.07-3.957.499-1.075-.424-1.646-.973-2.187-1.994-.435-.824-.498-2.332-.498-2.332-3.732 3.457-8.605 4.647-14.153 5.178L9.424 45.32c-2.86-.738-5.645-1.335-8.234-2.718-.313-.167-1.19-1.03-1.19-1.03l12.834-.224 3.393-4.23V27.002L14.78 5.677l-.45-1.64.45-2.51L15.6.45l2.943 7.575.129 1.351-1.56-1.35-.306.16L17.9 20.634s.414 4.84.337 7.944c-.069 2.804-.61 7.157-.61 7.157 3.406-3.565 11.238-10.132 16.082-6.578 5.194 3.812 1.408 8.561-2.67 11.145 4.24-.328 8.131-1.408 11.724-3.73 1.208-.782 2.46-2.622 2.83-2.172.568.692-.62 2.19-.096 3.36 1.176 2.634 3.88 1.691 5.95.66 1.207-.6 2.895-4.677 3.458-4.631.918.075-.129 1.286.096 2.477.226 1.19 1.754 2.235 4.021 1.495.37-.12.29-.74.29-.74s-.463-.303-.628-.916c-.359-1.34.467-3.41.853-3.683m-40.254 3.972-4.777 4.68s3.27-.231 5.34-.563c3.513-.562 5.51-.968 8.829-2.251 2.25-.87 5.564-2.686 5.564-2.686s-1.33-2.285-2.734-3.056c-4.14-2.273-9.307 1.07-12.222 3.876" fill="#000"/><path d="M83.253 23.23c-.313.438-.668 1.09-.313.938.279-.12 2.04-.77 4.313-1.608l.331 5.182s.756 6.98.161 9.923c-.326 1.611-2.55 2.293-4.037 2.17-.93-.075-1.776-.45-2.203-1.447-.42-.98.193-2.283-.257-3.168-.329-.645-2.1 2.01-3.554 3.169-1.03.82-1.51 1.47-2.718 1.994-1.617.7-2.802.998-4.487.482-1.02-.312-1.659-.584-2.348-1.399-.843-.997-.965-3.2-.965-3.2s.04-15.153-.885-24.8c-.275-2.87-.044-4.563-.836-7.336-.44-1.54-1.48-3.824-1.48-3.824s-.676 1.297-.836 2.203c-.148.841 0 2.187 0 2.187s.585 2.242.965 4.293c.949 5.126.636 9.024.836 14.234.244 6.343.547 15.198.547 15.198s.633 4.255 2.654 5.564c2.098 1.359 4.636.981 6.4 0 3.442-1.914 4.375-4.554 5.227-4.519s.153 1.879.853 2.766c.769.975 1.56 1.401 2.798 1.512 1.653.148 2.555-.81 3.795-1.914 2.379-2.117 2.275-4.555 2.622-7.72.174-1.591 0-4.1 0-4.1-.092-2.066-.26-5.097-.448-8.237 1.59-.586 3.273-1.207 4.795-1.773l.25 4.258 1.02 13.778c-.03 1.595-.381 8.516.08 7.702.762-1.344 1.003-2.576 1.266-4.053.301-1.686.347-3.324.38-5.032.108-5.732-.323-11.612-.848-17.458 1.787-.674 3.026-1.158 3.056-1.218.107-.215.803-1.274.563-1.251-.37.035-1.823.53-3.731 1.231-.319-3.472-.66-6.928-.929-10.328-.007-.094.173-.167.173-.167.119.186 1.8 2.167 1.81 1.673.006-.36-.061-.624-.152-.965-.74-2.789-2.884-7.696-2.884-7.696-.522.857-1.39 1.744-1.299 2.807.034.397.321.968.321.968l.85 14.498c-1.553.59-3.23 1.245-4.791 1.868-.306-5-.648-10.01-.807-11.626-.01-.106.192-.192.192-.192.138.208 1.535 1.442 1.535.885 0-.407-.082-.704-.192-1.087-.895-3.133-2.877-7.662-2.877-7.662S85.637 2.93 85.762 4.13c.047.447.384 1.087.384 1.087l1.038 16.26c-2.204.902-3.83 1.612-3.931 1.753" fill="#000"/></svg>