<svg width="100" height="79" viewBox="0 0 100 79" fill="none" xmlns="http://www.w3.org/2000/svg"><path d="M68.372 4.126h-4.635s.191-.707.379-1.135c.612-1.395 1.51-2.225 2.837-2.838 2.272-.161 4.883-.342 7.094.379.738.24 1.09.382 1.42 1.04-1.079 2.15-2.4 4.397-4.352 5.865-2.11 1.586-6.526 2.175-6.526 2.175s-.379 0 .567-.662 6.432-2.673 6.432-4.446a15 15 0 0 0-3.216-.378M35.23 9.583l2.247-4.223a.19.19 0 0 0-.045-.236c-1.386-1.15-3.826-2.36-4.826-2.895a.196.196 0 0 0-.27.088L30.37 6.52a.193.193 0 0 0 .071.245l4.515 2.89c.095.06.222.027.275-.072" fill="#000"/><path fill-rule="evenodd" clip-rule="evenodd" d="m17.269 7.1-1.61-1.252s.871-2.4.626-3.937c-.328-2.046-2.19-1.699-3.669-.627-1.193.866-2.019 1.748-1.968 3.222.052 1.544 1.62 2.424 2.594 3.4l-2.326 2.237s-1.557 1.419-2.684 2.147C5.91 13.79 2.389 15.958.51 16.674c-.275.19-.267.343-.51.537 0 0 .547-.159.895-.268 4.908-1.55 10.055-4.63 13.421-8.59l1.969 1.074zm-4.832-3.847c-.548.952 1.515 1.715 2.058 1.968.152-.358.117-1.61 0-1.968s-.241-.537-.626-.537c-.386 0-1.16.064-1.432.537" fill="#000"/><path d="M69.106 44.198c-.5.225-1.14.05-1.497-.332-.665-.713-.665-2.62-.665-2.745 0-1.166-.258-2.024-.666-2.911-.287-.627-.902.798-.914 1.081-.023.529.154.904.25 1.331.224.824.415 2.661 0 3.16-.417.5-1.03 1.006-1.664.915-.855-.122-1.236-.646-1.331-1.497-.083-.748 0-2.079 0-2.079.055-3.088-.545-1.955-.765-1.04-.147.611-.15 1.622-.15 1.622s0 3.41.333 4.076c.332.665 1.27 1.502 2.412.998.974-.43 1.553-1.612 1.746-2.579.583.749 1.423 3.057 3.078 1.83.793-.588 1.136-1.733 1.247-2.661.2-1.666-.664-3.141-1.247-4.658-.187-.56-.448-1.46-.832-.333-.505 1.483 2.025 5.211.665 5.822" fill="#000"/><path d="m45.228 56.245-.273-.04a.17.17 0 0 0-.173.092c-1.689 3.468-3.66 7.339-4.19 11.203-.306 2.236-.342 4.866.583 6.986 1.485 3.402 5.277 5.228 8.816 3.91 1.748-.652 2.485-1.541 3.91-2.745 6.301-5.327 6.971-10.032 16.62-13.11 13.243-4.224 12.851-8.497 13.05-26.06 2.634-.97 5.362-1.924 7.891-2.867l1.96 25.204c0 2.343-.322 12.52.332 11.31 1.081-1.995 1.402-3.811 1.747-5.987.394-2.486.416-4.893.416-7.403 0-1.305-.855-12.745-1.745-24.14 2.379-.898 4.937-1.843 4.977-1.925.149-.298 1.114-1.767.781-1.736-.498.048-3.348 1.004-5.894 1.937a1124 1124 0 0 0-1.779-20.335c-.013-.137.25-.25.25-.25.179.27 2.328 2.14 2.328 1.415 0-.529-.106-.915-.249-1.414C93.422 6.214 90.511.06 90.511.06c-.743 1.272-1.992 2.6-1.83 4.158.06.583.499 1.414.499 1.414l2.148 26.253c-2.575.975-5.262 1.976-7.814 3.002-.303-8.051-1.174-16.092-1.96-24.09-.014-.142.256-.258.256-.258.185.279 2.4 2.204 2.4 1.457 0-.545-.11-.943-.257-1.457C82.753 6.341 79.754 0 79.754 0c-.765 1.311-2.052 2.679-1.885 4.284.062.6.514 1.457.514 1.457l2.205 30.404c-2.3.959-2.658 1.294-2.774 1.457-.434.607-.927 1.513-.434 1.302.323-.139.849-.414 3.257-1.302l.129 3.792c.206 3.567.988 8.211-1.173 11.414-2.025 3-5.33 2.822-13.315 6.593S48.277 81.273 42.506 72.74c-2.792-4.129 2.009-11.78 2.858-16.288a.162.162 0 0 0-.136-.207" fill="#000"/><path d="M54.2.048s2.664 5.98 3.695 9.923c.126.483.22.857.209 1.365-.016.697-2.042-1.146-2.208-1.41 0 0-.255.102-.246.235.168 2.218.705 11.36 1.237 20.91l.08 1.437c6.672-2.734 17.135-6.736 18.42-6.859.345-.033-.653 1.488-.808 1.796-.105.21-10.548 4.048-17.524 6.618.362 6.189.702 9.577.9 11.54.118 1.172.184 1.836.174 2.286-.055 2.412-.128 4.726-.561 7.107-.38 2.084-.727 3.823-1.81 5.719-.527.921-.288-5.2-.147-8.814.035-.887.064-1.624.074-2.068l-1.22-14.814c-1.889.698-3.212 1.192-3.493 1.312-.51.218 0-.718.449-1.346.099-.139 1.22-.658 2.928-1.386L52.8 5.376s-.403-.81-.449-1.37C52.228 2.504 53.46 1.255 54.2.048" fill="#000"/><path fill-rule="evenodd" clip-rule="evenodd" d="M51.869 49.528c.154-.308 1.152-1.828.807-1.796-.84.08-5.606 1.82-10.67 3.78-1.817-7.188-9.05-7.305-15.353-7.776-4.246-.318-6.645-.136-10.898-.356-2.728-.142-5.296.024-7.925-.793a.14.14 0 0 1-.067-.222c2.424-3.015 5.145-5.582 8.254-7.89a.14.14 0 0 1 .18.008c.28.252 1.184 1.059 1.838 1.56 4.204 3.225 9.274 4.827 14.601 4.06 5.562-.8 11.02-4.05 13.177-9.473.77-1.938.855-3.186.855-5.27-.001-5.676-7.049-19.753-13.676-11.54-1.922 2.382-3.323 6.315-1.78 9.189 2.307 4.3 7.577 1.39 11.182 3.062 5.775 2.68-.556 5.557-4.131 6.98-3.507 1.397-7.199 2.138-10.97 1.568-2.608-.395-4.564-.895-6.297-2.928a.14.14 0 0 1 .042-.216l6.855-3.6a.14.14 0 0 0 .062-.066l1.878-3.964a.14.14 0 0 0 .006-.108l-.392-1.11a.14.14 0 0 0-.056-.072c-4.043-2.673-8.093-3.574-12.923-3.606-4.73-.032-9.536.731-13.249 3.917l-1.353 5.27s1.255-.796 2.137-1.139c1.39-.54 2.232-.53 3.632 0 2.151.815 3.966 2.584 5.518 4.233a.14.14 0 0 1 .038.097v.874a.14.14 0 0 1-.052.11c-3.249 2.701-5.523 6.235-7.783 9.786H3.71a.28.28 0 0 0-.219.103l-.03.035c-.12.145-.07.37.093.465.26.155.6.398.735.68.087.182.142.498.142.498S1.113 53.203.798 56.77c-.396 4.47-.213 9.514 1.78 13.604 3.428 7.035 11.292 9.512 18.59 8.12 6.524-1.243 12.645-5.348 16.596-10.612 2.25-2.999 3.99-6.605 4.52-10.357.041-.988.07-2.814-.036-4.295 5.055-1.873 9.552-3.564 9.62-3.702M28.26 58.414c-.51.218 0-.718.449-1.346.21-.293 5.02-2.302 10.288-4.381q-.211-.233-.45-.475c-5.643-5.745-15.772-2.73-23.078-4.274-3.237-.684-6.175-1.72-8.974-3.49 0 0-1.48 3.117-2.208 5.2-1.51 4.313-2.484 9.217-1.354 13.746 1.127 4.515 4.174 7.467 8.476 8.904 9.118 3.045 20.095-.977 26.354-7.978 1.78-1.99 2.932-3.519 3.104-6.232.039-.61.044-.958-.038-1.562-.135-1.003-.39-1.77-.802-2.475-5.579 2.06-11.155 4.1-11.767 4.363m12.151-38.665c-.31-.458-1.127-1.59-1.935-2.082-1.542-.94-2.939-1.131-4.421-.147a.385.385 0 0 0-.166.398c.544 2.598 3.616 2.309 5.866 2.097h.002l.548-.05a.14.14 0 0 0 .106-.216M21.503 25.88c-2.053-1.436-5.307-1.265-7.937-.927a.143.143 0 0 0-.06.26 45 45 0 0 1 4.029 3.076.14.14 0 0 0 .157.018 48 48 0 0 0 3.804-2.198.137.137 0 0 0 .007-.229" fill="#000"/></svg>