<svg width="100" height="52" viewBox="0 0 100 52" fill="none" xmlns="http://www.w3.org/2000/svg"><path fill-rule="evenodd" clip-rule="evenodd" d="M14.541.06c.405.925 2.278 5.25 2.846 7.425.079.3.137.53.13.846-.01.432-1.766-1.327-1.87-1.49 0 0-.158.063-.151.145.33 4.384 1.004 9.555 1.246 13.946.509 6.25.822 8.048.805 8.771-.034 1.495-.536 6.088-.805 7.564 2.988-3.544 10.212-8.604 14.238-7.119 2.28.841 3.898 3.666 3.898 4.852 0 2.677-3.157 5.2-5.085 6.547 0 0 5.661-.912 8.877-2.543 1.71-.866 3.708-2.936 4.132-2.648s-.446 1.568-.148 2.5c1.178 3.686 5.974 2.225 8.071.614 1.187-.91 3.157-3.813 3.517-3.517.49.403-.335 1.475-.211 2.288.398 2.628 3.023 2.516 4.978 1.378 1.674-.975 2.776-4.45 3.411-4.11.643.342-.177 1.158 0 1.864.182.722.382 1.15.911 1.674 1.332 1.314 4.788-.17 4.788-.17s-1.25-3.665 0-6.06c1.047-2.004 3.136-4.995 4.662-4.724 2.033.362 2.254 3.495 2.16 5.975-.07 1.895-1.567 4.597-1.567 4.597s3.06.534 4.979.212c2.182-.365 5.212-2.224 5.212-2.224s-1.37-8.394-1.886-13.814c-.638-6.703-.763-17.225-.763-17.225l-.572-1.716c-.134-.402.7-2.479 1.314-3.241.435-.54 3.94 8.856 3.008 8.644-.66-.15-1.238-.85-1.455-1.143-.026-.035-.085-.014-.083.03L84.2 27.435s.322 3.59.784 5.848c.196.958.572 2.436.572 2.436s3.836-1.171 5.593.127c2.165 1.601 1.732 5.382.821 7.077-.887 1.65-2.648 1.631-4.317.826-1.671-.806-3.262-3.771-3.262-3.771s-1.792 1.152-3.051 1.652a15.5 15.5 0 0 1-6.123 1.123c-2.271-.038-4.936-1.44-4.936-1.44-1.914 1.42-4.968 2.885-7.225 1.44-1.173-.75-1.95-2.987-1.95-2.987s-.852 2.72-2.266 3.58c-1.655 1.006-3.482 1.254-4.958 0-1.049-.89-1.334-3.262-1.334-3.262s-2.903 4.407-5.806 4.703c-1.742.178-3.155.23-4.364-1.038-.96-1.007-.55-3.242-1.123-3.242-.318 0-2.733 2.458-5.953 3.242-4.68 1.14-7.391 1.587-12.204 1.8-2.09.094-3.31.045-5.402.128-3.216.127-5.443.77-8.644.445-2.664-.271-6.123-1.568-6.123-1.568S.987 43.766.048 42.86c-.594-.572 4.51.152 7.394 0 1.965-.103 5.02-.445 5.02-.445l3.01-3.92s.26-3.642.169-5.974c-.17-4.3-.471-7.156-.788-11.74-.425-6.14-1.129-15.721-1.129-15.721s-.498-1.582-.498-1.943c0-.992.672-2.287 1.136-3.066a.1.1 0 0 1 .18.009m4.744 37.207c-2.3 1.704-5.34 5.021-5.34 5.021s6.393-.651 10.319-1.8c3.441-1.008 8.39-2.86 8.39-3.454 0-.445-.984-1.928-2.14-2.67-3.922-2.513-8.111.592-11.188 2.872zm52.585-5.509c-.424-.138-3.614 2.845-3.306 3.75.318.933 1.48 2.098 2.225 2.098.466 0 2.479-1.229 2.67-2.161.105-.517-.36-3.286-1.59-3.686m18.665 8.37c.506-1.267-2.541-1.275-3.383-1.122-.05.009-.076.06-.047.101.406.598 2.946 2.23 3.43 1.02" fill="#000"/><path d="M47.929 51.72c.587-.294 11.014-4.611 11.08-4.765.066-.155.49-1.088.327-1.063-.898.134-10.817 4.326-11.016 4.644s-.63 1.304-.392 1.185M71.346 23.36l-.497.934.022.016 3.05 1.953a.13.13 0 0 0 .186-.049l1.518-2.854a.13.13 0 0 0-.03-.159c-.936-.777-2.585-1.595-3.26-1.956a.13.13 0 0 0-.183.06l-.874 1.866.037.03a.13.13 0 0 1 .03.16m-3.473-2.056-1.33 2.84a.13.13 0 0 0 .049.165l3.05 1.953a.13.13 0 0 0 .187-.049l1.021-1.92a.13.13 0 0 1-.026-.15l.455-.973c-.942-.768-2.557-1.57-3.223-1.926a.13.13 0 0 0-.183.06" fill="#000"/><path fill-rule="evenodd" clip-rule="evenodd" d="m79.073 12.4-1.04-.808s.563-1.549.405-2.54c-.211-1.32-1.413-1.097-2.368-.405-.77.559-1.302 1.128-1.27 2.079.034.996 1.045 1.565 1.675 2.194l-1.502 1.444s-1.004.915-1.732 1.385c-1.498.968-3.77 2.368-4.983 2.83-.178.123-.173.22-.33.346 0 0 .354-.102.578-.173 3.168-1 6.49-2.987 8.662-5.543l1.27.693zm-3.118-2.482c-.354.614.977 1.106 1.328 1.27.098-.231.075-1.04 0-1.27-.075-.231-.156-.347-.404-.347s-.749.042-.924.347" fill="#000"/><path d="M64.242 13.37h2.663c.392.004 1.744.02 1.85.318.047.13-.318.338-.318.338-.772.41-3.07 1.651-3.885 2.26-.096.072-.035.173.08.139l2.767-.81s.749-.185 1.293-.678c.636-.576 2.266-2.457 2.118-3.177-.17-.827-4.23-.599-4.894-.551-.917.423-1.367 1.241-1.674 2.16M71.446 2.65h2.662c.392.004 1.745.02 1.85.317.047.13-.317.34-.317.34-.773.408-3.07 1.65-3.886 2.259-.096.072-.035.172.08.138l2.768-.809s.748-.186 1.292-.678c.637-.576 2.266-2.457 2.119-3.178-.17-.826-4.23-.598-4.894-.55-.917.423-1.368 1.24-1.674 2.16" fill="#000"/><path fill-rule="evenodd" clip-rule="evenodd" d="m31.615 15.451-1.039-.808s.563-1.549.404-2.54c-.21-1.32-1.413-1.097-2.367-.405-.77.559-1.303 1.128-1.27 2.079.033.996 1.045 1.565 1.674 2.194l-1.501 1.444s-1.005.915-1.733 1.385c-1.498.968-3.77 2.368-4.983 2.83-.177.123-.172.22-.329.346 0 0 .353-.102.578-.173 3.167-1 6.489-2.988 8.66-5.543l1.271.692zm-3.118-2.483c-.353.615.978 1.107 1.328 1.27.098-.23.076-1.039 0-1.27-.075-.23-.155-.346-.404-.346-.248 0-.748.042-.924.346" fill="#000"/><path d="M86.283 22.808c-.212.32-.677 1.316-.43 1.2.354-.167 4.951-2.15 8.734-3.804l.093 1.297.982 17.1c-.032 1.397-.362 7.455.045 6.744.671-1.175.886-2.252 1.122-3.544.268-1.476.314-2.91.348-4.404.016-.724-.528-10.235-.873-16.54q-.038-.686-.08-1.37c1.927-.85 3.355-1.49 3.379-1.542.07-.156.528-1.098.36-1.077-.301.038-1.855.656-3.814 1.48-.24-3.55-.558-7.093-.826-10.642-.006-.081.152-.145.152-.145.103.163 1.86 1.922 1.87 1.49.007-.315-.052-.547-.13-.846-.568-2.175-2.441-6.5-2.846-7.425a.1.1 0 0 0-.18-.009c-.463.779-1.136 2.075-1.136 3.066 0 .361.499 1.943.499 1.943l.952 13.268c-3.766 1.617-8.098 3.573-8.222 3.76" fill="#000"/></svg>