<svg width="100" height="69" viewBox="0 0 100 69" fill="none" xmlns="http://www.w3.org/2000/svg"><path fill-rule="evenodd" clip-rule="evenodd" d="M75.055 3.188c.294-.21 2.814 6.632 3.326 8.56l.006.024c.115.434.2.754-.006 1.157-.21.41-1.89-1.653-1.89-1.653s.12 6.773.453 11.098c.227 2.95.19 4.636.768 7.537.39 1.958 1.318 4.94 1.318 4.94s2.88-1.04 4.487-.709c2.092.43 2.84 1.764 3.385 3.621.772 2.633-.01 5.836-2.775 6.455-2.861.64-6.415-4.802-6.415-4.802-2.893 1.082-8.836 3.385-10.154 6.337-1.46 3.269 1.928 6.867 1.928 6.867s-.384 3.596-.65 4.054c-.216.374-2.124-1.043-2.616-1.633-2.567-3.08-3.139-9.152-2.559-13.244l-.09.025c-4.23 1.184-6.385 1.787-9.414-1.206-1.602-1.583-2.244-5.313-2.244-5.313s-.385 1.418-.787 2.263c-.25.525-.728 1.299-.728 1.299s1.736 1.923 2.066 3.463c.637 2.975-.44 6.504-3.443 6.986-2.272.365-3.668-1.097-5.156-2.853-1.005-1.185-1.771-3.562-1.771-3.562s-1.187 3.578-2.991 4.92c-1.483 1.103-2.853 1.48-4.684 1.082 0 0 .441 6.565-1.692 9.82-1.535 2.341-9.336 8.03-15.093 9.307-9.131 2.027-15.954.366-17.475-9.071-.25-1.556-.17-2.685 0-4.25.25-2.314.886-5.432 1.574-5.53.69-.099-1.143 3.758-.866 6.179.298 2.596.762 4.265 2.52 6.198 4.86 5.348 14.247 2.885 19.5.571 4.452-1.96 10.006-6.545 10.135-7.242.354-1.909.048-2.681-.295-4.349-.447-2.172-1.83-4.132-1.83-5.254 0-1.43.748-3.325 1.299-3.325s.558 2.328 1.692 2.735c3.62 1.299 6.342-1.528 8.009-3.798.776-1.056.64-2.077 1.633-2.932 1.887-1.624 6.067-.202 7.439-2.657 1.045-1.87-1.948-8.56-1.948-11.276 0-1.642.157-3.955.944-3.955.328 0 .94 1.794 1.388 3.103l.03.085c1.362 3.988 1.69 10.764 3.443 13.027 2.425 3.13 6.26 2.854 9.76 1.28 0 0 3.956-13.736 4.704-13.56.311.075.314.988.511 1.949.424 2.07.846 5.15.846 6.1 0 4.021-2.145 6.966-5.707 9.269 0 0-.514 2.257-.452 3.719.08 1.855 1.18 4.605 1.18 4.605s.174-4.038 1.32-6.258c1.575-3.053 3.665-4.036 6.611-5.805 1.232-.74 3.286-1.653 3.286-1.653s-1.626-7.97-2.164-13.145c-.572-5.493-.138-10.45-.571-14.13-.065-.552-.433-.663-.433-1.22 0-1.24.177-3.424 1.338-4.25m8.462 35.106c-.967-.436-2.716 0-2.716 0s1.475 1.699 2.716 1.653c.578-.021 1.184.097 1.417-.433.294-.668-.751-.92-1.417-1.22m-17.022-4.408c-.372 1.245-.807 3.228-.807 3.228s3.214-.848 3.838-2.46c.668-1.727-.432-4.071-1.22-5.57 0 0-1.237 2.882-1.81 4.802m-17.474 9.407c-.897-1.185-1.983-1.45-3.464-1.575-.367-.03-.944 0-.944 0s.108.417.216.67c.56 1.311 1.464 1.907 2.834 2.302.777.224 2.066.118 2.066.118s-.314-.995-.708-1.515" fill="#000"/><path d="M43.598 18.772h-3.059c.352-1.056.87-1.996 1.923-2.483.763-.054 5.428-.316 5.623.633.17.828-1.703 2.989-2.434 3.651-.625.566-1.485.78-1.485.78l-3.179.93c-.132.038-.203-.078-.092-.16.937-.7 3.576-2.127 4.464-2.596 0 0 .419-.24.365-.39-.122-.34-1.676-.36-2.126-.365M17.555 48.647l1.558-2.93a.13.13 0 0 0-.03-.163c-.962-.798-2.655-1.638-3.348-2.009a.136.136 0 0 0-.187.061l-1.365 2.916a.134.134 0 0 0 .049.17l3.132 2.005a.133.133 0 0 0 .19-.05" fill="#000"/><path fill-rule="evenodd" clip-rule="evenodd" d="m20.35 35.209-1.283-1s.628-1.71.444-2.86c-.245-1.53-1.536-1.294-2.643-.491-.646.468-1.413 1.46-1.376 2.562.04 1.156 1.169 1.564 1.899 2.293l-1.995 1.726c-1.322.818-3.348 2.13-5.032 3.107-1.595.924-2.885 1.578-2.885 1.849s4.857-1.677 4.857-1.677 3.35-1.697 5.868-4.66l1.258.863zm-2.076-1.406c-.407-.19-1.95-.76-1.54-1.473.204-.353.783-.401 1.071-.401.289 0 .382.134.47.401.086.268.113 1.205 0 1.473" fill="#000"/><path d="m60.179 64.862 1.558-2.93a.13.13 0 0 0-.031-.163c-.962-.798-2.654-1.638-3.348-2.009a.136.136 0 0 0-.187.062l-1.365 2.915a.134.134 0 0 0 .05.17l3.132 2.005a.133.133 0 0 0 .19-.05m-4.801.236 1.558-2.93a.13.13 0 0 0-.03-.163c-.962-.798-2.655-1.638-3.348-2.009a.136.136 0 0 0-.187.062l-1.365 2.916a.134.134 0 0 0 .049.17l3.132 2.004c.066.042.154.02.19-.05m.305-9.998c-.083.183-16.477 6.207-17.187 6.541-.288.135.256-1.029.503-1.403.246-.374 16.03-6.263 17.106-6.396.196-.025-.339 1.076-.422 1.259" fill="#000"/><path fill-rule="evenodd" clip-rule="evenodd" d="m70.962 18.206-1.282-.999s.628-1.71.444-2.86c-.245-1.53-1.536-1.294-2.643-.492-.646.469-1.413 1.461-1.376 2.563.04 1.156 1.169 1.564 1.899 2.293l-1.995 1.726c-1.322.817-3.348 2.13-5.032 3.106-1.595.925-2.885 1.578-2.885 1.85 0 .27 4.857-1.677 4.857-1.677s3.35-1.697 5.868-4.66l1.258.863zm-2.075-1.405c-.406-.19-1.95-.76-1.54-1.473.204-.353.783-.402 1.072-.402.288 0 .38.134.468.402.087.268.114 1.205 0 1.473" fill="#000"/><path d="M68.672 9.049c-.068.189-15.886 7.593-16.565 7.986-.275.16.167-1.046.38-1.44.215-.394 15.437-7.611 16.497-7.837.194-.04-.245 1.102-.312 1.29m-.437-6.491h-3.058C65.529 1.5 66.047.56 67.1.074c.763-.054 5.428-.316 5.622.633.17.828-1.702 2.989-2.434 3.651-.624.566-1.484.78-1.484.78l-3.18.929c-.132.039-.202-.077-.092-.16.937-.699 3.576-2.126 4.464-2.595 0 0 .419-.24.365-.39-.121-.34-1.675-.36-2.126-.365m14.113 27.676c-.288.136.256-1.029.503-1.403.108-.164 3.207-1.39 6.742-2.725L88.358 8.796s-.512-1.517-.512-1.987c0-1.29.659-2.816 1.263-3.83a.13.13 0 0 1 .233.012c.527 1.204 2.448 5.68 3.188 8.511.102.39.178.69.168 1.1-.012.563-1.683-.888-1.817-1.1 0 0-.206.082-.198.19.342 4.537.748 9.068 1.059 13.608 3.895-1.448 7.706-2.803 8.215-2.866.196-.025-.338 1.077-.422 1.259-.04.086-3.742 1.485-7.703 2.968q.068 1.072.128 2.146c.45 8.209 1.829 24.085 1.807 25.027-.044 1.946-.103 3.812-.453 5.733-.306 1.681-.586 3.084-1.46 4.613-.529.925-.1-6.96-.058-8.778l-1.95-25.755-.156-2.185c-3.668 1.37-7.029 2.624-7.342 2.771" fill="#000"/></svg>