<svg width="100" height="61" viewBox="0 0 100 61" fill="none" xmlns="http://www.w3.org/2000/svg"><path fill-rule="evenodd" clip-rule="evenodd" d="m45.266 17.613 6.478 3.337c.115.06.092.23-.035.257l-2.003.422a.136.136 0 0 0-.072.227c1.66 1.75 3.54 2.865 5.57 3.987-.168-5.049-.448-10.09-.985-15.053-.303-2.797-1.518-7.041-1.518-7.041.024-1.274.548-3.373 1.223-3.373.253 0 1.038 2.211 1.39 3.541 1.032 3.887 1.148 8.028 1.434 12.016.314 4.37.407 7.546.48 11.026 4.383 2.378 8.687 3.961 7.955 9.882-.302 2.435-1.146 4.02-3.033 5.444-.91.689-1.89 1.434-2.915 2.204 1.4 1.65 3.353 1.558 5.861 1.168 1.247-.195 3.12-.844 3.12-.844-.885-5.27 1.644-11.931 7.42-14.081.525-.196 1.434 0 1.434 0-.396-3.023-.9-6.033-1.223-9.065-.361-3.398-.467-5.314-.632-8.727-.151-3.126-.211-8.01-.211-8.01-.383-.47-.46-.967-.337-1.56L75.705.253a.25.25 0 0 1 .24-.173h.323a.25.25 0 0 1 .233.154c.33.81 1.875 4.625 2.761 7.224.217.636 1.48 3.631-.126 2.572-.652-.43-1.434-1.392-1.434-1.392-.035 2.679.062 5.338.211 8.011.257 4.607.16 9.302 1.602 13.744.984 3.033 3.495 3.04 6.071 4.427 2.184 1.176 3.248 3.112 2.994 5.566-.183 1.76-.99 3.91-2.277 5.185-1.994 1.976-5.745 2.935-8.474 3.204-2.18.216-4.291.031-6.198-1.096-1.791.98-3.681 1.901-5.692 2.32-2.88.597-6.33.989-8.39-1.519-.465-.567-.821-1.227-1.095-1.935-9.394 6.81-20.708 13.343-19.32-1.297.308-3.263 2.55-7.995 2.55-7.995-1.049 2.817-2.467 7.256-.966 10.2 2.645 5.184 10.755.258 16.964-4.238-.072-.58-.12-1.151-.156-1.691-.068-3.668-.114-7.371-.197-11.081-1.958-.968-3.753-1.91-4.757-2.77-1.657-1.418-2.627-3.672-4.342-4.962-.298-.224-.583-.198-.827-.482-.648-.755-1.23-4.617-.137-4.617m18.745 18.47c.185 1.14-1.018 1.78-1.86 2.343-.992.661-2.508 1.84-4.31 3.194-.687-2.51-.387-5.126-.46-7.768a395 395 0 0 1-.061-2.433c3.294 1.616 6.463 3.254 6.691 4.664m12.469-.503c-.195-.454-1.012-.759-1.012-.759-2.833.875-7.264 3.868-5.102 7.21.597.922 1.282 1.41 2.403 1.096 2.555-.716 5.228-4.005 3.71-7.547m.59 6.282c-.51.95-1.434 2.361-1.434 2.361 1.909.185 3.874.301 5.776 0 1.53-.242 4.133-.68 5.228-1.94 1.65-1.896-2.121-3.01-3.288-3.456-1.626-.621-3.058-1.178-4.47-2.235-.293 1.923-.895 3.562-1.812 5.27" fill="#000"/><path d="M30.419 15.11s-4.237 3.787-5.975 6.898c-1.403 2.51-3.458 7.192-2.464 10.287.936 2.916 4.002 3.363 6.714 3.942 4.62.986 7.938.73 4.435 3.82-2.792 2.46-4.846 3.237-8.193 4.865-4.483 2.181-10.483 4.858-15.645 3.635-1.761-.418-3.121-.842-4.25-1.848-3.785-3.373-5.051-8.07-.185-19.342.07-.163.061-.246 0-.308-.062-.062-.493 0-.493 0-3.02 5.975-6.347 14.472-2.895 20.943 1.266 2.374 2.796 4.127 5.112 4.62 4.328.92 7.58.823 12.012-.74 6.468-2.278 12.812-6.405 16.508-9.916.944-.897 1.165-1.71 1.54-2.957.463-1.54.37-2.957.37-2.957 0-3.388-6.211-4.117-9.733-5.112-1.337-.58-4.76-1.44-3.757-3.696.739-1.663 2.8-3.963 4.127-5.544s3.08-2.772 3.08-2.772 1.724-1.17 3.326-.677c.533.164.8 1.108.8 1.108.432 3.142 3.201-1.912 1.725-4.127-1.601-2.402-3.819-2.094-6.16-.123m25.814 38.215c-.107.23-16.32 6.619-17.236 7.042-.372.171-.015-.53.303-1.003s16.105-7.21 17.492-7.38c.254-.032-.452 1.11-.56 1.34M72.93 19.405c-.077.169-11.93 4.88-12.6 5.192-.272.127-.012-.388.22-.734.231-.347 11.772-5.312 12.787-5.44.186-.024-.328.813-.406.982M67.603 3.193h-3.266s.135-.498.267-.8c.431-.982 1.063-1.567 2-1.999 1.6-.114 3.44-.24 4.997.267.52.17.768.27 1 .733-.76 1.515-1.69 3.098-3.066 4.132-1.486 1.118-4.598 1.533-4.598 1.533s-.266 0 .4-.467c.666-.466 4.531-1.883 4.531-3.132a10.6 10.6 0 0 0-2.265-.267m14.622 22.276c-.323.479-.685 1.189-.308 1.015.466-.215 4.845-1.954 9.1-3.66l.424 8.468.721 10.56c-.058 2.098-.598 11.2.018 10.134 1.017-1.76 1.349-3.378 1.712-5.318.414-2.215.493-4.369.555-6.616.032-1.168-.04.62-.555-9.602a4975 4975 0 0 0-.444-8.604c3.23-1.302 5.886-2.393 5.93-2.487.109-.233.823-1.39.567-1.358-.552.068-3.352 1.16-6.569 2.49-.281-5.328-.526-9.77-.618-11.067-.008-.123.23-.217.23-.217.153.246 2.031 1.973 2.05 1.323.013-.473-.074-.821-.189-1.271C93.908 5.582 91.454 0 91.454 0c-.696 1.121-1.847 2.278-1.74 3.677.04.523.411 1.278.411 1.278l.827 16.55c-4.31 1.821-8.563 3.72-8.727 3.964" fill="#000"/></svg>