<svg width="100" height="82" viewBox="0 0 100 82" fill="none" xmlns="http://www.w3.org/2000/svg"><path d="m37.247 58.356-6.249 4.276c-.263-.79.689-2.143 1.381-2.697l-.328-.066c-.924-.461-1.155-.909-1.053-1.907.118-1.159 1.114-2.737 1.973-3.42 1.432-1.139 3.51-.39 2.632 1.512-.422.912-.535.553-1.053.132-.375-.305-.683-.275-1.118-.132-1.182.39-1.517 1.085-.329 1.908.613.424 1.303.533 2.04.394 1.128-.213 1.907-1.447 2.696-1.644.02.652-.15 1.165-.592 1.644" fill="#000"/><path fill-rule="evenodd" clip-rule="evenodd" d="m20.309 23.177-1.664-1.295s.9-2.48.647-4.068c-.338-2.114-2.263-1.756-3.791-.647-1.233.894-2.086 1.806-2.034 3.328.054 1.596 1.673 2.506 2.681 3.514l-2.404 2.311s-1.608 1.467-2.774 2.22c-2.398 1.549-6.038 3.79-7.98 4.53-.284.197-.275.354-.526.554 0 0 .565-.163.925-.277 5.072-1.602 10.39-4.784 13.869-8.876l2.034 1.11zM15.316 19.2c-.566.983 1.565 1.772 2.127 2.034.156-.37.12-1.664 0-2.034-.121-.37-.25-.555-.648-.555s-1.198.066-1.479.555m55.24 17.817-1.321-1.028s.715-1.968.514-3.23c-.268-1.678-1.796-1.393-3.01-.513-.979.71-1.656 1.433-1.614 2.642.043 1.267 1.328 1.99 2.128 2.79l-1.908 1.834s-1.277 1.164-2.202 1.762c-1.904 1.23-4.794 3.01-6.335 3.597-.226.156-.22.28-.418.44 0 0 .449-.13.734-.22 4.026-1.272 8.249-3.798 11.01-7.047l1.615.881zm-3.963-3.156c-.45.78 1.242 1.406 1.688 1.614.124-.293.096-1.32 0-1.614s-.198-.44-.514-.44-.951.052-1.174.44" fill="#000"/><path d="m39.61 15.463 1.968-3.7a.166.166 0 0 0-.04-.206c-1.213-1.007-3.35-2.067-4.226-2.536a.17.17 0 0 0-.237.078l-1.723 3.681a.17.17 0 0 0 .062.215l3.955 2.531a.17.17 0 0 0 .24-.063M59.2 38.574c-.072.2-13.078 6.715-13.809 7.136-.296.17-.051-.44.178-.857.23-.417 12.855-7.19 13.996-7.436.209-.045-.293.957-.365 1.157m-19.013 8.711c-.08.23-14.94 7.92-15.773 8.413-.338.2-.066-.504.191-.987.258-.483 14.676-8.462 15.984-8.761.24-.055-.322 1.105-.402 1.335M65.813 4.453h-3.866s.159-.59.316-.947c.51-1.164 1.259-1.855 2.366-2.367 1.895-.135 4.073-.285 5.918.316.615.2.909.318 1.183.868-.899 1.793-2 3.667-3.63 4.891-1.76 1.324-5.443 1.815-5.443 1.815s-.316 0 .473-.552c.79-.553 5.365-2.23 5.365-3.708a12.6 12.6 0 0 0-2.682-.316" fill="#000"/><path fill-rule="evenodd" clip-rule="evenodd" d="M52.856 55.586c-.652-2.201-1.394-3.62-3.336-4.835-1.448-.906-2.548-1.431-4.225-1.116-2.399.45-3.577 2.307-4.151 4.687-.538 2.226-.516 4.288 1.26 5.728.971.787 1.87.842 2.998.911.249.016.508.031.782.056 1.768.158 4.523-.446 4.523-.446s.53.234.667 1.19c.222 1.562-6.25 8.488-11.342 11.233-.654.352-1.264.705-1.85 1.044-2.693 1.556-4.864 2.81-8.232 2.304l-.15-.023-.011-.001c-2.047-.307-3.511-.526-4.954-2.06-1.367-1.45-1.518-2.862-1.722-4.754l-.058-.527c-.361-3.216 1.706-8.109 1.706-8.109h-.371s-.378.718-.593 1.19c-.537 1.179-.793 1.87-1.112 3.125-.24.944-.355 1.485-.445 2.455-.199 2.135-.38 4.843.074 6.918.46 2.107.869 3.53 2.52 4.91 1.485 1.24 2.75 1.438 4.67 1.637 2.062.214 3.284-.17 5.234-.785l.104-.033c2.394-.754 3.714-1.704 5.549-3.023.308-.222.63-.454.975-.697 2.234-1.577 3.41-2.595 5.337-4.538 2.118-2.135 3.262-3.348 4.893-5.951 1.19-1.9 2.02-3.94 1.859-6.202 3.994-.296 7.87-1.19 11.74-2.191 4.348-1.125 8.517-2.342 12.64-4.148 1.455 2.147 3.162 4.925 5.91 5.517 2.822.609 4.403-1.526 4.93-3.991.644-3.014-.319-6.999-3.64-7.944-2.041-.582-3.952.939-5.596.939-.405-1.218-.832-2.44-.978-3.718-1.056-9.235-2.27-20.179-2.348-30.054-.008-1.1 0-2.818 0-2.818s.874.76 1.487 1.174c.313.211.822.509.822.509s.087-.513 0-.822c-.822-2.935-2.309-7.005-3.561-9.744-.108-.237-.43-.509-.43-.509s-.403.789-.666 1.291c-.999 1.914-.936 3.583-.195 5.518 0 0-.086 4.629 0 7.592.218 7.61.901 15.373 1.8 22.932.461 3.883 1.487 9.901 1.487 9.901s-.558.599-1.018.822c-5.713 2.778-16.123 5.456-22.983 5.456m-7.506-1.86c-.893-.022-1.905-.047-2.13.819-.12.457-.058.81.222 1.19.622.85 2.514.652 3.547.545l.111-.012.122-.012a19 19 0 0 0 1.409-.223c-.727-1.128-1.838-2.272-3.262-2.306zm40.899.435c-2.134.37-3.66-.082-4.853-1.957 1.674-.28 4.853-.441 4.853 1.957" fill="#000"/><path fill-rule="evenodd" clip-rule="evenodd" d="m4.393 40.89-.246-.035a.15.15 0 0 0-.156.083C2.469 44.064.67 47.664.194 51.148c-.276 2.015-.364 4.037.47 5.948 1.338 3.066 4.44 4.775 7.63 3.587 1.576-.587 3.524-2.475 3.524-2.475C15.98 53.627 19.46 50 24.888 47.312c3.94-1.951 8.023-3.602 12.13-5.165l.431.195 1.419 2.415q.03.05.085.07l.29.096a.16.16 0 0 0 .187-.074l.153-.28a.2.2 0 0 0 .019-.075v-3.247a207 207 0 0 1 20.114-6.34l.587-.352 1.644-4.305s-.47-.472-.861-.587c-8.043-2.374-16.377-5.031-24.81-5.479-3.563-.189-5.735-.58-8.414 2.231-1.334 1.865-1.664 3.66-.4 5.518 1.585 2.327 4.794 4.689 6.976 6.468.13.106.108.31-.04.386-6.227 3.206-13.11 4.87-18.276 9.856-3.424 3.304-8.18 12.618-13.971 7.396-3.003-3.341 1.6-10.898 2.364-14.962a.146.146 0 0 0-.122-.187m48.693-8.412c-2.8-1.055-5.636-1.83-8.553-2.502-3.191-.734-11.917-2.44-15.144-1.285a.216.216 0 0 0-.088.343c1.388 1.69 3.21 3.15 5.023 4.602 1.38 1.105 2.755 2.206 3.927 3.4.061.063.15.087.234.063 3.51-1.01 6.896-2.07 10.322-3.142 1.414-.443 2.835-.887 4.274-1.331a.078.078 0 0 0 .005-.148" fill="#000"/><path d="M81.99 30.459c-.323.492-.682 1.22-.301 1.038.449-.214 4.476-1.875 8.575-3.578l2.719 34.968c0 2.45-.337 13.093.347 11.829 1.131-2.087 1.466-3.987 1.827-6.263.413-2.6.435-5.116.435-7.74 0-1.366-.894-13.33-1.825-25.246-.226-2.878-.462-5.86-.691-8.719 3.407-1.424 6.263-2.637 6.307-2.735.108-.24.821-1.427.56-1.391-.58.078-3.585 1.3-6.977 2.758-.552-6.873-1.04-12.788-1.201-14.42-.014-.144.26-.261.26-.261.188.282 2.436 2.237 2.436 1.478 0-.553-.112-.957-.26-1.478C92.982 6.437 89.937 0 89.937 0c-.776 1.331-2.083 2.719-1.913 4.349.063.61.522 1.479.522 1.479L90.162 26.6c-4.128 1.817-8.017 3.62-8.173 3.859" fill="#000"/></svg>