<svg width="100" height="60" viewBox="0 0 100 60" fill="none" xmlns="http://www.w3.org/2000/svg"><path d="m48.94 30.236 1.809-3.4a.15.15 0 0 0-.036-.19c-1.116-.926-3.08-1.9-3.885-2.33a.16.16 0 0 0-.217.07l-1.583 3.384a.156.156 0 0 0 .057.198l3.634 2.326a.156.156 0 0 0 .222-.058m21.112 2.454 2.049-3.853a.17.17 0 0 0-.04-.215c-1.265-1.05-3.491-2.153-4.403-2.642a.18.18 0 0 0-.246.081l-1.795 3.835a.176.176 0 0 0 .064.223l4.12 2.637a.176.176 0 0 0 .25-.066m3.669-29.906h-3.133s.13-.478.256-.767c.414-.943 1.02-1.504 1.918-1.918 1.536-.11 3.301-.232 4.796.255.498.163.736.259.959.704-.729 1.453-1.622 2.972-2.941 3.964-1.427 1.072-4.412 1.47-4.412 1.47s-.256 0 .383-.447c.64-.448 4.348-1.807 4.348-3.005a10.2 10.2 0 0 0-2.174-.256M48.667 16.797c-.506.227-1.153.05-1.515-.337-.673-.72-.673-2.651-.673-2.777 0-1.18-.261-2.049-.673-2.946-.292-.635-.914.807-.926 1.094-.023.535.156.914.252 1.347.228.833.421 2.693 0 3.198-.42.505-1.042 1.017-1.683.926-.864-.124-1.251-.654-1.347-1.515-.084-.758 0-2.104 0-2.104.056-3.125-.55-1.978-.774-1.052-.149.618-.152 1.64-.152 1.64s0 3.452.337 4.125 1.285 1.52 2.441 1.01c.986-.436 1.572-1.63 1.767-2.61.59.758 1.44 3.094 3.115 1.852.803-.595 1.15-1.753 1.262-2.693.202-1.685-.672-3.179-1.262-4.713-.19-.568-.453-1.478-.842-.337-.51 1.5 2.049 5.273.673 5.892M56.03 1.78c-.13.262-18.977 7.089-20.044 7.546-.432.185 0-.61.381-1.143.381-.534 18.75-7.774 20.35-7.927.292-.028-.556 1.263-.686 1.525m21.131 14.385c-.125.25-18.167 6.785-19.189 7.223-.414.177 0-.584.365-1.095.365-.51 17.949-7.442 19.48-7.588.28-.026-.53 1.21-.656 1.46" fill="#000"/><path fill-rule="evenodd" clip-rule="evenodd" d="m23.274 22.898-1.36-1.058s.736-2.025.529-3.323c-.276-1.727-1.849-1.434-3.097-.529-1.008.73-1.704 1.476-1.662 2.72.045 1.303 1.367 2.046 2.19 2.87l-1.963 1.888s-1.314 1.198-2.266 1.813c-1.96 1.265-4.933 3.097-6.52 3.7-.231.162-.225.29-.43.454 0 0 .462-.134.756-.227 4.143-1.308 8.488-3.907 11.33-7.25l1.662.906zm-4.08-3.248c-.462.803 1.28 1.448 1.738 1.662.128-.303.099-1.36 0-1.662-.098-.302-.203-.453-.529-.453-.325 0-.979.054-1.208.453" fill="#000"/><path fill-rule="evenodd" clip-rule="evenodd" d="M84.29 1.023s2.656 5.614 3.718 9.33c.13.456.227.808.227 1.29 0 .662-1.96-1.043-2.124-1.29 0 0-.24.103-.227.228.206 2.093.505 7.116.77 12.201a385 385 0 0 1 6.282-2.454L91.757 5.17s-.386-.733-.44-1.247c-.143-1.374.959-2.545 1.614-3.667 0 0 2.567 5.427 3.594 9.021.125.44.22.781.22 1.247 0 .64-1.896-1.008-2.054-1.247 0 0-.232.1-.22.22.126 1.284.445 5.1.837 9.941 2.365-.872 4.18-1.492 4.632-1.535.287-.027-.545 1.24-.673 1.497-.037.074-1.604.684-3.84 1.527.195 2.425.404 5.053.613 7.716l.12 1.52c.785 10.05 1.027 11.077 1.027 12.228 0 2.214-.094 4.458-.442 6.65-.305 1.919-1.1 4.634-2.054 6.394-.577 1.066 0-6.31 0-8.376l-.921-16-.719-9.243c-2.009.748-4.253 1.576-6.326 2.34.123 2.405.236 4.766.325 6.778.087 2.07.2 4.951.2 5.506 0 3.72.89 11.13-2.34 15.159-2.186 2.726-4.269 3.545-7.672 3.26-3.659-.305-6.524-2.695-9.207-4.987-6.512 5.205-15.963 6.722-23.658 3.389-3.88 3.09-9.692 4.049-12.404-.703-1.974-3.461-1.856-8.104-2.013-11.987-7.712 2.932-11.555 10.588-17.581 15.682-1.306 1.104-1.98 1.92-3.583 2.516-3.244 1.208-6.72-.465-8.08-3.583-.848-1.943-.815-4.354-.534-6.403.486-3.541 2.292-7.09 3.84-10.268a.15.15 0 0 1 .158-.084l.25.036a.15.15 0 0 1 .125.19C3.297 42.829-.681 49.31 1.93 53.586c5.572 9.116 17.215-12.635 27.92-17.754-.067-9.618.152-19.347-1.91-28.798-.29-1.331-.831-3.389-.831-3.389L28.58.256h.256a31.5 31.5 0 0 1 1.855 5.882c.736 3.455.817 7.033 1.023 10.55.396 6.776.308 12.775.428 18.315 1.555-.366 3.08-.296 4.55.364 3.849 1.727 1.773 8.058.914 6.936-1.347-1.76-3.021-2.747-5.277-2.368.176 2.99-.245 8.968 3.157 10.576 1.845.873 4.432.527 6.074-.639-1.229-2.9-1.001-6.042.384-8.823 1.907-3.83 6.948-8.322 8.631-2.238.945 3.413.318 7.74-1.854 10.55 3.884 1.233 12.916.511 16.305-2.366-1.97-2.307-4.924-4.07-7.993-3.261-.542.143-1.342.511-1.342.511v-.703l1.342-3.708c3.415-2.691 10.256-3.252 14.45-2.814 3.779.396 6.862 1.315 9.591 4.029v.32l-1.79 3.452-6.65 2.75c3.232 2.686 10.361 3.452 12.008.319.908-1.726.14-10.974 0-14.699l-.468-8.096c-2.437.899-4.275 1.58-4.585 1.712-.425.182 0-.599.374-1.122.112-.156 1.792-.898 4.138-1.865L83.077 6.106s-.4-.759-.455-1.29c-.148-1.422.992-2.632 1.669-3.793M41.945 45.225s1.32 3.41 3.33 2.835c1.673-.478 2.805-1.054 3.317-2.72.626-2.033-1.154-5.32-2.189-5.042-1.725.464-4.458 4.927-4.458 4.927m27.365-.404c-1.108-1.091-2.497-1.858-3.58-2.941 2.514-.838 5.574-.495 7.864.831a47 47 0 0 1-4.284 2.11" fill="#000"/></svg>