<svg width="100" height="90" viewBox="0 0 100 90" fill="none" xmlns="http://www.w3.org/2000/svg"><path d="M70.195 3.842h-4.58c.527-1.582 1.301-2.99 2.879-3.718 1.142-.082 8.129-.474 8.42.947.254 1.24-2.55 4.476-3.645 5.468-.935.847-2.224 1.167-2.224 1.167l-4.76 1.392c-.198.058-.304-.115-.138-.238 1.403-1.048 5.355-3.185 6.685-3.888 0 0 .627-.359.546-.583-.182-.51-2.509-.54-3.183-.547m-9.778 76.16c-.126.276-21.806 9.416-22.88 9.921-.436.205.387-1.557.76-2.124.374-.566 21.131-9.5 22.758-9.702.298-.037-.512 1.63-.638 1.905M43.634 14.18C44.59 13.807 39.361.06 38.721.815c-1.28 1.513-1.467 3.586-1.467 5.681 0 1.16.606 3.307.606 3.307.538 12.043 2.002 28.483 1.444 40.358-.035.743-.885 1.551-2.282 2.003-3.679 1.187-8.08 1.14-9.523 2.398-1.294 1.127-1.578 4.162-1.623 4.779a.13.13 0 0 0 .099.14c.96.26 8.23 2.238 13.05 3.65l.103.03c1.679.49 3.622 1.06 3.622 1.972 0 1.156-5.727 4.218-9.86 6.428l-.083.045C23.67 76.492 8.56 82.972 2.957 70.302c-1.263-2.856-1.094-4.82-.954-7.94.231-5.176 4.982-12.853 4.168-12.597-1.63.513-3.56 5.296-4.797 9.128-1.45 4.493-2.287 13.481.28 17.742 5.15 8.55 12.666 7.006 21.793 4.168 7.09-2.204 16.858-7.544 20.257-13.412 1.775-3.063 2.538-6.03 0-8.103-1.66-1.355-4.913-2.444-4.913-2.444s1.553-3.281 2.236-5.495c1.355-4.397 1.287-7.092 1.467-11.689.187-4.813-.351-7.509-.63-12.317-.276-4.794-.86-15.328-.86-15.328s2.048 2.392 2.63 2.165" fill="#000"/><path fill-rule="evenodd" clip-rule="evenodd" d="M77.177 30.984c-.374.567-1.197 2.329-.761 2.124.34-.16 2.734-1.18 5.855-2.51l.496-.212c.085 1.563.168 3.13.246 4.68 0 0 .593 6.66 0 8.685-.993 3.39-3.184 5.236-6.63 5.937-.602-2.567-2.814-5.335-4.715-6.52-4.06-2.53-7.055 1.235-8.676 4.74-2.78 6.011 1.578 7.906 6.092 8.032 1.32.037 5.145-.454 5.145-.454s.492 1.28.492 2.468c0 4.321-19.259 13.807-27.307 17.301-7.653 3.322-21.802 8.73-19.496 8.73 2.305 0 23.824-5.02 23.824-5.02s19.423-10.211 22.98-15.87c1.228-1.954 1.997-4.965 2.124-8.075 0 0 1.857-.873 2.902-1.653 4.929-3.679 6.557-12.021 6.496-18.301l-.402-5.992a2012 2012 0 0 0 7.328-3.141l.577 8.035 1.667 32.172c-.052 2.282-.59 12.185.074 11.022 1.097-1.92 1.449-3.681 1.833-5.793.44-2.411.513-4.754.569-7.198.027-1.183-.924-20.95-1.49-31.258-.15-2.718-.338-5.433-.544-8.146 2.047-.895 3.41-1.511 3.44-1.58.127-.276.936-1.942.639-1.905-.41.05-2.029.654-4.23 1.537-.298-3.8-.62-7.597-.907-11.4-.01-.133.248-.237.248-.237.169.267 3.04 3.141 3.056 2.435.011-.515-.084-.893-.212-1.383C96.961 8.68 93.9 1.61 93.238.099a.164.164 0 0 0-.293-.015c-.758 1.273-1.858 3.391-1.858 5.011 0 .59.815 3.177.815 3.177l1.123 15.643a477 477 0 0 0-7.32 3.11l-1.04-15.492c-.014-.152.276-.276.276-.276.198.298 2.28 2.362 2.28 1.562 0-.584-.117-1.01-.275-1.562C85.661 6.756 83.01.101 82.608.283c-.4.182-1.86 4.12-1.86 5.177 0 .646.568 1.05.568 1.05s.709 10.5 1.34 21.852c-3.077 1.368-5.358 2.438-5.48 2.622m-6.012 19.17c-.805-1.244-1.98-2.683-3.554-2.722-.815-.02-2.165.067-2.431 1.082-.78 2.976 4.503 1.932 5.951 1.646z" fill="#000"/><path d="M49.567 33.64c-.374.567-1.197 2.33-.761 2.124.23-.108 1.405-.612 3.11-1.34l.533 24.62c-.051 2.263-.585 12.08.073 10.928 1.088-1.904 1.437-3.65 1.818-5.743.435-2.391.509-4.714.564-7.137.026-1.157.189-13.643-.346-23.794l.104-.045c6.763-2.883 16.938-7.22 17.025-7.41.126-.275.935-1.942.638-1.905-1.133.141-11.539 4.514-17.882 7.35-.399-6.572-1-13.124-1.495-19.688-.01-.133.246-.235.246-.235.167.264 3.013 3.114 3.029 2.414.012-.51-.083-.886-.21-1.37-.92-3.525-3.956-10.534-4.612-12.033a.162.162 0 0 0-.29-.014C50.36 1.624 49.27 3.723 49.27 5.33c0 .585.808 3.149.808 3.149l1.724 24.01c-1.32.616-2.162 1.042-2.234 1.152" fill="#000"/></svg>