<svg width="101" height="65" viewBox="0 0 101 65" fill="none" xmlns="http://www.w3.org/2000/svg"><path d="M61.18 22.165c-.374.168-.853.038-1.12-.249-.498-.532-.498-1.96-.498-2.053 0-.872-.193-1.514-.498-2.177-.215-.47-.675.597-.684.809-.017.395.115.675.186.995.169.616.312 1.99 0 2.364-.31.373-.77.752-1.244.684-.639-.09-.924-.483-.995-1.12-.062-.56 0-1.555 0-1.555.041-2.31-.407-1.462-.572-.777-.11.457-.113 1.213-.113 1.213s0 2.55.25 3.048c.248.498.95 1.124 1.804.747.728-.322 1.161-1.206 1.306-1.929.435.56 1.064 2.287 2.302 1.369.594-.44.85-1.296.933-1.99.15-1.247-.497-2.35-.933-3.485-.14-.42-.335-1.092-.622-.249-.378 1.11 1.514 3.898.497 4.355M67.39 9.064c-.108.217-15.765 5.888-16.651 6.268-.36.154 0-.507.316-.95.317-.443 15.576-6.458 16.906-6.585.243-.023-.462 1.05-.57 1.267M83.85 23.228c-.11.217-15.767 5.888-16.653 6.268-.36.154 0-.506.316-.95.317-.443 15.576-6.458 16.906-6.585.243-.023-.461 1.05-.57 1.267M76.655 5.53h-3.324s.137-.506.271-.813c.44-1.001 1.083-1.596 2.036-2.035 1.629-.117 3.502-.246 5.087.27.53.173.782.275 1.018.747-.773 1.542-1.72 3.154-3.12 4.206-1.514 1.138-4.681 1.56-4.681 1.56s-.272 0 .407-.474c.678-.475 4.613-1.917 4.613-3.189a11 11 0 0 0-2.307-.271" fill="#000"/><path fill-rule="evenodd" clip-rule="evenodd" d="m27.081 26.512-1.1-.857s.596-1.64.428-2.69c-.224-1.399-1.497-1.162-2.508-.429-.816.592-1.38 1.195-1.345 2.202.036 1.056 1.107 1.657 1.773 2.324l-1.59 1.529s-1.064.97-1.835 1.468c-1.586 1.025-3.993 2.507-5.278 2.997-.188.13-.182.233-.348.366 0 0 .374-.108.612-.183 3.354-1.06 6.872-3.164 9.173-5.871l1.346.734zm-3.302-2.63c-.375.65 1.035 1.172 1.407 1.345.103-.244.08-1.1 0-1.345s-.165-.367-.429-.367c-.263 0-.792.044-.978.367" fill="#000"/><path d="m22.16 62.315 1.38-2.594a.116.116 0 0 0-.028-.145c-.851-.706-2.35-1.45-2.964-1.778a.12.12 0 0 0-.166.054l-1.208 2.582a.12.12 0 0 0 .043.15l2.774 1.776a.12.12 0 0 0 .169-.045M1.437 38.864c.28-1.043.928-2.52 1.09-2.886a.12.12 0 0 0-.034-.141l-.106-.085a.12.12 0 0 0-.182.045c-3.17 6.966-2.6 11.37-.174 14.055 4.04 4.47 13.943 3.836 25.6-.178 1.797-.62 16.045-7.713 12.175-1.782-2.052 3.145-4.334 4.844-5.455 8.611a.117.117 0 0 0 .159.142l.146-.063a.12.12 0 0 0 .06-.059c.135-.291.975-2.08 1.764-3.107 2.076-2.703 5.471-4.758 6.296-8.256 1.525-6.474-6.135-2.268-9.147-1.07-5.934 2.362-11.632 4.423-18.056 4.871-3.747.261-7.373.453-10.75-1.485-3.452-1.98-4.438-4.69-3.386-8.612" fill="#000"/><path fill-rule="evenodd" clip-rule="evenodd" d="M44.903.017s.827 2.416 1.197 4.006c.715 3.073.881 8.03.881 8.03l.482 10.856.482 15.477c-.03 1.742.13 3.713 1.13 5.201 1.588 2.359 4.387 1.897 6.6.767-1.545-3.612-.43-8.814 2.827-11.221v-2.494l.216-.399s0-.98.332-.98c.333 0 3.89 1.861 4.888 2.51.366.227.57.431.1.665 0 0-.753.145-1.23.083-.164-.022-.416-.083-.416-.083s.526.599.898.947c2.04 1.91 5.275 2.468 6.633 5.07 1.313 2.518.789 7.477-2.111 8.43-2.228.73-5.976.159-8.595-.616-1.91 1.306-4.326 2.839-6.716 2.91-3.326.098-4.582-1.48-5.686-4.356-.58-1.508-.765-7.498-.765-7.498s-.316-17.738-1.147-28.494c-.124-1.606-.547-2.456-.98-4.007-.169-.6-.45-1.53-.45-1.53s-.068-1.18.133-1.895c.162-.573.649-1.38.649-1.38zM59.716 42.21c1.084-.245 1.641-.913 2.094-1.929.636-1.424-.215-5.069-2.095-5.386-1.213-.205-3.746 2.789-3.757 4.09-.016 1.916 1.806 3.666 3.758 3.225m9.426.598c.252-.498.152-1.058-.233-1.463-.964-1.014-2.7-2.084-4.139-2.97-.472-.29-.911-.56-1.28-.803 0 0-.145 1.441-.317 2.377-.21 1.151-.897 2.86-.897 2.86 1.756.573 6.3 1.113 6.866 0" fill="#000"/><path fill-rule="evenodd" clip-rule="evenodd" d="M92.869 1.546s2.342 4.951 3.278 8.23c.115.401.201.712.201 1.137 0 .584-1.73-.92-1.873-1.137 0 0-.212.09-.201.2.129 1.31.532 6.205.98 11.78 2.417-.905 4.355-1.582 4.792-1.623.243-.023-.461 1.049-.57 1.266-.036.072-1.777.742-4.122 1.62.153 1.921.31 3.896.46 5.81.717 9.167 1.404 18.37 1.404 19.42 0 2.018-.017 3.954-.335 5.954-.277 1.75-.535 3.212-1.405 4.817-.526.973-.267-7.214-.267-9.099l-2.029-26.093c-1.387.515-2.855 1.056-4.237 1.565.2 2.395.346 3.966.346 3.966s.218 2.42.2 3.973c-.03 2.47.031 3.926-.699 6.284-.31 1.002-.512 1.564-.998 2.494-.83 1.588-1.313 2.629-2.793 3.64-.68.467-1.895.931-1.895.931.134 1.863-.858 4.14-1.84 5.703-3.742 5.952-20.667 19.52-23.546 6.399-.737-3.36.414-8.575 1.974-12.02.065-.142.245-.077.207.074l-.025.099c-.83 3.292-2.286 9.065.079 11.568 3.497 3.7 8.542.744 12.097-1.165 4.207-2.26 9.397-7.823 9.213-9.11-.112-.786-.393-1.119-.393-1.119-1.954.428-4.69.892-6.405-.492-2.76-2.23-.948-7.95 2.389-8.575 3.278-.614 5.289 2.307 5.856 5.269 0 0 1.923-.614 2.888-1.418l.017-.014c.859-.715 1.536-1.279 1.778-2.762.616-3.758-.69-12.899-.69-12.899-2.064.76-3.619 1.336-3.881 1.448-.36.154 0-.506.317-.95.094-.131 1.517-.76 3.503-1.578L85.666 7.58s-.364-1.16-.415-1.646c-.136-1.303.538-3.691 1.159-4.755 0 0 2.224 4.691 3.197 8.097.119.417.208.74.208 1.181 0 .606-1.796-.956-1.946-1.181.189 4.769.637 10.77.98 14.966a330 330 0 0 1 4.236-1.663l-1.287-16.55s-.352-.669-.401-1.138c-.13-1.253.875-2.321 1.472-3.345M79.48 43.484c-.606-.892-1.489-1.742-2.625-1.77-.96-.023-2.453.464-1.577 1.654.743 1.011 2.954.516 4.136.275a.103.103 0 0 0 .066-.159" fill="#000"/><path d="M85.6 41.894c-.965.804-2.888 1.418-2.888 1.418-.567-2.962-2.578-5.883-5.856-5.27-3.337.626-5.149 6.347-2.39 8.576 1.715 1.384 4.452.92 6.406.492 0 0 .281.333.393 1.12.184 1.286-5.006 6.849-9.213 9.109-3.555 1.91-8.6 4.866-12.097 1.165-2.365-2.503-.91-8.276-.08-11.568l.026-.099c.038-.151-.142-.216-.207-.074-1.56 3.445-2.711 8.66-1.974 12.02 2.88 13.121 19.805-.447 23.545-6.399.983-1.564 1.975-3.84 1.841-5.703 0 0 1.215-.464 1.895-.93 1.48-1.012 1.964-2.053 2.793-3.64.486-.93.688-1.493.998-2.495.73-2.358.669-3.815.698-6.284.019-1.553-.2-3.973-.2-3.973s-.145-1.571-.345-3.966c1.382-.509 2.85-1.05 4.237-1.565l2.029 26.093c0 1.885-.26 10.072.267 9.1.87-1.606 1.128-3.067 1.406-4.818.317-2 .334-3.936.334-5.955 0-1.05-.687-10.252-1.404-19.42-.15-1.913-.306-3.888-.46-5.81 2.345-.877 4.086-1.547 4.122-1.619.109-.217.813-1.29.57-1.266-.437.041-2.375.718-4.793 1.623-.447-5.575-.85-10.47-.979-11.78-.01-.11.2-.2.2-.2.145.217 1.874 1.72 1.874 1.137 0-.425-.086-.736-.2-1.137-.937-3.279-3.28-8.23-3.28-8.23-.596 1.024-1.602 2.092-1.471 3.345.049.469.401 1.138.401 1.138l1.287 16.55a330 330 0 0 0-4.235 1.664c-.344-4.195-.792-10.197-.98-14.966.149.225 1.945 1.787 1.945 1.181 0-.442-.09-.764-.208-1.181C88.633 5.87 86.41 1.18 86.41 1.18c-.62 1.064-1.295 3.452-1.16 4.755.052.487.416 1.646.416 1.646l.978 17.558c-1.986.819-3.409 1.447-3.503 1.579-.317.443-.676 1.103-.317.95.262-.113 1.817-.688 3.88-1.449 0 0 1.307 9.142.692 12.899-.243 1.483-.92 2.047-1.78 2.762m-.016.014.017-.014m-.017.014.017-.014M64.77 38.375c1.439.886 3.175 1.956 4.139 2.97.385.405.485.965.233 1.463-.566 1.114-5.11.574-6.866 0 0 0 .686-1.708.897-2.86.172-.935.316-2.376.316-2.376.37.242.81.513 1.28.803m12.087 3.34c1.136.027 2.019.877 2.625 1.77a.103.103 0 0 1-.066.158c-1.182.24-3.393.736-4.136-.275-.876-1.19.616-1.677 1.577-1.654ZM44.903.016s.827 2.416 1.197 4.006c.715 3.073.881 8.03.881 8.03l.482 10.856.482 15.477c-.03 1.742.13 3.713 1.13 5.201 1.588 2.359 4.387 1.897 6.6.767-1.545-3.612-.43-8.814 2.827-11.221v-2.494l.216-.399s0-.98.332-.98c.333 0 3.89 1.861 4.888 2.51.366.227.57.431.1.665 0 0-.753.145-1.23.083-.164-.022-.416-.083-.416-.083s.526.599.898.947c2.04 1.91 5.275 2.468 6.633 5.07 1.313 2.518.789 7.477-2.111 8.43-2.228.73-5.976.159-8.595-.616-1.91 1.306-4.326 2.839-6.716 2.91-3.326.098-4.582-1.48-5.686-4.356-.58-1.508-.765-7.498-.765-7.498s-.316-17.738-1.147-28.494c-.124-1.606-.547-2.456-.98-4.007-.169-.6-.45-1.53-.45-1.53s-.068-1.18.133-1.895c.162-.573.649-1.38.649-1.38zM61.81 40.28c-.453 1.016-1.01 1.684-2.095 1.929-1.95.44-3.773-1.309-3.757-3.225.011-1.301 2.544-4.295 3.758-4.09 1.88.317 2.73 3.962 2.094 5.386Zm-1.75-18.365c.267.287.746.417 1.12.25 1.016-.458-.876-3.247-.498-4.356.287-.843.482-.17.622.25.436 1.134 1.082 2.237.933 3.483-.083.695-.34 1.55-.933 1.99-1.238.919-1.867-.808-2.302-1.368-.145.723-.578 1.607-1.306 1.929-.855.377-1.556-.249-1.805-.747-.248-.497-.248-3.048-.248-3.048s.002-.756.112-1.213c.165-.685.613-1.532.572.777 0 0-.062.996 0 1.556.07.636.356 1.028.995 1.12.474.067.933-.312 1.244-.685.312-.373.169-1.748 0-2.364-.07-.32-.203-.6-.186-.995.01-.212.469-1.278.684-.81.305.664.498 1.306.498 2.178 0 .094 0 1.52.498 2.053Zm-9.321-6.584c.886-.38 16.543-6.051 16.652-6.268.108-.218.813-1.29.57-1.267-1.33.127-16.59 6.142-16.906 6.585s-.676 1.104-.316.95Zm16.458 14.164c.886-.38 16.543-6.051 16.652-6.268s.813-1.29.57-1.267c-1.33.127-16.589 6.142-16.906 6.585-.316.444-.675 1.104-.316.95ZM73.33 5.531h3.324c.784.01 1.543.096 2.307.271 0 1.272-3.935 2.714-4.613 3.189-.679.474-.407.474-.407.474s3.167-.422 4.68-1.56c1.4-1.052 2.348-2.664 3.121-4.206-.236-.472-.489-.574-1.017-.746-1.586-.517-3.46-.388-5.088-.271-.953.44-1.597 1.034-2.036 2.035a7 7 0 0 0-.27.814Zm-46.25 20.98-1.1-.856s.596-1.64.428-2.69c-.224-1.399-1.497-1.162-2.508-.429-.816.592-1.38 1.195-1.345 2.202.036 1.056 1.107 1.657 1.773 2.324l-1.59 1.529s-1.064.97-1.835 1.468c-1.586 1.025-3.993 2.507-5.278 2.997-.188.13-.182.233-.348.366 0 0 .374-.108.612-.183 3.354-1.06 6.872-3.164 9.173-5.871l1.346.734zm-3.302-2.63c-.375.651 1.035 1.173 1.407 1.346.103-.244.08-1.1 0-1.345s-.165-.367-.429-.367c-.263 0-.792.044-.978.367Zm-.24 35.84-1.38 2.594a.12.12 0 0 1-.168.045l-2.774-1.776a.12.12 0 0 1-.043-.15l1.208-2.582a.12.12 0 0 1 .166-.054c.614.328 2.113 1.072 2.964 1.778a.116.116 0 0 1 .028.145ZM2.529 35.978c-.163.365-.811 1.843-1.09 2.886-1.053 3.923-.067 6.632 3.385 8.612 3.377 1.938 7.003 1.746 10.75 1.485 6.424-.447 12.122-2.509 18.056-4.87 3.012-1.199 10.672-5.405 9.147 1.069-.825 3.498-4.22 5.553-6.296 8.256-.789 1.027-1.629 2.816-1.763 3.107a.12.12 0 0 1-.061.059l-.146.063a.117.117 0 0 1-.159-.142c1.12-3.767 3.403-5.466 5.455-8.61 3.87-5.932-10.378 1.162-12.176 1.781-11.656 4.014-21.56 4.649-25.599.178-2.426-2.685-2.997-7.089.174-14.055a.12.12 0 0 1 .182-.045l.106.085a.12.12 0 0 1 .035.141Z" stroke="red" stroke-width=".033"/></svg>