<svg width="100" height="52" viewBox="0 0 100 52" fill="none" xmlns="http://www.w3.org/2000/svg"><path fill-rule="evenodd" clip-rule="evenodd" d="m16.125 17.91-1.319-1.027s.646-1.758.457-2.94c-.252-1.574-1.58-1.331-2.717-.506-.665.481-1.454 1.501-1.415 2.635.04 1.188 1.201 1.607 1.951 2.357l-2.05 1.775c-1.359.84-3.443 2.19-5.174 3.194-1.64.95-2.966 1.622-2.966 1.9 0 .28 4.994-1.723 4.994-1.723s3.444-1.745 6.033-4.791l1.293.887zm-3.717-2.96c-.421.733 1.165 1.32 1.583 1.515.117-.276.09-1.239 0-1.514-.09-.276-.186-.413-.482-.413s-.892.05-1.101.413" fill="#000"/><path d="m73.967 26.32 1.561-2.935a.13.13 0 0 0-.031-.164c-.963-.8-2.66-1.64-3.354-2.012a.136.136 0 0 0-.187.061l-1.368 2.922a.135.135 0 0 0 .05.17l3.138 2.008c.066.043.154.02.19-.05m-.454-7.943c-.352.159-.803.035-1.055-.234-.47-.503-.47-1.847-.47-1.935 0-.822-.181-1.427-.468-2.053-.203-.442-.637.563-.645.763-.016.372.109.636.176.938.158.58.293 1.876 0 2.228s-.726.709-1.173.645c-.602-.086-.871-.456-.938-1.055-.059-.528 0-1.466 0-1.466.039-2.177-.384-1.378-.54-.733-.103.43-.105 1.143-.105 1.143s0 2.404.234 2.873.896 1.06 1.7.704c.688-.304 1.096-1.136 1.232-1.818.41.528 1.003 2.155 2.17 1.29.56-.415.8-1.221.88-1.876.14-1.174-.47-2.215-.88-3.284-.132-.395-.316-1.03-.587-.234-.356 1.045 1.428 3.673.47 4.104M41.284 40.102c-.087.19-21.88 9.157-22.622 9.506-.301.141.267-1.075.525-1.467.258-.39 21.414-9.215 22.537-9.355.206-.025-.353 1.126-.44 1.316" fill="#000"/><path fill-rule="evenodd" clip-rule="evenodd" d="M87.534.408c.28-.127 2.123 4.5 3.017 7.63.11.384.191.68.191 1.086 0 .557-1.448-.878-1.585-1.086 0 0-.202.087-.192.192.146 1.481.39 4.708.622 8.244a406 406 0 0 1 4.566-1.888c-.282-4.794-.508-8.908-.508-8.908s-.56-1.775-.56-2.18c0-1.113.756-2.567 1.277-3.44a.112.112 0 0 1 .2.01c.455 1.037 2.557 5.89 3.194 8.331.088.336.154.596.145.95-.01.484-1.981-1.489-2.097-1.672 0 0-.178.07-.17.163.142 1.89.305 3.736.467 5.573l.034.377c1.995-.792 3.502-1.354 3.82-1.394.204-.025-.35 1.114-.436 1.303-.024.054-1.356.63-3.266 1.437.206 2.364.399 4.73.534 7.172.388 7.076.982 14.321.963 15.133-.038 1.678-.319 4.364-.62 6.02-.264 1.45-.506 2.092-1.259 3.41-.456.798-.036-5.708 0-7.275 0 0-.748-9.762-1.163-16.02a1216 1216 0 0 1-.472-7.594c-1.441.603-3.028 1.263-4.558 1.898.166 2.621.32 5.306.416 7.498.074 1.742.254 4.171.254 4.639 0 3.131.311 7.05-2.057 10.517-3.054 4.47-7.081 4.398-12.063 5.146-5.216.783-10.47 1.016-13.486.76-3.016-.255-6.49.148-9.835-1.875-5.12-3.097-5.14-4.386-6.186-11.56-.968-6.641-.228-19.24-1.52-25.502-.233-1.127-1.09-2.053-1.09-2.737 0-1.04 1.09-3.372 1.419-3.625.33-.254 1.356 3.234 1.75 5.425 1.495 8.34.278 18.555 1.495 25.907.487 2.942 0 4.436 3.954 7.706 1.865 1.542 5.78 2.23 5.78 2.23l3.371-4.258s-.022-6.398-.152-10.495c-.119-3.766-.57-7.537-.836-10.925a204 204 0 0 0-6.484 2.81c-.301.142.267-1.075.525-1.466.09-.135 2.442-.992 5.832-2.434-.258-3.085-.303-6.085-.532-8.138-.09-.794-.42-1.368-.482-1.825-.061-.456.482-2.712 1.42-3.751.384-.426 3.853 9.379 3.396 9.379-.934 0-1.926-1.42-1.926-1.42.06 1.14.221 2.72.407 4.602C69.237 11.882 76.81 8.802 77.47 8.72c.206-.025-.353 1.126-.44 1.316-.051.112-7.504 3.216-13.845 5.849.573 5.937 1.217 14.171.039 21.024 2.662-3.32 11.306-10.606 16.173-7.123 2.763 1.977 3.833 5.12 1.521 8.72-1.14 1.776-4.03 3.6-4.03 3.6 3.61-.118 9.82-1.825 11.102-4.943.972-2.361.447-5.257.3-8.154a618 618 0 0 0-.627-10.293l-.312.129c-2.603 1.08-4.658 1.931-4.909 2.05-.298.14.265-1.066.52-1.453.09-.135 2.047-1.015 4.606-2.111-.465-6.708-.932-12.593-.932-12.593s-.395-.28-.395-.73c0-.735 1.014-3.473 1.293-3.6M64.67 37.67c-2.001 1.611-4.563 4.74-4.563 4.74s6.248-.156 10.115-1.065c3.964-.932 9.86-3.98 9.86-3.98-.532-2.154-2.636-4.156-5.044-4.69-2.408-.533-7.013 2.293-10.368 4.995M32.323 17.567c.359-.456 5.653 2.662 5.5 2.94-.317.584-1.39.534-2.002.254 3.017 2.84 5.823 3.266 7.149 5.603 1.66 2.924 1.118 6.573-1.521 8.72-1.402 1.14-9.126-.634-9.126-.634s-3.642 1.755-7.985 3.726c-2.817 1.279-6.106 2.42-8.29 4.006-5.945 4.316-6.933 10.715-12.826 8.897C.4 50.21-.557 45.731.306 41.776c.674-3.089 2.895-7.909 3.22-7.427.735 1.09-3.29 6.906-2.662 10.545.726 4.208 3.32 3.937 6.413 2.206 2.206-1.235 4.161-4.822 6.769-6.946 1.647-1.343 2.682-1.962 4.512-3.042 3.896-2.299 10.647-4.563 10.647-4.563s-.706-1.801-.811-3.017c-.334-3.862 2.23-6.49 3.422-8.416.556-.899-.341-2.47.507-3.549m.811 12.903c.456 0 2.394-1.48 2.484-2.991.073-1.223-.954-3.997-2.256-4.259-1.47-.296-3.867 3.402-3.777 4.589.128 1.681 2.332 2.661 3.549 2.661m5.704-3.22c-.742-.528-1.85-1.419-1.85-1.419s-.13 1.511-.33 2.46c-.233 1.102-.837 2.762-.837 2.762s1.516.403 2.51.533c1.172.152 4.008.557 4.487-.71.44-1.166-3.087-2.988-3.98-3.625" fill="#000"/></svg>