<svg width="100" height="54" viewBox="0 0 100 54" fill="none" xmlns="http://www.w3.org/2000/svg"><path d="M68.374 13.602c-.075.195-13.003 6.32-13.73 6.717-.295.16-.042-.433.193-.838s12.795-6.792 13.921-7.008c.206-.04-.309.935-.384 1.13M64.48 26.592l1.538-2.892a.13.13 0 0 0-.03-.161c-.95-.788-2.62-1.617-3.305-1.983a.134.134 0 0 0-.185.06l-1.347 2.879a.13.13 0 0 0 .048.168l3.092 1.979a.132.132 0 0 0 .189-.05" fill="#000"/><path d="m68.831 26.592 1.538-2.892a.13.13 0 0 0-.03-.161c-.95-.788-2.62-1.617-3.305-1.983a.134.134 0 0 0-.185.06l-1.347 2.879a.13.13 0 0 0 .049.168l3.092 1.979a.13.13 0 0 0 .188-.05M48.79 8.295c-.326.147-.745.033-.978-.218-.435-.466-.435-1.713-.435-1.795 0-.762-.17-1.323-.436-1.903-.188-.41-.59.522-.598.707-.015.345.101.59.163.87.147.539.272 1.74 0 2.067-.272.326-.673.657-1.088.598-.558-.08-.808-.422-.87-.979-.054-.49 0-1.36 0-1.36.036-2.02-.356-1.278-.5-.68-.096.4-.098 1.061-.098 1.061s0 2.23.217 2.665c.218.436.83.983 1.578.653.637-.281 1.016-1.054 1.142-1.686.38.49.93 1.999 2.013 1.197.519-.385.743-1.134.816-1.741.13-1.09-.435-2.054-.816-3.046-.123-.367-.293-.955-.544-.218-.33.97 1.324 3.408.435 3.808M71.31 2.368h-2.666s.11-.406.218-.652c.352-.803.868-1.28 1.632-1.632 1.306-.093 2.808-.197 4.08.218.423.138.626.22.815.598-.62 1.236-1.38 2.528-2.502 3.372-1.213.913-3.753 1.251-3.753 1.251s-.218 0 .326-.38c.544-.381 3.699-1.537 3.699-2.557a8.7 8.7 0 0 0-1.85-.218" fill="#000"/><path fill-rule="evenodd" clip-rule="evenodd" d="m37.912 15.806-.979-.761s.53-1.459.38-2.393c-.198-1.244-1.33-1.033-2.23-.381-.725.526-1.227 1.062-1.196 1.958.032.939.985 1.474 1.577 2.067l-1.414 1.36s-.946.862-1.632 1.305c-1.41.912-3.552 2.23-4.694 2.666-.167.115-.162.208-.31.326 0 0 .333-.097.544-.163 2.984-.943 6.113-2.815 8.16-5.222l1.196.653zm-2.937-2.338c-.333.578.92 1.042 1.251 1.196.092-.217.07-.979 0-1.197-.071-.217-.147-.326-.38-.326-.235 0-.706.04-.871.326m41.556-2.012-.979-.762s.53-1.458.381-2.393c-.199-1.243-1.331-1.033-2.23-.38-.725.526-1.227 1.062-1.197 1.958.032.938.985 1.474 1.578 2.066l-1.415 1.36s-.946.863-1.631 1.306c-1.411.911-3.552 2.23-4.695 2.665-.167.116-.162.208-.31.326 0 0 .333-.096.544-.163 2.984-.942 6.113-2.814 8.16-5.222l1.196.653zm-2.937-2.339c-.333.579.92 1.043 1.251 1.197.092-.218.071-.98 0-1.197s-.146-.326-.38-.326-.706.039-.87.326" fill="#000"/><path d="M52.76 46.612c-.072.195-12.924 6.479-13.646 6.885-.293.164-.047-.433.183-.84.23-.408 12.71-6.949 13.834-7.18.205-.041-.297.94-.37 1.135M84.33 22.138c-.309.133 0-.435.272-.816.132-.184 3.281-1.494 6.622-2.807l-.792-14.537s-.274-.55-.305-.932c-.082-1.022.755-1.87 1.26-2.692 0 0 1.81 4.068 2.509 6.75.086.33.15.583.142.929-.011.474-1.388-.78-1.501-.96 0 0-.174.07-.167.16.091 1.222.347 5.54.631 10.59 2.938-1.132 5.633-2.11 6.124-2.157.208-.02-.397.9-.49 1.087-.04.082-2.616 1.052-5.573 2.149.475 8.476 1.002 18.496.98 19.49-.039 1.641-.09 3.215-.385 4.834-.259 1.418-.496 2.6-1.233 3.889-.446.78-.081-5.869-.046-7.4L91.281 19.56c-3.32 1.225-6.587 2.421-6.951 2.577" fill="#000"/><path fill-rule="evenodd" clip-rule="evenodd" d="M78.553.326s1.904 4.025 2.666 6.69c.093.327.163.58.163.925 0 .475-1.406-.748-1.523-.924 0 0-.172.073-.163.163.151 1.541.22 4.28.292 7.206.084 3.375.174 7 .405 9.33.544 5.47 2.067 13.924 2.067 13.924.66.036 1.234-.132 1.81-.3.452-.132.905-.264 1.4-.298 3.1-.213 4.64 2.558 4.569 5.385-.047 1.81-.765 4.221-2.775 4.623-2.77.554-5.073-2.664-6.364-4.623-2.612 1.447-5.08 2.792-8.159 2.937-1.841.087-3.84-.267-5.602-.816-.224-.07-.428-.168-.63-.264-.365-.175-.72-.346-1.165-.334-1.455 1.191-3.05 2.026-4.95 2.067-4.556.098-5.31-3.883-6.001-7.53-.204-1.074-.401-2.12-.69-3.023-1.048 4.658-4.133 7.52-7.886 10.28l-.151.112c-1.4 1.03-2.246 1.653-3.874 2.39-2.98 1.352-8.04 3.073-10.009-.543-1.853-3.405-.703-7.705.653-11.096-4.58 4.868-10.727 8.386-16.916 10.77-3.479 1.34-7.452 1.981-11.212 2.589-1.556.251-3.075.496-4.508.783 2.593-1.258 5.445-2.467 8.332-3.69 3.23-1.368 6.503-2.755 9.509-4.251l.819-.407.002-.001c4.22-2.095 8.447-4.194 12.016-7.316 1.622-1.42 2.987-2.773 4.025-4.678.272-.5.501-1.021.73-1.543.231-.527.462-1.053.739-1.558.077-.14.133-.273.186-.398.12-.285.225-.531.52-.744.18-.129.345-.165.518-.202a2 2 0 0 0 .407-.124c.657-.3 1.152-.81 1.648-1.32.615-.63 1.231-1.265 2.16-1.509 4.902-1.288 5.058 6.578 3.481 9.356-.396.698-1.251 1.632-1.251 1.632-2.937 0-5.857-2.347-7.67-4.46 0 0-1.559 3.33-2.338 5.548l-.228.642c-.405 1.137-.693 1.944-.969 3.274-1.528 7.364 3.73 8.382 9.519 5.385 2.4-1.242 5.143-2.873 7.125-4.678 1.362-1.24 2.973-2.826 3.59-4.623.81-2.357-.29-5.77-1.077-8.209l-.228-.712C50.58 23.04 48.3 18.44 48.3 18.44c-.35-1.832-.233-6.307 1.74-3.426 3.285 4.792 4.295 10.785 5.247 16.437l.248 1.458c.081.474.155.985.232 1.514.584 4.029 1.321 9.105 6.676 7.243.47-.163.76-.276.979-.761-.496-1.542-.707-3.352-.327-4.95.488-2.047 2.195-5.195 4.243-6.092 4.28-1.876 3.846 6.112 3.264 8.105-.355 1.213-1.36 2.937-1.36 2.937 2.06.507 4.11.673 6.2.217.948-.206 5.123-1.272 4.95-2.828-.011-.107-.124-.871-.292-2.018v-.005c-.606-4.13-1.938-13.205-1.938-14.404l-.48-17.895s-.287-.544-.326-.925c-.082-.784.382-1.478.822-2.136.132-.197.262-.391.374-.584m-9.745 34.268c-.92-1.599-1.618-1.237-3.047 0-1.885 1.633-2.277 6.743 1.415 5.113 2.325-1.027 2.81-3.064 1.632-5.113M42.536 26.87c.472.332 1.669 2.368.924 2.883-.67.464-3.928-1.4-4.134-2.284-.227-.98 2.61-1.02 3.21-.599M85.67 41.121c-.645-.04-1.632.272-1.632.272s.4.599.761.87c.44.333.763.443 1.306.544.48.09.77.092 1.25 0 .284-.053.708-.217.708-.217s-.236-.516-.49-.762c-.28-.27-.506-.35-.87-.49a3 3 0 0 0-1.034-.217" fill="#000"/></svg>