<svg width="101" height="65" viewBox="0 0 101 65" fill="none" xmlns="http://www.w3.org/2000/svg"><path fill-rule="evenodd" clip-rule="evenodd" d="M2.553 40.597h.086a.19.19 0 0 1 .184.247C1.022 46.771-.843 54.907 7.415 54.05c7.12-.74 14.32-6.514 18.16-12.491 1.064-1.659.527-2.849.287-4.708-.742-5.766-3.07-11.162-5.735-16.278a.2.2 0 0 1-.02-.118l.74-4.81a.146.146 0 0 1 .255-.074c2.09 2.408 3.443 4.95 4.568 7.924 1.536 4.06 2.247 8.345 3.075 12.587 1.148 5.886.875 15.49 9.416 12.971 3.522-1.039 5.094-4.003 7.879-6.053 1.787-1.315 1.517.098 1.633 1.441.204 2.37 1.13 3.5 3.151 3.2 2.458-.367 4.39-1.052 6.352-2.596a.117.117 0 0 0 .009-.177c-.25-.237-.93-.878-1.444-1.267-1.28-.969-2.03-1.699-3.614-1.957-.776-.127-1.246-.171-2.014 0-.524.116-1.228.482-1.461.608a.12.12 0 0 1-.142-.02l-.116-.116a.12.12 0 0 1-.025-.132l1.902-4.265a.12.12 0 0 1 .065-.062c.233-.09 1.336-.515 2.087-.752 3.562-1.126 5.75-1.509 9.478-1.282 3.2.195 5.279.156 7.997 1.855.88.55 2.028 1.598 2.307 1.856a.12.12 0 0 1 .026.136l-1.602 3.376a.12.12 0 0 1-.063.059L64.55 45.31a.117.117 0 0 0-.04.19c3.94 4.053 10.5 2.15 14.7-.725l-1.237-7.298-.855-8.548a344 344 0 0 0-3.962 1.57c-.545.234-.165-1.11.48-1.44.142-.072 1.423-.597 3.357-1.376l-.047-.472-.643-11.75-.401-11.088s-.344-.653-.392-1.11C75.383 2.04 76.364 1 76.946 0c0 0 2.285 4.83 3.198 8.028.112.392.196.695.196 1.11 0 .569-1.687-.898-1.827-1.11 0 0-.207.088-.196.196.178 1.806.282 9.783.893 17.565 0 0 .026.366.073.975 3.444-1.377 7.929-3.153 11.894-4.692L90.21 4.386s-.33-.661-.366-1.12c-.1-1.227.906-2.246 1.512-3.233 0 0 2.175 4.887 3.016 8.108.103.395.18.7.17 1.115-.013.57-1.667-.937-1.803-1.152 0 0-.209.083-.2.191.111 1.488.426 6.786.774 12.951 3.665-1.409 6.546-2.473 7.151-2.587.363-.068-.073.677-.237 1.007-.055.11-2.957 1.296-6.843 2.847l.16 2.866.075 1.356c.494 8.966.959 17.966.935 18.99-.045 1.972-.105 3.862-.46 5.807-.31 1.703-.595 3.124-1.48 4.672-.536.937-.1-7.05-.057-8.89l-1.31-23.951a3737 3737 0 0 1-11.73 4.624l-.132.051c.172 2.1.453 5.249.76 7.584.353 2.696.715 5.347 1.415 7.978 0 0 3.61-1.592 5.627-.68 1.854.837 2.593 2.188 3.154 4.143 1.176 4.094-1.331 8.674-5.751 6.927-2.08-.823-3.46-2.972-4.446-4.886-5.582 3.471-10.02 4.45-16.051 1.72l-3.956-3.127a.116.116 0 0 0-.143-.003c-3.166 2.41-10.132 7.418-13.79 3.13-.809-.948-.356-5.627-2.31-2.666-2.404 2.774-3.63 4.873-7.517 5.297-6.258.682-7.591-2.25-8.4-7.573-.227-1.49-.235-2.893-.77-4.324-.786 4.683-4.292 8.4-7.878 11.242C12.523 58.193-.526 63.21.016 50.686c.148-3.411 1.199-6.771 2.357-9.962a.19.19 0 0 1 .18-.127m84.016 7.085c-.913-.435-2.452-.156-2.974-.042a.115.115 0 0 0-.065.186c.293.359 1.101 1.284 1.864 1.587.859.342 2.246.127 2.732.036a.115.115 0 0 0 .073-.182c-.253-.355-.943-1.258-1.63-1.585M61.81 42.87l3.305-1.904a.116.116 0 0 0 .006-.198c-2.03-1.292-4.636-1.077-6.932-.709a.118.118 0 0 0-.056.208l3.143 2.591a.12.12 0 0 0 .075.028h.4q.03 0 .06-.016" fill="#000"/><path fill-rule="evenodd" clip-rule="evenodd" d="m71.794 20.441-1.36-1.057s.736-2.025.529-3.322c-.276-1.726-1.848-1.434-3.096-.529-1.007.73-1.703 1.475-1.66 2.718.044 1.303 1.366 2.047 2.189 2.87l-1.963 1.887s-1.314 1.198-2.265 1.812c-1.959 1.265-4.93 3.096-6.516 3.7-.233.16-.226.289-.43.453 0 0 .461-.134.755-.227 4.141-1.308 8.484-3.906 11.325-7.248l1.661.906zm-4.078-3.247c-.462.804 1.278 1.447 1.737 1.661.128-.302.099-1.359 0-1.66-.099-.303-.204-.454-.529-.454s-.978.055-1.208.453" fill="#000"/><path d="M34.83 28.386h4.214c.993.012 1.955.123 2.924.344 0 1.612-4.988 3.44-5.848 4.042s-.516.602-.516.602 4.015-.536 5.934-1.978c1.774-1.334 2.975-3.377 3.955-5.332-.3-.598-.62-.727-1.29-.945-2.01-.655-4.384-.491-6.449-.344-1.207.557-2.023 1.31-2.58 2.58-.17.388-.343 1.031-.343 1.031m-.453 35.553 1.267-2.383-.144-.092a.17.17 0 0 1-.062-.215l.655-1.4c-1.24-.956-3.193-1.927-4.021-2.37a.17.17 0 0 0-.237.078l-1.728 3.692a.17.17 0 0 0 .062.215l3.966 2.538a.17.17 0 0 0 .241-.063m1.934-3.916c.061.05.077.136.04.206l-.706 1.327 3.822 2.446a.17.17 0 0 0 .242-.063l1.973-3.71a.17.17 0 0 0-.04-.206c-1.217-1.011-3.36-2.074-4.238-2.544a.17.17 0 0 0-.237.078l-1.073 2.292q.113.087.217.174m10.182 3.494c1.006-.431 18.786-6.871 18.91-7.118s.922-1.464.646-1.438c-1.51.144-18.838 6.974-19.197 7.478-.36.503-.768 1.253-.36 1.078" fill="#000"/><path fill-rule="evenodd" clip-rule="evenodd" d="m24.287 8.054-1.379-1.206s.905-2.105.764-3.495c-.188-1.85-1.875-1.635-3.255-.75-1.114.714-1.899 1.462-1.93 2.785-.032 1.386 1.327 2.256 2.15 3.18l-2.199 1.885s-1.468 1.191-2.516 1.786c-2.157 1.224-5.424 2.987-7.145 3.531-.256.157-.257.294-.484.455 0 0 .498-.114.816-.194 4.477-1.137 9.248-3.631 12.468-7.007l1.708 1.064zm-4.132-3.696c-.54.824 1.27 1.614 1.743 1.87.155-.314.188-1.438.102-1.765s-.189-.493-.534-.513-1.043-.002-1.31.408" fill="#000"/><path d="M62.79 4.1h4.213c.993.011 1.955.122 2.924.344 0 1.611-4.988 3.439-5.848 4.041s-.515.602-.515.602 4.014-.536 5.933-1.978c1.774-1.334 2.975-3.377 3.955-5.331-.3-.599-.62-.728-1.29-.946-2.01-.655-4.384-.491-6.449-.344-1.207.557-2.023 1.311-2.58 2.58-.17.389-.343 1.032-.343 1.032" fill="#000"/></svg>