<svg width="100" height="65" viewBox="0 0 100 65" fill="none" xmlns="http://www.w3.org/2000/svg"><path d="M63.149 57.316c-.1.22-17.733 6.641-18.589 7.044-.347.163.309-1.24.606-1.691.298-.451 17.195-6.71 18.49-6.87.238-.03-.407 1.297-.507 1.517m-8.813-46.294 1.818-3.418a.154.154 0 0 0-.036-.19c-1.122-.932-3.097-1.91-3.906-2.344a.16.16 0 0 0-.218.072l-1.592 3.402a.156.156 0 0 0 .057.198l3.654 2.339c.077.049.18.022.223-.059m-34.66 18.909c-.462.208-1.053.046-1.383-.307-.615-.659-.615-2.421-.615-2.537 0-1.078-.239-1.87-.615-2.69-.266-.58-.834.738-.846 1-.02.487.143.834.23 1.229.209.761.385 2.46 0 2.92-.383.462-.951.93-1.536.846-.79-.112-1.143-.597-1.23-1.383-.077-.692 0-1.922 0-1.922.05-2.854-.503-1.806-.707-.96-.136.564-.139 1.498-.139 1.498s0 3.152.308 3.767c.307.615 1.173 1.388 2.229.922.9-.398 1.435-1.49 1.614-2.383.538.692 1.314 2.825 2.844 1.691.733-.544 1.05-1.601 1.153-2.46.184-1.539-.614-2.902-1.153-4.304-.173-.518-.414-1.35-.769-.307-.466 1.37 1.871 4.815.615 5.38" fill="#000"/><path fill-rule="evenodd" clip-rule="evenodd" d="m21.645 13.846-1.447-1.128s.708-1.929.5-3.226c-.275-1.727-1.733-1.46-2.98-.555-.73.528-1.596 1.648-1.553 2.891.044 1.304 1.318 1.764 2.142 2.587l-2.251 1.947c-1.49.923-3.778 2.404-5.677 3.505-1.8 1.043-3.255 1.78-3.255 2.087 0 .306 5.48-1.892 5.48-1.892s3.78-1.915 6.62-5.257l1.42.973zm-4.079-3.248c-.462.804 1.279 1.448 1.737 1.662.128-.302.099-1.36 0-1.662-.098-.302-.203-.453-.528-.453s-.98.054-1.209.453" fill="#000"/><path d="M30.393 4.092c.03.451.55 1.526.55 1.526l1.22 19.807c.255 6.673 2.106 13.972.666 20.565-3.532 3.278-10.284 8.483-15.506 10.352-3.838 1.373-7.99 2.05-11.513 0-4.08-2.373-5.067-6.274-4.672-9.772.278-2.466 1.187-4.132 1.637-6.65.015-.089-.083-.148-.15-.087-3.594 3.273-3.54 15.019.422 19.268 3.443 3.693 9.373 3.731 15.009 1.364 4.359-1.832 8.553-5.505 11.207-7.513 4.356-3.295 5.556-6.79 6.047-12.704.193-4.903-.451-9.917-.642-14.823-.299-7.684-1.055-14.627-1.055-16.415 0-.43 1.971 1.953 2.121 1.405.145-.53-.693-2.879-1.557-5.299l-.028-.078C33.175 2.31 32.151-.446 31.83.061c-.613.96-1.514 2.822-1.436 4.03" fill="#000"/><path fill-rule="evenodd" clip-rule="evenodd" d="m71.477 21.573-1.447-1.128s.709-1.929.501-3.227c-.276-1.726-1.733-1.46-2.981-.555-.73.53-1.596 1.648-1.553 2.892.044 1.303 1.319 1.764 2.142 2.587l-2.25 1.947c-.816.505-1.87 1.176-2.968 1.862-.27-.93-.572-1.85-.916-2.76-1.1-2.91-2.426-5.398-4.47-7.755a.143.143 0 0 0-.25.072l-.724 4.707q-.01.061.02.116c1.25 2.401 2.425 4.865 3.389 7.402-1.687.97-3.014 1.655-3.014 1.947 0 .176 1.804-.473 3.342-1.057.885 2.474 1.558 5.017 1.895 7.638.235 1.82.76 2.984-.282 4.607-3.757 5.85-10.803 11.5-17.771 12.224-3.926.408-4.993-1.176-5.907-3.751-.553-1.557.17-4.226.17-4.226.289-1.662.769-3.382 1.244-4.945a.187.187 0 0 0-.18-.242h-.085c-.079 0-.15.05-.176.124-.646 1.78-1.258 3.612-1.691 5.477s-.666 2.696-.622 4.45c.233 9.244 12.279 7.143 18.906 1.89 3.51-2.78 6.94-6.417 7.71-11 1.274 3.411.5 7.422 3.507 10.189 3.817 3.512 9.734.197 13.142-1.923.937 1.82 2.712 3.946 4.689 4.728 4.201 1.661 6.584-2.693 5.467-6.584-.533-1.858-1.236-3.143-2.998-3.94-1.918-.865-5.35.648-5.35.648-.665-2.501-1.01-5.022-1.345-7.584-.291-2.22-.424-4.064-.588-6.06l.125-.049c3.33-1.307 8.138-2.92 11.786-4.368l1.329 19.724c-.04 1.75-.456 9.342.054 8.45.841-1.471 1.112-2.822 1.407-4.44.337-1.85.394-3.646.437-5.52.023-.974-.503-6.485-.973-15.008l-.07-1.29-.153-2.724c3.694-1.474 5.613-2.343 5.666-2.448.156-.313.57-1.022.225-.957-.575.108-2.475.862-5.959 2.201-.33-5.86-.936-13.486-1.043-14.9-.007-.102.19-.182.19-.182.13.205 1.703 1.637 1.715 1.096.01-.395-.064-.685-.162-1.06-.8-3.063-2.867-7.708-2.867-7.708-.576.938-1.532 1.907-1.437 3.074.035.436.348 1.064.348 1.064l1.226 19.401c-3.77 1.463-8.667 3.124-11.94 4.433-.046-.579-.07-.927-.07-.927-.901-9.846-1-17.428-1.17-19.146-.01-.102.187-.186.187-.186.133.202 1.737 1.596 1.737 1.055 0-.395-.08-.683-.186-1.055-.869-3.04-3.04-7.631-3.04-7.631-.554.95-1.486 1.94-1.365 3.102.045.434.372 1.055.372 1.055l.381 10.54.932 13.618.044.449c-1.838.74-5.12 2.095-5.256 2.164-.613.314-.974 1.59-.456 1.369a510 510 0 0 1 5.831-2.349l.679 6.977.964 6.732s-2.757 1.709-4.76 2.202c-2.712.668-5.669 1.213-7.147-1.474-1.508-2.741-2.6-10.118-2.6-10.118-.535-2.741-1.02-5.5-1.72-8.203 1.28-.764 3.755-2.413 5.763-4.774l1.418.973zm-4.078-3.248c-.463.803 1.278 1.448 1.737 1.662.128-.303.098-1.36 0-1.662-.099-.302-.204-.453-.529-.453s-.979.054-1.208.453m19.329 29.542c-.867-.414-2.33-.149-2.827-.04a.11.11 0 0 0-.062.177c.279.341 1.047 1.22 1.772 1.509.816.324 2.135.12 2.597.033a.11.11 0 0 0 .07-.172c-.24-.338-.897-1.196-1.55-1.508" fill="#000"/><path d="M65.243 2.922h3.08c.726.008 1.43.09 2.137.251 0 1.178-3.645 2.514-4.274 2.954s-.377.44-.377.44 2.935-.391 4.337-1.446c1.297-.975 2.175-2.468 2.891-3.896-.219-.438-.453-.532-.943-.692C70.625.054 68.89.174 67.38.282c-.882.407-1.479.958-1.885 1.885-.125.285-.252.755-.252.755" fill="#000"/></svg>