<svg width="100" height="65" viewBox="0 0 100 65" fill="none" xmlns="http://www.w3.org/2000/svg"><path fill-rule="evenodd" clip-rule="evenodd" d="m19.373 30.092-1.309-1.02s.64-1.746.453-2.92c-.25-1.562-1.568-1.32-2.697-.502-.66.479-1.444 1.491-1.405 2.616.04 1.18 1.193 1.596 1.938 2.341l-2.037 1.762c-1.348.834-3.418 2.175-5.136 3.17-1.629.945-2.945 1.612-2.945 1.889s4.958-1.712 4.958-1.712 3.42-1.732 5.99-4.757l1.284.881zm-3.69-2.939c-.418.727 1.157 1.31 1.572 1.504.115-.274.089-1.23 0-1.504-.09-.273-.184-.41-.479-.41-.294 0-.885.05-1.093.41" fill="#000"/><path d="M58.658 59.204c-.067.147-12.821 4.93-13.394 5.199-.232.109.207-.83.406-1.132s12.46-4.974 13.328-5.082c.158-.02-.273.868-.34 1.015" fill="#000"/><path fill-rule="evenodd" clip-rule="evenodd" d="M74.886 8.15c-.2-.443-.363-1.053-.773-1.053s-.689 1.14-.885 1.87c-.28 1.039-.58 2.62.178 3.563-.107 3.807.257 7.502.46 11.293.229 4.302.198 6.727.65 11.011l.011.1v.001q.133 1.267.274 2.544c-3.97 1.519-7.712 3.018-7.836 3.205-.257.39-.823 1.602-.523 1.461.359-.169 4.422-1.71 8.52-3.274.347 2.891.786 5.788 1.508 8.572-2.688 1.883-6.075 3.516-9.353 4.034-6.112.965-8.664-3.195-9.025-8.702-.17-2.596-.231-5.69-.265-7.726-.08-4.9-.274-9.848-.919-14.71-.246-1.857-.4-2.899-.769-4.736-.408-2.024-.706-3.158-1.33-5.126 0 0-.511.355-.77.652-.922 1.057-.533 3.552-.533 3.552l1.686 12.347c.278 2.799.437 6.277.528 9.352.099 3.748.123 7.579.123 7.579 0 2.621-.008 5.644-2.072 7.518-1.39 1.261-3.306 1.533-5.221 1.548-2.436.02-4.87-.547-6.213-1.922-4.571-4.681-5.06-7.83-8.367-13.476-4.553-7.772-10.859-20.347-10.859-20.347s2.205-1.96 3.774-2.849c3.65-2.065 24.562-12.247 26.08-10.52.276.314.533.422.541.783.028 1.248-2.12 2.783-2.998 4.13-.896 1.374-2.136 2.617-2.92 4.593-.245.619-.742 1.453-.533 1.62.267.213.246-.384 1.335-1.923 1.954-2.762 5.515-5.586 6.418-8.847.8-2.89.791-4.577-1.843-4.22-5.376.73-19.12 6.658-27.059 11.572-1.826 1.13-2.869 2.121-3.453 3.72-.23.626-.388 3.044-.339 5 .05 1.956 7.62 13.888 9.506 19.887.653 2.074.953 3.56.552 5.697-.437 2.332-5.279 5.461-9.06 7.583-2.707 1.518-9.19 4.04-13.156 3.133-3.967-.906-7.032-.488-8.705-5.768-.999-3.15 2.492-7.904 1.46-7.904-.41 0-1.938 3.453-2.422 5.84-1.481 7.307 2.867 12.069 9.845 12.069 8.068 0 19.324-4.931 22.216-10.788 1.137-2.302 1.62-6.373 1.62-6.373s2.547 6.22 5.394 9.31c3.543 3.846 10.005 6 13.342 3.18 2.292-1.936 3.434-4.172 3.729-7.096 1.002 2.378 2.422 4.941 4.772 6.195 4.397 2.347 11.678-1.691 15.796-4.254 1.562 3.036 6.884 7.917 9.037 2.972 1.069-2.453.745-6.377-1.164-7.644s-4.148-.717-6.156 0c-1.112-2.665-1.317-5.51-1.552-8.35 3.51-1.343 6.531-2.515 6.568-2.596.087-.19.644-1.336.44-1.31-.479.059-3.643 1.194-7.13 2.506-.679-7.119-1.379-14.213-1.332-21.374.463.578 1.71 1.812 2.013 1.42.445-.338-1.725-6.055-2.842-8.524m9.64 43.287s-.119-.468-.297-.71c-.82-1.115-2.824-.898-3.966-.652.724 1.055 2.012 2.04 3.374 1.835.38-.057.646-.162.888-.473" fill="#000"/><path d="M88.169 2.318s2.281 4.825 3.194 8.019c.112.391.196.694.196 1.108 0 .569-1.685-.896-1.826-1.108 0 0-.206.088-.195.196.135 1.37.54 8.092.993 14.652 4.281-1.638 8.842-3.305 9.424-3.377.205-.026-.352 1.12-.439 1.31-.045.1-4.504 1.81-8.886 3.482.113 1.594.228 3.155.341 4.6.459 7.442 1.937 15.38.962 22.822-.248 1.891-.723 3.695-1.352 5.47a.216.216 0 0 1-.423-.064c-.083-2.148.02-4.584.058-6.471.094-4.757-1.372-19.692-1.372-19.692l-.378-5.84-.024.01c-3.204 1.22-5.93 2.26-6.22 2.396-.3.141.266-1.07.523-1.46.1-.153 2.58-1.167 5.63-2.354l-1.25-19.33s-.343-.653-.39-1.11c-.128-1.22.852-2.261 1.434-3.259" fill="#000"/></svg>