<svg width="100" height="69" viewBox="0 0 100 69" fill="none" xmlns="http://www.w3.org/2000/svg"><path fill-rule="evenodd" clip-rule="evenodd" d="M58.366 25.543c-.377.593-.793 1.47-.341 1.246.246-.122 1.399-.626 3.048-1.34.038 2.114.034 4.11.058 6.258q-.248.107-.494.227c-2.155 1.042-3.25 1.86-5.185 3.268-2.23 1.624-5.372 4.584-5.372 4.584l.901-9.167-.488-7.664c-.383-4.371-.94-8.754-1.09-13.225-.006-.205 0-.526 0-.526.605 0 1.373 1.236 1.954 1.578.45-.413.2-.974 0-1.578C50.23 5.786 47.976.338 47.976.338s-.747.797-.977 1.353c-.45 1.09-.751 2.705-.751 2.705s.507 1.138.638 1.916c.142.839-.009 1.328 0 2.179.065 6.02.88 12 1.353 17.995.392 4.967.594 9.892.488 14.878 0 0-2.517 3.606-3.681 4.808-.15.154-.388.226-.602.226-4.229 0-7.66-4.065-9.317-7.59-1.315-.225-1.666 3.072-1.315 4.735.647 3.06 3.57 4.057 2.442 9.58-.291 1.427-5.746 4.787-7.551 5.823-2.003 1.15-3.151 1.776-5.297 2.63-5.014 1.995-10.933 2.893-16.23 1.014-3.092-1.096-5.695-4.702-6.199-7.927-.392-2.503.324-5.25 1.014-7.626l-.263-.301C.494 49.883-.308 53.188.113 56.579c.592 4.78 3.43 9.256 8.077 10.895 3.833 1.351 8.21.608 11.985-.601 5.172-1.657 10.266-4.477 14.163-8.303 2.35-2.306 3.576-4.705 3.945-7.927.092-.804.15-2.066.15-2.066 1.622.943 3.328 1.73 5.185 2.066 3.383.612 7.028.087 10.369-.488 2.078-.358 4.919-.987 7.722-1.991.09.606.207 1.24.355 1.916.304 1.38.247 2.262.94 3.494.696 1.239 1.234 2.017 2.517 2.63 1.121.535 1.913.463 3.155.413 1.497-.061 2.367-.295 3.72-.94 1.26-.6 1.857-1.166 2.893-2.103 1.18-1.068 2.667-3.081 2.667-3.081h.789s.145 1.19.376 1.916c.27.85.352 1.428.977 2.066.735.752 1.432.95 2.479 1.052.965.094 1.549-.073 2.442-.45 1.293-.548 1.853-1.252 2.705-2.368 1.081-1.416 1.22-2.511 1.766-4.207l.032-.1V48.4c.292-.907.467-1.45.644-2.416.404-2.209 0-3.504 0-5.748 0-2.818.125-4.4 0-7.214-.28-6.302-1.28-20.84-1.587-23.948-.011-.118.217-.216.217-.216.155.234 2.016 1.853 2.016 1.225 0-.458-.092-.793-.216-1.225C89.588 5.33 87.066 0 87.066 0c-.642 1.102-1.724 2.252-1.584 3.601.053.505.432 1.225.432 1.225s1.391 16.583 1.81 26.657c.247 5.939.708 8.732.376 14.314-.059.984.206 1.613-.188 2.517-.289.661-.58.995-1.127 1.465-.948.813-1.757 1.09-3.006 1.09-.733 0-1.199-.02-1.84-.376-.719-.398-1.063-.825-1.39-1.578-.28-.64-.284-1.069-.264-1.766.018-.58.263-1.465.263-1.465l-.826-.188s-.585.697-.977 1.127c-1.519 1.666-2.38 2.662-4.283 3.87-1.097.696-1.713 1.166-2.968 1.503-1.587.426-2.617.411-4.208 0-.715-.185-1.179-.228-1.765-.677-.784-.599-.942-1.251-1.278-2.179-.254-.702-.28-1.18-.362-1.84 4.963-2.195 9.109-5.72 7.613-11.196-1.217-4.457-4.633-5.832-8.236-5.079a354 354 0 0 0-.183-6.442c6.202-2.68 15.866-6.842 15.953-7.042.124-.288.955-1.718.644-1.671-1.178.178-10.749 4.458-16.657 7.274l-.011-.264c-.14-3.126-.194-4.881-.414-8.003-.19-2.703-.224-4.229-.6-6.912-.218-1.548-.288-2.431-.677-3.945C60.95 2.609 60.11.488 60.11.488h-.714s-.719 1.252-.827 2.142c-.053.437 0 1.127 0 1.127s.55 2.004.827 3.306c.358 1.687.482 2.65.714 4.358.366 2.7.434 4.232.638 6.95a118 118 0 0 1 .293 5.726c-1.564.769-2.592 1.313-2.676 1.446M56.88 37.118c-4.16 2.167-7.534 5.647-10.52 9.205 5.183.364 10.187-.637 15.035-2.283-.03-1.833.033-3.684-.082-6.02-.047-.95-.082-1.85-.109-2.71-1.53.373-3.03 1.134-4.324 1.808m12.36 3.231c-.798-2.569-2.68-4.844-5.485-5.222a6 6 0 0 0-.407-.04c.041 1.658.095 3.424.181 5.45.045 1.042.04 1.896.046 2.718l.33-.126c2.019-.777 3.86-1.075 5.335-2.78" fill="#000"/><path d="M35.038 65.33c1.248-.598 23.396-9.792 23.532-10.09.136-.3 1.05-1.793.7-1.736-1.915.312-23.451 9.917-23.867 10.537-.415.62-.87 1.532-.365 1.29m38.017-1.138-1.676 3.152a.144.144 0 0 1-.206.053l-3.37-2.156a.144.144 0 0 1-.052-.183l1.468-3.137a.146.146 0 0 1 .202-.066c.745.4 2.566 1.302 3.6 2.161a.14.14 0 0 1 .034.176M96.515.063s2.397 5.2 3.305 8.617c.112.419.195.742.178 1.18-.023.602-1.878-1.02-2.03-1.25 0 0-.237.084-.23.198.13 1.916.584 11.242.964 19.488.432 9.475.831 18.985.79 20.067-.08 2.08-.175 4.074-.605 6.12-.376 1.793-.719 3.287-1.745 4.905-.621.98-.012-7.444.062-9.387L95.153 4.636s-.364-.704-.4-1.189c-.095-1.297 1.06-2.355 1.762-3.384M20.308 43.605l-1.676 3.152a.144.144 0 0 1-.206.054l-3.37-2.157a.144.144 0 0 1-.052-.183l1.468-3.136a.146.146 0 0 1 .201-.067c.746.4 2.567 1.303 3.602 2.161a.14.14 0 0 1 .033.176" fill="#000"/><path fill-rule="evenodd" clip-rule="evenodd" d="m20.926 32.786-1.275-.992s.69-1.9.496-3.118c-.26-1.62-1.734-1.345-2.905-.496-.945.686-1.599 1.384-1.56 2.551.043 1.223 1.283 1.92 2.056 2.693l-1.843 1.771s-1.232 1.124-2.125 1.7c-1.838 1.188-4.628 2.906-6.115 3.473-.218.15-.212.27-.404.425 0 0 .433-.126.709-.213 3.886-1.227 7.962-3.666 10.628-6.802l1.559.85zM17.1 29.739c-.434.754 1.2 1.358 1.63 1.559.12-.283.092-1.275 0-1.559-.093-.283-.191-.425-.496-.425s-.919.051-1.134.425" fill="#000"/><path d="M76.98 6.385h2.879a9.4 9.4 0 0 1 1.998.235c0 1.101-3.409 2.35-3.996 2.762s-.353.411-.353.411 2.744-.366 4.055-1.351c1.213-.912 2.034-2.308 2.704-3.644-.205-.41-.424-.497-.882-.647-1.374-.447-2.996-.335-4.408-.235-.825.381-1.382.896-1.763 1.763a6 6 0 0 0-.235.706" fill="#000"/></svg>