<svg width="100" height="70" viewBox="0 0 100 70" fill="none" xmlns="http://www.w3.org/2000/svg"><path fill-rule="evenodd" clip-rule="evenodd" d="m4.108 43.668-.232-.035a.14.14 0 0 0-.149.08C2.291 46.78.616 50.205.165 53.623c-.26 1.979-.291 4.305.495 6.18 1.263 3.01 4.486 4.625 7.495 3.459 1.487-.576 2.76-1.392 3.972-2.457 5.357-4.712 9.342-8.346 16.042-11.423 0 0 1.276 2.981 2.851 4.169 1.747 1.317 3.37 2.437 5.378 1.57 3.635-1.57 3.556-9.744-.235-11.243-1.8-.712-4.059-.458-6.514.42-1.105-1.064-1.345-1.959-1.083-3.433.347-1.95 3.32-4.855 4.295-4.674 1.137.21 1.74 2.81 2.996 4.511 2.682 3.637 5.414 6.351 9.96 7.525 3.864.998 6.326.318 10.196-.65 7.948-1.986 15.166-6.171 23.333-7.506q.184-.03.372-.058c.085 2.214-.004 4.278-.552 5.4-1.21 2.471-6.445 4.454-13.48 7.777-7.036 3.322-14.26 18.383-19.345 10.863-1.165-1.722-.826-4.261-.067-6.88 5.753-2.238 12.943-5.035 12.99-5.137.076-.167.566-1.177.386-1.155-.584.073-7.413 2.669-12.92 4.84.813-2.432 1.817-4.815 2.145-6.56a.143.143 0 0 0-.12-.183l-.24-.034a.15.15 0 0 0-.152.08c-1.11 2.28-2.36 4.76-3.116 7.285-3.087 1.228-5.462 2.212-5.542 2.332-.227.344-.725 1.411-.461 1.287.221-.104 2.596-1.03 5.638-2.213q-.128.59-.21 1.18c-.27 1.971-.302 4.289.513 6.157 1.308 2.997 4.046 5.378 7.165 4.216 1.54-.573 2.792-2.13 4.047-3.19 5.553-4.694 5.19-8.156 13.692-10.867 4.964-1.584 8.94-4.48 10.492-8.229.864-2.09 1.145-4.475 1.184-7.181 1.688-.118 3.474-.122 5.105-.085l.962 12.367c0 2.065-.283 11.032.293 9.967.953-1.759 1.235-3.36 1.54-5.276.347-2.19.366-4.312.366-6.523 0-.597-.31-4.976-.719-10.454 1.883.078 3.233.158 3.424.057.65-.343 2.274-4.06 2.274-4.44 0-.287-2.118-.21-6.078-.67-.282-3.713-.578-7.55-.835-10.839 2.096-.792 11.118-4.353 11.154-4.424.13-.263.981-1.558.688-1.53-.44.042-9.718 3.612-11.961 4.435-.686-8.738-.02-11.123-.22-13.152-.012-.12.22-.22.22-.22.158.238 2.052 1.885 2.052 1.246 0-.466-.094-.806-.22-1.246C88.784 5.424 86.219 0 86.219 0c-.654 1.121-1.755 2.29-1.612 3.664.053.513.44 1.246.44 1.246l.544 18.367c-2.268.859-1.947.643-4.196 1.547-.038-1-.084-2.145-.125-3.111-.292-6.607-.595-8.528-.916-11.787-.012-.124.227-.226.227-.226.162.245 2.114 1.942 2.114 1.283 0-.48-.097-.83-.227-1.283-1.057-3.7-3.7-9.287-3.7-9.287-.673 1.156-1.808 2.36-1.66 3.775.055.529.453 1.284.453 1.284l1.126 20.43c-2.026.845-4.237 1.574-4.34 1.717-.382.536-.902 1.774-.468 1.588.284-.122 2.84-1.021 4.962-1.804l.325 5.341.021.334c-2.843-.605-5.388-1.247-8.854-2.122l-.352-.089c-2.83-.714-4.323-1.57-7.218-1.93-2.632-.329-6.389-.217-7.507.216-.29.112-2.848 4.379-2.455 4.854.343.415 5.558.686 7.85.668l.668-.866 13.48 3.5s-8.172 2.609-13.48 4.025c-4.684 1.25-9.674 3.058-14.599 1.985-4.132-.9-6.296-3.14-8.914-6.28-1.756-2.105-2.725-5.684-4.115-5.684-1.516 0-3.287 1.848-4.259 3.537-1.786 3.103-2.454 5.81-2.454 7.488 0 1.133.18 2.98.18 2.98-3.73 1.825-7.694 4.736-11.08 7.667-3.765 3.261-7.112 6.653-9.78 6.777-1.234.057-3.59.014-4.506-1.545-2.426-4.13 1.272-10.391 2.432-14.416a.14.14 0 0 0-.116-.176m27.598 4.722s.673 1.141 1.588 1.551c1.003.45 4.094 1.344 2.978-.775-.523-.993-3.402-1.057-4.566-.776M85.71 24.8c-2.228.831-1.943.573-4.264 1.428-.03 2.627.065 5.07.16 7.34.93.18 1.916.36 2.993.548a78 78 0 0 0 1.86.3z" fill="#000"/><path d="m35.638 64.723-.537 1.01 3.702 2.37a.167.167 0 0 0 .237-.062l1.94-3.647a.16.16 0 0 0-.039-.203c-1.196-.993-3.303-2.038-4.166-2.5a.17.17 0 0 0-.233.077l-1.194 2.552q.131.1.252.2c.06.05.075.134.038.203" fill="#000"/><path d="m31.2 62.096-1.698 3.629a.17.17 0 0 0 .061.211l3.899 2.495a.167.167 0 0 0 .237-.062l1.402-2.635-.196-.126a.17.17 0 0 1-.061-.211l.504-1.078c-1.221-.93-3.11-1.868-3.914-2.3a.17.17 0 0 0-.233.077" fill="#000"/><path fill-rule="evenodd" clip-rule="evenodd" d="m33.854 24.049-1.464-1.14s.717-1.952.507-3.265c-.28-1.747-1.754-1.477-3.016-.561-.738.534-1.614 1.667-1.571 2.925.045 1.318 1.334 1.784 2.167 2.617l-2.277 1.97c-1.508.933-3.822 2.431-5.743 3.545-1.82 1.055-3.293 1.801-3.293 2.11 0 .31 5.544-1.913 5.544-1.913s3.823-1.937 6.697-5.318l1.435.985zm-4.126-3.286c-.468.813 1.293 1.465 1.757 1.681.13-.305.1-1.375 0-1.68-.1-.306-.206-.46-.535-.46s-.99.056-1.222.46" fill="#000"/><path d="M45.403 23.696h3.272c.482.006 2.144.026 2.275.39.057.161-.391.417-.391.417-.95.503-3.773 2.03-4.776 2.778-.118.088-.043.212.099.17l3.4-.995s.921-.228 1.59-.833c.782-.709 2.785-3.02 2.603-3.906-.208-1.016-5.199-.735-6.015-.677-1.127.52-1.68 1.526-2.057 2.656m18.241-3.876c.315.338.879.492 1.32.294 1.197-.538-1.032-3.824-.587-5.13.338-.994.568-.2.733.293.514 1.336 1.275 2.637 1.1 4.104-.099.819-.4 1.827-1.1 2.345-1.459 1.081-2.199-.952-2.712-1.612-.17.852-.68 1.893-1.539 2.272-1.006.445-1.832-.293-2.125-.88-.293-.586-.293-3.59-.293-3.59s.002-.891.132-1.43c.194-.806.723-1.804.674.916 0 0-.073 1.173 0 1.833.083.75.42 1.211 1.173 1.319.558.08 1.099-.367 1.465-.806s.198-2.06 0-2.785c-.083-.377-.24-.707-.22-1.173.011-.25.553-1.505.807-.952.358.781.586 1.537.586 2.565 0 .11 0 1.79.586 2.418M50.9 13.749c.65-.307 19.943-7.726 20.02-7.893.075-.167.566-1.177.386-1.154-.986.122-19.72 7.417-19.946 7.76s-.725 1.41-.46 1.287" fill="#000"/></svg>