<svg width="100" height="81" viewBox="0 0 100 81" fill="none" xmlns="http://www.w3.org/2000/svg"><path d="M74.071 25.446c-.138.277-20.122 7.515-21.253 8-.459.197 0-.646.404-1.212s19.88-8.243 21.577-8.405c.31-.03-.589 1.34-.728 1.616m-1.454 44.697c-.113.289-19.36 9.306-20.443 9.89-.439.238-.058-.643.293-1.243s19.052-10.008 20.728-10.322c.306-.058-.465 1.386-.578 1.675m-24.688 3.423 1.842-3.463a.155.155 0 0 0-.037-.193c-1.136-.944-3.138-1.936-3.957-2.375a.16.16 0 0 0-.222.073l-1.613 3.447a.16.16 0 0 0 .058.2l3.703 2.37c.078.05.182.023.225-.059" fill="#000"/><path d="m53.224 73.565 1.842-3.463a.155.155 0 0 0-.037-.193c-1.136-.944-3.137-1.936-3.957-2.375a.16.16 0 0 0-.221.073l-1.614 3.447a.16.16 0 0 0 .058.2l3.703 2.37c.078.05.182.023.226-.059" fill="#000"/><path fill-rule="evenodd" clip-rule="evenodd" d="m25.11 41.481-1.385-1.077s.75-2.063.539-3.384c-.281-1.759-1.883-1.46-3.154-.539-1.026.744-1.736 1.503-1.692 2.77.045 1.327 1.392 2.084 2.23 2.922l-2 1.923s-1.338 1.22-2.307 1.846c-1.996 1.29-5.023 3.154-6.639 3.77-.236.163-.23.294-.438.461 0 0 .47-.136.77-.23 4.219-1.333 8.643-3.98 11.537-7.385l1.693.923zm-4.154-3.308c-.471.819 1.302 1.475 1.77 1.693.13-.308.1-1.385 0-1.693-.101-.307-.208-.461-.54-.461-.33 0-.996.055-1.23.461" fill="#000"/><path d="M71.273 2.79h-3.14s.13-.48.257-.77c.415-.943 1.022-1.505 1.922-1.92 1.538-.11 3.307-.232 4.804.256.5.163.738.259.96.705-.73 1.456-1.624 2.977-2.946 3.971-1.429 1.075-4.42 1.473-4.42 1.473s-.256 0 .385-.448c.64-.448 4.356-1.81 4.356-3.01a10.2 10.2 0 0 0-2.178-.257" fill="#000"/><path fill-rule="evenodd" clip-rule="evenodd" d="m65.116 40.686 2.13-3.955a.1.1 0 0 1 .065-.057c1.444-.496 8.782-2.359 10.373-3.295 1.608-.945 1.026-6.102 1.026-6.102s-6.02 2.218-6.413 2.387c-.459.196 0-.647.404-1.213.142-.2 2.848-1.31 6.118-2.637L77.556 7.31s-.441-.837-.502-1.423c-.163-1.568 1.094-2.903 1.84-4.184 0 0 2.93 6.192 4.101 10.293.143.502.251.89.251 1.422 0 .73-2.163-1.15-2.343-1.422 0 0-.265.113-.25.25l.828 12.453c1.74-.69 3.392-1.263 5.092-1.91L85.7 9.687s-.51-2.535-.551-3.112c-.108-1.544.319-4.304 1.234-5.514l4.255 10.192s.026.71 0 1.23c-.037.714-1.983-.953-2.175-1.23.189 3.5.756 10.411.756 10.411s4.606-1.573 5.058-1.616c.31-.03-.589 1.339-.728 1.616-.037.074-1.91.694-4.05 1.504.2 4.58.85 10.3 1.074 15.968L100 40.371c0 2.192-.58 3.248-1.548 5.22a.13.13 0 0 1-.12.07 45.6 45.6 0 0 0-7.5.152c.303 8.08.523 14.777.473 15.748-.222 4.36-.55 9.365-3.15 13.06-.812 1.151.068-8.851.186-11.159s-.677-17.215-.677-17.215c-5.82 1.41-16.24 11.798-27.662 8.408-3.706-1.1-7.828-7.25-10.574-8.08a.17.17 0 0 0-.219.161c-.101 2.394 1.053 6.595 1.053 6.595s-7.028 9.066-11.725 5.673c-1.896-1.369-1.97-4.613-3.782-5.673-3.796-2.22-6.038 5.224-4.308 7.865.033.05.088.079.148.079 1.458-.003 2.73-.864 4.16-1.041 3.147-.39 5.108 1.378 5.768 4.538.545 2.613-.046 6.716-2.931 7.754-4.33 1.559-6.42-6.568-8.7-5.957-6.122 1.64-12.22 9.2-17.399 12.576-3.96 2.582-8.597 2.62-10.78-2.647-2.206-5.325 1.195-11.77 3.542-16.445a.19.19 0 0 1 .169-.103h.204c.124 0 .215.117.18.237-.606 2.121-1.972 5.286-2.676 7.99-1.365 5.239 1.113 11.518 7.47 7.848 3.945-2.278 11.345-10.135 18.393-13.734a.19.19 0 0 0 .096-.224c-1.222-4.268.218-9.517 3.543-12.518 5.634-5.085 5.279 3.957 9.456 5.579 1.343.52 2.297.372 3.688 0 13.995-3.75-13.22-19.154-15.886-22.316l.946-5.957s.558-.764.945-1.23c5.474-6.593 40.051-22.172 40.377-13.521.16 4.234-5.216 8.245-7.47 11.252a255 255 0 0 0-2.553 3.499c-.209-3.877 10.826-13.405 5.405-13.438l-.03.002c-6.991 1.052-13.226 3.92-20.032 7.195-5.562 2.675-10.72 5.437-15.482 9.371a.188.188 0 0 0 .031.311c4.35 2.33 8.862 4.45 12.992 7.15 7.118 4.651 13.597 14.53 23.248 12.705 5.687-1.075 10.674-4.68 15.884-6.479v-.685c-5.91-.982-12.328-.794-18.037-2.3m16.466-14.468c1.756-.647 3.333-1.3 4.99-1.916l.796 14.413-9.684-1.27c1.887-1.886 2.79-3.785 3.404-6.43.426-1.834.494-4.797.494-4.797M33.147 65.53c.738-.181 5.934-.183 4.445 1.702-1.154 1.46-3.76-.81-4.445-1.702" fill="#000"/></svg>