<svg width="100" height="83" viewBox="0 0 100 83" fill="none" xmlns="http://www.w3.org/2000/svg"><path d="M74.072 26.919c-.139.277-20.123 7.515-21.254 8-.459.197 0-.646.404-1.212s19.88-8.243 21.577-8.404c.31-.03-.589 1.339-.727 1.616M45.553 13.246c-.113.288-19.36 9.305-20.443 9.89-.44.238-.059-.643.293-1.243.35-.6 19.052-10.008 20.728-10.323.306-.057-.465 1.387-.578 1.676" fill="#000"/><path fill-rule="evenodd" clip-rule="evenodd" d="m26.956 39.285-1.385-1.077s.75-2.063.538-3.384c-.28-1.759-1.882-1.46-3.153-.539-1.026.744-1.736 1.503-1.693 2.77.046 1.327 1.393 2.084 2.231 2.922l-2 1.923s-1.338 1.22-2.308 1.846c-1.995 1.29-5.023 3.154-6.638 3.77-.237.163-.23.294-.438.461 0 0 .47-.136.769-.23 4.22-1.333 8.644-3.98 11.538-7.385l1.692.923zm-4.154-3.308c-.471.819 1.302 1.475 1.769 1.693.13-.308.1-1.385 0-1.693-.1-.307-.207-.461-.539-.461-.33 0-.997.055-1.23.461" fill="#000"/><path d="M72.88 2.79h-3.138s.129-.48.256-.77C70.412 1.077 71.02.515 71.919.1c1.539-.11 3.307-.232 4.805.256.499.163.737.259.96.705-.73 1.456-1.624 2.977-2.946 3.971-1.43 1.075-4.42 1.473-4.42 1.473s-.256 0 .384-.448 4.356-1.81 4.356-3.01a10.2 10.2 0 0 0-2.178-.257" fill="#000"/><path fill-rule="evenodd" clip-rule="evenodd" d="m65.117 42.16 2.13-3.956a.1.1 0 0 1 .064-.056c1.444-.496 8.782-2.36 10.373-3.296 1.608-.945 1.026-6.102 1.026-6.102s-6.019 2.218-6.413 2.387c-.459.197 0-.646.404-1.212.142-.2 2.848-1.31 6.118-2.637L77.556 8.782s-.44-.837-.502-1.423c-.163-1.568 1.094-2.903 1.841-4.184 0 0 2.929 6.193 4.1 10.293.144.502.251.89.251 1.422 0 .73-2.162-1.15-2.343-1.422 0 0-.264.113-.25.25l.828 12.453c1.74-.69 3.392-1.263 5.092-1.91l-.872-13.102s-.51-2.535-.55-3.112c-.108-1.544.318-4.304 1.233-5.514l4.255 10.193s.026.708 0 1.229c-.036.714-1.983-.953-2.175-1.23.19 3.5.757 10.412.757 10.412s4.605-1.574 5.057-1.617c.31-.03-.589 1.34-.727 1.617-.037.074-1.91.694-4.052 1.503.2 4.58.852 10.3 1.076 15.969L100 41.844c0 2.193-.58 3.249-1.548 5.22a.13.13 0 0 1-.12.07 45.6 45.6 0 0 0-7.5.153c.304 8.079.523 14.776.474 15.747-.223 4.361-.55 9.365-3.151 13.06-.812 1.152.069-8.85.186-11.158.118-2.308-.677-17.216-.677-17.216-5.819 1.41-16.24 11.799-27.662 8.408-3.706-1.1-7.828-7.249-10.573-8.08a.17.17 0 0 0-.218.162c-.07 2.257 1.563 4.221 1.051 6.594-1.075 4.99-7.028 9.066-11.725 5.674-1.896-1.37-1.97-4.613-3.782-5.674-3.796-2.22-6.038 5.224-4.308 7.866.033.05.088.078.148.078 1.458-.003 2.73-.864 4.16-1.04 3.147-.39 5.108 1.377 5.768 4.538.545 2.613-.046 6.716-2.931 7.754-4.33 1.558-6.42-6.568-8.7-5.957-6.122 1.64-12.22 9.2-17.399 12.576-3.96 2.582-8.597 2.62-10.78-2.648-2.206-5.324 1.195-11.769 3.542-16.444a.19.19 0 0 1 .169-.104h.204c.124 0 .215.118.18.237-.606 2.122-1.972 5.287-2.676 7.99-1.365 5.24 1.113 11.52 7.47 7.85 3.945-2.278 11.345-10.135 18.393-13.735a.19.19 0 0 0 .096-.224c-1.222-4.268.218-9.517 3.543-12.518 5.635-5.084 5.279 3.958 9.456 5.579 1.343.521 2.297.373 3.688 0 13.995-3.75-13.22-19.154-15.886-22.316l.946-5.957s.558-.763.945-1.23c5.474-6.592 40.051-22.171 40.377-13.521.16 4.234-5.216 8.246-7.47 11.252a261 261 0 0 0-2.553 3.499c-.209-3.877 10.826-13.404 5.405-13.438l-.03.002c-6.991 1.053-13.226 3.921-20.032 7.195-5.562 2.674-10.72 5.436-15.48 9.372a.188.188 0 0 0 .03.31c4.35 2.33 8.862 4.45 12.993 7.15 7.117 4.652 13.596 14.53 23.247 12.705 5.688-1.075 10.674-4.68 15.885-6.478v-.685c-5.91-.983-12.329-.795-18.037-2.301m16.465-14.468c1.756-.648 3.333-1.3 4.991-1.917l.795 14.413-9.684-1.27c1.887-1.886 2.791-3.784 3.405-6.43.425-1.834.493-4.796.493-4.796m-48.435 39.31c.738-.18 5.935-.183 4.445 1.703-1.154 1.46-3.76-.81-4.445-1.703" fill="#000"/></svg>