<svg width="101" height="68" viewBox="0 0 101 68" fill="none" xmlns="http://www.w3.org/2000/svg"><path d="M63.135 27.245c-.436.196-.993.044-1.305-.29-.58-.62-.58-2.283-.58-2.392 0-1.017-.225-1.764-.58-2.537-.25-.547-.787.695-.797.942-.02.46.135.787.217 1.16.196.718.363 2.32 0 2.755-.362.435-.898.876-1.45.797-.744-.106-1.077-.563-1.16-1.305-.072-.652 0-1.812 0-1.812.049-2.692-.474-1.704-.666-.906-.128.532-.131 1.413-.131 1.413s0 2.973.29 3.553 1.107 1.31 2.102.87c.85-.376 1.354-1.405 1.523-2.248.507.653 1.24 2.664 2.682 1.595.692-.513.99-1.51 1.088-2.32.174-1.451-.58-2.738-1.088-4.06-.163-.488-.39-1.273-.725-.29-.44 1.293 1.765 4.542.58 5.075M46.311 61.346l1.724-3.24a.145.145 0 0 0-.034-.181c-1.064-.883-2.936-1.811-3.703-2.222a.15.15 0 0 0-.207.068l-1.51 3.225a.15.15 0 0 0 .055.188L46.1 61.4c.073.047.17.021.211-.055m17.981-45.133c-.112.224-16.21 6.055-17.121 6.445-.37.159 0-.52.325-.976.326-.456 16.015-6.64 17.382-6.77.25-.024-.474 1.078-.586 1.301" fill="#000"/><path fill-rule="evenodd" clip-rule="evenodd" d="m41.647 16.362-1.313-1.021s.71-1.957.51-3.21c-.266-1.668-1.785-1.385-2.99-.51-.973.705-1.646 1.424-1.605 2.625.043 1.26 1.32 1.977 2.115 2.772l-1.896 1.824s-1.27 1.156-2.188 1.75c-1.893 1.222-4.764 2.99-6.296 3.574-.224.155-.217.28-.415.438 0 0 .446-.13.73-.219 4-1.264 8.196-3.774 10.94-7.002l1.605.875zm-3.94-3.137c-.446.776 1.235 1.398 1.678 1.605.124-.292.096-1.313 0-1.605-.095-.292-.196-.437-.51-.437s-.946.052-1.167.437M19.603 18.91l-1.316-.682s.306-1.83-.073-2.895c-.504-1.418-1.788-.924-2.703.038-.738.776-1.21 1.515-.98 2.56.242 1.097 1.477 1.518 2.303 2.086l-1.366 1.905s-.924 1.22-1.633 1.889c-1.46 1.377-4.706 3.415-5.953 4.175-.043.021-.087-.023-.064-.065.496-.924 1.48-1.594 2.079-2.47.608-.89 1.195-1.879 1.495-2.925.262-.915.412-1.908 0-2.794-.443-.95-1.504-1.182-2.47-1.04-1.84.27-3.123 2.363-2.73 4.094.267 1.177 1.054 1.44 1.625 2.34.218.343.28 1.45.585.52.312-.95.262-1.502-.325-2.275-.358-.47-1.125-.977-1.17-1.624-.046-.672.668-1.197 1.235-1.365.979-.291 2.487-.016 2.405 1.04-.26 3.314-4.225 6.564-5.33 8.773-.044.09.891-.285.975-.325 1.038-.487 2.366-1.24 2.6-1.364 3.3-1.756 6.987-5.038 8.868-8.311l1.548.506zm-3.96-2.11c-.265.753 1.309 1.025 1.73 1.134.062-.275-.129-1.165-.26-1.406-.13-.24-.243-.351-.518-.3s-.82.199-.951.572" fill="#000"/><path d="M33.99 33.397c.428-2.232.201-3.888-2.053-4.9C21.39 23.763 7.645 53.977 1.744 44.322c-2.27-3.713 1.186-9.344 2.275-12.966a.13.13 0 0 0-.108-.165l-.217-.031a.13.13 0 0 0-.138.073C2.212 33.993.643 37.075.22 40.15c-.244 1.78-.273 3.874.464 5.562 1.182 2.708 4.2 4.161 7.018 3.112a5.8 5.8 0 0 0 1.544-.844c.505-.38.957-.825 1.568-1.341 5.017-4.24 8.094-10.474 14.369-13.243.778-.343 1.225-.53 2.052-.728.686-.164 1.082-.278 1.788-.265 1.977.036 2.66.75 3.708 2.119.884 1.155 1.066-.124 1.258-1.126" fill="#000"/><path fill-rule="evenodd" clip-rule="evenodd" d="M81.998 24.612c-.337.473-.72 1.176-.337 1.012.229-.098 1.383-.527 3.002-1.125l.476 7.027s.505 6.207-.205 9.18c-.828 3.47-5.651 4.817-8.688 5.313 0 0 2.59-2.491 3.241-4.584 1.208-3.88-.335-7.074-4.104-8.708-8.533-3.7-14.493 8.324-17.453 14.385-1.041-1.034-1.088-.808-2.13-1.842-1.04-1.033-.038-3.183-.536-3.298s-1.825 1.195-2.474 1.707c-2.92 2.302-9.515 5.114-11.546.345-.427-1.002.29-2.129 0-2.839s-3.072 2.156-5.217 2.839c-.745.237-1.952.441-1.952.441a9 9 0 0 0-.177-.729c-.855-2.876-2.868-5.481-6.228-4.852-3.667.687-5.657 6.973-2.625 9.422 1.884 1.522 5.391.941 7.538.472 0 0 .31.365.433 1.23.202 1.413-5.501 7.526-10.124 10.01-3.907 2.098-9.45 5.347-13.294 1.28-2.683-2.84-1.654-9.597-.351-13.317l-.137.1c-1.687 3.83-2.778 9.828-1.967 13.524 3.164 14.418 21.936-1.375 26.046-7.915 1.08-1.718 1.493-3.337 1.346-5.384l4.887-2.805c-.383 3.477 2.283 5.44 5.62 5.35 3.343-.09 6.576-2.94 8.898-5.12.08 2.206.822 3.827 2.609 5.12 0 0-.595 2.808-.23 2.84.537.045 1.208-2.34 1.208-2.34 6.152 1.503 12.693.54 18.719-1.343 6.36-1.988 8.955-3.652 10.778-10.395.509-1.882.695-4.402.69-4.943s-.142-3.352-.248-5.37a993 993 0 0 0-.328-5.714l.018-.006c1.904-.702 4.047-1.492 6.003-2.218l1.957 31.977c-.034 2.054-.463 10.969.128 9.919.977-1.734 1.284-3.322 1.618-5.224.381-2.173.435-4.282.471-6.482.019-1.144-.565-11.183-1.181-21.183-.204-3.296-.422-6.756-.623-9.892 2.234-.839 3.84-1.46 3.876-1.532.116-.232.866-1.374.607-1.35-.432.042-2.247.667-4.57 1.53-.292-4.53-.536-8.18-.63-9.324-.01-.12.223-.215.223-.215.153.24 2.01 1.909 2.02 1.273.008-.464-.08-.804-.198-1.243-.962-3.589-3.424-9.025-3.424-9.025-.67 1.104-1.784 2.25-1.664 3.618.045.511.417 1.247.417 1.247l.891 14.562a345 345 0 0 0-6.012 2.367c-.324-5.3-.697-10.75-.934-12.933-.013-.122.22-.224.22-.224.162.239 2.092 1.883 2.085 1.238-.005-.47-.103-.813-.234-1.256C87.129 5.593 84.484.142 84.484.142c-.649 1.14-1.75 2.331-1.591 3.717.059.518.457 1.254.457 1.254l1.239 18.293c-1.502.633-2.51 1.092-2.591 1.206m-51.443 20.12c-.666-.981-1.636-1.915-2.885-1.946-1.055-.026-2.695.51-1.733 1.818.817 1.11 3.247.566 4.546.302a.113.113 0 0 0 .072-.174M59.35 47.38s4.392.818 7.173.441c4.846-.657 8.64-3.228 11.814-6.866-2.11-3.682-5.545-5.777-9.397-4.603-4.203 1.28-7.76 7.396-9.59 11.028" fill="#000"/><path d="M87.138 23.586c.122 2.032.235 4.002.328 5.713.106 2.019.243 4.83.248 5.371s-.181 3.061-.69 4.943c-1.823 6.743-4.418 8.407-10.778 10.395-6.026 1.883-12.567 2.846-18.72 1.342 0 0-.67 2.386-1.207 2.34-.365-.031.23-2.838.23-2.838-1.787-1.294-2.53-2.915-2.609-5.121-2.322 2.18-5.555 5.03-8.899 5.12-3.336.09-6.002-1.873-5.62-5.35l-4.886 2.805c.147 2.047-.266 3.666-1.346 5.384-4.11 6.54-22.882 22.333-26.046 7.915-.811-3.696.28-9.694 1.967-13.523m78.028-24.496.018-.006m-.018.006.018-.006M9.247 47.98c-1.303 3.72-2.332 10.477.351 13.317 3.843 4.067 9.387.818 13.294-1.28 4.623-2.484 10.326-8.597 10.124-10.01-.124-.865-.432-1.23-.432-1.23-2.148.47-5.655 1.05-7.539-.472-3.032-2.449-1.042-8.735 2.625-9.422 3.36-.63 5.374 1.976 6.228 4.852.064.216.123.464.177.729 0 0 1.207-.204 1.952-.441 2.145-.683 4.927-3.548 5.217-2.839s-.427 1.837 0 2.839c2.031 4.77 8.626 1.957 11.546-.345.649-.512 1.975-1.823 2.474-1.707.498.115-.504 2.265.537 3.298 1.04 1.034 1.088.808 2.129 1.842 2.96-6.062 8.92-18.084 17.453-14.385 3.769 1.635 5.312 4.828 4.104 8.708-.652 2.093-3.241 4.584-3.241 4.584 3.037-.495 7.86-1.843 8.688-5.313.71-2.973.205-9.18.205-9.18l-.476-7.027c-1.62.598-2.773 1.027-3.002 1.125-.383.164 0-.54.337-1.012.081-.114 1.089-.573 2.59-1.206L83.35 5.113s-.398-.736-.457-1.254c-.158-1.386.942-2.578 1.591-3.717 0 0 2.645 5.451 3.718 9.068.13.443.23.785.234 1.256.007.645-1.923-1-2.085-1.238 0 0-.233.102-.22.224.237 2.183.61 7.634.934 12.933 1.864-.755 4.008-1.6 6.012-2.367l-.891-14.562s-.372-.736-.417-1.247c-.12-1.368.995-2.514 1.664-3.618 0 0 2.462 5.436 3.424 9.025.118.44.206.78.198 1.243-.01.636-1.867-1.034-2.02-1.273 0 0-.233.095-.223.215.094 1.144.338 4.794.63 9.324 2.323-.863 4.138-1.488 4.57-1.53.259-.024-.491 1.118-.607 1.35-.036.071-1.642.693-3.876 1.532.2 3.136.419 6.596.623 9.892.616 10 1.2 20.04 1.181 21.183-.036 2.2-.09 4.309-.471 6.482-.334 1.902-.641 3.49-1.618 5.224-.59 1.05-.162-7.865-.128-9.92L93.16 21.363c-1.956.726-4.1 1.516-6.003 2.218M9.247 47.98l-.137.1m.137-.1c.505-.38.957-.825 1.568-1.341 5.017-4.24 8.094-10.474 14.369-13.243.778-.343 1.225-.53 2.052-.728.686-.164 1.082-.278 1.788-.265 1.977.036 2.66.75 3.708 2.119.884 1.155 1.066-.124 1.258-1.126.428-2.232.201-3.888-2.053-4.9C21.39 23.763 7.645 53.977 1.744 44.322c-2.27-3.713 1.186-9.344 2.275-12.966a.13.13 0 0 0-.108-.165l-.217-.031a.13.13 0 0 0-.138.073C2.212 33.993.643 37.075.22 40.15c-.244 1.78-.273 3.874.464 5.562 1.182 2.708 4.2 4.161 7.018 3.112a5.8 5.8 0 0 0 1.407-.743m.137-.101q.175-.497.351-.914-.25.476-.488 1.015m18.56-5.296c1.25.03 2.22.965 2.885 1.946a.113.113 0 0 1-.072.174c-1.299.264-3.729.809-4.546-.302-.962-1.309.678-1.843 1.733-1.818ZM59.35 47.38s4.392.818 7.173.441c4.846-.657 8.64-3.228 11.814-6.866-2.11-3.682-5.545-5.777-9.397-4.603-4.203 1.28-7.76 7.396-9.59 11.028Zm2.481-20.425c.312.334.87.486 1.305.29 1.185-.533-1.02-3.782-.58-5.074.335-.984.562-.2.725.29.508 1.321 1.261 2.608 1.088 4.06-.098.809-.396 1.806-1.088 2.319-1.443 1.07-2.175-.942-2.682-1.595-.169.843-.673 1.872-1.523 2.247-.995.44-1.812-.29-2.102-.87s-.29-3.552-.29-3.552.003-.88.13-1.413c.193-.798.715-1.786.667.906 0 0-.072 1.16 0 1.812.083.742.416 1.199 1.16 1.305.553.079 1.088-.362 1.45-.797.363-.435.196-2.037 0-2.755-.083-.373-.237-.7-.217-1.16.01-.247.546-1.489.797-.942.355.773.58 1.52.58 2.537 0 .109 0 1.771.58 2.392Zm-13.795 31.15-1.724 3.241a.15.15 0 0 1-.21.055l-3.465-2.217a.15.15 0 0 1-.055-.188l1.51-3.225a.15.15 0 0 1 .207-.068c.767.41 2.64 1.339 3.703 2.222.053.044.067.12.034.18Zm-.864-35.448c.911-.39 17.01-6.221 17.121-6.445.112-.223.836-1.325.586-1.302-1.367.13-17.056 6.315-17.382 6.77-.325.456-.695 1.136-.325.977Zm-5.524-6.295-1.313-1.021s.71-1.957.51-3.21c-.266-1.668-1.785-1.385-2.99-.51-.973.705-1.646 1.424-1.605 2.625.043 1.26 1.32 1.977 2.115 2.772l-1.896 1.824s-1.27 1.156-2.188 1.75c-1.893 1.222-4.764 2.99-6.296 3.574-.224.155-.217.28-.415.438 0 0 .446-.13.73-.219 4-1.264 8.196-3.774 10.94-7.002l1.605.875zm-3.94-3.137c-.446.776 1.235 1.398 1.678 1.605.124-.292.096-1.313 0-1.605-.095-.292-.196-.437-.51-.437s-.946.052-1.167.437ZM19.604 18.91l-1.316-.682s.306-1.83-.073-2.895c-.504-1.418-1.788-.924-2.703.038-.738.776-1.21 1.515-.98 2.56.242 1.097 1.477 1.518 2.303 2.086l-1.366 1.905s-.924 1.22-1.633 1.889c-1.46 1.377-4.706 3.415-5.953 4.175-.043.021-.087-.023-.064-.065.496-.924 1.48-1.594 2.079-2.47.608-.89 1.195-1.879 1.495-2.925.262-.915.412-1.908 0-2.794-.443-.95-1.504-1.182-2.47-1.04-1.84.27-3.123 2.363-2.73 4.094.267 1.177 1.054 1.44 1.625 2.34.218.343.28 1.45.585.52.312-.95.262-1.502-.325-2.275-.358-.47-1.125-.977-1.17-1.624-.046-.672.668-1.197 1.235-1.365.979-.291 2.487-.016 2.405 1.04-.26 3.314-4.225 6.564-5.33 8.773-.044.09.891-.285.975-.325 1.038-.487 2.366-1.24 2.6-1.364 3.3-1.756 6.987-5.038 8.868-8.311l1.548.506zm-3.96-2.11c-.265.753 1.309 1.025 1.73 1.134.062-.275-.129-1.165-.26-1.406-.13-.24-.243-.351-.518-.3s-.82.199-.951.572Z" stroke="#000" stroke-width=".132"/></svg>