<svg width="100" height="65" viewBox="0 0 100 65" fill="none" xmlns="http://www.w3.org/2000/svg"><path d="M39.805 22.382h-3.71c.427-1.282 1.054-2.422 2.332-3.012.926-.066 6.586-.384 6.822.768.206 1.004-2.066 3.626-2.953 4.43-.758.685-1.801.944-1.801.944l-3.857 1.128c-.161.047-.246-.093-.112-.193 1.137-.848 4.338-2.58 5.415-3.15 0 0 .508-.29.444-.472-.148-.413-2.033-.436-2.58-.443M79.607 3.8H76.02c.413-1.24 1.02-2.341 2.255-2.912.894-.063 6.364-.37 6.592.742.2.97-1.996 3.505-2.854 4.281-.732.663-1.74.913-1.74.913l-3.728 1.09c-.155.046-.237-.09-.108-.186 1.099-.82 4.193-2.494 5.234-3.044 0 0 .49-.28.428-.457-.143-.4-1.964-.421-2.493-.428" fill="#000"/><path fill-rule="evenodd" clip-rule="evenodd" d="m25.109 27.897-1.267-.986s.686-1.887.493-3.097c-.258-1.609-1.723-1.336-2.886-.492-.939.68-1.588 1.375-1.549 2.534.042 1.214 1.274 1.907 2.042 2.674l-1.83 1.76S18.886 31.406 18 31.979c-1.826 1.18-4.597 2.886-6.075 3.449-.216.15-.21.27-.4.422 0 0 .43-.125.703-.21 3.861-1.22 7.91-3.643 10.558-6.758l1.549.845zm-3.801-3.027c-.431.749 1.191 1.35 1.619 1.549.12-.282.092-1.267 0-1.549-.092-.281-.19-.422-.493-.422s-.912.05-1.126.422" fill="#000"/><path d="m78.532 63.463 1.782-3.35a.15.15 0 0 0-.036-.187c-1.099-.912-3.034-1.872-3.827-2.296a.155.155 0 0 0-.214.07l-1.56 3.334a.153.153 0 0 0 .056.194l3.581 2.292a.153.153 0 0 0 .218-.057m-45.36.767 1.782-3.349a.15.15 0 0 0-.035-.187c-1.1-.912-3.035-1.872-3.828-2.297a.155.155 0 0 0-.214.07l-1.56 3.335a.153.153 0 0 0 .056.194l3.581 2.292a.153.153 0 0 0 .218-.057" fill="#000"/><path d="m37.838 63.877 1.782-3.35a.15.15 0 0 0-.035-.187c-1.1-.913-3.035-1.872-3.828-2.297a.155.155 0 0 0-.214.07l-1.56 3.334a.153.153 0 0 0 .056.195l3.581 2.292a.153.153 0 0 0 .218-.057m27.071-6.017c-.11.241-16.74 6.642-17.679 7.084-.38.179.339-1.36.665-1.855s16.15-6.717 17.571-6.893c.26-.033-.447 1.423-.557 1.664m16.005-43.174c-.11.24-16.739 6.642-17.678 7.083-.38.18.339-1.36.665-1.854.326-.495 16.15-6.717 17.57-6.894.26-.032-.447 1.424-.557 1.665" fill="#000"/><path fill-rule="evenodd" clip-rule="evenodd" d="M87.744.026c.276-.473 2.526 5.719 3.544 9.283.125.437.218.775.218 1.237 0 .634-1.634-1.219-1.79-1.455 0 0-.23.098-.22.218.31 3.14.978 13.351 1.26 19.716.084 1.985.296 8.062.296 8.594 0 3.566-1.184 8.335-3.78 10.838 0 0-1.565 1.562-4.164 1.21-1.588-.214-2.69-.711-3.544-2.067-.74-1.174-.531-3.514-.531-3.514s-2.45 1.952-4.194 2.924c-1.506.839-6.526 2.461-8.889 2.982-4.699 1.037-7.973 1.347-11.162 1.034-.951-.094-3.456-.827-3.456-.827s-1.004 2.845-1.506 2.776.502-3.337.502-3.337-1.34-.842-1.89-1.654c-.79-1.165-.797-3.514-.797-3.514s-4.407 4.973-8.18 5.168c-2.874.148-4.73-.586-6.97-2.392-1.94-1.565-2.612-1.785-5.079-1.477-2.466.309-6.611 3.86-9.597 6.704-1.764 1.68-3.055 3.535-4.242 5.242-1.106 1.59-2.123 3.05-3.348 4.12q-.159.137-.322.282c-1.92 1.695-4.273 3.772-7.71.544-3.238-3.04-2.245-7.837-1.093-11.547.772-2.487 2.274-5.817 2.924-5.994.484-.133-.168 1.544-.935 3.518-.687 1.766-1.466 3.77-1.605 4.927l-.082.65c-.284 2.195-.577 4.46 1.204 5.73 3.113 2.218 6.587-1.956 9.067-4.934.557-.67 1.064-1.278 1.505-1.74 1.03-1.08 2.018-2.262 3.016-3.454 3.279-3.921 6.657-7.96 11.957-8.89 2.185-.385 3.92.413 5.522 2.214 1.601 1.801 3.934 2.041 6.88 1.742 2.67-.27 5.372-2.293 7.013-3.521.865-.647 1.436-1.074 1.552-.908.194.277.133.72.063 1.227-.078.571-.168 1.224.084 1.814.41.958.992 1.322 1.818 1.838q.255.159.545.348s3.455-7.324 6.349-10.838c3.047-3.7 6.173-6.236 11.074-3.721 3.455 1.772 5.185 5.029 3.78 9.066-.713 2.048-3.1 4.607-3.1 4.607s3.048-1.061 6.142-2.599c.636-.316 1.456-.84 2.24-1.34 1.154-.738 2.228-1.423 2.514-1.318.165.06.102.509.022 1.077-.091.651-.205 1.461-.022 2.024.491 1.504 1.54 2.19 3.101 2.451 1.772.295 4.723-1.187 4.961-2.658.234-1.44.064-4.179-.135-7.39l-.012-.2c-.6-9.675-1.713-29.235-1.713-29.235s-.502-.905-.502-1.418c0-.974 1.142-3.691 1.417-4.163m-31.805 40.9c-1.37 1.946-2.923 5.345-2.923 5.345s2.651.55 4.37.532c3.22-.034 7.553-1.713 10.366-3.721 1.726-1.233 3.957-2.894 3.957-3.721s-2.677-3.77-5.198-4.518c-1.97-.586-3.247-.695-5.05.295-1.505.827-3.723 3.234-5.522 5.788" fill="#000"/><path d="M99.557 9.268C98.65 5.961 96.282-.388 95.924.203c-.358.59-1.394 2.646-1.27 3.986.047.501.416 1.22.416 1.22l1.571 23.375 1.085 17.812c-.022 2.014-.574 10.6 0 9.568.948-1.705 1.614-3.508 1.932-5.375.362-2.132.318-4.074.342-6.23.012-1.122-.364-6.819-1.022-16.618-.575-8.53-1.151-16.692-1.324-18.673-.01-.118.217-.212.217-.212.151.234 1.88 2.053 1.887 1.43.005-.455-.084-.788-.201-1.218" fill="#000"/></svg>