<svg width="88" height="114" viewBox="0 0 88 114" fill="none" xmlns="http://www.w3.org/2000/svg"><path d="M22.028 57.552c-.64.297-1.467.082-1.934-.405-.868-.907-.898-3.364-.9-3.525-.018-1.502-.364-2.603-.903-3.739-.38-.803-1.15 1.042-1.161 1.407-.021.68.213 1.161.342 1.71.302 1.058.578 3.422.05 4.071-.528.65-1.311 1.311-2.128 1.205-1.103-.144-1.603-.813-1.738-1.908-.119-.962-.033-2.678-.033-2.678.023-3.978-.732-2.509-1.001-1.327-.18.79-.168 2.091-.168 2.091s.054 4.393.492 5.245c.44.851 1.66 1.915 3.123 1.247 1.248-.57 1.975-2.1 2.21-3.348.76.955 1.88 3.915 3.992 2.308 1.013-.77 1.436-2.25 1.565-3.447.231-2.149-.905-4.036-1.68-5.98-.25-.72-.6-1.874-1.077-.416-.626 1.918 2.69 6.68.949 7.49m31.107-21.15c-.17.369-19.765 7.616-21.227 8.297-.592.276-.026-.847.48-1.604s19.418-8.557 21.633-8.838c.405-.052-.716 1.777-.886 2.145" fill="#000"/><path fill-rule="evenodd" clip-rule="evenodd" d="m22.965 40.742-1.83-1.388s.948-2.714.65-4.441c-.396-2.3-2.488-1.883-4.139-.655-1.331.99-2.248 1.995-2.172 3.653.08 1.739 1.857 2.709 2.968 3.793l-2.588 2.55s-1.733 1.62-2.993 2.455c-2.593 1.72-6.529 4.21-8.635 5.043-.307.218-.296.389-.566.611 0 0 .614-.186 1.004-.315 5.505-1.812 11.258-5.35 14.993-9.855l2.232 1.182zm-5.493-4.265c-.604 1.079 1.729 1.91 2.344 2.188.166-.405.11-1.815-.027-2.217-.136-.401-.279-.6-.713-.596-.433.006-1.304.089-1.604.625" fill="#000"/><path d="m42.173 5.422-6.068.074s.238-.929.477-1.492c.78-1.837 1.941-2.937 3.67-3.76 2.972-.249 6.388-.526 9.295.382.969.302 1.432.482 1.874 1.34-1.377 2.831-3.07 5.794-5.603 7.747-2.738 2.11-8.51 2.952-8.51 2.952s-.496.006.732-.876 8.378-3.602 8.35-5.923a19.8 19.8 0 0 0-4.217-.444" fill="#000"/><path fill-rule="evenodd" clip-rule="evenodd" d="M14.574 107.155c-2.602-.384-4.625-.828-6.386-2.144-5.903-4.409-8.49-10.798-2.853-27.732.081-.245.058-.364-.039-.446s-.714.062-.714.062c-3.625 9.03-7.38 21.752-1.57 30.691 2.131 3.28 4.567 5.627 7.982 6.051 6.383.791 11.079.242 17.303-2.575 9.08-4.11 17.752-10.881 22.664-16.428 1.255-1.417 1.473-2.623 1.86-4.475.478-2.288.165-4.328.165-4.328-.383-4.428-6.728-4.745-10.18-5.591 6.562-2.567 12.89-5.72 19.5-8.15 3.597-1.323 9.077-2.952 10.398-3.34a.247.247 0 0 1 .316.22l1.2 16.888c-.04 3.292-.696 17.583.308 15.897 1.66-2.785 2.171-5.33 2.727-8.381.635-3.485.708-6.866.75-10.392.014-1.09-.367-7.225-.919-15.39a.25.25 0 0 1 .215-.264l8.319-1.079a.25.25 0 0 0 .2-.158l2.164-5.791a.25.25 0 0 0-.075-.279l-.549-.446a.25.25 0 0 0-.147-.055l-10.488-.397a.247.247 0 0 1-.237-.23 6396 6396 0 0 0-1.766-24.572c4.355-1.782 7.716-3.188 7.777-3.32.17-.369 1.291-2.197.886-2.146-.78.1-4.418 1.512-8.821 3.332-.583-7.841-1.062-14.036-1.254-16.105-.018-.193.379-.346.379-.346.265.382 3.464 3.047 3.477 2.028.008-.743-.146-1.287-.352-1.99-1.68-5.747-5.952-14.446-5.952-14.446-1.138 1.774-3.039 3.616-2.821 5.809.081.82.726 1.995.726 1.995l1.759 24.747a500 500 0 0 0-9.23 4.02c-.486-8.781-.895-17.101-1.377-21.456-.02-.18.325-.332.325-.332.24.352 3.102 2.78 3.09 1.825-.008-.697-.155-1.203-.35-1.859-1.6-5.351-5.535-13.414-5.535-13.414-.958 1.689-2.583 3.457-2.344 5.509.09.766.68 1.855.68 1.855l2.09 27.56.022 1.872c-1.425.675-2.325 1.142-2.417 1.28-.506.757-1.072 1.879-.48 1.603.267-.124 1.34-.566 2.918-1.207l.094 7.721c-.435.483-1.186 1.597-2.28 2.133-4.926 2.414-14.562 4.513-14.562 4.513s-1.62 4.52-1.876 5.635c-.028.12.057.221.18.237l25.634 3.242c.253.032.298.38.061.476l-16.616 6.67S32.085 78.003 31.41 78.9c-1.107 1.473-1.536 4.058-.865 5.817.354.927 6.663 1.954 10.421 2.422 6.814.849 11.593 1.547 7.392 5.13-8.436 7.196-22.375 16.569-33.785 14.885M60.32 49.446c1.125-3.48 1.1-9.303 1.1-9.303l-.024-.42c2.77-1.12 6.094-2.462 9.277-3.754l1.591 22.384a.248.248 0 0 1-.274.264c-5.158-.565-10.145-1.027-15.226-2.211a.25.25 0 0 1-.126-.413c.455-.503 1.338-1.51 1.85-2.313.941-1.478 1.26-2.464 1.787-4.094z" fill="#000"/></svg>