<svg width="101" height="71" viewBox="0 0 101 71" fill="none" xmlns="http://www.w3.org/2000/svg"><path fill-rule="evenodd" clip-rule="evenodd" d="m36.896 18.29-1.304-1.014s.706-1.942.507-3.187c-.265-1.656-1.773-1.375-2.97-.507-.967.7-1.635 1.415-1.594 2.608.043 1.25 1.311 1.963 2.1 2.752l-1.883 1.811s-1.26 1.15-2.173 1.739c-1.88 1.214-4.73 2.97-6.252 3.55-.223.154-.216.277-.412.434 0 0 .442-.128.724-.217 3.974-1.255 8.14-3.748 10.866-6.954l1.594.869zm-3.912-3.114c-.444.77 1.226 1.388 1.666 1.593.123-.29.094-1.304 0-1.593-.095-.29-.195-.435-.507-.435s-.94.052-1.16.435" fill="#000"/><path d="m62.038 36.756 1.69-3.176a.14.14 0 0 0-.034-.178c-1.043-.865-2.878-1.775-3.63-2.178a.147.147 0 0 0-.203.067l-1.48 3.162a.146.146 0 0 0 .053.184l3.397 2.174c.071.045.167.02.207-.055m-29.705-1.594 1.69-3.177a.14.14 0 0 0-.034-.177c-1.042-.866-2.878-1.776-3.63-2.178a.147.147 0 0 0-.203.066l-1.48 3.162a.145.145 0 0 0 .054.184l3.396 2.174c.072.046.167.02.207-.054M43.199 69.65l1.69-3.177a.14.14 0 0 0-.034-.177c-1.042-.865-2.878-1.775-3.63-2.178a.147.147 0 0 0-.203.067l-1.48 3.162a.146.146 0 0 0 .053.184l3.397 2.173a.145.145 0 0 0 .207-.054" fill="#000"/><path d="m48.205 69.317 1.69-3.177a.14.14 0 0 0-.034-.177c-1.042-.866-2.878-1.776-3.63-2.179a.147.147 0 0 0-.202.067l-1.48 3.162a.146.146 0 0 0 .053.184l3.396 2.174c.072.046.167.02.207-.054m23.66-66.156h-3.077s.127-.47.251-.754c.407-.926 1.003-1.477 1.884-1.884 1.509-.107 3.242-.227 4.71.252.49.16.724.253.943.69-.716 1.428-1.593 2.92-2.89 3.894-1.4 1.053-4.333 1.445-4.333 1.445s-.25 0 .377-.44c.628-.44 4.27-1.775 4.27-2.952a10 10 0 0 0-2.135-.25M45.758 32.347H42.68s.126-.47.25-.754c.407-.927 1.003-1.477 1.885-1.884 1.508-.107 3.242-.227 4.71.251.49.16.723.254.942.69-.716 1.428-1.593 2.92-2.889 3.895-1.4 1.053-4.333 1.444-4.333 1.444s-.251 0 .377-.44 4.27-1.774 4.27-2.951a10 10 0 0 0-2.135-.251m31.778-12.71c-.117.235-17.08 6.38-18.04 6.79-.39.168 0-.548.342-1.028.343-.48 16.875-6.997 18.316-7.134.263-.026-.5 1.136-.618 1.372m-6.267 43.908c-.118.235-17.08 6.38-18.041 6.79-.39.168 0-.548.343-1.028s16.875-6.997 18.315-7.134c.264-.026-.5 1.136-.617 1.372" fill="#000"/><path fill-rule="evenodd" clip-rule="evenodd" d="M82.367 8.678s-.234.1-.222.222l.926 14.865a351 351 0 0 1 6.363-2.488l-.769-15.974s-.258-1.189-.291-1.657c-.088-1.252.553-2.61 1.181-3.609 0 0 2.562 5.335 3.385 8.63.101.404.176.716.162 1.14-.02.58-1.69-.974-1.827-1.195 0 0-.214.083-.207.193.084 1.3.32 6.128.576 11.647 2.035-.748 3.579-1.27 3.976-1.308.263-.025-.5 1.137-.618 1.372-.032.066-1.365.587-3.294 1.315.089 1.916.178 3.885.264 5.794.283 6.369.671 13.445.87 17.511q3.69.398 7.412.645s-.741 3.263-1.372 3.82c-.204.18-.63.296-.63.296s-2.845.026-4.654.223l-.702.076c-.07 1.39-.191 2.759-.46 4.154-.336 1.733-1.127 4.1-1.36 4.614s-.293-6.001-.182-8.474c-.237.048-.488.102-.764.167-3.01.712-4.447 1.881-7.268 3.153-3.196 1.44-4.79 2.734-8.122 3.82-1.915.623-3.007.996-5.006 1.242-3.054.374-4.907.357-7.862-.501-1.048-.304-2.615-.983-2.615-.983s-2.848 2.254-5.006 2.355c-2.28.107-4.246-.175-5.451-2.114-.684-1.1-.686-3.245-.686-3.245-7.862 5.674-17.567 5.184-27.313 5.674-4.031.203-6.935 1.062-10.718.52-2.525-.362-3.497-.658-5.878-1.577-1.659-.64-3.597-1.372-4.134-1.91-.16-.158 0-.574 0-.574 4.82.575 10.42.24 14.87-.26.929-1.718 1.984-3.393 3.323-4.82-.136-2.13.007-7.031.007-8.453l-.865-13.658-1.89-24.32c-.482-1.372.204-3.079 1.101-4.617 0 0 2.33 5.306 3.294 8.682.118.413.206.733.206 1.171 0 .6-1.698-1.154-1.846-1.378 0 0-.218.093-.207.207.188 1.907.941 11.198 1.586 19.413.738 9.44.688 11.697.688 12.778 0 2.079-.018 4.073-.344 6.132-.159 1-.311 1.907-.568 2.8l.41-.352c3.44-3.426 13.091-10.94 17.32-7.992 3.093 2.157 4.66 4.024 3.374 7.491-1.015 2.736-5.526 5.804-5.526 5.804 3.189.202 5.349-.608 8.252-1.818 2.633-1.097 6.508-4.005 6.786-3.504.216.39-.432 1.352-.278 2.207.26 1.448 1.189 2.837 2.67 3.115 1.483.278 3.198.453 4.265-.76-1.12-3.579-.508-6.297 1.594-9.327 3.745-5.396 6.454-3.114 6.805 2.15.171 2.563-.593 4.736-2.04 6.843 0 0 1.695.4 2.8.519 3.223.345 6.393-.255 9.457-1.224 4.039-1.277 9.68-4.895 9.68-4.895s-6.871-1.065-11.293-1.595c-1.46-.175-2.898-.468-4.376-.446-.06-1.477.224-2.882 1.316-3.912 2.892-.441 7.844-1.668 10.217-3.504.52-.401.334-10.717.334-10.717l-.164-2.489c-2.167.8-3.79 1.4-4.068 1.52-.39.166 0-.55.343-1.03.1-.14 1.574-.792 3.649-1.65L79.747 6.324l-.241-.686c-.42-1.752.362-5.637.927-5.637s4.007 8.542 4.007 9.937c0 .645-1.913-1.018-2.073-1.259m.884 26.905c.598-3.432 0-8.92 0-8.92l-.103-1.655a2083 2083 0 0 0 6.352-2.35l.275 5.708.868 16.519a164 164 0 0 1-10.581-1.626s1.504-2.09 2.132-3.597c.633-1.52.775-2.458 1.057-4.08m-61.653 15.13c-2.324 1.85-5.433 5.322-5.433 5.322s7.75-.559 12.48-1.966c4.05-1.205 10.123-3.208 9.956-4.246-.184-1.148-.87-1.64-1.724-2.429-2.208-2.04-4.595-1.864-7.565-1.41-3.493.535-4.95 2.529-7.714 4.73m39.755-4.82c-.816-.089-4.117 3.355-4.117 4.32 0 1.169 1.833 2.28 2.689 2.762 1.23-.606 3.167-1.237 3.449-2.763.21-1.138-.764-4.185-2.021-4.32" fill="#000"/></svg>