<svg width="120" height="45" viewBox="0 0 120 45" fill="none" xmlns="http://www.w3.org/2000/svg"><path d="M27.023 2.635h-1.936s.08-.296.158-.474c.255-.584.63-.93 1.185-1.186.95-.068 2.04-.143 2.965.158.308.1.455.16.593.435-.45.898-1.003 1.837-1.819 2.45-.881.663-2.727.91-2.727.91s-.158 0 .238-.277c.395-.277 2.687-1.117 2.687-1.858a6.3 6.3 0 0 0-1.344-.158m5.192 22.795c-.057.13-9.066 3.88-9.575 4.127-.206.1-.014-.297.16-.565.173-.268 8.94-4.209 9.714-4.32.142-.02-.241.628-.299.758m9.19 11.135c-.698.127-1.8.233-1.8.233s1.307-.846 2.15-1.38c1.505-.95 2.44-1.342 3.883-2.385.617-.446 1.01-.648 1.543-1.192 1.613-1.648 2.364-3.639 2.245-5.882-.468-8.805-2.105-22.595-2.105-22.595V1.202q0-.039.03-.064l.55-.457a.083.083 0 0 1 .122.017c1.173 1.723 2.102 3.606 2.34 5.684a.082.082 0 0 1-.13.076l-1.011-.718a.082.082 0 0 0-.13.066c0 .677.068 1.343.126 2.018.578 6.734 2.035 14.71 1.163 21.042-.183 1.325-1.423 3.115-1.423 3.115-.42.774-.733 1.18-1.356 1.8-.6.6-.992.894-1.73 1.31-.481.271-.775.38-1.287.585-1.197.479-1.911.658-3.18.889" fill="#000"/><path d="M35.418 10.864s.904.154 1.448.115c.073-.006.102-.09.051-.144-1.1-1.16-2.49-2.188-3.908-2.998a.05.05 0 0 0-.046 0l-.21.114a.05.05 0 0 0-.024.041V9.98q0 .02.014.034c.086.083.546.531.828.851.746.848.951 1.487 1.637 2.385.614.805.999 1.238 1.657 1.979l.05.056c1.02 1.15 1.662 1.73 2.736 2.83 1.819 1.86 2.996 2.757 4.7 4.723.847.977 1.444 1.449 2.082 2.573.435.769.636 1.234.888 2.081.145.486.333 1.489.468 2.262.028.16.266.154.282-.01.067-.665.143-1.478.162-1.901.02-.438.047-.687 0-1.123-.076-.718-.248-1.105-.514-1.777-.4-1.008-.771-1.512-1.38-2.408-.884-1.303-1.563-1.897-2.62-3.064-2.149-2.375-5.845-5.753-5.845-5.753l-1.52-1.66zM55.1 6.056c-.5-2.027-1.824-5.11-1.824-5.11-.388.614-1.027 1.245-.975 2.015.02.288.22.705.22.705l.563 13.641c.125 3.026.452 6.038.537 9.067.061 2.218.022 5.457.006 6.556a.08.08 0 0 0 .154.034c.196-.436.524-1.196.69-1.772.27-.933.342-1.483.427-2.45.348-3.955-.261-7.929-.427-11.88a748 748 0 0 0-.522-10.724c-.005-.068.127-.119.127-.119.083.136 1.108 1.095 1.121.738.01-.26-.036-.452-.097-.7m9.935 9.105c-.058.13-9.067 3.88-9.575 4.127-.206.1-.014-.296.16-.564.172-.269 8.939-4.209 9.714-4.32.141-.02-.242.627-.3.757m2.901 24.888c-.058.13-9.067 3.88-9.575 4.127-.206.1-.014-.297.159-.565s8.94-4.208 9.714-4.32c.142-.02-.24.628-.299.758M85.035 1.896h-2.133s.088-.326.174-.523c.282-.642.695-1.024 1.306-1.306 1.046-.074 2.248-.157 3.266.174.339.11.501.176.653.48-.496.989-1.105 2.023-2.003 2.699-.971.73-3.004 1-3.004 1s-.174 0 .261-.304c.435-.305 2.96-1.23 2.96-2.046a7 7 0 0 0-1.48-.174m-2.669 37.791 1.435-2.7a.12.12 0 0 0-.028-.15c-.886-.735-2.445-1.508-3.084-1.85a.125.125 0 0 0-.173.056L79.26 37.73a.124.124 0 0 0 .045.156l2.886 1.847c.06.039.142.018.176-.046m25.417-27.08 1.436-2.7a.12.12 0 0 0-.028-.15c-.886-.735-2.446-1.508-3.084-1.85a.125.125 0 0 0-.173.056l-1.257 2.686a.123.123 0 0 0 .045.157l2.886 1.847a.122.122 0 0 0 .175-.046" fill="#000"/><path fill-rule="evenodd" clip-rule="evenodd" d="m107.656 4.67-.906-.705s.491-1.35.353-2.216c-.185-1.15-1.233-.956-2.065-.352-.672.487-1.136.984-1.108 1.813.03.869.912 1.364 1.46 1.913l-1.309 1.26s-.876.798-1.511 1.208c-1.306.844-3.288 2.065-4.346 2.467-.154.108-.15.193-.287.303 0 0 .308-.09.504-.152 2.762-.872 5.659-2.605 7.554-4.834l1.108.604zm-2.719-2.165c-.308.536.853.965 1.158 1.108.086-.202.066-.907 0-1.108-.065-.202-.135-.302-.352-.302s-.653.036-.806.302M18.86 1.346s1.418 2.777 1.973 4.608c.068.225.118.398.114.635-.006.324-1.074-.53-1.162-.653 0 0-.134.048-.128.11.096 1.03.41 5.28.724 9.718l.054.772c.177 2.517.35 5.039.477 7.018a8 8 0 0 0 .654-1.01c.17-.31.312-.634.454-.958.144-.327.287-.655.459-.968.048-.087.083-.17.116-.247.075-.178.14-.33.324-.463.111-.08.213-.102.321-.126a1.2 1.2 0 0 0 .253-.077c.408-.186.716-.502 1.024-.82.382-.392.765-.786 1.342-.937 3.046-.8 3.143 4.087 2.164 5.814-.247.434-.778 1.014-.778 1.014-1.825 0-3.64-1.459-4.766-2.772 0 0-.624 2.233-1.448 3.44.06 1.018.095 1.704.092 1.897-.02 1.122-.05 2.197-.268 3.305-.192.97-.368 1.778-.928 2.66-.34.535-.097-4.01-.078-5.058l-.092-1.312a23 23 0 0 1-1.884 1.66c-.486 1.64-1.55 3.79-1.741 5.608 1.541-.666 2.817-1.185 3.091-1.224.142-.02-.241.627-.299.757-.02.047-1.246.582-2.815 1.252.03.526.165 1.008.445 1.422 3.02 4.468 7.827-3.973 10.11-5.468 2.285-1.495 11.174-4.32 11.34-6.064.079-.83-3.888-3.005-6.147-4.61-1.857-1.32-3.126-1.795-4.735-3.406-1.06-1.061-2.41-2.99-2.41-2.99s-.255-2.534.665-3.656c2.285-2.782 18.56-10.42 20.726-8.556 1.495 1.288-4.262 7.79-5.067 8.556 0 0 .727-1.88 1.37-2.907.284-.453 3.046-3.059 2.243-3.697-1.412-1.121-18.773 6.604-19.272 8.557-.18.702 4.278 1.869 3.905 2.2-.477.425-1.62.209-1.62.209s.88.968 1.495 1.536c2.605 2.406 9.353 4.361 9.594 7.933.416 6.147-8.698 6.484-12.21 9.553-1.686 1.472-2.451 2.534-4.023 4.334-.642.736-1.13 1.096-2.046 1.437-1.853.69-3.838-.265-4.615-2.046-.274-.629-.387-1.343-.404-2.057-2.618 1.114-5.807 2.45-6.104 2.595-.206.1-.014-.297.16-.565.103-.16 3.262-1.626 5.96-2.807q.028-.423.084-.823c.207-1.515.838-3.033 1.513-4.462-2.24 1.627-4.763 2.908-7.297 3.884-2.162.833-4.631 1.232-6.968 1.61-.967.155-1.91.308-2.801.486 1.612-.782 3.384-1.533 5.178-2.293 2.007-.85 4.041-1.712 5.91-2.642l.508-.253h.001c2.623-1.303 5.25-2.607 7.468-4.547q.285-.25.554-.498l-1.474-21.13s-.215-.375-.24-.636c-.07-.698.57-1.28.955-1.842m8.149 20.793c.462-.32-.281-1.585-.575-1.791-.372-.262-2.136-.237-1.994.371.127.55 2.152 1.709 2.569 1.42M70.664 1.066s1.229 2.888 1.691 4.787c.057.232.099.412.09.655-.014.335-.97-.566-1.048-.693 0 0-.123.047-.12.11.063 1.065.297 6.559.475 11.141l.005.132c.444.456.867.904 1.247 1.324 1.18 1.304 1.939 1.968 2.927 3.423.68 1.002 1.096 1.565 1.541 2.692.298.75.49 1.183.575 1.985.052.488.023.765 0 1.255a50 50 0 0 1-.18 2.125c-.02.182-.285.19-.316.01-.15-.864-.36-1.984-.523-2.527-.282-.947-.506-1.467-.993-2.326-.712-1.256-1.38-1.783-2.325-2.874a35 35 0 0 0-1.833-1.959c.163 4.347.291 8.183.272 8.69-.293 3.527-2.632 4.633-5.23 6.598-3.63 2.746-11.159 6.666-14.8 2.76-.47-.505-.858-1.19-1.156-1.977-2.103.47-4.48.915-6.19.985 0 0 3.183-1.381 5.75-2.508-.647-3.035-.216-6.761 1.483-8.184.04-.034.098 0 .09.053-.414 2.5-1.071 5.258-.214 7.533.989-.437 1.708-.76 1.813-.82 1.808-1.042 13.187-5.774 12.848-8.146-.141-.994-1.518-1.032-2.447-1.058a9 9 0 0 1-.499-.023c-2.062-.184-3.163-1.244-2.623-3.472.54-2.23 2.449-3.042 4.359-1.851 2.491 1.553 2.636 6.56 1.21 8.828C64.87 30.396 55.732 35.2 55.732 35.2s-1.18.334-2.838.742c.411.459.929.88 1.575 1.257 2.102 1.222 4.027.639 6.372 0 3.126-.852 7.855-4.208 9.677-6.93.513-1.175.366-2.35.366-2.35l-.341-8.879a72 72 0 0 1-2.085-2.035c-1.2-1.228-1.916-1.877-3.057-3.161l-.056-.063c-.735-.828-1.165-1.312-1.851-2.21-.766-1.004-.995-1.718-1.83-2.666a21 21 0 0 0-.924-.951.05.05 0 0 1-.016-.038v-2.22q0-.031.027-.046l.235-.128a.05.05 0 0 1 .05 0c1.586.906 3.14 2.055 4.368 3.35.056.06.024.155-.058.161-.608.044-1.617-.128-1.617-.128l1.045 1.333 1.699 1.855s1.948 1.781 3.947 3.756L69.95 3.61s-.187-.391-.204-.66c-.047-.722.553-1.31.918-1.883M64.87 21.645c-.378-.585-.931-1.263-1.672-1.28-.383-.01-1.019.03-1.144.508-.367 1.4 2.12.91 2.8.775zm37.14-1.718c-.54 2.227.56 3.287 2.623 3.471.138.013.309.018.499.023.929.026 2.305.064 2.447 1.058.131.916-1.485 2.184-3.623 3.456a20 20 0 0 1 .627-1.935s-.432.912-.841 2.06c-3.38 1.98-7.925 3.939-9.011 4.564-.382.22-8.921 3.928-8.921 3.928 3.816-.157 10.957-2.182 10.957-2.182s3.298-1.734 6.295-3.696c-1.358 11.298 11.566.999 15.061-1.642 1.137-.858 1.646-1.813 1.828-3.28.456-3.692-2.335-4.586-5.068-6.106-1.586-.883-3.049-1.603-4.303-2.926a.082.082 0 0 1 .043-.136l1.207-.255a.083.083 0 0 0 .021-.155l-3.904-2.01c-.658 0-.307 2.327.083 2.782.147.171.319.155.499.29 1.033.778 1.617 2.136 2.616 2.991 1.804 1.545 7.85 3.53 8.099 5.067.112.687-.613 1.074-1.121 1.412-2.694 1.798-11.826 9.942-14.122 5.441-.278-.545-.39-1.175-.393-1.835 1.777-1.198 3.365-2.444 3.971-3.409 1.425-2.267 1.281-7.275-1.21-8.828-1.911-1.191-3.819-.379-4.359 1.852m3.896.887c-.379-.585-.931-1.262-1.672-1.28-.384-.01-1.019.03-1.144.508-.367 1.4 2.119.91 2.8.775z" fill="#000"/><path d="M82.808 15.938c-.186.288-.392.714-.17.606.343-.166 4.298-1.822 7.202-3.062l.179 2.366.059 4.819c-.186.206-.507.682-.976.912-2.106 1.032-6.226 1.93-6.226 1.93s-.693 1.933-.802 2.41c-.012.05.024.094.077.1l9.447 1.027c.109.014.128.163.026.204-1.89 1.021-4.504 2.731-6.728 2.762-3.766.052-3.515-4.261-3.687-7.1-.19-3.14-.104-4.91-.313-8.048q-.041-.628-.074-1.184c1.655-.707 2.939-1.268 2.961-1.319.062-.14.473-.835.321-.813-.295.042-1.67.602-3.329 1.32-.095-1.634-.25-4.604-.573-6.555-.326-1.977-1.033-5.096-1.214-5.773a.05.05 0 0 0-.097-.006c-.102.252-.314.795-.412 1.193-.19.767-.208 1.995-.21 2.085q0 .006.002.01c.026.12.515 4.166.717 5.607.225 1.61.259 2.634.34 4.071-2.704 1.197-5.556 2.53-5.657 2.687-.186.288-.393.714-.171.606.293-.142 3.22-1.37 5.877-2.498l.003.046c.272 4.107.549 6.48.392 10.53-.047 1.224-.046 1.936-.392 3.11-.321 1.09-.632 1.672-1.228 2.64-.44.714-.694 1.125-1.28 1.724-.596.608-1.035.834-1.725 1.333-1.612 1.164-2.657 1.603-4.338 2.665-.943.596-2.404 1.542-2.404 1.542s1.233-.12 2.012-.262c1.418-.258 2.216-.457 3.554-.992.572-.23.9-.35 1.437-.654.825-.465 1.263-.794 1.934-1.463.697-.695 1.046-1.148 1.515-2.012.521-.959.642-1.583.915-2.64.198-.765.392-1.985.392-1.985.24 2.398 1.19 4.915 4.026 4.893 2.107-.016 3.913-1.42 5.731-2.284 2.57-1.221 4.96-2.111 7.809-2.48l3.195-.152a.11.11 0 0 0 .086-.068l1.077-2.324a.11.11 0 0 0-.032-.12l-.235-.19a.1.1 0 0 0-.062-.024l-3.68-.071-2.024-.216c-2.205-.241-4.338-.44-6.51-.946a.107.107 0 0 1-.055-.176c.195-.215.573-.646.792-.99.402-.631.538-1.053.764-1.75l.019-.06c.481-1.488.47-3.978.47-3.978l-.01-.18-.043-.78c-.06-1.071-.116-2.127-.171-3.131.954-.414 1.594-.702 1.61-.738.062-.14.473-.835.32-.813-.209.03-.962.32-1.975.743-.123-2.175-.242-4.05-.373-5.235-.008-.078.139-.143.139-.143.103.151 1.327 1.19 1.322.781-.004-.298-.067-.515-.15-.795C91.52 4.362 89.837.914 89.837.914c-.41.722-1.105 1.478-1.002 2.355.038.328.29.794.29.794l.653 8.613c-3.002 1.3-6.851 3.079-6.97 3.262" fill="#000"/></svg>