<svg width="100" height="66" viewBox="0 0 100 66" fill="none" xmlns="http://www.w3.org/2000/svg"><path d="M71.546 3.671H69.14s.099-.367.196-.589c.318-.724.784-1.155 1.473-1.473 1.18-.084 2.535-.177 3.683.196.383.125.566.199.737.54-.56 1.117-1.246 2.283-2.26 3.045-1.094.823-3.387 1.13-3.387 1.13s-.197 0 .294-.344c.492-.344 3.34-1.388 3.34-2.308a8 8 0 0 0-1.67-.197M59.295 31.076H56.15s.13-.48.257-.77c.415-.946 1.023-1.509 1.924-1.924 1.541-.11 3.313-.232 4.812.256.5.163.74.26.963.706-.731 1.458-1.627 2.983-2.952 3.978-1.431 1.076-4.427 1.476-4.427 1.476s-.256 0 .385-.45c.642-.449 4.363-1.812 4.363-3.015a10.2 10.2 0 0 0-2.181-.257m-20.3 28.254c-.09.18-13.076 4.884-13.811 5.199-.298.127 0-.42.262-.788.263-.368 12.919-5.356 14.022-5.461.201-.02-.383.87-.473 1.05" fill="#000"/><path fill-rule="evenodd" clip-rule="evenodd" d="m74.336 16.692-1.053-.819s.57-1.568.41-2.572c-.214-1.337-1.431-1.11-2.398-.41-.78.566-1.319 1.143-1.286 2.105.034 1.01 1.058 1.585 1.696 2.222l-1.52 1.462s-1.018.927-1.755 1.403c-1.516.98-3.818 2.397-5.046 2.865-.18.124-.174.224-.333.35 0 0 .358-.103.585-.175 3.207-1.013 6.57-3.025 8.77-5.613l1.286.702zm-3.158-2.514c-.358.622.99 1.12 1.345 1.286.1-.234.076-1.052 0-1.286s-.157-.351-.41-.351c-.25 0-.757.042-.935.35" fill="#000"/><path fill-rule="evenodd" clip-rule="evenodd" d="M92.318.316s2.242 4.742 3.14 7.882c.11.384.192.682.192 1.089 0 .559-1.657-.881-1.794-1.09 0 0-.203.087-.193.193.102 1.034.347 3.951.653 7.718 2.91-1.11 5.078-1.893 5.602-1.983.36-.062-.574 1.167-.713 1.41-.037.066-1.964.837-4.779 1.937.19 2.362.4 4.983.608 7.645l.104 1.328c.686 8.78 1.345 17.594 1.345 18.6 0 1.933-.017 3.787-.32 5.703-.267 1.676-.513 3.075-1.346 4.613-.505.932-.257-6.91-.257-8.715l-2.205-28.368a3686 3686 0 0 1-11.632 4.485c.203 2.404.493 4.748.919 6.94.16.828.609 2.07.609 2.07 1.872-.613 4.436-1.323 6.048.244.965.938 1.113 2.507 1.177 3.775.114 2.242-.905 4.864-3.613 4.343-2.206-.424-3.727-2.51-4.79-4.343a122 122 0 0 0-12.46 5.967c6.918 1.842 13.734 3.384 20.863 4.018 1.362.121 2.395 0 3.531.73l-1.623 3.126c-2.85 0-5.806-.259-8.646 0-5.48.5-10.967 2.982-16.358 4.14-2.493.536-3.894.831-6.413 1.218-4.002.615-8.045 1.01-12.097.975-3.6-.031-7.282-.276-10.797-1.096-3.711-.866-6.214-2.014-6.94-5.886-.31-1.652-.192-3.204.243-4.83 0 0-1.556-1.392-2.314-2.476-.474-.678-.91-2.106-1.867-2.233-1.806-.24-6.982 4.425-7.266 6.251-.383 2.465 5.083 2.873 6.454 3.288 1.603.485 3.368.5 4.222 2.192 1.664 3.3-1.935 6.565-4.222 8.321-3.351 2.573-8.083 4.98-12.177 5.926-4.278.989-9.831.934-12.015-3.612-2.742-5.708-.326-12.494 2.963-17.414 0 0-1.081 2.766-1.624 4.587-.716 2.404-1.5 4.944-.933 7.469.462 2.058 1.578 3.853 3.41 4.952 3.124 1.875 6.731 1.082 9.944 0 3.626-1.221 7.169-2.988 10.432-4.993 7.266-4.465-2.162-3.55-5.56-5.236-1.058-.525-1.748-1.012-2.152-2.192-.638-1.863.237-4.644 1.015-6.332 1.256-2.727 6.697-8.403 9.62-6.332 1.535 1.087 1.598 4.682 3.977 4.505 0 0 1.168-2.429 2.07-3.897 2.144-3.484 5.238-7.822 9.824-7.752 3.308.05 6.914 2.95 7.022 6.372.085 2.694-1.767 4.664-3.775 6.17-2.45 1.839-5.654 3.191-8.687 3.613-2.498.347-4.809.06-7.184-.772-.479 1.143-.539 2.222-.163 3.41 1.731 5.468 17.146 4.62 22.795 4.31l.14-.007c7.848-.43 15.532-1.627 22.852-4.546 0 0-8.34-2.223-13.8-3.004-.587-.084-1.503-.203-1.503-.203.167-.989.517-1.87 1.218-2.598.934-.97 2.322-1.462 3.49-2.07 4.587-2.388 9.147-4.82 13.767-7.144 0 0-.811-4.043-1.183-6.657a85 85 0 0 1-.328-2.563c-3.688 1.416-6.51 2.5-6.912 2.668-.52.216-.055-.53.37-1.041.135-.163 2.796-1.307 6.42-2.8-.182-1.903-.279-3.646-.443-6.046-.32-4.67-.487-11.975-.487-11.975s-.338-.64-.385-1.089c-.125-1.2.838-2.223 1.41-3.204 0 0 2.243 4.742 3.14 7.882.11.384.192.682.192 1.09 0 .558-1.656-.882-1.794-1.09 0 0-.203.087-.192.192.092 4.258.143 8.938.47 13.458a779 779 0 0 1 11.621-4.628L91.292 4.61s-.338-.64-.384-1.09c-.125-1.2.838-2.223 1.41-3.203M83.956 34.98s.364.553.69.812c.616.49 3.45 1.664 2.841-.122-.391-1.148-2.616-.988-3.531-.69m-46.274.122c-1.925 1.57-3.313 3.84-4.546 5.967 4.262 2.151 16.204-1.42 16.52-4.14.069-.59-.97-1.435-1.38-1.827-1.127-1.078-3.208-2.028-4.749-2.192-2.226-.238-4.176.831-5.845 2.192" fill="#000"/></svg>