<svg width="100" height="57" viewBox="0 0 100 57" fill="none" xmlns="http://www.w3.org/2000/svg"><path d="m74.029 28.637 1.855-3.487a.156.156 0 0 0-.037-.195c-1.145-.95-3.16-1.949-3.985-2.39a.16.16 0 0 0-.223.073l-1.624 3.47a.16.16 0 0 0 .058.202l3.729 2.387a.16.16 0 0 0 .227-.06" fill="#000"/><path d="m78.985 28.192 1.855-3.488a.156.156 0 0 0-.037-.194c-1.145-.95-3.16-1.95-3.985-2.391a.16.16 0 0 0-.223.073l-1.624 3.47a.16.16 0 0 0 .058.203l3.729 2.386a.16.16 0 0 0 .227-.06" fill="#000"/><path fill-rule="evenodd" clip-rule="evenodd" d="m34.139 11.114-1.34-1.042s.725-1.997.52-3.276c-.271-1.701-1.82-1.413-3.051-.52-.993.72-1.68 1.453-1.638 2.68.044 1.284 1.348 2.017 2.159 2.828l-1.936 1.86s-1.295 1.181-2.233 1.787c-1.93 1.248-4.86 3.052-6.424 3.648-.229.158-.222.285-.424.447 0 0 .455-.133.744-.224 4.084-1.29 8.366-3.851 11.166-7.146l1.638.893zm-4.02-3.201c-.456.792 1.26 1.427 1.712 1.638.126-.298.097-1.34 0-1.638s-.2-.447-.521-.447c-.32 0-.965.054-1.191.447" fill="#000"/><path d="M31.106 19.538h-.309a.1.1 0 0 0-.1.07c-.14.398-.819 2.416-.463 3.479 1.189 3.548 2.95 7.012 4.135 10.478.754 2.21-6.24 5.772-8.012 6.88-8.363 5.227-16.92 8.71-26.065 12.295a.1.1 0 0 0-.036.024l-.224.224a.11.11 0 0 0 .007.159l.193.16q.037.034.085.025c.795-.16 11.67-2.368 16.878-3.932 3.504-1.052 6.593-3.295 9.675-5.256 2.667-1.697 6.05-3.943 7.895-6.595.826-1.188 1.085-2.38 1.294-3.816.249-1.71-.089-3.115-.552-4.754-.495-1.75-1.82-4.32-2.201-5.042a.108.108 0 0 1 .115-.157l1.281.22a.11.11 0 0 0 .103-.038l.118-.148a.11.11 0 0 0-.004-.14l-3.733-4.1a.1.1 0 0 0-.08-.036" fill="#000"/><path d="m45.77 22.732-6.546-3.194s-.617 3.39-.16 4.072c.431.643.942.759 1.517 1.277 1.722 1.551 2.185 2.94 3.992 4.391 3.205 2.575 7.454 3.373 10.618 5.908 3.238 2.595 1.44 3.313-1.437 5.43-3.72 2.736-5.866 4.217-9.9 6.466-2.355 1.314-6.492 4.363-9.34 2.795-3.532-1.945-1.097-8.967-.036-11.803a.16.16 0 0 0-.037-.166l-.084-.084a.158.158 0 0 0-.257.048c-.417.951-2.102 4.931-2.381 7.773-1.677 17.086 14.086 5.015 20.838-.24 3.497-2.721 6.353-4.754 5.908-9.74-.515-5.762-6.507-6.205-10.619-8.702-1.7-1.033-3.24-2.006-4.47-3.593h2.395zm33.085-19.77h-2.953c.34-1.02.84-1.927 1.857-2.397.736-.052 5.24-.305 5.428.611.164.8-1.644 2.886-2.35 3.525-.603.546-1.433.752-1.433.752l-3.07.898c-.127.037-.195-.074-.088-.154.904-.675 3.452-2.053 4.309-2.506 0 0 .404-.231.352-.376-.117-.33-1.617-.348-2.052-.353m2.285 11.864c-.083.18-14.19 5.483-14.892 5.813-.285.134.253-1.017.497-1.386.244-.37 13.749-5.54 14.811-5.672.194-.024-.334 1.064-.416 1.245M59.311 50.353c-.082.18-14.19 5.483-14.891 5.813-.285.134.252-1.017.496-1.386.244-.37 13.75-5.54 14.812-5.672.194-.024-.335 1.064-.417 1.245" fill="#000"/><path fill-rule="evenodd" clip-rule="evenodd" d="M90.012 9.265c-.94-3.289-3.279-9.672-3.64-9.245-.363.428-1.553 3.23-1.449 4.233.05.47.501 1.28.501 1.28l1.296 19.171c-.928.389-1.524.662-1.574.737-.244.37-.781 1.52-.497 1.387.156-.074.976-.393 2.157-.848l.602 8.905s.243 4.13 0 6.175c-.185 1.552-.535 1.794-1.143 2.213-.145.1-.304.21-.478.349-1.002.8-3.175.863-3.175.863l-4.399-.306s1.49-2.41 1.782-4.149c.566-3.367-.147-8.084-2.45-8.408-1.977-.279-5.271 3.603-6.237 7.072-.751 2.7.418 5.79.418 5.79s-2.784 1.226-5.234.53c-2.202-.626-2.534-4.928-2.534-4.928s-.473-14.757-.78-23.332c-.114-3.206-.509-7.211-.668-8.186l-.088-.546c-.333-2.057-.606-3.74-1.22-5.3-.266-.676-.728-1.605-.93-2.004a.108.108 0 0 0-.196.002c-.19.4-.613 1.323-.823 2.001-.201.648-.392 1.666-.416 1.796v.01l.002.016c.062.186.819 2.49 1.165 4.025.431 1.91.752 4.956.752 4.956l1.058 26.812s.214 4.035 1.114 5.959c.83 1.775 1.615 2.725 3.174 3.257 1.141.39 3.108.333 4.872-.139 1.309-.35 3.286-1.865 3.286-1.865s3.128 1.197 5.234 1.447c1.641.195 2.594.219 4.232 0 1.67-.222 3.37-2.533 3.37-2.533 2.441-2.84 2.763-8.77 2.56-13.56a483 483 0 0 0-.44-7.846c2.003-.767 4.333-1.658 6.272-2.408l.136 1.71 1.03 16.939c-.041 1.603-.46 8.56.056 7.743.854-1.348 1.127-2.586 1.426-4.07.342-1.694.4-3.34.443-5.057.02-.831-.451-9.053-.891-16.295q-.055-.891-.117-1.781c1.18-.466 1.95-.782 1.97-.823.082-.18.611-1.269.416-1.245-.25.031-1.187.34-2.479.801-.303-4.02-.701-8.034-1.037-12.053-.008-.094.193-.167.193-.167.131.187 2.364 2.207 2.377 1.71.009-.361-.065-.627-.165-.97-.722-2.498-3.103-7.465-3.618-8.527-.043-.088-.174-.093-.228-.01-.59.893-1.445 2.382-1.445 3.52 0 .415.634 2.232.634 2.232l1.194 15.028a316 316 0 0 0-6.251 2.394c-.395-6.198-.875-12.945-1.056-14.777-.01-.11.202-.201.202-.201.144.218 1.935 2.242 1.935 1.657 0-.427-.086-.739-.2-1.141m-11.66 31.071c.544-.926-1.336-4.114-1.865-4.315-1.392-.531-4.204 4.315-4.204 4.315s1.531 2.618 2.812 2.618c.835 0 2.784-1.81 3.258-2.618" fill="#000"/></svg>