<svg width="119" height="46" viewBox="0 0 119 46" fill="none" xmlns="http://www.w3.org/2000/svg"><path d="M20.252 40.115c-.08.175-12.322 5.117-13.013 5.444-.28.132-.014-.402.224-.762s12.155-5.563 13.204-5.702c.192-.025-.335.845-.415 1.02M12.553 25.78s-.708.152-1.166.135c-1.4-.052-1.89-.94-1.659-2.331.234-1.402 1.322-2.747 2.197-3.811.737-.737.645 1.724.135 2.197-.196.18-.408.118-.628.268-.393.27-.615.603-.672 1.076.842.576 1.869.394 2.824.27 0 0 .26.21.314.403.314 1.12-.896 2.994-1.57 3.766-1.018.263-2.12.628-3.182.583.217-.72 1.084-.966 1.614-1.256.683-.373 1.27-.71 1.793-1.3" fill="#000"/><path fill-rule="evenodd" clip-rule="evenodd" d="m76.842 13.25-1.012-.788s.548-1.507.393-2.473c-.205-1.285-1.376-1.067-2.305-.394-.75.544-1.268 1.098-1.236 2.024.033.97 1.017 1.524 1.63 2.136l-1.462 1.406s-.977.891-1.686 1.349c-1.458.942-3.671 2.304-4.852 2.754-.172.12-.167.215-.32.337 0 0 .344-.1.563-.168 3.083-.974 6.317-2.909 8.432-5.397l1.236.675zm-3.036-2.418c-.344.598.952 1.077 1.293 1.237.095-.225.073-1.012 0-1.237s-.151-.337-.394-.337c-.242 0-.728.04-.899.337" fill="#000"/><path d="M29.291 2.046H26.99s.094-.351.188-.564c.304-.693.75-1.105 1.41-1.41 1.128-.08 2.425-.17 3.524.189.366.119.541.19.705.516-.536 1.069-1.192 2.185-2.162 2.914-1.048.788-3.242 1.08-3.242 1.08s-.188 0 .282-.328c.47-.329 3.195-1.328 3.195-2.209a7.5 7.5 0 0 0-1.598-.188m10.131 0h-2.302s.094-.351.188-.564c.304-.693.75-1.105 1.41-1.41 1.128-.08 2.425-.17 3.524.189.366.119.541.19.705.516-.536 1.069-1.192 2.185-2.162 2.914-1.048.788-3.242 1.08-3.242 1.08s-.188 0 .282-.328c.47-.329 3.195-1.328 3.195-2.209a7.5 7.5 0 0 0-1.598-.188m75.474 12.563c-.074.17-11.782 5.134-12.442 5.46-.268.132-.021-.387.202-.738.224-.35 11.614-5.56 12.623-5.711.184-.028-.309.819-.383.989M97.795 39.964c-.076.173-12 5.23-12.673 5.562-.273.135-.021-.393.206-.75.228-.358 11.83-5.666 12.857-5.82.187-.028-.315.834-.39 1.008M57.76 7.238c-.69-2.419-2.419-6.072-2.419-6.072-.44.755-1.182 1.543-1.086 2.468.036.346.296.84.296.84L55.906 21.9s.564 5.611.492 9.213c-.028 1.43-.107 3.274-.044 4.901a.164.164 0 0 0 .32.048c.477-1.344.837-2.71 1.025-4.142.13-.992.179-2.555.179-2.555l-.364-8.068-.08-1.023c-.462-5.887-.922-11.521-1.056-12.888-.008-.081.148-.148.148-.148.106.16 1.382 1.27 1.382.84 0-.314-.063-.543-.148-.84m16.123 18.54s-.708.152-1.166.135c-1.4-.052-1.89-.94-1.659-2.332.233-1.401 1.322-2.746 2.197-3.81.737-.737.645 1.724.135 2.197-.196.18-.408.118-.628.269-.393.269-.615.602-.672 1.076.842.575 1.868.393 2.824.268 0 0 .26.212.314.404.314 1.12-.896 2.994-1.57 3.766-1.018.263-2.12.628-3.183.583.27-.673 1.085-.966 1.615-1.256.683-.373 1.27-.71 1.793-1.3" fill="#000"/><path fill-rule="evenodd" clip-rule="evenodd" d="m43.039 18.236-1.004-.78s.543-1.496.39-2.454c-.203-1.274-1.364-1.058-2.285-.39-.744.54-1.258 1.089-1.227 2.007.033.962 1.01 1.51 1.617 2.119l-1.45 1.393s-.886.808-1.578 1.276c-.026-1.629-.06-3.278-.202-5.357-.155-2.262-.195-3.536-.493-5.783-.187-1.407-.303-2.196-.583-3.587-.241-1.2-.387-1.871-.717-3.049a58 58 0 0 0-.449-1.48s-.386.27-.582.494c-.698.8-.404 2.69-.404 2.69s.171.709.27 1.166c.413 1.937.464 3.056.716 5.02l.026.203c.176 1.362.281 2.186.423 3.608.21 2.12.33 4.754.4 7.083-1.202.736-2.501 1.478-3.31 1.786-.172.119-.167.213-.318.334 0 0 .34-.098.557-.167a19.6 19.6 0 0 0 3.09-1.283c.075 2.839.074 5.07.074 5.07 0 1.985-.1 4.176-1.57 5.693-.873.903-2.07 1.404-3.317 1.48-3.685.223-3.886-3.484-4.107-6.367-.132-1.711-.075-2.678-.135-4.393-.137-3.906-.095-6.106-.448-9.998-.277-3.04-.413-4.757-.987-7.756-.273-1.426-.807-3.631-.807-3.631l-.448-.314s-.318.612-.448 1.031c-.36 1.154-.07 1.888 0 3.094.081 1.392.28 2.157.448 3.542.282 2.326.488 3.626.672 5.962.122 1.538.165 2.403.225 3.945.131 3.377 0 8.653 0 8.653-1.525 3.138-6.765 5.811-9.998 6.994-2.373.868-5.026 1.604-7.576 1.3-2.756-.329-6.283-1.684-6.635-4.842-.193-1.728.478-3.52 1.083-5.118.011-.03-.03-.05-.047-.024-.774 1.167-1.47 2.367-1.709 3.752-2.689 15.576 23.133 8.518 25.196-1.21l.002.084c.072 2.277.192 6.11 2.194 7.671 1.422 1.11 4.617.84 6.036-.274 1.897-1.25 2.601-3.16 2.824-5.374.429 1.925.584 4.647 2.645 5.514 2.718 1.143 5.944-.73 8.204-2.062.33.64.742 1.202 1.211 1.748 1.463 1.702 4.38 3.229 5.649.314.809-1.858.786-4.503-1.076-5.739-1.446-.959-3.321-.542-4.842 0-1.023-2.452-1.032-5.105-1.3-7.71-.57-5.529-.933-11.163-.897-16.723.35.438.892 1.149 1.524 1.076.049-1.437-.634-2.506-1.12-3.81-.387-1.04-.575-1.635-1.031-2.646a42 42 0 0 0-.404-.851h-.448s-.434.792-.583 1.345c-.196.728-.34 1.201-.134 1.927.083.295.143.464.313.718.05.072.135.179.135.179s-.051 1.83-.045 3.004c.014 2.506.18 3.908.314 6.41.174 3.258.15 5.095.493 8.34l.008.075c.333 3.153.676 6.404 1.471 9.474-1.52 1.291-3.619 2.236-5.648 1.972-2.105-.274-2.519-1.838-2.915-3.766-.282-1.376-.177-2.185-.269-3.586a99 99 0 0 1-.188-5.09c1.393-.891 2.668-1.957 3.684-3.152l1.226.67zm-3.011-2.398c-.341.594.944 1.069 1.282 1.227.095-.223.073-1.004 0-1.227-.073-.222-.15-.334-.39-.334s-.723.04-.892.335m12.874 19.803s-.09-.354-.225-.538c-.62-.844-2.139-.68-3.003-.493.548.8 1.523 1.545 2.555 1.39.288-.044.49-.123.672-.359" fill="#000"/><path d="M93.119 3.538s1.694 3.582 2.372 5.955c.083.29.145.515.145.823 0 .422-1.251-.666-1.355-.823 0 0-.154.065-.146.145.206 2.09.907 12.783 1.095 17.02.056 1.32.127 3.16.127 3.514-.095 2.732-.64 6.149-2.914 7.935-1.419 1.115-3.6 1.11-5.021 0-2.003-1.562-2.123-5.394-2.194-7.671l-.003-.085c-2.062 9.729-27.884 16.786-25.195 1.21.239-1.384.935-2.585 1.709-3.751.017-.027.058-.006.047.024-.605 1.598-1.277 3.39-1.084 5.117.352 3.159 3.88 4.514 6.635 4.842 2.55.304 5.203-.432 7.577-1.3 3.233-1.183 8.473-3.855 9.997-6.994 0 0 .132-5.276 0-8.652a85 85 0 0 0-.224-3.945c-.184-2.337-.39-3.637-.672-5.963-.168-1.384-.367-2.15-.449-3.542-.07-1.206-.359-1.94 0-3.093.13-.42.449-1.031.449-1.031l.448.314s.534 2.204.807 3.63c.574 3 .71 4.716.986 7.757.354 3.892.312 6.092.449 9.997.06 1.716.003 2.682.134 4.394.155 2.014.081 4.82 1.973 6.052 1.256.818 4.11.18 4.438-.672.78-2.021.47-4.384.334-6.503l-1.24-21.46s-.255-.485-.29-.824c-.095-.907.632-1.68 1.064-2.42" fill="#000"/><path fill-rule="evenodd" clip-rule="evenodd" d="M97.868 3.183h-.359c-.506.957-.791 1.924-.717 3.004 1.092 2.53 1.21 4.945 1.34 7.615l.005.096c.337 6.91.179 15.108 1.434 22.192l.017.038c.74 1.693 2.078 2.816 4.018 2.786 3.28-.052 5.429-3.041 6.635-5.783 1.873 1.255 4.003 2.392 6.322 2.33.634-.354.817-.875 1.076-1.523.873-2.192.641-7.916-2.825-7.711-2.314.136-3.413 2.943-4.394 4.622-.985 1.686-1.835 3.49-3.72 4.344-1.409.436-3.467.879-4.797 0-1.05-.693-1.449-2.136-1.525-3.318-.403-6.298-.353-12.617-.717-18.919-.08-1.397-.225-2.784-.37-4.175l-.017-.16c-.196-1.889-.636-3.704-1.406-5.438m14.256 27.213s.472.41.807.628c.863.559 1.872.822 2.869 1.03.868-1.107-.843-2.495-1.927-2.6-.568-.054-1.719.235-1.749.942" fill="#000"/></svg>